<?xml version="1.0" encoding="utf-8"?>
<!-- Generator: Adobe Illustrator 16.0.0, SVG Export Plug-In . SVG Version: 6.00 Build 0)  -->
<!DOCTYPE svg PUBLIC "-//W3C//DTD SVG 1.1//EN" "http://www.w3.org/Graphics/SVG/1.1/DTD/svg11.dtd">
<svg version="1.1" id="圖層_1" xmlns="http://www.w3.org/2000/svg" xmlns:xlink="http://www.w3.org/1999/xlink" x="0px" y="0px"
	 width="359.495px" height="302.886px" viewBox="370.572 -264.877 359.495 302.886"
	 enable-background="new 370.572 -264.877 359.495 302.886" xml:space="preserve">
<g>
	<g>
		<path fill="#FFFFFF" d="M556.158,36.586c-0.191-0.008-0.354-0.006-0.584-0.031C555.574,36.555,555.832,36.578,556.158,36.586z"/>
		<path fill="#FFFFFF" d="M556.158,36.586c0.532,0.023,0.978,0.02,1.28,0.01c0,0-0.468-0.002-0.934-0.004
			C556.388,36.592,556.269,36.59,556.158,36.586z"/>
		<path fill="#FFFFFF" d="M570.815,37.521l0.335-0.316C570.522,37.379,570.267,37.508,570.815,37.521z"/>
		<path fill="#FFFFFF" d="M664.165,1.104c0.714-0.342,1.682-0.893,2.993-1.726L664.165,1.104z"/>
		<path fill="#FFFFFF" d="M488.828,9.322c0.778,0.627,1.325,1.033,1.642,1.219c0.29,0.158,0.436,0.191,0.514,0.162
			c0.156-0.061,0.041-0.375,0.263-0.441c0,0-0.504-0.119-1.162-0.412C489.455,9.585,488.828,9.322,488.828,9.322z"/>
		<path fill="#FFFFFF" d="M391.963-169.169c0.133-0.136,0.267-0.312,0.396-0.428C392.297-169.691,392.153-169.484,391.963-169.169z"
			/>
		<path fill="#FFFFFF" d="M686.209-188.86c0.022,0.04,0.04,0.073,0.069,0.118C686.164-189.212,686.185-189.131,686.209-188.86z"/>
		<path fill="#FFFFFF" d="M403.035-52.609c-0.089-0.064-0.188-0.143-0.289-0.217C401.069-53.328,401.754-53.02,403.035-52.609z"/>
		<path fill="#FFFFFF" d="M714.438-73.415c-0.012-0.075-0.016-0.118-0.022-0.187c-0.017,0.074-0.032,0.17-0.048,0.233
			L714.438-73.415z"/>
		<path fill="#FFFFFF" d="M711.923-71.719c0,0,0.563,1.021,1.118,2.039c0.556,1.045,1.11,2.093,1.11,2.093
			c-0.578-2.597-0.184-3.938,0.215-5.78c0,0-0.602,0.42-1.2,0.836C712.54-72.121,711.923-71.719,711.923-71.719z"/>
		<path fill="#FFFFFF" d="M702.433-154.695c-0.02-0.546-0.005-1.128,0.051-1.753c-0.087-0.843,0.143-2.167,0.229-3.3
			c0.028-1.109-0.001-2.044-0.379-2.118c-0.411,1.793-2.035,2.873-3.564,3.152c-0.316-1.682-0.745-3.449-1.271-5.283l0.515,0.103
			l-0.336-1.003l-0.406,0.143c-0.512-1.709-1.115-3.473-1.803-5.288c0.328-0.324,1.043,0.217,1.764,0.81
			c0.914,0.814,1.829,1.72,1.906,0.486c-0.324-0.009-1.194-1.305-1.571-1.829c-0.378-1.689,1.216,0.352-0.316-3.1
			c-1.249-0.221-3.063-6.972-1.606-1.294c-1.908-3.157-1.335-3.644-3.386-7.428c-0.026,0.761-1.085,0.178-2.375-0.954
			c-0.401-0.36-0.832-0.785-1.27-1.225c-0.763-1.368-1.552-2.739-2.393-4.128c-0.002-0.051-0.008-0.109-0.009-0.153
			c-3.748-6.382-5.705-9.887-9.898-15.474c-0.157-0.666-2.043-3.474-0.707-2.65c-0.815-0.663-1.731-1.149-3.137-2.803
			c-1.858-3.846,3.212,3.643,2.162,0.456c-0.368,0.096-1.443-0.863-2.746-2.081c-1.35-1.184-2.91-2.644-4.118-3.656
			c-0.09,0.682,1.07,2.028,2.554,3.464c1.515,1.417,3.177,3.07,4.357,4.125c-0.398,0.287-1.203,0.096-2.278-0.465
			c-4.801-5.733-10.186-11.388-16.137-16.76c-1.538-1.6-3.96-3.829-6.843-6.085c-1.034-0.848-2.104-1.725-3.177-2.602
			c-1.116-0.832-2.237-1.661-3.33-2.475c-2.165-1.651-4.201-3.247-5.943-4.513c-0.979-0.386-2.343-1.013-2.928-1.124
			c-8.192-5.122-17.063-9.576-26.558-13.067c0.136-0.074,0.197-0.177,0.132-0.333c0.021-0.057-2.103-0.526-3.349-0.796
			c-0.256-0.089-0.512-0.177-0.771-0.262c0.339-0.081,1.293-0.02,0.394-0.455c-0.155,0.156-0.666,0.188-1.357,0.127
			c-2.146-0.696-4.328-1.333-6.538-1.927c-0.046-0.021-0.097-0.041-0.146-0.061c-0.038-0.004-0.066-0.003-0.106-0.007
			c-1.847-0.493-3.714-0.946-5.605-1.362c-0.105-0.038-0.184-0.067-0.319-0.111c-0.26-0.016-0.519-0.075-0.777-0.135
			c-35.264-7.472-77.524-1.308-124.642,30.77c-2.49,1.696-5.002,3.395-7.519,5.104c-1.775,0.392-3.654,0.817-3.896,0.107
			c-2.688,3.547-10.799,4.873-15.265,10.682c-1.478,0.704,0.735-1.208-0.183-0.984c-0.998,1.628-2.65,3.042-6.088,5.278l0.242-0.414
			c-2.195,1.815-4.107,3.346-5.906,4.732c-1.771,1.423-3.401,2.731-5.068,4.067c-1.713,1.292-3.328,2.755-5.215,4.336
			c-1.904,1.563-3.881,3.435-6.186,5.693l1.283-0.173c-1.974,1.925-2.609,2.154-3.612,3.007c-0.522,1.583,0.688,0.082,2.104-1.289
			c1.383-1.398,2.802-2.806,2.334-1.34c-0.938,0.398-2.275,1.45-3.729,2.873c-1.402,1.465-2.966,3.262-4.503,5.028
			c-1.541,1.767-2.875,3.634-4.147,5.028c-1.238,1.418-2.361,2.409-3.078,2.693c-2.348,3.49,1.496-0.533-0.844,2.94l-1.063,0.67
			l-0.014,1.205c-1.652,2.205-2.901,3.107-3.33,3.003c0.362-0.564,0.856-1.69,1.247-2.297c-1.312,1.322-2.43,3.588-3.485,5.539
			c-1.015,1.975-1.877,3.691-2.193,4.216c0.002,0,0.506-0.874,1.105-1.699c0.572-0.837,1.147-1.677,1.147-1.677
			c-1.398,2.494-2.623,5.225-3.975,7.981c-0.644,1.39-1.415,2.752-1.984,4.194c-0.592,1.432-1.188,2.874-1.785,4.313
			c-0.579,1.442-1.207,2.867-1.719,4.313c-0.466,1.456-0.928,2.902-1.382,4.325c-0.888,2.851-1.686,5.624-2.131,8.289l0.611-0.693
			c-1.451,8.081-2.283,6.236-3.656,15.2l-0.035-0.337c0.042,1.837-0.059,4.256-0.385,6.711c-0.254-2.335-1.276,4.247-1.521,1.201
			c-0.043,2.268,0.101,3.693,0.166,4.635c0.09,0.939,0.146,1.398,0.284,1.77c0.263,0.732,0.554,1.103,1.39,4.018l-0.553,1.4
			c0.754,1.979,1.002,2.123,1.942,6.541c-1.305-3.578-0.397,3.052-1.979-0.977c0.114,4.936,1.754,8.424,3.164,11.084
			c0.727,1.34,1.394,2.504,1.976,3.611c0.526,1.139,0.94,2.219,1.14,3.443c2.043,1.504,1.031-0.446-0.137-2.517
			c-0.522-1.069-1.152-2.159-1.483-2.882c-0.316-0.729-0.435-1.043-0.088-0.506c-0.312-2.11,2.678,2.854,4.359,5.355
			c0.386,0.666,0.731,1.291,0.999,2.025c0.29,0.723,0.512,1.563,0.949,2.449c0.826,1.791,2.115,4.164,5.283,6.805
			c-0.61-0.543-0.748-0.484-1.357-1.031c1.986,2.404,5.039,3.402,7.723,6.049c2.404,0.279,4.155,2.604,5.435,1.746
			c0,0-0.418-0.205-1.049-0.514c-0.613-0.334-1.433-0.781-2.246-1.229c-0.828-0.439-1.633-0.906-2.223-1.291
			c-0.597-0.367-0.992-0.614-0.992-0.614c3.752,2.116,7.889,2.851,13.762,6.298c-0.625,0.053-2.635-0.541-4.014-0.984
			c0.815,0.611,1.729,0.979,2.647,1.35c0.934,0.341,1.871,0.675,2.746,1.271c-0.559,0.454-2.713-0.305-5.209-1.521
			c-2.525-1.157-5.366-2.758-7.615-3.559c1.549,1.725,8.107,3.379,5.31,3.547c3.854-0.102,7.243,3.728,13.041,4.351l-0.654,0.604
			c0.88,0.18,2.729,0.426,4.238,0.975l-3.142-0.012c4.547,0.711,7.99,3.379,12.312,4.076c-8.69-2.408-1.655-1.427-5.11-3.021
			c5.459,1.052,6.831,1.879,8.364,2.887c0.765,0.508,1.564,1.039,2.949,1.573c1.25,0.495,3.067,1.021,5.506,1.545
			c-0.771-0.202-1.729-0.53-2.437-0.83c-0.969-0.401-1.393-0.739-0.069-0.625c2.192,0.694,4.974,1.601,6.153,2.382
			c7.479,1.867-0.895-1.08,2.426-0.676c1.134,0.783,2.05,0.997,3.134,1.066c1.08,0.072,2.327,0.008,3.972,0.461l-0.29,0.748
			c2.014,0.834,3.136,1.289,3.876,1.457c0.74,0.176,1.074,0.088,1.384-0.004c0.604-0.172,1.161-0.404,4.481,1.627
			c0,0-0.218-0.041-0.543-0.097c-0.32-0.062-0.755-0.125-1.201-0.174c-0.871-0.104-1.746-0.206-1.746-0.206s0.939,0.364,1.883,0.729
			c0.917,0.402,1.833,0.812,1.833,0.812l-1.205,0.396c4.098,1.455,5.179,2.354,8.128,5.045c-0.354-0.99,1.542-0.83,4.121,1.783
			c1.262,2.129-1.438-0.584,1.865,3.229c-0.549-0.318-1.16-0.605-1.738-1.063c-0.557-0.479-1.102-1.098-1.579-2.119
			c-0.35,0.006-1.181-0.438-1.55-0.4c1.492,2.068,4.188,4.712,5.121,6.238c-0.344-0.577-0.754-1.274-0.917-1.66
			c0,0,1.304,1.248,2.467,2.684c1.19,1.405,2.247,2.98,2.247,2.98c0.21,1.175-0.431,0.432-1.046-0.283
			c0.725,1.301,1.528,2.077,2.447,4.152c-0.876-0.291-1.464,0.004-3.024-2.653c0.002,0,0.904,1.47,1.747,3.071
			c0.85,1.643,1.697,3.281,1.697,3.281c-0.126,0.534,0.665,3.93,0.055,3.08c0.628,2.071,2.038,4.588,4.06,7.182
			c0.979,1.3,2.196,2.574,3.434,3.813c0.674,0.587,1.295,1.218,1.981,1.776c0.645,0.539,1.278,1.074,1.912,1.605
			c0.333,0.08,0.89,0.344,1.968,0.986c4.366,3.275,8.051,6.645,14.313,9.141c0,0,0.658,0.703,1.318,1.408
			c0.677,0.693,1.354,1.385,1.354,1.385c4.742,2.187-3.729-3.596,4.157-0.031c5.661,2.334,1.565,1.855,3.354,3.064
			c3.065,0.813,8.441,1.744,13.426,4.463c-1.879-0.369-3.173-1.084-4.853-1.615c0,0,0.946,0.531,1.895,1.06
			c0.945,0.543,1.921,1.03,1.921,1.03c-5.367-0.771-8.771-2.6-5.326-0.247c0.768-0.912,4.732,0.559,8.804,1.793
			c2.045,0.598,4.104,1.153,5.72,1.446c1.637,0.244,2.825,0.234,3.128-0.27c0,0,0.665,0.285,1.328,0.572
			c0.661,0.293,1.341,0.551,1.341,0.551c-0.81-0.178-0.961-0.111-1.75-0.32c2.584,1.182,3.746,0.926,5.063,0.707
			c1.33-0.217,2.863-0.563,6.375,0.133c2.438,0.556,4.154,0.98,2.406,1.08c0,0,1.428,0.416,2.844,0.43
			c0.702,0.007,1.355-1.202,1.951,0.41c0.527-0.02,0.88-0.033,0.88-0.033c1.345-0.057,1.25-0.014,0.253-0.008
			c0.805,0.029,2.179-0.114,3.576-0.063c1.07,0.061,2.137-0.063,2.939-0.076c0.803-0.006,1.334-0.063,1.334-0.063l-0.063,0.039
			c1.231-0.328,3.979-0.857,5.302-1.191c2.167,0.225-1.07,0.273-0.515,0.529l4.669-0.744c1.961,0.459-1.904,1.24-5.186,1.275
			c4.536,1.985,3.897-0.527,13.527-0.347c0,0-0.273,0.058-0.689,0.146c-0.41,0.099-0.963,0.205-1.521,0.285
			c-1.114,0.177-2.229,0.355-2.229,0.355c3.054,1.016,6.513,0.068,11.728-0.068c-0.634-0.039-3.28-0.113-5.103-0.377
			c-1.824-0.248-2.825-0.637-0.333-1.293c1.453-0.057,3.385-0.205,5.98-1.246c0.186,0.732,2.841,0.121,6.09-0.781l0.062,1.074
			c3.479-1.229,3.036-1.668,4.965-2.666c3.895-1.106,4.973-0.625,6.142-0.268c6.271-1.893-4.729,0.217,2.477-2.451
			c2.582-0.785,4.744-1.566,6.91-2.617c2.133-1.11,4.357-2.336,7.076-3.971c3.488-1.359-0.262,0.863,1.072,0.527l2.521-2.229
			c0.729-0.349,0.632-0.009,0.579,0.164c2.293-1.562-0.302-0.974,3.342-3.275c0.188-0.785,2.328-1.519,4.938-2.541
			c0.65-0.26,1.335-0.527,2.017-0.824c0.663-0.326,1.33-0.674,1.977-1.051c1.291-0.748,2.499-1.605,3.416-2.592
			c1.289-0.465-0.137,0.864,0.454,0.981c2.854-2.298,3.947-3.41,4.982-4.351c1.012-0.965,1.87-1.86,3.903-4.032l4.468-2.56
			c-3.478,1.666-0.346-1.938,2.327-5.059c-0.181,0.076-0.347,0.145-0.517,0.217c0.345-0.281,0.675-0.561,1.018-0.836
			c-0.168,0.203-0.328,0.406-0.501,0.619c0.234-0.102,0.478-0.207,0.721-0.313c0.154-0.308,0.288-0.568,0.432-0.851
			c0.854-0.7,1.692-1.403,2.518-2.104c0.175,0.268-0.18,1.026-0.68,1.912c-0.765,0.349-1.524,0.703-2.27,1.043
			c-0.763,1.539-1.522,2.963-0.812,3.229c0.248-0.36,0.854-0.925,1.504-1.56c-0.204,0.402-0.307,0.695-0.08,0.648
			c0.251-0.063,0.613-0.686,1.249-1.578l1.987-0.107l-0.055-0.577c0,0,1.791-1.269,3.587-2.535c1.771-1.296,3.484-2.662,3.484-2.662
			c0.918-1.267,1.771-2.517,2.634-3.784c0.814-1.305,1.648-2.632,2.54-4.052c1.856-2.763,3.863-5.926,6.757-9.729
			c-0.744,2.389,0.875,1.254,1.668,1.967c-2.66,1.338-4.521,6.058-8.354,9.5c1.951-1.817,1.931-1.088,1.593-0.488
			c0,0,0.348-0.443,0.875-1.118c0.522-0.668,1.233-1.55,1.87-2.495c1.295-1.855,2.595-3.701,2.595-3.701
			c0.567,0.67,1.83-1.039,3.563-2.728c-1.265,0.217-0.453-1.271,0.896-3.199c1.356-1.918,3.019-4.459,3.854-6.063
			c0.634,0.102,0.652,1.115-2.045,4.727c1.976-1.688,2.465-3.279,2.906-4.834c0.389-1.594,0.676-3.184,2.431-4.979
			c-0.554,0.936-0.938,1.387-0.896,1.892c0.978-2.335,4.114-7.667,3.932-6.175l-0.494,0.969c0.438-0.797,0.929-1.693,1.458-2.654
			c0.446-1,0.934-2.066,1.425-3.17c1.035-2.188,1.785-4.619,2.51-6.848c0.656-2.25,1.034-4.373,1.293-5.975
			c0.146-1.627,0.086-2.756-0.224-3.08c0.206-0.039,1.575,1.236,1.777,1.729c0,0-0.14-0.84-0.343-2.098
			c-0.173-1.242-0.531-2.895-0.938-4.516c-0.188-0.828-0.388-1.645-0.589-2.402c0.168-1.305,0.298-2.6,0.399-3.889
			c1.426-0.423,3.12-1.101,3.233,3.004c0.329-1.681,0.839-3.783,0.457-7.373c-0.229,1.162-1.978,2.799-2.034,1.237
			c1.604-4.256,0.875-2.938,2.019-8.288c-0.202,1.729-2.298-0.111-2.416-2.771c0.328,0.398,1.983-0.354,2.256,0.628
			c0,0-0.149-0.421-0.377-1.042c-0.221-0.621-0.517-1.448-0.864-2.258c-0.669-1.619-1.338-3.235-1.338-3.235
			c0.521,1.622,1.735,0.121,2.085-1.451c-0.273,0.739-0.771-5.789-1.333-7.515l0.03,2.877c-0.998-7.541-4.09-6.879-5.58-14.134
			c0.604,0.791,2.979,1.671,2.365-2.078c-0.734-0.805-2.564-2.591-4.453-5.025c-0.662-2.742-1.321-5.456-1.952-8.154
			c2.114,3.213,4.415,6.893,5.774,9.441c-0.204-2.82,0.486-0.911-0.547-4.968c0.188-1.547,1.345,2.04,1.665,3.243l-1.914-9.527
			c-1.095,0.657-2.771-6.946-3.634-6.415c0,0,0.813,2.503,1.708,5.002c0.899,2.498,1.796,4.996,1.796,4.996
			c-1.033,0.661-4.8-5.239-5.883-12.034c0.157-1.788,2.314,0.925,2.695,0.71c-0.6-0.789-1.924-6.21-1.679-6.862
			c0,0,0.261,0.685,0.521,1.371c0.25,0.683,0.545,1.363,0.545,1.363c-0.1-1.88-0.678-3.327-1.223-4.902
			c-0.238-0.783-0.457-1.6-0.576-2.502C702.468-153.721,702.433-154.194,702.433-154.695z M586.035,36.643
			c1.324-1.01,2.463-0.772,4.646-0.832C589.459,36.164,587.025,37.063,586.035,36.643z M671.485-6.346
			c0.808-0.785,1.829-1.555,3.021-2.363C674.063-7.906,672.884-7.137,671.485-6.346z"/>
		<path fill="#FFFFFF" d="M563.348,36.998c-0.423-0.018-0.697-0.025-0.697-0.025C562.925,36.994,563.149,36.998,563.348,36.998z"/>
		<path fill="#FFFFFF" d="M438.42-38.547c0.261,0.064,0.493,0.117,0.695,0.15C438.867-38.445,438.657-38.499,438.42-38.547z"/>
		<path fill="#FFFFFF" d="M667.113-1.029c-0.362,0.11-0.541,0.059-0.71-0.006C666.126-0.646,666.228-0.523,667.113-1.029z"/>
		<path fill="#FFFFFF" d="M491.646,10.383l-0.146-0.117c-0.116-0.024-0.192-0.019-0.254,0L491.646,10.383z"/>
		<path fill="#FFFFFF" d="M698.813-170.92c0.319,1.077,0.351,1.727,0.324,2.171C699.329-168.738,699.418-169.313,698.813-170.92z"/>
		<polygon fill="#FFFFFF" points="622.951,-247.803 619.453,-249.73 620.437,-249.067 		"/>
		<path fill="#FFFFFF" d="M658.354-225.379l-1.81-1.075c0.738,0.902,0.659,1.086,0.938,1.717L658.354-225.379z"/>
		<path fill="#FFFFFF" d="M666.964-217.899c-0.539-0.125-3.778-3.006-1.165-0.058C666.379-217.895,670.68-213.91,666.964-217.899z"
			/>
		<path fill="#FFFFFF" d="M711.325-116.48c-0.665-1.05,0.352,3.647-0.265,2.557c1.093,2.821,1.114,4.424,2.019,2.857
			C712.472-115.998,711.748-112.013,711.325-116.48z"/>
		<path fill="#FFFFFF" d="M711.063-113.923c-0.173-0.453-0.364-0.928-0.595-1.431C710.761-114.536,710.932-114.151,711.063-113.923z
			"/>
		<path fill="#FFFFFF" d="M600.732,36.129l0.202-0.303c-0.608-0.158-1.421-0.008-3.052,0.281L600.732,36.129z"/>
		<polygon fill="#FFFFFF" points="552.88,37.01 553.69,37.158 552.357,35.973 		"/>
		<path fill="#FFFFFF" d="M518.068,27.658c0.359,0.182,0.75,0.357,1.182,0.523C518.877,28,518.478,27.824,518.068,27.658z"/>
		<path fill="#FFFFFF" d="M514.51,26.135c1.06,0.578,2.361,1.029,3.56,1.523C515.636,26.43,514.691,25.051,514.51,26.135z"/>
	</g>
	<g opacity="0.5">
		<path fill="#FFFFFF" d="M533.489-264.156c0.038,0.001,0.07-0.002,0.11,0C533.6-264.155,533.556-264.156,533.489-264.156z"/>
		<path fill="#FFFFFF" d="M533.489-264.156c-0.818-0.026-1.367,0.037-1.771,0.072c0,0,0.471-0.024,0.941-0.049
			C532.996-264.156,533.323-264.159,533.489-264.156z"/>
		<path fill="#FFFFFF" d="M518.192-264.191l-0.313,0.339C518.493-264.062,518.744-264.206,518.192-264.191z"/>
		<path fill="#FFFFFF" d="M426.849-221.827c-0.689,0.391-1.623,1.002-2.89,1.918L426.849-221.827z"/>
		<path fill="#FFFFFF" d="M602.72-240.878c-0.824-0.583-1.406-0.957-1.736-1.124c-0.303-0.142-0.453-0.166-0.53-0.133
			c-0.151,0.072-0.014,0.378-0.231,0.458c0,0,0.52,0.092,1.196,0.346C602.068-241.105,602.72-240.878,602.72-240.878z"/>
		<path fill="#FFFFFF" d="M712.982-67.354c-0.123,0.146-0.247,0.328-0.368,0.457C712.683-66.805,712.815-67.021,712.982-67.354z"/>
		<path fill="#FFFFFF" d="M418.268-29.451c-0.027-0.037-0.051-0.068-0.077-0.113C418.336-29.1,418.313-29.18,418.268-29.451z"/>
		<path fill="#FFFFFF" d="M693.492-183.879c0.097,0.062,0.203,0.131,0.31,0.199C695.524-183.275,694.813-183.545,693.492-183.879z"
			/>
		<path fill="#FFFFFF" d="M381.596-143.8c0.017,0.075,0.021,0.118,0.035,0.186c0.01-0.075,0.022-0.169,0.031-0.237L381.596-143.8z"
			/>
		<path fill="#FFFFFF" d="M384.002-145.664c0,0-0.639-0.989-1.272-1.979c-0.634-1.019-1.267-2.036-1.267-2.036
			c0.767,2.576,0.465,3.949,0.199,5.828c0,0,0.572-0.459,1.146-0.918C383.406-145.217,384.002-145.664,384.002-145.664z"/>
		<path fill="#FFFFFF" d="M525.74-264.119c0.433-0.01,0.702-0.016,0.702-0.016C526.17-264.141,525.943-264.132,525.74-264.119z"/>
		<path fill="#FFFFFF" d="M723.586-159.24c-0.831-1.302-1.581-2.434-2.25-3.512c-0.61-1.108-1.106-2.172-1.394-3.391
			c-2.163-1.387-1.004,0.511,0.315,2.521c0.604,1.042,1.313,2.099,1.704,2.806c0.367,0.712,0.51,1.024,0.119,0.504
			c0.467,2.101-2.896-2.706-4.768-5.118c-0.437-0.648-0.826-1.255-1.15-1.978c-0.346-0.708-0.626-1.539-1.131-2.403
			c-0.961-1.75-2.424-4.054-5.805-6.516c0.653,0.507,0.787,0.445,1.438,0.954c-2.173-2.298-5.313-3.111-8.203-5.606
			c-2.438-0.136-4.366-2.362-5.593-1.422c0,0,0.437,0.181,1.089,0.452c0.643,0.298,1.496,0.695,2.353,1.095
			c0.865,0.389,1.709,0.812,2.327,1.162c0.628,0.336,1.042,0.562,1.042,0.562c-3.932-1.904-8.144-2.383-14.302-5.489
			c0.627-0.09,2.692,0.379,4.108,0.745c-0.862-0.563-1.807-0.878-2.758-1.194c-0.963-0.284-1.934-0.563-2.858-1.11
			c0.533-0.492,2.758,0.143,5.354,1.212c2.627,1.004,5.6,2.441,7.916,3.107c-1.682-1.64-8.396-2.899-5.597-3.243
			c-3.87,0.338-7.556-3.3-13.434-3.567l0.612-0.648c-0.895-0.123-2.777-0.262-4.336-0.715l3.163-0.182
			c-4.628-0.437-8.28-2.908-12.683-3.344c8.917,1.888,1.77,1.332,5.36,2.723c-5.569-0.722-7.009-1.47-8.623-2.388
			c-0.808-0.463-1.653-0.948-3.082-1.399c-1.42-0.459-3.486-0.923-6.36-1.323c0.807,0.082,2.234,0.448,3.219,0.792
			c1.006,0.344,1.455,0.659,0.114,0.624c-2.254-0.562-5.117-1.301-6.363-2.014c-7.659-1.417,0.979,1.029-2.392,0.828
			c-1.197-0.719-2.135-0.875-3.229-0.879c-1.091-0.006-2.349,0.135-4.032-0.22l0.24-0.77c-2.086-0.713-3.248-1.104-4.004-1.23
			c-0.76-0.127-1.088-0.021-1.393,0.09c-0.6,0.209-1.144,0.479-4.627-1.357c0,0,0.22,0.025,0.552,0.058
			c0.324,0.044,0.769,0.083,1.222,0.103c0.888,0.05,1.774,0.102,1.774,0.102s-0.976-0.311-1.948-0.618
			c-0.949-0.351-1.898-0.703-1.898-0.703l1.184-0.47c-4.228-1.21-5.379-2.049-8.542-4.572c0.433,0.975-1.489,0.927-4.272-1.543
			c-1.422-2.063,1.489,0.5-2.108-3.129c0.576,0.285,1.213,0.538,1.829,0.96c0.588,0.445,1.188,1.035,1.741,2.035
			c0.35-0.025,1.219,0.367,1.588,0.306c-1.647-1.985-4.555-4.478-5.604-5.957c0.391,0.563,0.851,1.235,1.046,1.613
			c0,0-1.404-1.177-2.679-2.548c-1.298-1.342-2.476-2.86-2.476-2.86c-0.295-1.167,0.4-0.459,1.074,0.222
			c-0.822-1.26-1.688-1.994-2.758-4.024c0.9,0.238,1.47-0.093,3.23,2.484c0,0-1.014-1.423-1.979-2.985
			c-0.973-1.597-1.943-3.193-1.943-3.193c0.091-0.544-0.947-3.909-0.274-3.092c-0.777-2.047-2.38-4.486-4.599-6.97
			c-1.079-1.246-2.397-2.456-3.729-3.627c-0.719-0.547-1.389-1.141-2.12-1.662c-0.683-0.504-1.362-1.004-2.036-1.502
			c-0.34-0.056-0.919-0.288-2.05-0.868c-4.632-3.027-8.58-6.187-15.063-8.311c0,0-0.717-0.668-1.43-1.334
			c-0.731-0.653-1.463-1.309-1.463-1.309c-4.929-1.902,4.013,3.387-4.181,0.291c-5.868-2.004-1.71-1.773-3.597-2.882
			c-3.146-0.626-8.625-1.232-13.836-3.658c1.92,0.255,3.272,0.896,5,1.323c0,0-0.99-0.473-1.983-0.945
			c-0.984-0.487-2.003-0.917-2.003-0.917c5.457,0.444,9.018,2.074,5.378-0.08c-0.705,0.968-4.802-0.268-8.985-1.262
			c-2.101-0.473-4.21-0.906-5.859-1.104c-1.666-0.141-2.858-0.057-3.127,0.466c0,0-0.689-0.247-1.38-0.493
			c-0.688-0.255-1.391-0.472-1.391-0.473c0.828,0.129,0.979,0.052,1.787,0.213c-2.687-1.027-3.835-0.697-5.148-0.398
			c-1.319,0.297-2.836,0.742-6.421,0.258c-2.491-0.406-4.256-0.731-2.502-0.941c0,0-1.425,0.072-2.845,0.147
			c-0.709,0.038-1.418,0.076-1.946,0.106c-0.533,0.054-0.886,0.089-0.886,0.089c-1.364-0.036-1.302-0.306-0.303-0.377
			c-0.812,0.02-2.206,0.052-3.613,0.083c-1.077,0.005-2.153,0.096-2.961,0.157c-0.81,0.06-1.349,0.098-1.349,0.098l0.062-0.07
			c-1.217,0.407-3.944,1.096-5.252,1.514c-2.196-0.094,1.06-0.35,0.479-0.571l-4.646,1.033c-2.004-0.339,1.828-1.368,5.131-1.604
			c-4.706-1.72-3.89,0.767-13.59,1.178c0,0,0.271-0.075,0.683-0.191c0.407-0.121,0.957-0.263,1.511-0.377
			c1.11-0.249,2.217-0.496,2.217-0.496c-3.146-0.836-6.559,0.329-11.798,0.792c0.644,0,3.308-0.089,5.162,0.066
			c1.854,0.137,2.892,0.467,0.429,1.277c-1.456,0.146-3.392,0.415-5.931,1.621c-0.237-0.724-2.864,0.052-6.071,1.163l-0.14-1.076
			c-3.41,1.45-2.935,1.863-4.806,2.988c-3.836,1.351-4.959,0.93-6.161,0.645c-6.177,2.284,4.741-0.511-2.314,2.615
			c-2.541,0.948-4.664,1.867-6.769,3.056c-2.069,1.251-4.217,2.623-6.838,4.428c-3.415,1.583,0.201-0.885-1.118-0.462l-2.375,2.396
			c-0.708,0.395-0.634,0.042-0.595-0.134c-2.191,1.71,0.377,0.958-3.126,3.501c-0.138,0.801-2.236,1.669-4.789,2.859
			c-0.637,0.296-1.303,0.613-1.97,0.956c-0.644,0.367-1.292,0.759-1.914,1.173c-1.246,0.833-2.399,1.77-3.252,2.817
			c-1.264,0.548,0.075-0.88-0.522-0.96c-2.708,2.484-3.731,3.669-4.708,4.679c-0.948,1.031-1.748,1.988-3.641,4.297l-4.313,2.843
			c3.382-1.885,0.486,1.931-1.979,5.231c0.176-0.086,0.338-0.166,0.504-0.246c-0.326,0.303-0.638,0.604-0.959,0.905
			c0.149-0.219,0.299-0.433,0.455-0.659c-0.229,0.118-0.466,0.241-0.703,0.362c-0.134,0.315-0.244,0.586-0.369,0.879
			c-0.81,0.757-1.604,1.516-2.379,2.269c-0.197-0.253,0.101-1.042,0.545-1.958c0.744-0.402,1.485-0.801,2.207-1.19
			c0.656-1.596,1.317-3.072,0.58-3.3c-0.224,0.38-0.789,0.983-1.396,1.662c0.176-0.421,0.255-0.72,0.03-0.658
			c-0.248,0.079-0.57,0.726-1.146,1.666l-1.995,0.227l0.1,0.579c0,0-1.715,1.384-3.43,2.768c-1.688,1.411-3.316,2.893-3.316,2.893
			c-0.829,1.328-1.597,2.638-2.374,3.967c-0.729,1.36-1.475,2.75-2.268,4.229c-1.673,2.891-3.469,6.198-6.105,10.199
			c0.578-2.447-0.971-1.207-1.816-1.875c2.583-1.509,4.117-6.369,7.732-10.066c-1.834,1.951-1.867,1.208-1.565,0.585
			c0,0-0.318,0.472-0.803,1.179c-0.479,0.706-1.132,1.636-1.702,2.625c-1.174,1.943-2.348,3.886-2.348,3.886
			c-0.617-0.64-1.766,1.154-3.391,2.958c1.258-0.292,0.547,1.253-0.67,3.272c-1.232,2.01-2.721,4.669-3.451,6.338
			c-0.646-0.061-0.732-1.084,1.719-4.88c-1.863,1.818-2.248,3.449-2.576,5.041c-0.277,1.626-0.452,3.24-2.092,5.155
			c0.49-0.972,0.844-1.456,0.769-1.958c-0.816,2.409-3.595,7.962-3.519,6.451l0.43-1.001c-0.381,0.824-0.813,1.754-1.276,2.757
			c-0.381,1.032-0.787,2.136-1.207,3.272c-0.886,2.259-1.465,4.756-2.033,7.042c-0.502,2.304-0.729,4.461-0.873,6.086
			c-0.032,1.644,0.107,2.778,0.441,3.085c-0.203,0.051-1.677-1.146-1.914-1.625c0,0,0.203,0.833,0.495,2.085
			c0.263,1.239,0.742,2.878,1.265,4.485c0.248,0.818,0.508,1.625,0.764,2.377c-0.072,1.319-0.108,2.632-0.121,3.938
			c-1.406,0.507-3.061,1.294-3.471-2.824c-0.211,1.704-0.571,3.855,0.066,7.443c0.146-1.186,1.789-2.938,1.959-1.374
			c-1.316,4.375-0.679,3.008-1.441,8.456c0.08-1.751,2.318-0.03,2.627,2.638c-0.355-0.384-1.969,0.479-2.313-0.492
			c0,0,0.182,0.408,0.453,1.021c0.268,0.613,0.621,1.424,1.031,2.22c0.784,1.585,1.573,3.171,1.573,3.171
			c-0.635-1.6-1.752-0.014-1.99,1.586c0.226-0.759,1.188,5.776,1.876,7.479l-0.231-2.893c0.747,3.76,1.938,5.422,3.146,7.05
			c1.195,1.634,2.449,3.219,3.482,6.819c-0.664-0.758-3.119-1.496-2.23,2.233c0.797,0.765,2.769,2.463,4.847,4.802
			c0.86,2.709,1.719,5.391,2.542,8.055c-2.354-3.096-4.936-6.656-6.489-9.135c0.412,2.821-0.422,0.941,0.907,4.957
			c-0.073,1.567-1.497-1.966-1.905-3.154l2.609,9.457c1.051-0.726,3.284,6.818,4.114,6.228c0,0-0.997-2.466-2.078-4.922
			c-1.081-2.457-2.162-4.912-2.162-4.912c0.992-0.729,5.205,4.97,6.781,11.733c-0.03,1.811-2.396-0.785-2.764-0.543
			c0.659,0.758,2.381,6.125,2.178,6.791c0,0-0.31-0.67-0.621-1.344c-0.299-0.672-0.646-1.338-0.646-1.338
			c0.231,1.887,0.922,3.305,1.58,4.854c0.295,0.773,0.578,1.58,0.76,2.48c0.094,0.45,0.16,0.924,0.197,1.432
			c0.061,0.549,0.086,1.135,0.073,1.767c0.146,0.843,0.015,2.19,0.009,3.334c0.049,1.118,0.146,2.058,0.532,2.104
			c0.283-1.828,1.839-3.014,3.361-3.389c0.438,1.672,0.996,3.422,1.656,5.234l-0.526-0.068l0.412,0.983l0.397-0.169
			c0.64,1.688,1.368,3.423,2.192,5.203c-0.31,0.35-1.063-0.152-1.837-0.703c-0.975-0.76-1.959-1.616-1.95-0.369
			c0.325-0.01,1.294,1.236,1.709,1.74c0.502,1.677-1.247-0.276,0.543,3.097c1.272,0.146,3.583,6.821,1.712,1.204
			c2.146,3.059,1.604,3.582,3.938,7.26c-0.023-0.768,1.078-0.242,2.459,0.813c0.433,0.34,0.896,0.738,1.367,1.16
			c0.862,1.328,1.758,2.66,2.699,3.998c0.008,0.053,0.018,0.11,0.022,0.152c4.229,6.188,6.445,9.592,11.064,14.953
			c0.211,0.658,2.309,3.363,0.902,2.62c0.867,0.62,1.826,1.051,3.356,2.63c2.145,3.748-3.496-3.471-2.211-0.326
			c0.367-0.121,1.517,0.777,2.918,1.926c1.438,1.105,3.114,2.479,4.404,3.422c0.042-0.692-1.223-1.978-2.82-3.33
			c-1.627-1.332-3.412-2.893-4.684-3.877c0.385-0.313,1.206-0.174,2.328,0.328c5.24,5.469,11.065,10.819,17.44,15.855
			c1.659,1.516,4.256,3.607,7.316,5.701c1.105,0.789,2.244,1.604,3.386,2.424c1.185,0.766,2.371,1.531,3.528,2.281
			c2.3,1.522,4.459,3.006,6.304,4.172c1.013,0.326,2.434,0.875,3.026,0.945c8.613,4.649,17.859,8.584,27.666,11.512
			c-0.131,0.078-0.184,0.188-0.106,0.342c-0.021,0.061,2.15,0.398,3.429,0.594c0.263,0.072,0.526,0.146,0.791,0.217
			c-0.337,0.104-1.299,0.096-0.365,0.479c0.146-0.166,0.66-0.229,1.357-0.209c2.213,0.563,4.454,1.073,6.723,1.536
			c0.046,0.019,0.101,0.029,0.146,0.05c0.037,0,0.067-0.002,0.104-0.004c1.896,0.381,3.806,0.728,5.733,1.026
			c0.113,0.031,0.193,0.062,0.339,0.094c0.26-0.004,0.526,0.044,0.793,0.089c36.026,5.342,78.117-3.457,123.235-38.613
			c2.391-1.856,4.791-3.721,7.205-5.596c1.758-0.505,3.614-1.046,3.907-0.347c2.457-3.73,10.521-5.565,14.604-11.682
			c1.436-0.797-0.654,1.262,0.253,0.979c0.888-1.697,2.45-3.219,5.75-5.68l-0.219,0.432c2.088-1.963,3.896-3.618,5.607-5.123
			c1.684-1.539,3.229-2.954,4.81-4.401c1.63-1.401,3.126-3.095,4.909-4.802c1.811-1.688,3.569-4.105,5.79-6.227l-1.278,0.258
			c1.853-2.047,2.502-2.213,3.445-3.129c0.412-1.627-0.681,0.02-2.009,1.482c-1.295,1.493-2.609,3.025-2.244,1.525
			c0.914-0.459,2.189-1.586,3.549-3.105c1.311-1.556,2.751-3.455,4.172-5.324c1.428-1.871,2.635-3.83,3.818-5.307
			c1.144-1.5,2.203-2.568,2.902-2.896c2.114-3.652-1.466,0.633,0.639-3.008l1.021-0.738l-0.07-1.209
			c1.505-2.321,2.697-3.305,3.138-3.228c-0.324,0.593-0.744,1.755-1.092,2.388c1.225-1.412,2.186-3.756,3.109-5.783
			c0.882-2.049,1.626-3.825,1.907-4.375c0,0-0.444,0.908-0.99,1.779c-0.52,0.875-1.037,1.756-1.037,1.756
			c1.229-2.594,2.267-5.416,3.423-8.271c0.553-1.437,1.229-2.854,1.702-4.345c0.492-1.475,0.989-2.959,1.485-4.442
			c0.48-1.483,1.013-2.959,1.424-4.44c0.362-1.492,0.727-2.978,1.078-4.438c0.689-2.92,1.296-5.757,1.552-8.461l-0.565,0.734
			c0.88-8.216,1.847-6.411,2.59-15.51l0.058,0.339c-0.172-1.843-0.245-4.285-0.095-6.773c0.424,2.332,0.986-4.35,1.449-1.299
			c-0.125-2.284-0.367-3.708-0.504-4.65c-0.156-0.94-0.248-1.398-0.414-1.763c-0.313-0.72-0.633-1.071-1.686-3.955l0.459-1.444
			c-0.9-1.94-1.163-2.072-2.428-6.458c1.568,3.519,0.184-3.089,2.061,0.866C727.093-153.245,725.191-156.652,723.586-159.24z
			 M502.938-262.371c-1.264,1.097-2.426,0.932-4.611,1.124C499.525-261.675,501.91-262.729,502.938-262.371z M420.019-213.886
			c-0.752,0.839-1.73,1.677-2.871,2.564C417.537-212.158,418.67-213.004,420.019-213.886z"/>
		<path fill="#FFFFFF" d="M424.035-219.501c0.354-0.131,0.539-0.089,0.713-0.034C425.004-219.945,424.896-220.064,424.035-219.501z"
			/>
		<path fill="#FFFFFF" d="M599.811-241.769l0.157,0.11c0.114,0.019,0.192,0.007,0.253-0.016L599.811-241.769z"/>
		<path fill="#FFFFFF" d="M404.297-46.715c-0.396-1.061-0.478-1.715-0.479-2.162C403.619-48.877,403.568-48.292,404.297-46.715z"/>
		<polygon fill="#FFFFFF" points="486.146,25.928 489.806,27.65 488.77,27.047 		"/>
		<path fill="#FFFFFF" d="M448.91,5.559l1.897,0.973c-0.808-0.861-0.739-1.053-1.065-1.672L448.91,5.559z"/>
		<path fill="#FFFFFF" d="M439.714-1.436c0.555,0.094,4.018,2.789,1.176-0.01C440.302-1.475,435.688-5.215,439.714-1.436z"/>
		<path fill="#FFFFFF" d="M387.809-100.688c0.742,1.016-0.614-3.646,0.083-2.588c-1.3-2.769-1.44-4.379-2.24-2.748
			C386.617-101.104,387.062-105.154,387.809-100.688z"/>
		<path fill="#FFFFFF" d="M387.892-103.275c0.204,0.445,0.434,0.912,0.696,1.402C388.233-102.68,388.033-103.049,387.892-103.275z"
			/>
		<path fill="#FFFFFF" d="M491.054-261.103l-2.873,0.153l-0.182,0.319C488.621-260.509,489.431-260.708,491.054-261.103z"/>
		<polygon fill="#FFFFFF" points="536.274,-264.776 535.449,-264.877 536.877,-263.765 		"/>
		<path fill="#FFFFFF" d="M575.666-256.204c-1.104-0.512-2.444-0.888-3.688-1.309C574.517-256.43,575.563-255.099,575.666-256.204z"
			/>
		<path fill="#FFFFFF" d="M571.98-257.513c-0.373-0.161-0.78-0.317-1.224-0.458C571.144-257.809,571.556-257.657,571.98-257.513z"/>
	</g>
</g>
</svg>
