<svg width="1440" height="17" viewBox="0 0 1440 17" fill="none" xmlns="http://www.w3.org/2000/svg">
<path d="M120 0V7.53122C114.702 7.53122 109.405 9.06334 104.809 12.1276C95.8096 18.127 84.0221 18.214 74.8841 12.4266C70.3554 9.55839 65.1769 8.11555 60 8.11043C54.8231 8.11555 49.6446 9.55839 45.1159 12.4266C35.9779 18.214 24.1904 18.127 15.1913 12.1276C10.595 9.06334 5.29751 7.53122 0 7.53122V0H120Z" fill="#85543D"/>
<path d="M240 0V7.53122C234.702 7.53122 229.405 9.06334 224.809 12.1276C215.81 18.127 204.022 18.214 194.884 12.4266C190.355 9.55839 185.177 8.11555 180 8.11043C174.823 8.11555 169.645 9.55839 165.116 12.4266C155.978 18.214 144.19 18.127 135.191 12.1276C130.595 9.06334 125.298 7.53122 120 7.53122V0H240Z" fill="#85543D"/>
<path d="M360 0V7.53122C354.702 7.53122 349.405 9.06334 344.809 12.1276C335.81 18.127 324.022 18.214 314.884 12.4266C310.355 9.55839 305.177 8.11555 300 8.11043C294.823 8.11555 289.645 9.55839 285.116 12.4266C275.978 18.214 264.19 18.127 255.191 12.1276C250.595 9.06334 245.298 7.53122 240 7.53122V0H360Z" fill="#85543D"/>
<path d="M480 0V7.53122C474.702 7.53122 469.405 9.06334 464.809 12.1276C455.81 18.127 444.022 18.214 434.884 12.4266C430.355 9.55839 425.177 8.11555 420 8.11043C414.823 8.11555 409.645 9.55839 405.116 12.4266C395.978 18.214 384.19 18.127 375.191 12.1276C370.595 9.06334 365.298 7.53122 360 7.53122V0H480Z" fill="#85543D"/>
<path d="M600 0V7.53122C594.702 7.53122 589.405 9.06334 584.809 12.1276C575.81 18.127 564.022 18.214 554.884 12.4266C550.355 9.55839 545.177 8.11555 540 8.11043C534.823 8.11555 529.645 9.55839 525.116 12.4266C515.978 18.214 504.19 18.127 495.191 12.1276C490.595 9.06334 485.298 7.53122 480 7.53122V0H600Z" fill="#85543D"/>
<path d="M720 0V7.53122C714.702 7.53122 709.405 9.06334 704.809 12.1276C695.81 18.127 684.022 18.214 674.884 12.4266C670.355 9.55839 665.177 8.11555 660 8.11043C654.823 8.11555 649.645 9.55839 645.116 12.4266C635.978 18.214 624.19 18.127 615.191 12.1276C610.595 9.06334 605.298 7.53122 600 7.53122V0H720Z" fill="#85543D"/>
<path d="M840 0V7.53122C834.702 7.53122 829.405 9.06334 824.809 12.1276C815.81 18.127 804.022 18.214 794.884 12.4266C790.355 9.55839 785.177 8.11555 780 8.11043C774.823 8.11555 769.645 9.55839 765.116 12.4266C755.978 18.214 744.19 18.127 735.191 12.1276C730.595 9.06334 725.298 7.53122 720 7.53122V0H840Z" fill="#85543D"/>
<path d="M960 0V7.53122C954.702 7.53122 949.405 9.06334 944.809 12.1276C935.81 18.127 924.022 18.214 914.884 12.4266C910.355 9.55839 905.177 8.11555 900 8.11043C894.823 8.11555 889.645 9.55839 885.116 12.4266C875.978 18.214 864.19 18.127 855.191 12.1276C850.595 9.06334 845.298 7.53122 840 7.53122V0H960Z" fill="#85543D"/>
<path d="M1080 0V7.53122C1074.7 7.53122 1069.4 9.06334 1064.81 12.1276C1055.81 18.127 1044.02 18.214 1034.88 12.4266C1030.36 9.55839 1025.18 8.11555 1020 8.11043C1014.82 8.11555 1009.64 9.55839 1005.12 12.4266C995.978 18.214 984.19 18.127 975.191 12.1276C970.595 9.06334 965.298 7.53122 960 7.53122V0H1080Z" fill="#85543D"/>
<path d="M1200 0V7.53122C1194.7 7.53122 1189.4 9.06334 1184.81 12.1276C1175.81 18.127 1164.02 18.214 1154.88 12.4266C1150.36 9.55839 1145.18 8.11555 1140 8.11043C1134.82 8.11555 1129.64 9.55839 1125.12 12.4266C1115.98 18.214 1104.19 18.127 1095.19 12.1276C1090.6 9.06334 1085.3 7.53122 1080 7.53122V0H1200Z" fill="#85543D"/>
<path d="M1320 0V7.53122C1314.7 7.53122 1309.4 9.06334 1304.81 12.1276C1295.81 18.127 1284.02 18.214 1274.88 12.4266C1270.36 9.55839 1265.18 8.11555 1260 8.11043C1254.82 8.11555 1249.64 9.55839 1245.12 12.4266C1235.98 18.214 1224.19 18.127 1215.19 12.1276C1210.6 9.06334 1205.3 7.53122 1200 7.53122V0H1320Z" fill="#85543D"/>
<path d="M1440 0V7.53122C1434.7 7.53122 1429.4 9.06334 1424.81 12.1276C1415.81 18.127 1404.02 18.214 1394.88 12.4266C1390.36 9.55839 1385.18 8.11555 1380 8.11043C1374.82 8.11555 1369.64 9.55839 1365.12 12.4266C1355.98 18.214 1344.19 18.127 1335.19 12.1276C1330.6 9.06334 1325.3 7.53122 1320 7.53122V0H1440Z" fill="#85543D"/>
</svg>
