<svg width="1440" height="17" viewBox="0 0 1440 17" fill="none" xmlns="http://www.w3.org/2000/svg">
<path d="M1320 16.6982L1320 9.16701C1325.3 9.16701 1330.6 7.6349 1335.19 4.57067C1344.19 -1.42872 1355.98 -1.51576 1365.12 4.27164C1369.64 7.13984 1374.82 8.58268 1380 8.58781C1385.18 8.58269 1390.36 7.13985 1394.88 4.27164C1404.02 -1.51576 1415.81 -1.42871 1424.81 4.57068C1429.4 7.6349 1434.7 9.16702 1440 9.16702L1440 16.6982L1320 16.6982Z" fill="white"/>
<path d="M1200 16.6982L1200 9.167C1205.3 9.167 1210.6 7.63488 1215.19 4.57066C1224.19 -1.42873 1235.98 -1.51577 1245.12 4.27163C1249.64 7.13983 1254.82 8.58267 1260 8.5878C1265.18 8.58267 1270.36 7.13984 1274.88 4.27163C1284.02 -1.51577 1295.81 -1.42872 1304.81 4.57067C1309.4 7.63489 1314.7 9.16701 1320 9.16701L1320 16.6982L1200 16.6982Z" fill="white"/>
<path d="M1080 16.6982L1080 9.16699C1085.3 9.16699 1090.6 7.63487 1095.19 4.57065C1104.19 -1.42874 1115.98 -1.51578 1125.12 4.27162C1129.64 7.13982 1134.82 8.58266 1140 8.58779C1145.18 8.58266 1150.36 7.13983 1154.88 4.27162C1164.02 -1.51578 1175.81 -1.42873 1184.81 4.57066C1189.4 7.63488 1194.7 9.167 1200 9.167L1200 16.6982L1080 16.6982Z" fill="white"/>
<path d="M960 16.6982L960 9.16698C965.298 9.16698 970.595 7.63486 975.191 4.57064C984.19 -1.42875 995.978 -1.51579 1005.12 4.27161C1009.64 7.13981 1014.82 8.58265 1020 8.58778C1025.18 8.58265 1030.36 7.13981 1034.88 4.27161C1044.02 -1.51579 1055.81 -1.42874 1064.81 4.57065C1069.4 7.63487 1074.7 9.16699 1080 9.16699L1080 16.6982L960 16.6982Z" fill="white"/>
<path d="M840 16.6982L840 9.16697C845.298 9.16697 850.595 7.63485 855.191 4.57063C864.19 -1.42876 875.978 -1.5158 885.116 4.2716C889.645 7.1398 894.823 8.58264 900 8.58777C905.177 8.58264 910.355 7.1398 914.884 4.2716C924.022 -1.5158 935.81 -1.42875 944.809 4.57064C949.405 7.63486 954.702 9.16698 960 9.16698L960 16.6982L840 16.6982Z" fill="white"/>
<path d="M720 16.6982L720 9.16695C725.298 9.16696 730.595 7.63484 735.191 4.57062C744.19 -1.42877 755.978 -1.51581 765.116 4.27159C769.645 7.13979 774.823 8.58263 780 8.58775C785.177 8.58263 790.355 7.13979 794.884 4.27159C804.022 -1.51581 815.81 -1.42876 824.809 4.57063C829.405 7.63485 834.702 9.16697 840 9.16697L840 16.6982L720 16.6982Z" fill="white"/>
<path d="M600 16.6982L600 9.16694C605.298 9.16694 610.595 7.63483 615.191 4.57061C624.19 -1.42878 635.978 -1.51582 645.116 4.27158C649.645 7.13978 654.823 8.58262 660 8.58774C665.177 8.58262 670.355 7.13978 674.884 4.27158C684.022 -1.51582 695.81 -1.42877 704.809 4.57062C709.405 7.63484 714.702 9.16695 720 9.16695L720 16.6982L600 16.6982Z" fill="white"/>
<path d="M480 16.6982L480 9.16693C485.298 9.16693 490.595 7.63482 495.191 4.5706C504.19 -1.42879 515.978 -1.51584 525.116 4.27156C529.645 7.13977 534.823 8.58261 540 8.58773C545.177 8.58261 550.355 7.13977 554.884 4.27157C564.022 -1.51583 575.81 -1.42878 584.809 4.57061C589.405 7.63483 594.702 9.16694 600 9.16694L600 16.6982L480 16.6982Z" fill="white"/>
<path d="M360 16.6981L360 9.16692C365.298 9.16692 370.595 7.63481 375.191 4.57059C384.19 -1.4288 395.978 -1.51585 405.116 4.27155C409.645 7.13976 414.823 8.5826 420 8.58772C425.177 8.5826 430.355 7.13976 434.884 4.27156C444.022 -1.51584 455.81 -1.4288 464.809 4.5706C469.405 7.63482 474.702 9.16693 480 9.16693L480 16.6982L360 16.6981Z" fill="white"/>
<path d="M240 16.6981L240 9.16691C245.298 9.16691 250.595 7.6348 255.191 4.57058C264.19 -1.42881 275.978 -1.51586 285.116 4.27154C289.645 7.13975 294.823 8.58259 300 8.58771C305.177 8.58259 310.355 7.13975 314.884 4.27155C324.022 -1.51585 335.81 -1.42881 344.809 4.57058C349.405 7.63481 354.702 9.16692 360 9.16692L360 16.6981L240 16.6981Z" fill="white"/>
<path d="M120 16.6981L120 9.1669C125.298 9.1669 130.595 7.63479 135.191 4.57057C144.19 -1.42882 155.978 -1.51587 165.116 4.27153C169.645 7.13974 174.823 8.58258 180 8.5877C185.177 8.58258 190.355 7.13974 194.884 4.27154C204.022 -1.51586 215.81 -1.42882 224.809 4.57057C229.405 7.6348 234.702 9.16691 240 9.16691L240 16.6981L120 16.6981Z" fill="white"/>
<path d="M0 16.6981L6.584e-07 9.16689C5.29751 9.16689 10.5951 7.63478 15.1914 4.57056C24.1905 -1.42883 35.9778 -1.51588 45.1158 4.27152C49.6446 7.13973 54.8231 8.58257 60 8.58769C65.1769 8.58257 70.3554 7.13973 74.8842 4.27153C84.0221 -1.51587 95.8095 -1.42883 104.809 4.57056C109.405 7.63479 114.702 9.1669 120 9.1669L120 16.6981L0 16.6981Z" fill="white"/>
</svg>
