<?xml version="1.0" encoding="utf-8"?>
<!-- Generator: Adobe Illustrator 16.0.0, SVG Export Plug-In . SVG Version: 6.00 Build 0)  -->
<!DOCTYPE svg PUBLIC "-//W3C//DTD SVG 1.1//EN" "http://www.w3.org/Graphics/SVG/1.1/DTD/svg11.dtd">
<svg version="1.1" id="圖層_1" xmlns="http://www.w3.org/2000/svg" xmlns:xlink="http://www.w3.org/1999/xlink" x="0px" y="0px"
	 width="85.04px" height="40.135px" viewBox="0 0 85.04 40.135" enable-background="new 0 0 85.04 40.135" xml:space="preserve">
<path fill="#B96241" d="M64.774,39.226l0.402-0.073C65.087,39.173,64.965,39.196,64.774,39.226z M68.117,38.805l0.061-0.063
	C68.048,38.79,67.997,38.818,68.117,38.805z M85.004,27.715c-0.021,0.165-0.04,0.329-0.04,0.329
	c0.025-0.134,0.055-0.323,0.069-0.581c-0.001,0.008-0.001,0.014-0.002,0.023C85.024,27.55,85.015,27.633,85.004,27.715z
	 M85.034,27.464c0.006-0.047,0.006-0.08,0.006-0.08C85.039,27.413,85.036,27.437,85.034,27.464z M49.021,39.893l-0.481,0.111
	C49.288,40.021,48.96,39.951,49.021,39.893z M9.203,20.071c-0.042-0.011-0.094-0.023-0.131-0.036
	C9.054,20.049,9.114,20.061,9.203,20.071z M53.914,6.007c0.005,0.009,0.008,0.016,0.012,0.025
	C53.909,5.938,53.912,5.955,53.914,6.007z M22.323,35.956c-0.022-0.011-0.047-0.022-0.072-0.034
	C21.869,35.845,22.03,35.896,22.323,35.956z M69.991,16.75c-0.019-0.001-0.028-0.002-0.046-0.002
	c0.019,0.004,0.04,0.009,0.056,0.013L69.991,16.75z M70.857,17.051c0.257-0.058,0.515-0.116,0.515-0.116
	c-0.621,0.013-0.94-0.065-1.371-0.173l0.348,0.415C70.348,17.176,70.603,17.106,70.857,17.051z M66.458,38.979
	c-0.085,0.012-0.139,0.019-0.139,0.019C66.373,38.993,66.417,38.987,66.458,38.979z M42.819,39.687l-0.117,0.001
	C42.744,39.688,42.782,39.687,42.819,39.687z M66.569,16.252c-0.014-0.004-0.027-0.008-0.044-0.011
	C66.541,16.244,66.554,16.248,66.569,16.252z M84.964,28.044c0,0-0.009,0.061-0.021,0.152c-0.021,0.091-0.047,0.213-0.074,0.333
	c-0.027,0.12-0.056,0.241-0.076,0.331c-0.019,0.09-0.043,0.147-0.043,0.147c0.01,0.289,0.017,0.494,0.021,0.66
	c-0.011,0.165-0.021,0.291-0.037,0.427c-0.027,0.271-0.084,0.568-0.274,1.261c-0.112,0.049-0.021-0.317-0.187-0.099
	c-0.082,0.521-0.442,1.064-0.828,1.509c-0.189,0.23-0.407,0.404-0.548,0.555c-0.159,0.14-0.256,0.249-0.254,0.325
	c-0.653,0.654-0.128,0.382-0.563,0.797c0.005-0.033,0.014-0.099-0.132,0.006c0,0-0.028,0.033-0.072,0.084
	c-0.046,0.048-0.107,0.113-0.169,0.177c-0.126,0.129-0.253,0.259-0.253,0.259c-0.289,0.119,0.492-0.442-0.251-0.046
	c-1.135,0.803-1.895,1.196-3.048,1.559c-1.595,0.606,0.839,0.009-0.547,0.468c-0.26-0.041-0.499-0.094-1.368,0.147
	c-0.424,0.207-0.323,0.275-1.091,0.534l-0.019-0.178c-0.721,0.198-1.296,0.359-1.346,0.235c-0.571,0.209-0.989,0.286-1.312,0.32
	c-1.088,0.316,0.931,0.179,1.22,0.178c-1.146,0.12-1.887,0.335-2.575,0.245c0,0,0.24-0.057,0.481-0.112
	c0.239-0.059,0.479-0.117,0.479-0.117c-1.068,0.098-1.544,0.236-1.889,0.338c-0.343,0.104-0.555,0.156-1.081,0.05
	c0.72-0.093,1.549-0.333,1.104-0.355c0,0-0.252,0.064-0.503,0.129c-0.253,0.063-0.506,0.125-0.506,0.125
	c-0.131-0.027,0.583-0.123,0.097-0.103c-0.283,0.086-0.867,0.26-1.123,0.354l0.012-0.012c0,0-0.467,0.072-0.935,0.14
	c-0.313,0.047-0.624,0.089-0.797,0.11c0.229-0.036,0.24-0.086-0.065-0.056c0,0-0.304,0.059-0.607,0.117
	c-0.305,0.056-0.609,0.111-0.609,0.111c0.37-0.085-0.025-0.094-0.583-0.067c-1.594,0.1-1.219,0.511-2.48,0.434
	c0.181-0.01,0.207-0.034,0.39-0.044l-0.646-0.03c-0.046,0.19-0.985,0.269-1.925,0.332c-0.941,0.065-1.882,0.113-1.938,0.302
	c-0.923-0.116-0.068-0.082,1.087-0.316l-0.976-0.06c0.392-0.034,0.724-0.021,1.141-0.077c-1.28-0.091-2.459,0.146-3.145,0.264
	c-0.487-0.041,0.369-0.286-1.01-0.193c-1.949,0.107,0.379,0.268-0.794,0.33l-0.854-0.181c-1.497,0.161-2.619,0.021-3.881-0.021
	c-0.286,0.01-0.427,0.026-0.497,0.047c-1.341-0.108-2.828,0.109-3.841,0.001c0.24-0.027-0.569-0.148-0.688-0.202l-1.72,0.016
	c0.692-0.011,0.678-0.119,0.826-0.213c-0.57-0.02-0.844,0.024-1.233,0.013c0.241-0.022,0.483-0.048,0.188-0.116
	c0,0-0.482,0.014-0.966,0.027c-0.482,0.011-0.966,0.021-0.966,0.021c0.11,0.027,0.329,0.05,0.513,0.068
	c-0.478-0.032-1.523-0.045-2.193-0.198c0.066-0.036,0.307-0.055,0.371-0.093c0.557,0.17,0.897,0.092,1.204,0.034
	c-1.318-0.088-0.325-0.054-0.947-0.185c-0.926-0.077-1.328,0.032-1.098,0.147c-1.043-0.142-1.37-0.204-2.457-0.213l0.229-0.126
	l-0.988-0.067l0.827-0.088c-1.856-0.324-0.393,0.222-2.461-0.131l0.022-0.131c-0.809-0.059-1.135,0.117-1.72-0.13
	c-0.796-0.04,1.286,0.385-0.546,0.132c-0.306-0.115-0.984-0.279-1.499-0.396c-0.544-0.039,0.235,0.183,0.663,0.257
	c-1.289-0.196-1.672-0.387-2.019-0.551c-0.358-0.172-0.681-0.315-1.917-0.498c0.8,0.273-0.781,0.102,1.193,0.515
	c-0.971-0.119-1.788-0.578-2.811-0.682l0.695-0.008c-0.348-0.087-0.764-0.123-0.96-0.155l0.127-0.103
	c-1.289-0.085-2.156-0.713-2.988-0.659c0.597-0.06-0.883-0.267-1.291-0.539c0.258,0.056,0.556,0.143,0.867,0.233
	c0.311,0.09,0.624,0.206,0.922,0.288c0.592,0.173,1.08,0.311,1.191,0.223c-0.423-0.191-0.869-0.218-1.274-0.407
	c0.318,0.062,0.783,0.142,0.916,0.135c-1.42-0.545-2.352-0.626-3.26-0.921c0,0,0.095,0.042,0.243,0.091
	c0.147,0.05,0.344,0.118,0.54,0.186c0.389,0.142,0.79,0.256,0.79,0.256c-0.116,0.077-0.299,0.028-0.516-0.045
	c-0.215-0.078-0.465-0.175-0.73-0.182c-0.36-0.195-0.699-0.344-1.036-0.461c-0.332-0.125-0.643-0.26-0.925-0.436
	c0.133,0.066,0.173,0.07,0.275,0.114c-0.375-0.18-0.655-0.378-0.888-0.542c-0.242-0.185-0.414-0.361-0.56-0.509
	c-0.272-0.32-0.429-0.551-0.667-0.782c-0.058-0.056-0.124-0.118-0.196-0.182c-0.067-0.068-0.138-0.138-0.208-0.208
	c-0.073-0.07-0.146-0.141-0.216-0.208c-0.065-0.071-0.129-0.139-0.188-0.2c-0.246-0.237-0.38-0.396-0.324-0.182
	c-0.083-0.108-0.057-0.043,0.036,0.099c0.107,0.132,0.247,0.359,0.427,0.545c0.084,0.096,0.167,0.192,0.233,0.275
	c0.072,0.081,0.133,0.147,0.164,0.197c0.063,0.099,0.018,0.126-0.238,0.001c-0.203-0.458-0.58-0.802-0.936-1.352
	c-0.181-0.271-0.344-0.593-0.457-0.976c-0.092-0.384-0.142-0.83-0.05-1.317c0.07,0.43,0.128,0.299,0.181,0.167
	c0.053-0.136,0.102-0.274,0.155,0.093c-0.012-0.224-0.013-0.395-0.009-0.529c-0.003-0.136-0.005-0.237-0.007-0.322
	c-0.006-0.171-0.04-0.285-0.051-0.487l0.181-0.248c0.001-0.589-0.03-0.665-0.039-0.812c-0.005-0.145,0.032-0.368,0.219-1.208
	c-0.075,0.572,0.382-0.624,0.339-0.187c0.151-0.454,0.226-0.904,0.217-1.242l0.007,0.063c0.125-0.823,0.146-1.143,0.166-1.456
	c0.002-0.153,0.001-0.302-0.043-0.494c-0.033-0.093-0.044-0.208-0.11-0.322c-0.029-0.058-0.06-0.121-0.094-0.189
	c-0.045-0.063-0.092-0.129-0.145-0.2l0,0.144c-0.263-0.367-0.644-0.671-1.169-0.9c-0.515-0.238-1.162-0.396-1.835-0.521
	c-1.358-0.243-0.24-0.351-1.585-0.465l-1.666,0.147c-0.274-0.057,0.774-0.085-0.059-0.314c0.171,0.018,0.469,0.034,0.626,0.063
	c-0.011-0.072-0.318-0.211-0.959-0.334l-0.278,0.06l-0.24-0.127c-0.987-0.203,0.247,0.212-0.746-0.002
	c-0.237-0.214-1.297-0.461-2.315-0.926c-0.518-0.223-0.991-0.517-1.362-0.786c-0.366-0.276-0.618-0.539-0.707-0.713
	c-0.332-0.139-0.023,0.165,0.321,0.441c0.176,0.134,0.355,0.263,0.443,0.343c0.093,0.075,0.09,0.107-0.103,0.045
	c-0.213-0.198-0.298-0.296-0.751-0.702l0.046,0.224c-1.073-0.964-1.535-1.772-1.937-2.53c-0.187-0.385-0.36-0.764-0.511-1.184
	c-0.157-0.417-0.303-0.874-0.434-1.412l0.054,0.081C0.236,11.836,0.166,11.427,0,11.083c0.063-0.165,0.147,0.393,0.189,0.086
	c-0.269-0.671-0.178-1.374-0.016-1.979c0.163-0.61,0.388-1.125,0.367-1.557c0.128,0.073,0.363-0.221,0.604-0.482
	C1.35,6.601,1.611,6.072,1.93,5.584c3.608-5.513,8.839-5.252,25.352-5.445c0.082-0.002,0.166-0.003,0.244-0.015
	c0.072,0.003,0.127,0.006,0.168,0.011c0.39-0.005,0.79-0.011,1.189-0.016c0.021-0.003,0.039-0.006,0.062-0.008
	c0.022,0.002,0.045,0.004,0.068,0.007c0.135-0.002,0.264-0.003,0.4-0.005c0.363-0.005,0.72-0.009,1.074-0.012
	C30.673,0.073,30.8,0.037,30.822,0c0.249,0.023-0.021,0.068-0.058,0.099c0.039,0,0.078,0,0.118,0
	c0.095-0.007,0.232-0.019,0.37-0.029c0.247-0.017,0.494-0.033,0.494-0.033c0.028,0.022,0.024,0.042,0.005,0.061
	c2.524,0.002,4.796,0.069,6.836,0.201c0.11-0.032,0.485-0.046,0.736-0.056c0.994,0.13,2.404,0.274,3.645,0.45
	c0.916,0.126,1.731,0.282,2.23,0.411c2.033,0.403,3.686,0.928,5.006,1.575c0.272,0.044,0.451,0.046,0.509-0.019
	c-0.172-0.066-0.38-0.155-0.606-0.236c-0.231-0.08-0.47-0.167-0.693-0.25c-0.456-0.15-0.835-0.306-0.902-0.413
	c0.72,0.162,1.888,0.627,2.007,0.583c0.268,0.252-0.043,0.105-0.328-0.019c-0.292-0.118-0.55-0.224-0.154,0.042
	c0.456,0.206,0.681,0.261,0.914,0.339c-0.344-0.097,0.288,0.334,0.374,0.444c1.297,0.865,1.88,1.547,2.59,2.854
	c0,0.011,0.001,0.024,0.001,0.036c0.145,0.28,0.267,0.57,0.369,0.87c0.069,0.102,0.138,0.2,0.2,0.287
	c0.207,0.276,0.36,0.45,0.409,0.305c0.192,0.836,0.062,0.89,0.191,1.6c0.12-1.153-0.008,0.224,0.207,0.342
	c0.006,0.092,0.01,0.165,0.01,0.223c-0.001,0.062-0.011,0.115-0.017,0.15C55.268,9.892,55.25,9.914,55.23,9.92
	c-0.042,0.012-0.078-0.024-0.136,0.152c0.011,0.134-0.002,0.45,0.053,0.483c-0.165,0.212-0.19-0.033-0.257-0.263
	c-0.05-0.174-0.119-0.328-0.21-0.292c-0.052,0.332-0.177,0.687-0.338,1.053l0.086,0.017l-0.085,0.195l-0.065-0.067
	c-0.15,0.325-0.323,0.657-0.495,0.988c0.28,0.088,0.68,0.054,0.973-0.185c0.1,0.095-0.461,0.584-0.613,0.86
	c-0.305,0.377-0.399,0.703-0.432,0.999c-0.029,0.295-0.003,0.554-0.009,0.798c0,0-0.051-0.087-0.074-0.199
	c-0.02-0.052-0.022-0.114-0.03-0.158c-0.006-0.043-0.01-0.074-0.01-0.074c-0.031,0.043-0.08,0.315,0.001,0.521
	c0.076,0.208,0.241,0.337,0.327,0.349c-0.021,0.028-0.172,0.021-0.302-0.002c-0.133-0.018-0.27-0.036-0.208,0.108
	c0.188,0.253,0.528,0.415,0.866,0.498c0.337,0.09,0.684,0.1,0.969,0.093c0.577-0.024,0.939-0.145,0.898-0.239
	c0,0-0.037,0-0.103,0.002c-0.066,0.002-0.161,0.005-0.271,0c-0.11-0.003-0.24-0.006-0.378-0.009
	c-0.134-0.011-0.276-0.023-0.419-0.034c-0.132-0.022-0.274-0.036-0.395-0.062c-0.112-0.031-0.237-0.046-0.316-0.079
	c-0.177-0.052-0.27-0.103-0.27-0.103c0.034-0.074,0.297,0.048,0.665,0.104c0.368,0.054,0.776,0.058,0.746-0.037
	c0,0,0.029,0.007,0.086,0.014c0.057,0.008,0.138,0.019,0.234,0.031c0.189,0.031,0.467,0.046,0.735,0.071
	c0.577,0.021,1.153,0.043,1.153,0.043c-0.325,0.003-1.187,0.031-0.848,0.121c0.479,0.006,0.637,0.012,0.721,0.03
	c0.091,0.017,0.14,0.045,0.484,0.083c-0.296,0.045-0.661,0.111-1.031,0.182c-0.37,0.076-0.769,0.147-1.165,0.207
	c-0.115,0.018-0.229,0.032-0.346,0.044c0.476,0.055,1.024,0.088,1.675,0.088c0.122,0,0.242,0.002,0.363,0.002
	c0.041-0.011,0.083-0.023,0.122-0.035c0.618-0.177,1.095-0.361,1.31-0.437c0.93,0.051,0.59,0.38,0.369,0.434
	c1.812,0.082,1.822-0.417,3.662-0.252l-0.685-0.113c0.219-0.002,0.723,0.037,1.15,0.069c0.428,0.036,0.779,0.073,0.699,0.033
	c0.328,0.111,0.613,0.32,0.324,0.364c0.14-0.013,0.447-0.043,0.755-0.074c0.209-0.022,0.418-0.037,0.574-0.047
	c0.157-0.01,0.263-0.018,0.263-0.018c-0.244,0.004-0.133,0.283-0.242,0.317c0.617,0.083,1.119-0.15,0.801-0.25
	c1.185,0.318,0.907,0.204,1.869,0.562c0.375,0.038,0.032-0.279-0.236-0.348c0.866,0.049,1.353,0.182,1.743,0.281
	c-0.981-0.099-0.859,0.182-0.796,0.413c0.319,0.054,0.633,0.11,0.941,0.17c0.186-0.013,0.386-0.025,0.586-0.038
	c0.399-0.014,0.799-0.027,1.1-0.039c0.302-0.01,0.504-0.013,0.504-0.013c-0.116,0.018-0.438,0.211-0.432,0.242
	c0.082-0.044,0.354-0.031,0.739,0.036c0.383,0.07,0.893,0.152,1.424,0.307c0.535,0.143,1.111,0.307,1.638,0.502
	c0.535,0.176,1.019,0.383,1.399,0.548l-0.233-0.093c-0.179-0.027,0.055,0.108,0.403,0.268c0.349,0.165,0.795,0.382,1.087,0.467
	c-0.12-0.001-0.231-0.07-0.457-0.174c0.22,0.156,0.427,0.249,0.621,0.321c0.19,0.077,0.377,0.124,0.564,0.176
	c0.187,0.05,0.377,0.1,0.568,0.188c0.187,0.094,0.378,0.22,0.573,0.407c-0.832-0.56-1.098-0.548-1.11-0.455
	c0.197,0.079,0.445,0.201,0.69,0.352c0.245,0.148,0.515,0.294,0.734,0.438c0.44,0.287,0.782,0.474,0.739,0.258
	c0.37,0.358,0.746,0.646,0.589,0.708c0,0,0.025,0.018,0.07,0.049c0.046,0.031,0.112,0.076,0.184,0.135
	c0.145,0.118,0.34,0.276,0.534,0.435c0.198,0.156,0.363,0.336,0.502,0.462c0.135,0.129,0.225,0.216,0.225,0.216
	c-0.062-0.048-0.134-0.083-0.146-0.052c-0.016,0.031,0.041,0.122,0.188,0.355c-0.136-0.225-0.337-0.414-0.518-0.601
	c-0.178-0.19-0.382-0.352-0.568-0.503c-0.362-0.313-0.702-0.552-0.844-0.801c-0.17,0.103,0.056,0.422-0.464,0.195
	c1.653,1.246,2.6,2.005,3.402,3.072c0,0,0.037,0.104,0.094,0.258c0.028,0.078,0.061,0.167,0.095,0.263
	c0.024,0.099,0.052,0.204,0.078,0.309c0.122,0.417,0.165,0.841,0.165,0.841l0.111,0.056c0,0-0.043,0.081-0.087,0.161
	c-0.043,0.08-0.091,0.158-0.091,0.158c0.082,0.202,0.147,0.332,0.13,0.378c-0.018,0.04-0.056-0.012-0.102-0.09
	c0.033,0.173,0.076,0.331,0.11,0.412c-0.12,0.071-0.303-0.215-0.474-0.504c0.034-0.149,0.046-0.303,0.052-0.458
	c-0.115-0.177-0.222-0.314-0.286-0.308c0.054,0.198,0.1,0.398,0.135,0.599c0.034,0.052,0.067,0.108,0.101,0.167
	c-0.009,0.048-0.019,0.096-0.027,0.143c-0.017-0.047-0.031-0.092-0.047-0.138c0.011,0.074,0.022,0.147,0.03,0.221
	c0.006-0.028,0.012-0.054,0.017-0.083C84.656,27.829,84.771,28.758,84.964,28.044z M84.265,25.345
	c0.048,0.273,0.129,0.508,0.204,0.716C84.442,25.761,84.372,25.498,84.265,25.345z M72.446,38.013
	c-0.481,0.052-0.742,0.03-1.013,0.234C71.658,38.287,72.181,38.096,72.446,38.013z M30.588,38.299
	c0.042,0.007,0.081,0.013,0.115,0.017C30.663,38.311,30.626,38.305,30.588,38.299z M84.962,27.341
	c-0.02,0.067-0.048,0.086-0.078,0.104C84.911,27.534,84.957,27.535,84.962,27.341z M49.111,39.872l-0.044-0.002
	c-0.024,0.008-0.038,0.016-0.046,0.022L49.111,39.872z M55.342,10.116c-0.064,0.246-0.142,0.362-0.193,0.443
	C55.181,10.577,55.259,10.489,55.342,10.116z M35.649,0.16l-0.924-0.066l0.272,0.036L35.649,0.16z M45.389,0.822
	c0,0-0.123-0.009-0.244-0.017c-0.121-0.01-0.243-0.012-0.243-0.012c0.261,0.075,0.269,0.115,0.405,0.188L45.389,0.822z
	 M47.775,1.435c0.116-0.026,1.454,0.329,0.232-0.064C47.887,1.383,46.899,1.146,47.775,1.435z M60.187,15.789
	c0.73-0.044,1.112,0.008,0.789-0.187c-1.206-0.11-0.297,0.162-1.383,0.041C59.306,15.698,60.48,15.742,60.187,15.789z
	 M60.187,15.789c-0.117,0.006-0.241,0.015-0.373,0.028C60.025,15.808,60.125,15.797,60.187,15.789z M74.042,37.931
	c0,0,0.158-0.011,0.314-0.022c0.157-0.011,0.314-0.024,0.314-0.024l0.042-0.056C74.579,37.816,74.399,37.854,74.042,37.931z
	 M64.231,39.422l0.181-0.014l-0.36-0.127L64.231,39.422z M56.298,40.09c0.087,0,0.178-0.003,0.273-0.009
	C56.484,40.082,56.393,40.086,56.298,40.09z M55.425,40.135c0.274,0,0.583-0.028,0.874-0.045
	C55.681,40.094,55.333,39.961,55.425,40.135z"/>
<path fill="#FFFFFF" d="M18.133,9.636c-0.096-0.006-0.191-0.026-0.286-0.019c-0.173,0.014-0.347,0.034-0.518,0.066
	c-0.156,0.029-0.306,0.082-0.461,0.113c-0.189,0.038-0.26,0.167-0.167,0.328c0.13,0.226,0.272,0.446,0.398,0.673
	c0.28,0.502,0.63,0.95,1.013,1.379c0.172,0.193,0.318,0.414,0.459,0.632c0.103,0.159,0.175,0.339,0.271,0.504
	c0.038,0.067,0.099,0.123,0.159,0.173c0.11,0.09,0.175,0.198,0.199,0.341c0.017,0.1,0.049,0.204,0.099,0.292
	c0.086,0.153,0.064,0.286-0.029,0.424c-0.14,0.208-0.314,0.324-0.582,0.296c-0.164-0.017-0.334,0-0.5,0.023
	c-0.185,0.025-0.345-0.008-0.498-0.116c-0.09-0.065-0.201-0.101-0.285-0.172c-0.162-0.139-0.328-0.277-0.462-0.441
	c-0.161-0.196-0.281-0.426-0.435-0.629c-0.227-0.297-0.465-0.586-0.705-0.874c-0.137-0.164-0.322-0.255-0.518-0.333
	c-0.161-0.065-0.309-0.162-0.466-0.237c-0.091-0.043-0.188-0.089-0.286-0.098c-0.111-0.013-0.219,0.05-0.222,0.171
	c-0.008,0.287-0.206,0.438-0.397,0.593c-0.194,0.158-0.382,0.316-0.43,0.581c-0.005,0.03-0.022,0.064-0.043,0.084
	c-0.157,0.155-0.318,0.307-0.477,0.461c-0.092,0.089-0.191,0.171-0.267,0.272c-0.114,0.151-0.257,0.259-0.416,0.353
	c-0.123,0.072-0.234,0.166-0.361,0.231c-0.071,0.036-0.167,0.052-0.244,0.04c-0.101-0.016-0.198-0.063-0.291-0.107
	c-0.306-0.147-0.407-0.366-0.296-0.687c0.105-0.305,0.186-0.61,0.141-0.936c-0.003-0.023-0.004-0.051,0.006-0.07
	c0.093-0.182,0.176-0.372,0.289-0.54c0.061-0.091,0.114-0.151,0.021-0.243c-0.075-0.072-0.041-0.138,0.006-0.212
	c0.055-0.087,0.09-0.185,0.138-0.275c0.101-0.189,0.189-0.388,0.311-0.564c0.199-0.288,0.421-0.561,0.633-0.84
	c0.038-0.051,0.075-0.104,0.102-0.161c0.068-0.137,0.059-0.202-0.061-0.289c-0.091-0.064-0.147-0.129-0.158-0.247
	c-0.004-0.051-0.08-0.108-0.135-0.141c-0.135-0.083-0.275-0.158-0.416-0.229c-0.106-0.056-0.212-0.116-0.324-0.151
	c-0.442-0.14-0.661-0.507-0.889-0.863c-0.032-0.052-0.003-0.149,0.013-0.222c0.017-0.075,0.078-0.146,0.079-0.219
	c0.002-0.21,0.131-0.296,0.301-0.352c0.446-0.143,0.896-0.149,1.344-0.024c0.188,0.052,0.371,0.076,0.565,0.076
	c0.183-0.001,0.366,0.023,0.546,0.05c0.471,0.068,0.85-0.167,0.988-0.621c0.058-0.191,0.125-0.38,0.165-0.575
	c0.077-0.395,0.311-0.697,0.564-0.983c0.278-0.314,0.926-0.256,1.167,0.085c0.206,0.292,0.271,0.588,0.069,0.913
	c-0.048,0.08-0.071,0.178-0.092,0.271c-0.027,0.124-0.021,0.258-0.062,0.377c-0.137,0.393,0.096,0.631,0.346,0.862
	c0.136,0.125,0.309,0.174,0.488,0.168c0.49-0.018,0.97,0.037,1.444,0.157c0.138,0.035,0.285,0.037,0.427,0.058
	c0.212,0.03,0.353,0.149,0.396,0.36c0.031,0.147,0.058,0.3,0.054,0.449c-0.016,0.468-0.285,0.689-0.754,0.644
	c-0.222-0.021-0.445-0.032-0.668-0.048C18.134,9.625,18.134,9.631,18.133,9.636z M45.672,9.969c0.018-0.315-0.116-0.55-0.357-0.742
	c-0.117-0.094-0.234-0.196-0.322-0.316c-0.174-0.24-0.402-0.263-0.66-0.211c-0.258,0.052-0.43,0.208-0.501,0.459
	c-0.029,0.106-0.041,0.221-0.036,0.332c0.015,0.334,0.042,0.667,0.062,1.001c0.016,0.254,0.034,0.509,0.043,0.764
	c0.006,0.199-0.066,0.275-0.267,0.288c-0.096,0.005-0.19-0.017-0.286-0.015c-0.206,0.005-0.439-0.04-0.612,0.041
	c-0.261,0.124-0.525,0.12-0.791,0.141c-0.245,0.019-0.344-0.071-0.357-0.31c-0.014-0.246-0.065-0.491,0-0.739
	c0.021-0.079-0.006-0.172-0.015-0.259c-0.014-0.142-0.043-0.284-0.046-0.426c-0.007-0.344-0.019-0.684-0.163-1.008
	c-0.044-0.098-0.06-0.219-0.053-0.327c0.034-0.527,0.019-1.053-0.019-1.577c-0.019-0.253-0.056-0.506-0.099-0.757
	c-0.028-0.163-0.094-0.32-0.123-0.483c-0.056-0.304-0.32-0.573-0.627-0.599c-0.09-0.008-0.19,0.017-0.276,0.053
	c-0.285,0.122-0.43,0.357-0.521,0.646C39.494,6.4,39.502,6.882,39.549,7.37c0.015,0.147,0.009,0.302-0.017,0.449
	c-0.058,0.332-0.105,0.66-0.051,0.998c0.041,0.26,0.078,0.522,0.087,0.785c0.022,0.581,0.005,1.164,0.126,1.738
	c0.024,0.115-0.011,0.21-0.133,0.245c-0.153,0.042-0.307,0.084-0.462,0.105c-0.323,0.044-0.65,0.064-0.972,0.112
	c-0.286,0.041-0.36,0.004-0.413-0.279c-0.059-0.313-0.113-0.627-0.164-0.942c-0.014-0.086-0.002-0.175-0.011-0.262
	c-0.021-0.205-0.044-0.409-0.07-0.614c-0.009-0.071-0.058-0.146-0.043-0.208c0.079-0.316-0.048-0.591-0.153-0.872
	c-0.008-0.023-0.011-0.046-0.019-0.069c-0.079-0.293-0.189-0.396-0.489-0.385c-0.212,0.006-0.429,0.043-0.636,0.096
	c-0.19,0.049-0.324,0.185-0.329,0.395c-0.008,0.374-0.008,0.748,0,1.123c0.007,0.27,0.06,0.542,0.043,0.811
	c-0.041,0.674,0.042,1.333,0.168,1.992c0.01,0.053,0.033,0.11,0.066,0.152c0.109,0.146,0.119,0.285,0.01,0.438
	c-0.068,0.096-0.061,0.203,0.04,0.277c0.188,0.138,0.382,0.253,0.635,0.232c0.103-0.007,0.218,0.03,0.314,0.075
	c0.111,0.052,0.217,0.11,0.341,0.073c0.235-0.069,0.471-0.06,0.711-0.038c0.207,0.019,0.415,0.011,0.622,0.015
	c0.14,0.002,0.27-0.026,0.369-0.137c0.07-0.077,0.159-0.095,0.261-0.084c0.31,0.031,0.619,0.058,0.929,0.085
	c0.108,0.008,0.206,0.037,0.27,0.129c0.138,0.199,0.336,0.259,0.563,0.249c0.256-0.011,0.508-0.014,0.762,0.039
	c0.202,0.041,0.411,0.062,0.617,0.063c0.165,0.002,0.331-0.03,0.493-0.064c0.128-0.029,0.234-0.101,0.267-0.246
	c0.022-0.099,0.101-0.142,0.18-0.097c0.185,0.104,0.388,0.081,0.581,0.116c0.3,0.055,0.588-0.006,0.873-0.08
	c0.135-0.036,0.239-0.121,0.296-0.258c0.051-0.124,0.1-0.25,0.167-0.366c0.095-0.166,0.125-0.344,0.126-0.529
	c0.002-0.223-0.007-0.447-0.004-0.67c0.003-0.119,0.003-0.242,0.031-0.356c0.103-0.414,0.169-0.828,0.135-1.193
	C45.67,10.225,45.665,10.096,45.672,9.969z M27.297,9.042c-0.009-0.478,0.005-0.958-0.034-1.434
	c-0.04-0.483-0.116-0.967-0.208-1.442c-0.062-0.319-0.172-0.63-0.28-0.938c-0.082-0.233-0.26-0.356-0.515-0.35
	c-0.063,0.001-0.128,0.003-0.191-0.004c-0.212-0.026-0.423-0.061-0.636-0.084c-0.093-0.011-0.189-0.009-0.282-0.004
	c-0.174,0.007-0.348,0.03-0.523,0.03c-0.238,0-0.479-0.007-0.717-0.023c-0.206-0.014-0.376,0.052-0.523,0.188
	c-0.088,0.082-0.177,0.162-0.258,0.25c-0.173,0.187-0.337,0.383-0.513,0.568c-0.121,0.126-0.214,0.271-0.211,0.443
	c0.009,0.413-0.24,0.799-0.122,1.222c0.006,0.022-0.004,0.047-0.006,0.071c-0.024,0.357-0.076,0.713-0.017,1.073
	c0.019,0.116-0.006,0.239-0.002,0.358c0.004,0.175,0.006,0.351,0.027,0.524c0.023,0.185,0.02,0.361-0.027,0.543
	c-0.042,0.16-0.055,0.328-0.073,0.492c-0.014,0.127-0.021,0.255-0.025,0.382c-0.005,0.158-0.012,0.318-0.008,0.478
	c0.01,0.382,0.039,0.765,0.034,1.147c-0.002,0.162-0.034,0.343-0.114,0.48c-0.187,0.319,0.06,0.777,0.386,0.83
	c0.085,0.015,0.18,0.035,0.248,0.084c0.193,0.138,0.382,0.124,0.586,0.031c0.101-0.046,0.212-0.07,0.319-0.103
	c0.121-0.037,0.194-0.118,0.196-0.242c0.005-0.303,0.016-0.605-0.16-0.879c-0.046-0.072-0.077-0.196-0.046-0.267
	c0.098-0.222,0.104-0.443,0.084-0.679c-0.019-0.212,0.089-0.313,0.305-0.294c0.143,0.011,0.287,0.037,0.422,0.083
	c0.232,0.079,0.467,0.092,0.708,0.073c0.159-0.012,0.319-0.026,0.478-0.041c0.212-0.019,0.293,0.042,0.322,0.252
	c0.038,0.268,0.074,0.535,0.105,0.803c0.009,0.079,0.011,0.161-0.001,0.239c-0.05,0.322,0.033,0.635,0.069,0.952
	c0.016,0.138,0.094,0.196,0.232,0.186c0.094-0.006,0.189-0.032,0.278-0.063c0.128-0.045,0.249-0.107,0.377-0.152
	c0.342-0.121,0.427-0.235,0.425-0.597c-0.003-0.558-0.004-1.116-0.015-1.674c-0.006-0.343-0.032-0.686-0.039-1.028
	c-0.011-0.495-0.012-0.988-0.017-1.482C27.321,9.042,27.31,9.042,27.297,9.042z M25.911,9.603c0.004,0.244-0.077,0.319-0.317,0.286
	c-0.22-0.032-0.438-0.073-0.66-0.104c-0.291-0.041-0.582-0.082-0.874-0.11c-0.177-0.018-0.301-0.093-0.371-0.254
	c-0.056-0.132-0.124-0.261-0.157-0.399c-0.063-0.266,0.066-0.42,0.339-0.409c0.214,0.009,0.428,0.045,0.641,0.062
	c0.276,0.021,0.554,0.052,0.83,0.045c0.368-0.009,0.505,0.206,0.536,0.479c0.013,0.111,0.019,0.223,0.028,0.333c0,0,0,0,0,0
	C25.908,9.554,25.91,9.579,25.911,9.603z M25.251,6.282c0.269,0.015,0.315,0.085,0.287,0.346c-0.011,0.102-0.004,0.207-0.001,0.309
	c0.007,0.243-0.108,0.356-0.35,0.333c-0.055-0.005-0.111-0.018-0.162-0.04c-0.241-0.101-0.496-0.1-0.75-0.115
	c-0.173-0.009-0.348-0.037-0.518-0.075c-0.148-0.033-0.19-0.101-0.197-0.258c-0.003-0.079,0-0.16,0.006-0.239
	c0.013-0.215,0.083-0.278,0.301-0.278c0.215,0,0.43,0,0.645,0c0,0.005,0,0.01,0,0.016C24.758,6.28,25.006,6.269,25.251,6.282z
	 M30.431,7.356c-0.043,0.198-0.167,0.29-0.366,0.267c-0.196-0.023-0.376-0.002-0.562,0.066c-0.087,0.031-0.189,0.016-0.283,0.031
	c-0.093,0.017-0.198,0.023-0.271,0.073c-0.205,0.137-0.407,0.281-0.474,0.546c-0.021,0.082-0.083,0.152-0.133,0.224
	c-0.134,0.192-0.12,0.381,0.013,0.574c0.188,0.271,0.4,0.495,0.756,0.512c0.008,0.001,0.015,0.005,0.022,0.008
	c0.161,0.082,0.315,0.068,0.483,0.001c0.122-0.048,0.263-0.063,0.396-0.061c0.238,0.005,0.314,0.11,0.266,0.341
	c-0.083,0.396-0.101,0.789-0.004,1.186c0.019,0.077,0.027,0.158,0.028,0.237c0.007,0.338-0.161,0.485-0.497,0.433
	c-0.047-0.007-0.092-0.026-0.137-0.04c-0.199-0.063-0.378-0.016-0.546,0.093c-0.054,0.034-0.098,0.083-0.154,0.113
	c-0.422,0.221-0.652,0.564-0.698,1.042c-0.026,0.269,0.233,0.736,0.487,0.828c0.052,0.019,0.108,0.029,0.164,0.033
	c0.079,0.006,0.159,0.006,0.239,0.003c0.386-0.015,0.772,0.034,1.162-0.049c0.194-0.042,0.411,0.015,0.617,0.026
	c0.103,0.006,0.207,0.018,0.311,0.015c0.486-0.015,0.972-0.028,1.458-0.053c0.124-0.006,0.257-0.03,0.367-0.085
	c0.292-0.14,0.595-0.153,0.887-0.064c0.327,0.099,0.578-0.017,0.816-0.2c0.222-0.172,0.225-0.219,0.065-0.453
	c-0.076-0.111-0.117-0.22-0.094-0.358c0.053-0.308-0.112-0.534-0.42-0.604c-0.09-0.021-0.191-0.05-0.256-0.111
	c-0.13-0.119-0.281-0.141-0.442-0.146c-0.254-0.009-0.508-0.015-0.762-0.02c-0.087-0.001-0.176,0.001-0.263,0.006
	c-0.261,0.016-0.522,0.036-0.784,0.046c-0.122,0.006-0.173-0.087-0.106-0.19c0.025-0.04,0.063-0.071,0.101-0.102
	c0.169-0.144,0.237-0.336,0.25-0.55c0.006-0.102-0.011-0.207-0.015-0.309c-0.01-0.271-0.028-0.543-0.025-0.813
	c0.003-0.26,0.105-0.351,0.372-0.363c0.071-0.003,0.144,0.004,0.215-0.002c0.251-0.023,0.484-0.078,0.652-0.296
	c0.082-0.106,0.186-0.198,0.289-0.284c0.213-0.179,0.239-0.448,0.041-0.641c-0.083-0.083-0.151-0.162-0.15-0.285
	c0.001-0.105-0.056-0.172-0.142-0.233c-0.186-0.133-0.375-0.213-0.617-0.212c-0.266,0.001-0.542-0.021-0.743-0.255
	c-0.139-0.163-0.176-0.353-0.209-0.55c-0.045-0.267-0.082-0.537-0.142-0.8c-0.052-0.225-0.164-0.3-0.391-0.317
	c-0.262-0.021-0.442,0.104-0.57,0.319c-0.149,0.25-0.166,0.528-0.121,0.814C30.484,6.949,30.474,7.156,30.431,7.356z"/>
<path fill="#FFFFFF" d="M33.029,26.868c-0.028-0.137-0.093-0.27-0.157-0.395c-0.11-0.213-0.226-0.424-0.354-0.625
	c-0.086-0.135-0.145-0.141-0.279-0.054c-0.074,0.048-0.137,0.073-0.228,0.036c-0.123-0.051-0.257-0.077-0.38-0.127
	c-0.079-0.032-0.166-0.074-0.217-0.137c-0.131-0.158-0.124-0.164-0.311-0.109c-0.029,0.007-0.057,0.019-0.086,0.024
	c-0.209,0.04-0.338-0.074-0.317-0.286c0.01-0.089,0.035-0.176,0.056-0.264c0.024-0.103,0.002-0.188-0.08-0.263
	c-0.225-0.205-0.484-0.349-0.771-0.445c-0.053-0.017-0.134-0.031-0.17-0.004c-0.172,0.127-0.351,0.245-0.361,0.506
	c-0.008,0.222-0.061,0.444-0.103,0.665c-0.028,0.146-0.123,0.246-0.272,0.261c-0.246,0.023-0.493,0.039-0.739,0.04
	c-0.131,0-0.187-0.069-0.188-0.204c-0.001-0.111-0.001-0.231,0.036-0.333c0.068-0.191,0.057-0.381,0.045-0.577
	c-0.012-0.177-0.046-0.323-0.226-0.403c-0.052-0.023-0.09-0.077-0.13-0.121c-0.179-0.2-0.577-0.296-0.824-0.195
	c-0.114,0.047-0.206,0.12-0.26,0.236c-0.044,0.095-0.107,0.183-0.142,0.28c-0.083,0.24-0.175,0.479-0.132,0.742
	c0.032,0.2,0.06,0.399,0.079,0.601c0.018,0.166-0.022,0.233-0.175,0.299c-0.151,0.066-0.305,0.125-0.461,0.177
	c-0.129,0.044-0.223,0.111-0.266,0.249c-0.019,0.062-0.056,0.133-0.106,0.165c-0.241,0.156-0.5,0.274-0.787,0.314
	c-0.122,0.017-0.183-0.032-0.213-0.149c-0.013-0.05-0.01-0.105-0.021-0.156c-0.071-0.329-0.132-0.659-0.299-0.959
	c-0.067-0.121-0.09-0.267-0.125-0.404c-0.032-0.123-0.044-0.251-0.08-0.373c-0.031-0.107-0.103-0.18-0.225-0.19
	c-0.18-0.011-0.359-0.027-0.538-0.04c-0.118-0.008-0.219,0.027-0.312,0.104c-0.122,0.103-0.228,0.215-0.292,0.365
	c-0.07,0.165-0.143,0.33-0.227,0.488c-0.078,0.146-0.075,0.277,0.002,0.425c0.157,0.3,0.27,0.617,0.344,0.948
	c0.046,0.21-0.013,0.31-0.216,0.373c-0.042,0.014-0.087,0.023-0.13,0.034c-0.467,0.119-0.852,0.363-1.136,0.757
	c-0.052,0.072-0.101,0.151-0.124,0.234c-0.067,0.233,0.048,0.401,0.284,0.44c0.162,0.026,0.311-0.009,0.457-0.081
	c0.092-0.046,0.191-0.103,0.291-0.107c0.223-0.011,0.421-0.056,0.61-0.188c0.171-0.12,0.315-0.046,0.376,0.155
	c0.009,0.028,0.013,0.059,0.02,0.088c0.047,0.196,0.097,0.391,0.141,0.588c0.027,0.124,0.053,0.249,0.061,0.375
	c0.007,0.11-0.038,0.213-0.147,0.258c-0.319,0.128-0.563,0.368-0.838,0.56c-0.159,0.11-0.308,0.239-0.444,0.377
	c-0.163,0.165-0.156,0.276,0.001,0.445c0.115,0.123,0.195,0.259,0.22,0.432c0.028,0.196,0.13,0.288,0.328,0.305
	c0.08,0.007,0.165-0.006,0.244-0.025c0.305-0.076,0.609-0.157,0.913-0.239c0.135-0.036,0.264-0.047,0.394,0.016
	c0.227,0.108,0.448,0.083,0.67-0.023c0.208-0.101,0.428-0.181,0.63-0.294c0.153-0.086,0.292-0.202,0.427-0.318
	c0.094-0.083,0.161-0.197,0.255-0.28c0.173-0.152,0.217-0.353,0.235-0.565c0.007-0.088-0.027-0.163-0.123-0.19
	c-0.142-0.042-0.281-0.096-0.426-0.121c-0.091-0.016-0.19,0.004-0.284,0.021c-0.05,0.008-0.094,0.047-0.141,0.069
	c-0.205,0.095-0.311,0.052-0.375-0.159c-0.037-0.122-0.072-0.245-0.096-0.371c-0.013-0.063-0.021-0.139,0-0.197
	c0.093-0.265,0.085-0.526,0.021-0.796c-0.052-0.218,0.046-0.354,0.272-0.37c0.229-0.017,0.439-0.087,0.646-0.178
	c0.191-0.085,0.384-0.168,0.574-0.254c0.278-0.127,0.404-0.05,0.423,0.261c0.007,0.12,0.02,0.239,0.036,0.357
	c0.032,0.236,0.072,0.472,0.104,0.708c0.032,0.236,0.013,0.482,0.131,0.702c0.091,0.169,0.139,0.349,0.144,0.539
	c0.004,0.169,0.081,0.294,0.2,0.41c0.144,0.141,0.281,0.289,0.406,0.447c0.111,0.142,0.236,0.194,0.411,0.157
	c0.079-0.017,0.173-0.037,0.243-0.011c0.356,0.135,0.715,0.269,1.058,0.433c0.22,0.106,0.414,0.265,0.617,0.405
	c0.127,0.087,0.253,0.118,0.4,0.049c0.191-0.09,0.374-0.06,0.561,0.034c0.11,0.055,0.238,0.076,0.361,0.102
	c0.138,0.029,0.279,0.043,0.417,0.073c0.201,0.044,0.4,0.03,0.558-0.091c0.171-0.132,0.305-0.312,0.365-0.528
	c0.019-0.068,0.021-0.154-0.005-0.217c-0.071-0.167-0.129-0.334-0.13-0.519c0-0.101-0.06-0.172-0.156-0.197
	c-0.101-0.026-0.206-0.034-0.308-0.052c-0.133-0.022-0.265-0.044-0.397-0.069c-0.102-0.019-0.204-0.048-0.307-0.061
	c-0.146-0.017-0.273-0.063-0.386-0.164c-0.136-0.123-0.302-0.187-0.48-0.23c-0.173-0.043-0.342-0.104-0.51-0.163
	c-0.085-0.029-0.164-0.089-0.25-0.099c-0.349-0.041-0.637-0.204-0.906-0.415c-0.012-0.008-0.025-0.017-0.039-0.022
	c-0.259-0.113-0.372-0.335-0.376-0.592c-0.005-0.262-0.066-0.503-0.159-0.742c-0.03-0.076-0.045-0.158-0.068-0.237
	c-0.083-0.284,0.075-0.507,0.19-0.739c0.021-0.04,0.078-0.07,0.126-0.087c0.1-0.034,0.201-0.063,0.303-0.083
	c0.129-0.023,0.191,0.02,0.238,0.149c0.015,0.042,0.022,0.086,0.034,0.129c0.173,0.594,0.216,0.643,0.738,0.866
	c0.007,0.003,0.013,0.007,0.02,0.01c0.175,0.07,0.31,0.03,0.357-0.147c0.095-0.352,0.225-0.7,0.175-1.078
	c-0.031-0.236,0.063-0.337,0.301-0.337c0.081,0,0.166,0.01,0.243,0.034c0.169,0.055,0.257,0.19,0.23,0.364
	c-0.031,0.199-0.043,0.413-0.127,0.591c-0.155,0.325-0.127,0.674-0.184,1.01c-0.071,0.418,0.228,0.693,0.655,0.665
	c0.119-0.008,0.244-0.028,0.356-0.001c0.163,0.04,0.293,0.009,0.42-0.089c0.105-0.081,0.219-0.117,0.357-0.085
	c0.058,0.012,0.129-0.017,0.189-0.04c0.062-0.025,0.117-0.065,0.177-0.097c0.17-0.089,0.176-0.108,0.079-0.269
	c-0.111-0.186-0.145-0.394-0.136-0.603c0.009-0.225,0.04-0.447,0.07-0.757C33.081,27.295,33.072,27.078,33.029,26.868z M45.519,27.3
	c0.239-0.015,0.479-0.026,0.719-0.043c0.284-0.02,0.453-0.176,0.496-0.459c0.012-0.074,0.004-0.15,0.015-0.224
	c0.024-0.169,0.053-0.338,0.083-0.506c0.019-0.095,0.058-0.188,0.065-0.283c0.012-0.155,0.081-0.268,0.2-0.361
	c0.131-0.099,0.259-0.204,0.389-0.305c0.114-0.09,0.241-0.125,0.379-0.067c0.137,0.059,0.272,0.067,0.415,0.024
	c0.057-0.016,0.12-0.003,0.179-0.008c0.187-0.014,0.371-0.031,0.558-0.045c0.08-0.005,0.164-0.017,0.24-0.001
	c0.137,0.03,0.27,0.081,0.403,0.12c0.195,0.057,0.355,0.15,0.443,0.348c0.038,0.086,0.089,0.177,0.16,0.237
	c0.104,0.091,0.155,0.192,0.171,0.327c0.027,0.229,0.052,0.458,0.157,0.674c0.071,0.148,0.033,0.305-0.04,0.454
	c-0.048,0.099-0.075,0.21-0.097,0.317c-0.05,0.249-0.089,0.499-0.136,0.748c-0.012,0.059-0.049,0.113-0.054,0.171
	c-0.033,0.385-0.07,0.772-0.083,1.159c-0.006,0.147-0.011,0.278-0.107,0.399c-0.045,0.057-0.073,0.129-0.099,0.2
	c-0.081,0.217-0.158,0.435-0.234,0.653c-0.06,0.169-0.177,0.242-0.354,0.26c-0.486,0.05-0.956,0.003-1.414-0.173
	c-0.216-0.083-0.439-0.149-0.661-0.218c-0.057-0.018-0.117-0.023-0.177-0.026c-0.31-0.017-0.555-0.223-0.661-0.514
	c-0.12-0.327-0.066-0.649-0.038-0.977c0.013-0.149,0.008-0.298,0.015-0.446c0.007-0.112,0.021-0.224,0.032-0.335
	c0.009-0.091,0.013-0.184-0.073-0.245c-0.088-0.063-0.167-0.016-0.251,0.022c-0.329,0.143-0.65,0.307-1.009,0.368
	c-0.089,0.016-0.178,0.036-0.261,0.069c-0.174,0.069-0.217,0.212-0.107,0.359c0.096,0.126,0.211,0.237,0.373,0.273
	c0.346,0.077,0.568,0.321,0.779,0.576c0.134,0.161,0.249,0.337,0.384,0.497c0.086,0.104,0.121,0.213,0.075,0.332
	c-0.049,0.125-0.111,0.247-0.186,0.358c-0.067,0.103-0.17,0.099-0.294,0.003c-0.111-0.088-0.213-0.189-0.327-0.273
	c-0.162-0.12-0.334-0.228-0.498-0.347c-0.071-0.052-0.134-0.116-0.197-0.178c-0.048-0.046-0.085-0.106-0.137-0.146
	c-0.118-0.087-0.227-0.061-0.303,0.064c-0.095,0.151-0.193,0.3-0.286,0.454c-0.05,0.082-0.085,0.173-0.132,0.258
	c-0.051,0.089-0.095,0.187-0.16,0.265c-0.124,0.149-0.256,0.292-0.33,0.479c-0.025,0.063-0.084,0.123-0.143,0.164
	c-0.123,0.084-0.255,0.155-0.382,0.231c-0.159,0.095-0.241,0.082-0.38-0.041c-0.059-0.053-0.13-0.099-0.203-0.128
	c-0.18-0.072-0.231-0.147-0.206-0.341c0.034-0.259,0.148-0.488,0.285-0.703c0.107-0.169,0.169-0.345,0.193-0.544
	c0.011-0.099,0.064-0.197,0.118-0.285c0.074-0.121,0.167-0.23,0.247-0.348c0.039-0.055,0.079-0.113,0.098-0.176
	c0.021-0.068,0.047-0.159,0.018-0.209c-0.049-0.086-0.151-0.048-0.225-0.018c-0.231,0.097-0.469,0.088-0.708,0.07
	c-0.121-0.009-0.213-0.059-0.277-0.166c-0.042-0.07-0.092-0.137-0.135-0.207c-0.115-0.186-0.11-0.329,0.03-0.495
	c0.072-0.085,0.16-0.158,0.236-0.24c0.119-0.126,0.135-0.196,0.043-0.339c-0.208-0.325-0.105-0.647-0.008-0.972
	c0.038-0.127,0.079-0.255,0.119-0.382c0.035-0.114,0.072-0.228,0.101-0.342c0.094-0.38,0.25-0.731,0.434-1.075
	c0.083-0.153,0.108-0.341,0.142-0.517c0.061-0.317,0.291-0.498,0.523-0.675c0.081-0.062,0.173-0.031,0.226,0.07
	c0.048,0.09,0.074,0.194,0.104,0.294c0.017,0.058,0.021,0.118,0.032,0.178c0.05,0.243,0.169,0.32,0.418,0.289
	c0.494-0.064,0.984-0.057,1.458,0.125c0.063,0.023,0.128,0.046,0.187,0.08c0.2,0.114,0.236,0.249,0.122,0.447
	c-0.034,0.058-0.072,0.115-0.113,0.167c-0.1,0.124-0.126,0.242-0.026,0.387c0.085,0.123,0.033,0.205-0.117,0.184
	c-0.153-0.022-0.3-0.04-0.422,0.081c-0.146,0.143-0.226,0.312-0.227,0.521c-0.001,0.12-0.017,0.239-0.033,0.357
	c-0.029,0.231,0.033,0.301,0.271,0.292C45.399,27.313,45.458,27.305,45.519,27.3C45.519,27.301,45.519,27.301,45.519,27.3z
	 M49.167,27.169c0.01-0.185-0.004-0.39-0.195-0.461c-0.236-0.087-0.491-0.141-0.749-0.079c-0.136,0.032-0.237,0.113-0.246,0.257
	c-0.014,0.216-0.032,0.437-0.01,0.649c0.024,0.225,0.045,0.441-0.012,0.667c-0.062,0.241,0.301,0.638,0.546,0.617
	c0.058-0.004,0.118-0.031,0.166-0.063c0.095-0.062,0.183-0.13,0.271-0.201c0.156-0.125,0.234-0.287,0.231-0.489
	C49.165,27.768,49.167,27.468,49.167,27.169z M44.098,26.262c-0.007-0.052-0.007-0.075-0.011-0.097
	c-0.025-0.117-0.103-0.192-0.195-0.181c-0.111,0.014-0.145,0.095-0.148,0.192c-0.003,0.083,0.006,0.165,0.004,0.247
	c-0.003,0.097,0.007,0.199-0.021,0.289c-0.084,0.263-0.184,0.521-0.278,0.78c-0.034,0.095-0.068,0.194,0.037,0.261
	c0.096,0.061,0.189,0.021,0.271-0.041c0.034-0.027,0.065-0.064,0.088-0.1c0.125-0.205,0.198-0.424,0.134-0.665
	c-0.044-0.161-0.024-0.308,0.048-0.457C44.063,26.411,44.081,26.321,44.098,26.262z M33.524,25.69c0-0.112-0.006-0.225,0.001-0.337
	c0.017-0.274,0.116-0.379,0.377-0.458c0.283-0.087,0.547-0.018,0.815,0.06c0.116,0.033,0.229,0.077,0.346,0.097
	c0.207,0.035,0.34-0.039,0.397-0.24c0.04-0.141,0.053-0.294,0.045-0.442c-0.009-0.155-0.054-0.309-0.088-0.462
	c-0.082-0.365,0.007-0.535,0.352-0.664c0.042-0.016,0.084-0.029,0.127-0.045c0.273-0.098,0.599-0.004,0.746,0.243
	c0.198,0.334,0.378,0.68,0.557,1.024c0.036,0.07,0.031,0.161,0.047,0.241c0.023,0.124,0.039,0.252,0.075,0.374
	c0.051,0.168,0.141,0.235,0.318,0.219c0.125-0.01,0.253-0.042,0.368-0.088c0.185-0.074,0.359-0.077,0.546-0.007
	c0.292,0.109,0.596,0.142,0.907,0.114c0.389-0.036,0.762,0.019,1.109,0.209c0.229,0.126,0.251,0.322,0.037,0.47
	c-0.097,0.067-0.212,0.114-0.326,0.146c-0.244,0.071-0.425,0.203-0.533,0.441c-0.082,0.183-0.23,0.244-0.43,0.16
	c-0.267-0.112-0.5-0.042-0.729,0.086c-0.169,0.095-0.183,0.244-0.01,0.32c0.262,0.117,0.44,0.334,0.659,0.499
	c0.282,0.213,0.468,0.518,0.568,0.867c0.07,0.245,0.173,0.479,0.238,0.725c0.038,0.141,0.03,0.294,0.043,0.441
	c0.013,0.147,0.012,0.298,0.045,0.441c0.04,0.175,0.058,0.336-0.042,0.499c-0.037,0.061-0.059,0.142-0.057,0.213
	c0.009,0.275-0.141,0.438-0.375,0.527c-0.345,0.133-0.627,0.344-0.859,0.626c-0.105,0.129-0.233,0.212-0.41,0.179
	c-0.014-0.003-0.032-0.007-0.044-0.001c-0.287,0.119-0.572,0.033-0.855-0.01c-0.31-0.047-0.614-0.1-0.891-0.279
	c-0.232-0.15-0.481-0.271-0.681-0.471c-0.19-0.19-0.201-0.306-0.005-0.484c0.116-0.106,0.193-0.231,0.203-0.388
	c0.012-0.202-0.112-0.298-0.3-0.221c-0.155,0.065-0.31,0.101-0.478,0.112c-0.075,0.004-0.154,0.053-0.214,0.103
	c-0.085,0.072-0.148,0.169-0.231,0.246c-0.08,0.074-0.17,0.139-0.263,0.198c-0.106,0.068-0.233,0.109-0.326,0.189
	c-0.181,0.155-0.388,0.146-0.597,0.124c-0.128-0.014-0.174-0.11-0.136-0.231c0.007-0.022,0.016-0.044,0.029-0.061
	c0.212-0.288,0.413-0.586,0.643-0.859c0.143-0.169,0.257-0.342,0.335-0.551c0.104-0.279,0.24-0.547,0.364-0.819
	c0.056-0.122,0.119-0.242,0.178-0.363c0.013-0.026,0.019-0.061,0.039-0.08c0.255-0.229,0.298-0.584,0.507-0.84
	c0.038-0.045,0.063-0.104,0.082-0.159c0.05-0.148-0.006-0.234-0.16-0.25c-0.275-0.029-0.553-0.039-0.823-0.089
	c-0.248-0.047-0.512-0.095-0.725-0.217c-0.346-0.2-0.574-0.505-0.522-0.944c0.005-0.045,0.006-0.09,0.009-0.136
	C33.528,25.69,33.526,25.69,33.524,25.69z M38.645,29.448c-0.001-0.005,0.002-0.056-0.018-0.093
	c-0.111-0.211-0.226-0.422-0.347-0.627c-0.029-0.048-0.083-0.083-0.131-0.12c-0.112-0.085-0.232-0.164-0.339-0.256
	c-0.118-0.101-0.239-0.121-0.37-0.041c-0.09,0.055-0.18,0.11-0.259,0.178c-0.263,0.224-0.522,0.45-0.779,0.68
	c-0.061,0.054-0.116,0.119-0.158,0.188c-0.077,0.126-0.142,0.261-0.212,0.391c-0.078,0.143-0.03,0.263,0.128,0.316
	c0.042,0.015,0.087,0.024,0.132,0.028c0.159,0.016,0.277,0.095,0.383,0.212c0.096,0.104,0.202,0.202,0.317,0.284
	c0.472,0.338,0.847,0.346,1.303,0.027c0.164-0.115,0.271-0.264,0.297-0.458C38.622,29.937,38.626,29.711,38.645,29.448z
	 M34.255,26.087c-0.051-0.035-0.075-0.064-0.103-0.069c-0.019-0.004-0.043,0.026-0.065,0.041c0.018,0.026,0.033,0.068,0.057,0.075
	C34.167,26.142,34.201,26.112,34.255,26.087z M68.07,24.47c0.104-0.097,0.2-0.204,0.291-0.313c0.083-0.1,0.104-0.227,0.037-0.338
	c-0.143-0.241-0.314-0.47-0.611-0.522c-0.391-0.069-0.783-0.145-1.176-0.158c-0.348-0.01-0.697,0.063-1.046,0.098
	c-0.008,0-0.015,0.003-0.021,0.005c-0.288,0.062-0.577,0.093-0.869,0.023c-0.218-0.053-0.415,0.004-0.601,0.117
	c-0.063,0.04-0.123,0.09-0.191,0.117c-0.152,0.062-0.236,0.173-0.281,0.327c-0.039,0.131-0.102,0.244-0.212,0.336
	c-0.099,0.082-0.098,0.152-0.019,0.252c0.064,0.083,0.141,0.157,0.208,0.236c0.122,0.145,0.278,0.21,0.461,0.157
	c0.335-0.098,0.667-0.073,1.002-0.014c0.205,0.037,0.254,0.081,0.282,0.286c0.037,0.26,0.074,0.519,0.107,0.78
	c0.014,0.11,0.029,0.223,0.026,0.335c-0.004,0.132,0.008,0.289-0.152,0.344c-0.167,0.057-0.239-0.085-0.313-0.197
	c-0.115-0.176-0.258-0.32-0.42-0.459c-0.253-0.215-0.577-0.285-0.837-0.475c-0.074-0.053-0.156-0.026-0.184,0.06
	c-0.047,0.15-0.142,0.23-0.29,0.281c-0.138,0.047-0.176,0.163-0.106,0.29c0.045,0.084,0.117,0.155,0.179,0.229
	c0.118,0.146,0.245,0.283,0.354,0.435c0.129,0.181,0.102,0.261-0.049,0.426c-0.119,0.131-0.213,0.286-0.312,0.434
	c-0.073,0.113-0.127,0.238-0.2,0.35c-0.223,0.334-0.104,0.725,0.271,0.86c0.091,0.033,0.189,0.042,0.285,0.058
	c0.081,0.014,0.168,0.01,0.244,0.035c0.178,0.055,0.352,0.046,0.533,0.025c0.122-0.014,0.25,0.016,0.375,0.035
	c0.073,0.01,0.144,0.042,0.216,0.057c0.227,0.049,0.266,0.105,0.26,0.34c-0.005,0.216-0.004,0.434,0.007,0.651
	c0.012,0.248,0.008,0.491-0.05,0.736c-0.03,0.132-0.006,0.281,0.013,0.418c0.017,0.11,0.067,0.214,0.095,0.323
	c0.029,0.117,0.099,0.177,0.215,0.198c0.324,0.056,0.646,0.123,0.97,0.173c0.22,0.033,0.375-0.092,0.42-0.312
	c0.02-0.095,0.034-0.192,0.063-0.285c0.04-0.134,0.027-0.259-0.008-0.396c-0.055-0.208-0.132-0.435-0.097-0.636
	c0.045-0.258,0.052-0.501-0.004-0.751c-0.013-0.058-0.013-0.12-0.012-0.179c0.004-0.235,0.08-0.304,0.311-0.317
	c0.146-0.01,0.292-0.049,0.438-0.068c0.117-0.015,0.237-0.034,0.354-0.025c0.126,0.011,0.255,0.038,0.372,0.083
	c0.278,0.108,0.496,0.008,0.697-0.173c0.101-0.091,0.161-0.198,0.14-0.338c-0.019-0.117,0.013-0.217,0.078-0.317
	c0.099-0.153,0.078-0.25-0.069-0.368c-0.179-0.141-0.365-0.267-0.611-0.237c-0.029,0.003-0.061,0-0.089-0.007
	c-0.13-0.027-0.18-0.109-0.127-0.23c0.028-0.067,0.077-0.127,0.129-0.181c0.159-0.169,0.325-0.331,0.483-0.5
	c0.156-0.165,0.157-0.351-0.044-0.471c-0.057-0.034-0.104-0.084-0.155-0.129c-0.182-0.161-0.377-0.204-0.599-0.081
	c-0.169,0.095-0.343,0.185-0.517,0.274c-0.266,0.135-0.487,0.314-0.632,0.585c-0.066,0.124-0.149,0.244-0.246,0.348
	c-0.047,0.051-0.151,0.092-0.213,0.075c-0.062-0.018-0.115-0.107-0.146-0.177c-0.024-0.057-0.02-0.135-0.009-0.198
	c0.055-0.309,0.03-0.621-0.036-0.917c-0.062-0.274-0.024-0.534-0.002-0.8c0.011-0.134,0.078-0.227,0.2-0.273
	c0.161-0.063,0.322-0.127,0.487-0.173c0.171-0.048,0.348-0.076,0.522-0.113C67.896,24.577,67.961,24.57,68.07,24.47z M54.718,25.063
	c0.111-0.361,0.216-0.444,0.537-0.456c0.053-0.001,0.105-0.001,0.157-0.011c0.167-0.027,0.234-0.109,0.223-0.279
	c-0.009-0.104-0.031-0.208-0.052-0.31c-0.051-0.263,0.065-0.469,0.226-0.656c0.088-0.103,0.209-0.108,0.324-0.025
	c0.256,0.185,0.396,0.425,0.346,0.752c-0.011,0.067-0.021,0.134-0.023,0.2c-0.007,0.223,0.094,0.351,0.305,0.315
	c0.281-0.046,0.533,0.05,0.797,0.091c0.084,0.014,0.166,0.034,0.193,0.128c0.03,0.102-0.028,0.169-0.099,0.232
	c-0.172,0.158-0.174,0.162-0.068,0.381c0.078,0.162,0.099,0.322,0.064,0.501c-0.06,0.314,0.032,0.444,0.35,0.505
	c0.14,0.026,0.282,0.039,0.424,0.045c0.152,0.008,0.22-0.067,0.21-0.22c-0.003-0.044-0.019-0.087-0.028-0.131
	c-0.032-0.153-0.067-0.306-0.097-0.46c-0.03-0.154-0.041-0.312-0.081-0.463c-0.1-0.363,0.009-0.663,0.252-0.93
	c0.074-0.083,0.153-0.085,0.241-0.033c0.132,0.08,0.226,0.19,0.292,0.331c0.061,0.127,0.137,0.247,0.212,0.367
	c0.117,0.186,0.207,0.378,0.232,0.601c0.018,0.146,0.063,0.292,0.106,0.434c0.044,0.143,0.105,0.279,0.153,0.421
	c0.067,0.198,0.163,0.289,0.364,0.252c0.361-0.063,0.719-0.003,1.077-0.009c0.322-0.005,0.478,0.274,0.306,0.553
	c-0.085,0.139-0.174,0.279-0.33,0.359c-0.051,0.025-0.102,0.075-0.121,0.126c-0.019,0.046-0.012,0.121,0.015,0.161
	c0.021,0.029,0.115,0.048,0.139,0.028c0.182-0.157,0.377-0.111,0.586-0.079c0.135,0.02,0.274-0.013,0.345,0.144
	c0.074,0.165,0.098,0.32-0.025,0.485c-0.115,0.155-0.199,0.334-0.31,0.494c-0.055,0.077-0.133,0.139-0.206,0.2
	c-0.125,0.106-0.256,0.207-0.382,0.313c-0.033,0.028-0.076,0.067-0.08,0.104c-0.009,0.069-0.016,0.163,0.023,0.205
	c0.037,0.041,0.137,0.051,0.199,0.037c0.067-0.017,0.123-0.081,0.186-0.121c0.161-0.103,0.258-0.095,0.412,0.013
	c0.188,0.132,0.334,0.301,0.448,0.496c0.049,0.082,0.086,0.18,0.091,0.272c0.019,0.321-0.042,0.628-0.216,0.904
	c-0.039,0.062-0.099,0.11-0.156,0.157c-0.075,0.062-0.161,0.11-0.237,0.169c-0.232,0.179-0.479,0.169-0.68-0.047
	c-0.301-0.323-0.598-0.651-0.891-0.982c-0.18-0.205-0.318-0.22-0.495-0.005c-0.145,0.173-0.328,0.283-0.512,0.399
	c-0.056,0.035-0.123,0.053-0.188,0.067c-0.152,0.032-0.308,0.052-0.46,0.084c-0.142,0.029-0.257-0.007-0.338-0.122
	c-0.127-0.182-0.223-0.38-0.195-0.607c0.033-0.293,0.123-0.572,0.293-0.817c0.108-0.157,0.255-0.272,0.438-0.339
	c0.07-0.025,0.141-0.055,0.204-0.094c0.149-0.092,0.199-0.211,0.154-0.384c-0.047-0.179-0.094-0.354-0.222-0.508
	c-0.087-0.104-0.132-0.25-0.177-0.384c-0.109-0.331-0.425-0.535-0.776-0.523c-0.313,0.01-0.627-0.012-0.94-0.022
	c-0.405-0.015-0.809-0.04-1.213-0.045c-0.27-0.002-0.528-0.01-0.796-0.092c-0.218-0.066-0.417-0.148-0.61-0.263
	c-0.126-0.075-0.134-0.099-0.068-0.234c0.056-0.113,0.146-0.229,0.041-0.351c-0.097-0.113-0.223-0.041-0.338-0.021
	c-0.059,0.009-0.119,0.021-0.178,0.02c-0.456-0.025-0.913-0.046-1.368-0.083c-0.131-0.011-0.265-0.055-0.386-0.109
	c-0.188-0.084-0.211-0.269-0.048-0.392c0.078-0.059,0.19-0.104,0.288-0.102c0.321,0.002,0.642,0.03,0.963,0.045
	c0.147,0.006,0.298,0.021,0.443,0.003c0.238-0.028,0.273-0.018,0.308,0.222c0.017,0.119,0.082,0.171,0.189,0.185
	c0.222,0.027,0.444,0.053,0.667,0.073c0.116,0.009,0.185-0.057,0.175-0.181c-0.008-0.086-0.061-0.172-0.063-0.259
	c-0.011-0.329-0.187-0.539-0.463-0.684C54.766,25.087,54.733,25.07,54.718,25.063z M56.002,26.002
	c0.025,0.054,0.044,0.148,0.101,0.206c0.1,0.099,0.233,0.082,0.358,0.043c0.126-0.04,0.199-0.126,0.211-0.26
	c0.013-0.155,0.027-0.311,0.039-0.468c0.012-0.164-0.039-0.234-0.198-0.27c-0.095-0.021-0.189-0.036-0.286-0.052
	c-0.235-0.04-0.346,0.08-0.263,0.309C56.019,25.662,56.062,25.807,56.002,26.002z M62.162,30.559
	c-0.046-0.018-0.078-0.042-0.1-0.033c-0.025,0.007-0.05,0.04-0.057,0.066c-0.004,0.012,0.033,0.047,0.055,0.05
	C62.077,30.644,62.098,30.612,62.162,30.559z M53.984,27.638c-0.117,0.017-0.196,0.028-0.276,0.04
	c-0.084,0.012-0.17,0.029-0.195,0.124c-0.028,0.106,0.045,0.174,0.126,0.214c0.092,0.046,0.193,0.076,0.293,0.103
	c0.049,0.013,0.104,0.005,0.156,0.003c0.552-0.024,0.86,0.33,0.77,0.876c-0.018,0.11-0.021,0.223-0.028,0.334
	c-0.019,0.254-0.039,0.507-0.053,0.761c-0.013,0.268-0.014,0.538-0.029,0.806c-0.02,0.332-0.195,0.502-0.527,0.515
	c-0.096,0.004-0.193-0.012-0.29-0.024c-0.217-0.027-0.428-0.021-0.646,0.016c-0.202,0.034-0.417,0.014-0.625,0
	c-0.141-0.01-0.28-0.045-0.42-0.073c-0.194-0.04-0.287-0.125-0.29-0.315c-0.004-0.242-0.032-0.477-0.124-0.701
	c-0.012-0.027-0.014-0.059-0.014-0.089c-0.007-0.343,0.015-0.69-0.026-1.028c-0.043-0.356,0.022-0.697,0.055-1.045
	c0.016-0.17,0.094-0.275,0.266-0.312c0.072-0.016,0.148-0.013,0.223-0.022c0.096-0.012,0.175-0.053,0.201-0.153
	c0.025-0.095-0.031-0.157-0.098-0.21c-0.041-0.033-0.086-0.06-0.129-0.09c-0.108-0.077-0.159-0.179-0.125-0.311
	c0.033-0.13,0.14-0.164,0.258-0.176c0.326-0.033,0.653-0.061,0.979-0.101c0.161-0.021,0.311-0.004,0.458,0.063
	c0.096,0.044,0.195,0.075,0.294,0.113c0.121,0.047,0.143,0.119,0.063,0.219c-0.022,0.029-0.051,0.063-0.083,0.072
	C53.964,27.305,53.885,27.413,53.984,27.638z M54.007,29.58c-0.009-0.001-0.016-0.002-0.023-0.003c0-0.113,0.002-0.225,0-0.337
	c-0.003-0.254-0.073-0.345-0.321-0.373c-0.186-0.022-0.375-0.025-0.562-0.02c-0.296,0.009-0.405,0.101-0.446,0.398
	c-0.033,0.244-0.044,0.493-0.051,0.739c-0.005,0.168,0.065,0.235,0.229,0.286c0.229,0.07,0.459,0.137,0.681,0.225
	c0.235,0.092,0.358,0.049,0.406-0.205C53.966,30.056,53.98,29.816,54.007,29.58z M55.198,30.434
	c-0.029-0.259-0.058-0.519-0.087-0.778c-0.006-0.052-0.022-0.107-0.012-0.155c0.077-0.367,0.009-0.733,0.017-1.099
	c0.007-0.337,0.313-0.647,0.65-0.64c0.366,0.008,0.733,0.022,1.099,0.046c0.102,0.006,0.2,0.051,0.299,0.083
	c0.127,0.042,0.25,0.103,0.379,0.134c0.328,0.081,0.529,0.371,0.401,0.68c-0.13,0.312-0.1,0.616-0.062,0.927
	c0.017,0.146-0.011,0.277-0.043,0.418c-0.057,0.239-0.101,0.484-0.11,0.729c-0.014,0.384-0.099,0.557-0.582,0.608
	c-0.171,0.019-0.345,0.028-0.517,0.04c-0.175,0.013-0.342-0.016-0.503-0.088c-0.18-0.082-0.364-0.126-0.566-0.114
	c-0.246,0.014-0.39-0.132-0.398-0.382c-0.006-0.134-0.002-0.27-0.002-0.405C55.172,30.436,55.185,30.435,55.198,30.434z
	 M56.448,30.751c0.164,0,0.324-0.018,0.38-0.206c0.04-0.134,0.075-0.274,0.084-0.414c0.016-0.225-0.096-0.31-0.318-0.279
	c-0.14,0.02-0.28,0.035-0.421,0.043c-0.226,0.015-0.338,0.135-0.323,0.363C55.869,30.578,56.076,30.749,56.448,30.751z
	 M55.894,28.829c0.01,0.107,0.013,0.183,0.024,0.256c0.028,0.181,0.106,0.249,0.285,0.244c0.164-0.004,0.327-0.017,0.49-0.026
	c0.102-0.007,0.191-0.036,0.243-0.133c0.13-0.243-0.076-0.582-0.351-0.57c-0.164,0.006-0.327,0.021-0.489,0.037
	C55.928,28.652,55.888,28.7,55.894,28.829z M54.14,24.64c-0.205-0.138-0.247-0.27-0.092-0.463c0.155-0.192,0.161-0.388,0.11-0.612
	c-0.024-0.106-0.035-0.224-0.014-0.329c0.034-0.167,0.027-0.325-0.009-0.489c-0.086-0.401-0.167-0.464-0.562-0.412
	c-0.18,0.023-0.23,0.076-0.258,0.252c-0.021,0.139-0.055,0.278-0.079,0.417c-0.06,0.341-0.218,0.672-0.062,1.032
	c0.054,0.125-0.027,0.233-0.165,0.271c-0.085,0.024-0.177,0.031-0.266,0.03c-0.277-0.004-0.534,0.075-0.783,0.178
	c-0.238,0.098-0.259,0.275-0.051,0.415c0.233,0.157,0.458,0.345,0.774,0.296c0.049-0.007,0.103,0.016,0.154,0.024
	c0.229,0.034,0.457,0.079,0.687,0.096c0.123,0.008,0.252-0.024,0.375-0.049c0.161-0.033,0.318-0.076,0.479-0.111
	c0.095-0.021,0.195-0.024,0.263-0.18C54.475,24.883,54.312,24.755,54.14,24.64z M61.604,25.3c-0.004-0.089,0.004-0.182-0.016-0.267
	c-0.026-0.107-0.056-0.223-0.117-0.31c-0.12-0.171-0.26-0.329-0.397-0.485c-0.121-0.139-0.273-0.223-0.461-0.256
	c-0.16-0.028-0.319-0.079-0.473-0.133c-0.134-0.047-0.258-0.088-0.378,0.021c-0.137,0.126-0.252,0.267-0.202,0.469
	c0.063,0.256,0.16,0.497,0.31,0.717c0.193,0.284,0.373,0.578,0.574,0.856c0.094,0.131,0.212,0.254,0.342,0.35
	c0.189,0.137,0.392,0.078,0.502-0.133c0.057-0.11,0.131-0.175,0.258-0.182c0.101-0.005,0.146-0.06,0.124-0.166
	c-0.032-0.158-0.059-0.317-0.087-0.476C61.589,25.303,61.597,25.302,61.604,25.3z M76.774,26.815c-0.011,0-0.023,0-0.034,0
	c-0.001,0.134,0.096,1.056-0.274,0.886c-0.027-0.012-0.035-0.033-0.022-0.063c-0.134,0.293-0.578,0.283-0.796,0.066
	c-0.17-0.17-0.312-0.374-0.418-0.582c-0.006-0.012-0.012-0.024-0.018-0.036c-0.078,0.011-0.163,0.011-0.256,0
	c-0.229-0.025-0.459-0.042-0.688-0.062c-0.001,0.006-0.001,0.013-0.002,0.019c-0.098-0.009-0.196-0.031-0.294-0.025
	c-0.18,0.011-0.359,0.03-0.536,0.059c-0.161,0.027-0.317,0.079-0.478,0.109l-0.194,0.035l-0.167,0.022l-0.654,0.067l-0.338-0.006
	c0,0-0.573-0.062-0.729-0.064c-0.156-0.002-0.339-0.031-0.339-0.031s-0.165-0.447-0.174-0.472c-0.051-0.138-0.038-0.293-0.053-0.434
	c-0.022-0.219-0.019-0.08-0.004-0.299c0.016-0.256,0.188-0.626,0.268-0.858l0.22-0.249l0.122-0.233l0.234-0.481
	c0.063-0.196,0.137-0.391,0.179-0.591c0.087-0.405,0.335-0.712,0.602-1.003c0.29-0.318,0.804-0.324,1.043,0.032
	c0.208,0.305,0.27,0.612,0.057,0.942c-0.053,0.082-0.078,0.182-0.101,0.277c-0.03,0.128-0.026,0.267-0.071,0.388
	c-0.147,0.404-0.917,0.971-0.662,1.213c0.139,0.132,0.315,0.186,0.5,0.183c0.403-0.007,1.226-0.148,1.791-0.139
	c-0.087-0.255-0.134-0.516-0.149-0.782c-0.019-0.293,0.192-0.448,0.434-0.578c0.211-0.113,0.388-0.021,0.574,0.086
	c0.173,0.097,0.234,0.422,0.385,0.57c0.165,0.162,0.221,0.278,0.35,0.481c0.164,0.257,0.33,0.515,0.463,0.785
	c0.068,0.139,0.08,0.304,0.09,0.458C76.639,26.628,76.792,26.69,76.774,26.815z M72.741,31.984c-0.173-0.05-0.362-0.083-0.55-0.11
	c-0.091-0.015-0.193-0.003-0.292,0.001c-1.028,0.042-1.611-0.357-1.452-0.991c0.031-0.127,0.035-0.258,0.048-0.387
	c0.03-0.292,0.064-0.585,0.084-0.878c0.021-0.31,0.018-0.621,0.042-0.93c0.031-0.382,0.355-0.583,0.976-0.607
	c0.181-0.007,0.362,0.008,0.543,0.02c0.405,0.025,0.8,0.012,1.207-0.035c0.379-0.045,0.779-0.027,1.168-0.017
	c0.264,0.007,0.525,0.044,0.786,0.073c0.363,0.04,0.539,0.137,0.547,0.355c0.012,0.28,0.069,0.549,0.244,0.806
	c0.021,0.031,0.027,0.068,0.029,0.101c0.019,0.396-0.017,0.795,0.065,1.186c0.086,0.409-0.031,0.804-0.084,1.204
	c-0.027,0.197-0.172,0.321-0.492,0.368c-0.135,0.02-0.278,0.019-0.416,0.032l-1.179-0.073l-0.24,0.004l-0.528-0.082L72.741,31.984z
	 M74.573,29.928c-0.014,0-0.029,0.001-0.043,0.001c-0.014-0.129-0.027-0.258-0.045-0.387c-0.04-0.289-0.182-0.378-0.646-0.357
	c-0.346,0.016-0.697,0.052-1.043,0.098c-0.549,0.073-0.739,0.202-0.775,0.552c-0.03,0.287-0.018,0.574,0.003,0.858
	c0.014,0.193,0.152,0.255,0.465,0.277c0.433,0.032,0.869,0.058,1.293,0.11c0.45,0.055,0.671-0.021,0.728-0.321
	C74.559,30.482,74.553,30.205,74.573,29.928z"/>
</svg>
