<?xml version="1.0" encoding="utf-8"?>
<!-- Generator: Adobe Illustrator 16.0.0, SVG Export Plug-In . SVG Version: 6.00 Build 0)  -->
<!DOCTYPE svg PUBLIC "-//W3C//DTD SVG 1.1//EN" "http://www.w3.org/Graphics/SVG/1.1/DTD/svg11.dtd">
<svg version="1.1" id="圖層_1" xmlns="http://www.w3.org/2000/svg" xmlns:xlink="http://www.w3.org/1999/xlink" x="0px" y="0px"
	 width="105.712px" height="70.54px" viewBox="-145.108 -18.397 105.712 70.54"
	 enable-background="new -145.108 -18.397 105.712 70.54" xml:space="preserve">
<g>
	<g>
		<g>
			<path fill="#794431" d="M-83.326,50.615c-0.779,0-1.967-0.106-3.975-0.474c-7.182-1.313-12.426-7.018-15.665-11.846
				c-25.203-0.682-40.494-3.15-40.713-28.898c-0.14-16.514,12.548-25.039,38.791-26.074c5.003-0.198,9.703-0.294,13.968-0.294
				c36.365,0,49.943,6.979,50.096,25.747c0.074,8.807-2.089,15.321-6.613,19.912c-6.561,6.659-17.941,9.529-39.085,9.801
				c0.718,3.446,2.679,5.932,4.034,7.649c1.085,1.375,1.869,2.317,1.315,3.46c-0.515,1.063-1.737,1.017-2.146,1.017
				C-83.323,50.615-83.325,50.615-83.326,50.615z"/>
			<path fill="#FFFFFF" d="M-90.921-15.54c38.558,0,48.534,8.035,48.667,24.329c0.194,23.082-15.205,28.088-45.919,28.288
				c0.723,8.287,8.296,12.209,4.847,12.209c-0.714,0-1.901-0.168-3.718-0.5c-6.904-1.263-11.969-6.969-15.139-11.873
				c-25.891-0.662-39.858-2.968-40.067-27.516c-0.146-17.155,14.162-23.723,37.418-24.641C-99.827-15.441-95.199-15.54-90.921-15.54
				 M-90.921-18.397c-4.284,0-9.002,0.1-14.024,0.298c-12.847,0.507-22.283,2.679-28.848,6.64
				c-7.586,4.578-11.393,11.603-11.314,20.88c0.108,12.774,3.883,20.779,11.879,25.192c7.34,4.052,18.086,4.792,29.493,5.115
				c4.642,6.685,10.211,10.776,16.177,11.868c2.125,0.389,3.352,0.547,4.232,0.547c2.091,0,3.023-1.018,3.437-1.872
				c0.944-1.947-0.288-3.509-1.479-5.019c-1.025-1.299-2.423-3.071-3.267-5.362c15.325-0.289,30.141-2.005,38.214-10.199
				c4.803-4.875,7.101-11.721,7.023-20.927C-39.559-11.035-53.523-18.397-90.921-18.397L-90.921-18.397z"/>
		</g>
	</g>
	<g>
		<path fill="#FFFFFF" d="M-119.75,5.885h-4.422V2.628h12.806v3.256h-4.444v13.114h-3.939V5.885z"/>
		<path fill="#FFFFFF" d="M-109.762,10.725c0-5.369,3.037-8.405,7.503-8.405c4.466,0,7.503,3.058,7.503,8.405
			c0,5.369-3.037,8.582-7.503,8.582C-106.725,19.307-109.762,16.094-109.762,10.725z M-98.76,10.725
			c0-3.168-1.342-5.039-3.498-5.039c-2.157,0-3.477,1.871-3.477,5.039c0,3.191,1.32,5.193,3.477,5.193
			C-100.102,15.918-98.76,13.916-98.76,10.725z"/>
		<path fill="#FFFFFF" d="M-91.172,2.628h5.743c3.608,0,6.579,1.276,6.579,5.325c0,3.895-3.014,5.611-6.469,5.611h-1.914v5.435
			h-3.939V2.628z M-85.517,10.461c1.915,0,2.839-0.902,2.839-2.508c0-1.65-1.057-2.223-2.949-2.223h-1.606v4.731H-85.517z"/>
	</g>
	<path fill="#FFFFFF" d="M-70.738,15.188c-0.384,0-0.768-0.146-1.061-0.439c-0.586-0.585-0.586-1.535,0-2.121l5.748-5.748
		c0.563-0.563,1.559-0.563,2.121,0l5.748,5.748c0.586,0.585,0.586,1.536,0,2.121c-0.586,0.586-1.535,0.586-2.121,0l-4.688-4.687
		l-4.687,4.687C-69.97,15.041-70.354,15.188-70.738,15.188z"/>
</g>
</svg>
