<?xml version="1.0" encoding="utf-8"?>
<!-- Generator: Adobe Illustrator 16.0.0, SVG Export Plug-In . SVG Version: 6.00 Build 0)  -->
<!DOCTYPE svg PUBLIC "-//W3C//DTD SVG 1.1//EN" "http://www.w3.org/Graphics/SVG/1.1/DTD/svg11.dtd">
<svg version="1.1" id="Layer_3" xmlns="http://www.w3.org/2000/svg" xmlns:xlink="http://www.w3.org/1999/xlink" x="0px" y="0px"
	 width="102.421px" height="101.447px" viewBox="0 0 102.421 101.447" enable-background="new 0 0 102.421 101.447"
	 xml:space="preserve">
<g>
	<g>
		<path fill="#F9D36C" d="M62.055,99.948c-0.54,0-1.076-0.071-1.593-0.214c-0.953-0.265-1.844-0.771-2.58-1.468L37.071,80.06
			l-26.79,5.396c-0.393,0.081-0.804,0.124-1.213,0.124c-1.853,0-3.629-0.884-4.752-2.36c-1.391-1.788-1.646-4.275-0.638-6.321
			l11.985-24.492L2.275,28.639c-1.126-1.982-1.019-4.479,0.275-6.357c1.118-1.646,2.983-2.634,4.982-2.634
			c0.276,0,0.554,0.02,0.833,0.059l27.011,3.834L53.837,3.469C54.974,2.22,56.594,1.5,58.278,1.5c0.586,0,1.164,0.088,1.72,0.261
			c2.199,0.66,3.824,2.479,4.225,4.741l4.688,26.865L93.708,44.72c2.069,0.937,3.455,3.02,3.521,5.305
			c0.068,2.271-1.189,4.434-3.204,5.506L69.973,68.285l-1.91,26.267c-0.278,2.368-1.798,4.276-3.974,5.048
			C63.431,99.831,62.748,99.948,62.055,99.948z"/>
		<path fill="#FFFFFF" d="M58.278,3c0.427,0,0.854,0.063,1.271,0.192c1.656,0.497,2.896,1.875,3.195,3.57l4.823,27.639
			l25.517,11.682c1.574,0.712,2.597,2.263,2.646,3.984c0.053,1.719-0.889,3.327-2.409,4.139L68.537,67.348l-1.97,27.095
			c-0.202,1.714-1.348,3.164-2.979,3.742c-0.498,0.176-1.018,0.263-1.533,0.263c-0.404,0-0.807-0.054-1.195-0.159
			c-0.715-0.198-1.385-0.579-1.947-1.111L37.501,78.443L9.985,83.985c-0.306,0.063-0.613,0.096-0.917,0.096
			c-1.381,0-2.701-0.641-3.558-1.769c-1.059-1.36-1.248-3.206-0.487-4.751l12.333-25.204L3.582,27.903
			c-0.853-1.5-0.772-3.354,0.203-4.77c0.851-1.252,2.266-1.985,3.748-1.985c0.207,0,0.416,0.015,0.624,0.043l27.789,3.944
			l18.996-20.65C55.807,3.533,57.035,3,58.278,3 M58.278,0c-2.104,0-4.13,0.898-5.555,2.466L34.806,21.944L8.578,18.221
			c-0.348-0.049-0.698-0.073-1.045-0.073c-2.497,0-4.825,1.233-6.229,3.299c-1.607,2.332-1.741,5.454-0.33,7.938l12.995,23.07
			L2.329,76.243c-1.256,2.551-0.938,5.657,0.813,7.91c1.384,1.822,3.607,2.927,5.926,2.927c0.512,0,1.026-0.054,1.528-0.157
			l26.045-5.246L56.898,99.4c0.904,0.843,1.995,1.456,3.16,1.778c0.654,0.18,1.322,0.27,1.997,0.27c0.862,0,1.714-0.146,2.53-0.433
			c2.724-0.966,4.623-3.349,4.961-6.221l0.009-0.067l0.005-0.065l1.85-25.439l23.317-12.365c2.519-1.342,4.088-4.041,4.002-6.878
			c-0.084-2.852-1.813-5.454-4.408-6.628l-24.069-11.02L65.701,6.248c-0.5-2.83-2.527-5.1-5.289-5.929
			C59.746,0.111,59.016,0,58.278,0L58.278,0z"/>
	</g>
	<g>
		<path fill="#F0B772" d="M80.651,91.734c-0.567,0-1.13-0.189-1.583-0.536c-0.783-0.583-1.177-1.598-0.99-2.573l1.139-6.04
			l-4.334-4.367c-0.699-0.7-0.942-1.761-0.616-2.7c0.315-0.929,1.157-1.617,2.138-1.744l6.105-0.784l2.813-5.47
			c0.438-0.862,1.348-1.425,2.313-1.425c1.072,0.024,1.959,0.599,2.387,1.499l2.629,5.563l6.072,0.984
			c0.973,0.153,1.794,0.866,2.086,1.816c0.29,0.942,0.013,1.994-0.706,2.675l-4.444,4.191l1.146,5.776
			c0.164,1.061-0.254,2.034-1.076,2.609c-0.448,0.311-0.967,0.474-1.504,0.474c-0.428,0-0.857-0.107-1.241-0.313l-5.616-2.714
			l-5.535,2.795C81.474,91.634,81.063,91.734,80.651,91.734z"/>
		<path fill="#FFFFFF" d="M87.634,67.593c0.013,0,0.025,0.001,0.037,0.001c0.428,0.01,0.813,0.257,0.996,0.642l2.965,6.273
			l6.851,1.11c0.422,0.065,0.769,0.368,0.894,0.775c0.125,0.406,0.006,0.853-0.304,1.146l-5.047,4.761l1.31,6.59
			c0.063,0.422-0.113,0.843-0.465,1.088c-0.19,0.133-0.416,0.203-0.645,0.203c-0.184,0-0.368-0.047-0.537-0.137l-6.335-3.063
			l-6.196,3.128c-0.16,0.082-0.334,0.122-0.506,0.122c-0.238,0-0.474-0.077-0.671-0.228c-0.342-0.255-0.508-0.684-0.428-1.102
			l1.286-6.818l-4.891-4.927c-0.302-0.303-0.404-0.749-0.265-1.15c0.138-0.404,0.494-0.695,0.915-0.75l6.885-0.884l3.174-6.171
			C86.845,67.834,87.227,67.593,87.634,67.593 M87.634,64.593c-1.547,0-2.946,0.863-3.651,2.253l-2.444,4.755l-5.32,0.684
			c-1.549,0.2-2.871,1.283-3.373,2.759c-0.508,1.46-0.125,3.131,0.982,4.237l3.771,3.801l-0.994,5.27
			c-0.292,1.528,0.328,3.126,1.583,4.063c0.685,0.521,1.569,0.821,2.465,0.821c0.647,0,1.296-0.155,1.875-0.453l4.856-2.45
			l4.966,2.398c0.583,0.297,1.231,0.453,1.878,0.453c0.844,0,1.659-0.255,2.354-0.738c1.303-0.91,1.959-2.442,1.721-4.006
			l-0.01-0.064l-0.014-0.065l-0.984-4.962l3.84-3.622c1.134-1.073,1.568-2.724,1.111-4.209c-0.459-1.493-1.752-2.615-3.293-2.857
			L93.669,71.8l-2.291-4.847c-0.674-1.422-2.067-2.322-3.64-2.358l-0.034-0.001L87.634,64.593L87.634,64.593z"/>
	</g>
</g>
</svg>
