<?xml version="1.0" encoding="utf-8"?>
<!-- Generator: Adobe Illustrator 16.0.0, SVG Export Plug-In . SVG Version: 6.00 Build 0)  -->
<!DOCTYPE svg PUBLIC "-//W3C//DTD SVG 1.1//EN" "http://www.w3.org/Graphics/SVG/1.1/DTD/svg11.dtd">
<svg version="1.1" id="圖層_1" xmlns="http://www.w3.org/2000/svg" xmlns:xlink="http://www.w3.org/1999/xlink" x="0px" y="0px"
	 width="183.625px" height="1.41px" viewBox="0 0 183.625 1.41" enable-background="new 0 0 183.625 1.41" xml:space="preserve">
<path fill="#FFFFFF" d="M183.624,0.276c-0.041,0.01,0.063,0.071-0.207,0.066C183.432,0.358,183.175,0.289,183.624,0.276z
	 M177.059,0.498l0.121,0.024l0.34-0.084c-0.902,0.011-2.08,0.073-2.713,0.034C175.189,0.585,176.32,0.459,177.059,0.498z
	 M173.127,0.242c-0.049-0.005-0.063-0.007-0.092-0.011c-0.092-0.001-0.215-0.002-0.426-0.007
	C172.742,0.266,172.125,0.254,173.127,0.242z M173.035,0.23C173.475,0.232,172.751,0.194,173.035,0.23L173.035,0.23z M171.587,0.203
	c-0.116-0.025-0.629-0.036-0.437-0.051c-0.594,0.013-0.478,0.038-0.147,0.081L171.587,0.203z M171.038,0.283
	c-0.056,0.03,0.073,0.001,0.349-0.018l-0.641,0.026c-0.053-0.01-0.129-0.015-0.305,0.012l0.304-0.012
	C170.825,0.309,170.829,0.343,171.038,0.283z M171.895,0.36c1.11-0.003,0.959-0.078-0.15-0.075
	C172.064,0.311,172.482,0.33,171.895,0.36z M167.632,0.231L167.632,0.231l0.435-0.021c-0.217-0.018-0.631-0.036-0.652-0.069
	C167.373,0.164,167.592,0.203,167.632,0.231l-0.647,0.031C167.555,0.274,167.662,0.256,167.632,0.231z M171.384,0.349l-1.267,0.068
	l0.201,0.001L171.384,0.349z M165.332,0.063l-0.666,0.069l0.291-0.023L165.332,0.063z M163.258,0
	c-0.443,0.002-0.83,0.034-1.178,0.063c0.365-0.014,0.752-0.005,1.244,0.036C163.602,0.06,162.967,0.022,163.258,0z M165.891,0.238
	c-0.048-0.014-0.138-0.05-0.494-0.069l0.24,0.065C165.714,0.236,165.8,0.237,165.891,0.238z M165.646,0.236l-0.01-0.002
	c-0.273-0.005-0.466-0.009-0.546-0.01C165.16,0.226,165.328,0.229,165.646,0.236z M168.65,0.344
	c-0.383,0.031-1.176,0.06-0.426,0.121C168.503,0.425,168.076,0.391,168.65,0.344z M166.995,0.286l-0.744,0.035l0.681,0.022
	C166.921,0.326,166.805,0.301,166.995,0.286z M166.251,0.321L166,0.313l-0.086,0.024L166.251,0.321z M162.66,0.176
	c-0.301,0.023-0.623,0.022-0.988,0.022c0.389,0.017,0.791,0.028,1.176,0.033C162.904,0.212,163.08,0.179,162.66,0.176z
	 M164.109,0.211c-0.021,0.001-0.047,0.002-0.066,0.003C164.083,0.22,164.115,0.222,164.109,0.211z M158.07,0.163l0.058,0.012
	l0.015-0.011L158.07,0.163z M162.91,0.244c0.291,0.016,0.471,0.002,0.641-0.015c-0.221,0.004-0.453,0.005-0.703,0.002
	C162.82,0.24,162.814,0.246,162.91,0.244z M160.492,0.121c0.15,0.015,0.322,0.028,0.504,0.041
	C160.85,0.14,160.548,0.105,160.492,0.121z M163.947,0.195l0.045-0.002C163.898,0.178,163.91,0.185,163.947,0.195z M164.043,0.213
	c-0.036-0.004-0.07-0.011-0.096-0.018c-0.152,0.007-0.273,0.021-0.396,0.033C163.732,0.226,163.898,0.221,164.043,0.213z
	 M159.518,0.18l-0.097,0.008l0.279-0.004c-0.313-0.015-0.539-0.039-0.953-0.086c-0.472,0.026-0.569,0.047-0.604,0.066
	c0,0,0.344,0.003,0.688,0.007C159.175,0.174,159.518,0.18,159.518,0.18z M160.949,0.199c-0.621,0-0.971-0.003-1.247-0.015
	l1.323-0.018h-0.004l-0.028-0.004c0.213,0.015,0.442,0.026,0.676,0.037c-0.221,0-0.453,0-0.713,0.008
	c0.944,0.047-0.757,0.077,0.56,0.077c-0.49,0.021-0.257,0.072-1.07,0.067C160.049,0.278,160.719,0.259,160.949,0.199
	c0.026-0.008,0.049-0.015,0.06-0.023C160.886,0.181,160.57,0.181,160.949,0.199z M161.014,0.175c0.007,0,0.021,0,0.024-0.001
	c0.061,0.006,0.045,0.001-0.009-0.007C161.026,0.169,161.02,0.172,161.014,0.175z M167.496,0.593
	c-0.039-0.006-0.037-0.01-0.039-0.015C167.371,0.585,167.337,0.59,167.496,0.593z M166.387,0.402
	c-0.013-0.005-0.024-0.009-0.037-0.014C166.33,0.39,166.35,0.396,166.387,0.402z M167.54,0.503l-0.095,0.007
	c-0.416-0.021-0.915-0.08-1.059-0.107c0.131,0.052,0.266,0.092,0.575,0.146c0.099-0.008,0.185-0.032,0.492-0.022
	c0.267,0.021-0.009,0.03,0.002,0.051C167.646,0.563,168.12,0.539,167.54,0.503z M163.917,0.39l-1.104,0.018l0.549,0.062
	l-0.022-0.033C163.96,0.456,163.833,0.414,163.917,0.39z M158.104,0.065l-0.65,0.091l0.496-0.025L158.104,0.065z M156.568,0.075
	l-0.381,0.032l0.324,0.025L156.568,0.075z M75.813,1.06c0.151-0.003,0.248-0.007,0.32-0.013L75.813,1.06z M78.438,1.108l0.067-0.027
	C78.393,1.094,78.344,1.104,78.438,1.108z M63.192,1.165c0.584-0.003,0.324-0.034,0.367-0.066L63.192,1.165z M141.736,0.299
	c-0.42-0.014-0.75-0.015-1.035-0.01C141.21,0.312,141.632,0.355,141.736,0.299z M17.234,1.203c-0.01,0.009,0.037,0.009,0.105,0.007
	C17.305,1.208,17.264,1.206,17.234,1.203z M4.453,0.517C4.354,0.512,4.188,0.511,3.902,0.518C4.034,0.515,4.25,0.516,4.453,0.517z
	 M150.721,0.082C151.029,0.075,150.77,0.075,150.721,0.082L150.721,0.082z M152.087,0.364c0.024-0.015,0.067-0.025,0.121-0.031
	C152.145,0.34,152.096,0.349,152.087,0.364z M150.79,0.091c0.063,0.005,0.187,0.008,0.396,0.015
	C151.072,0.098,150.936,0.094,150.79,0.091z M151.123,0.077c0.105,0.003,0.188,0.005,0.268,0.007
	C151.428,0.074,151.395,0.067,151.123,0.077z M150.791,0.091c-0.063-0.003-0.088-0.007-0.07-0.009
	c-0.093,0.002-0.22,0.004-0.432,0.009C150.467,0.088,150.63,0.089,150.791,0.091L150.791,0.091z M42.058,0.853
	c-0.02-0.002-0.04-0.004-0.064-0.006C41.688,0.869,41.822,0.866,42.058,0.853z M63.592,1.086c-0.019,0.004-0.028,0.009-0.033,0.013
	l0.068-0.013H63.592z M153.884,0.06l-0.661,0.015c0.319-0.002,0.436,0.014,0.596,0.026C153.803,0.084,153.678,0.06,153.884,0.06z
	 M159.55,0.526c0.099-0.008,0.203,0.001,0.3-0.006l-0.021-0.033C159.421,0.484,159.132,0.507,159.55,0.526z M155.326,0.329
	c0.142-0.082-0.352-0.057-0.844-0.032c0.051,0.06,0.463,0.042,0.926,0.033C155.381,0.33,155.354,0.33,155.326,0.329z M155.941,0.328
	c0.057-0.033-0.172-0.007-0.426,0C155.658,0.326,155.802,0.325,155.941,0.328z M149.708,0.143c0.224,0.013,0.131-0.077,0.26-0.055
	C150.208,0.01,148.496,0.197,149.708,0.143z M154.423,0.478l0.42,0.016l-0.157-0.074L154.423,0.478z M151.221,0.422l0.733,0.024
	c-0.013-0.012,0.082-0.019,0.194-0.024C151.699,0.417,151.203,0.4,151.221,0.422z M152.742,0.413c-0.129,0-0.403,0.001-0.592,0.009
	C152.386,0.424,152.609,0.424,152.742,0.413z M153.107,0.486l0.733,0.025l-0.216-0.016L153.107,0.486z M1.693,0.424L1.092,0.39
	l0.382,0.052L1.693,0.424z M0,0.515c0.138-0.003,0.406-0.01,0.506,0.012L0.382,0.432L0,0.515z M83.538,1.391l0.055-0.021
	c-0.086-0.027-0.23-0.031-0.518-0.041L83.538,1.391z M75.355,1.131l0.138,0.003L75.26,1.045L75.355,1.131z M68.56,1.205
	c0.28,0.002,0.61-0.019,0.892-0.017C68.84,1.207,68.482,1.098,68.56,1.205z M0.207,0.342C0.192,0.358,0.449,0.289,0,0.276
	C0.041,0.286-0.063,0.347,0.207,0.342z M6.565,0.498c0.738-0.039,1.869,0.087,2.252-0.026C8.185,0.511,7.007,0.449,6.104,0.438
	l0.34,0.084L6.565,0.498z M10.589,0.231c-0.029,0.004-0.043,0.006-0.092,0.011c1.002,0.012,0.385,0.024,0.518-0.018
	C10.804,0.229,10.681,0.23,10.589,0.231z M10.589,0.23C10.873,0.194,10.149,0.232,10.589,0.23L10.589,0.23z M12.621,0.233
	c0.33-0.043,0.446-0.068-0.147-0.081c0.192,0.015-0.32,0.026-0.437,0.051L12.621,0.233z M12.237,0.265
	c0.275,0.019,0.404,0.048,0.349,0.018c0.209,0.06,0.213,0.026,0.293,0.008l0.304,0.012c-0.175-0.027-0.251-0.022-0.304-0.012
	L12.237,0.265z M11.729,0.36c-0.588-0.03-0.17-0.049,0.15-0.075C10.771,0.282,10.619,0.357,11.729,0.36z M15.992,0.231
	c-0.03,0.024,0.077,0.042,0.647,0.031L15.992,0.231c0.04-0.028,0.258-0.067,0.218-0.089c-0.021,0.033-0.436,0.051-0.652,0.069
	L15.992,0.231L15.992,0.231z M13.306,0.418l0.201-0.001L12.24,0.349L13.306,0.418z M18.958,0.132l-0.666-0.069l0.375,0.046
	L18.958,0.132z M20.3,0.099c0.492-0.041,0.879-0.05,1.244-0.036C21.196,0.034,20.81,0.002,20.366,0
	C20.657,0.022,20.022,0.06,20.3,0.099z M18.228,0.169c-0.356,0.019-0.446,0.055-0.494,0.069c0.091-0.001,0.177-0.002,0.254-0.004
	L18.228,0.169z M18.533,0.224c-0.08,0.001-0.272,0.005-0.546,0.01l-0.01,0.002C18.296,0.229,18.464,0.226,18.533,0.224z
	 M15.399,0.465c0.75-0.061-0.043-0.09-0.426-0.121C15.548,0.391,15.121,0.425,15.399,0.465z M16.692,0.343l0.681-0.022l-0.744-0.035
	C16.819,0.301,16.703,0.326,16.692,0.343z M17.624,0.313l-0.251,0.008l0.337,0.016L17.624,0.313z M20.964,0.176
	c-0.42,0.003-0.244,0.036-0.188,0.055c0.385-0.005,0.787-0.016,1.176-0.033C21.587,0.198,21.265,0.199,20.964,0.176z M19.581,0.214
	c-0.02-0.001-0.045-0.002-0.066-0.003C19.509,0.222,19.541,0.22,19.581,0.214z M25.481,0.164l0.015,0.011l0.058-0.012L25.481,0.164z
	 M20.714,0.244c0.096,0.002,0.09-0.004,0.063-0.013c-0.25,0.003-0.482,0.002-0.703-0.002C20.243,0.246,20.423,0.26,20.714,0.244z
	 M22.628,0.162c0.182-0.013,0.354-0.026,0.504-0.041C23.076,0.105,22.774,0.14,22.628,0.162z M19.632,0.193l0.045,0.002
	C19.714,0.185,19.726,0.178,19.632,0.193z M20.073,0.228c-0.123-0.012-0.244-0.026-0.396-0.033c-0.025,0.007-0.06,0.014-0.096,0.018
	C19.726,0.221,19.892,0.226,20.073,0.228z M23.924,0.184l0.279,0.004L24.106,0.18c0,0,0.343-0.006,0.687-0.009
	c0.345-0.004,0.688-0.007,0.688-0.007c-0.035-0.019-0.133-0.04-0.604-0.066C24.463,0.145,24.237,0.169,23.924,0.184z M22.599,0.166
	l1.323,0.018c-0.276,0.012-0.626,0.015-1.247,0.015c0.378-0.018,0.063-0.018-0.06-0.023c0.011,0.009,0.033,0.016,0.06,0.023
	c0.23,0.06,0.9,0.079,0.504,0.152c-0.813,0.005-0.58-0.046-1.07-0.067c1.316,0-0.385-0.03,0.56-0.077
	c-0.26-0.008-0.492-0.008-0.713-0.008c0.233-0.011,0.463-0.022,0.676-0.037l-0.028,0.004H22.599z M22.595,0.167
	c-0.054,0.008-0.07,0.014-0.009,0.007c0.003,0.001,0.018,0.001,0.024,0.001C22.604,0.172,22.597,0.169,22.595,0.167z M16.128,0.593
	c0.159-0.003,0.125-0.008,0.039-0.015C16.165,0.583,16.167,0.587,16.128,0.593z M17.274,0.388c-0.012,0.005-0.025,0.009-0.037,0.014
	C17.275,0.396,17.294,0.39,17.274,0.388z M16.662,0.549c0.31-0.055,0.444-0.094,0.575-0.146c-0.144,0.027-0.643,0.086-1.059,0.107
	l-0.095-0.007c-0.58,0.036-0.106,0.06,0.084,0.075c0.011-0.021-0.265-0.03,0.002-0.051C16.478,0.517,16.563,0.541,16.662,0.549z
	 M20.812,0.408L19.707,0.39c0.084,0.024-0.043,0.066,0.578,0.047L20.263,0.47L20.812,0.408z M26.171,0.156l-0.65-0.091l0.154,0.066
	L26.171,0.156z M27.437,0.107l-0.381-0.032l0.057,0.057L27.437,0.107z M107.811,1.06l-0.319-0.013
	C107.563,1.053,107.66,1.057,107.811,1.06z M105.186,1.108c0.095-0.004,0.045-0.014-0.066-0.027L105.186,1.108z M120.432,1.165
	l-0.367-0.066C120.107,1.131,119.848,1.162,120.432,1.165z M42.923,0.289c-0.285-0.005-0.615-0.004-1.035,0.01
	C41.992,0.355,42.414,0.312,42.923,0.289z M166.391,1.203c-0.031,0.003-0.072,0.005-0.105,0.007
	C166.354,1.212,166.4,1.212,166.391,1.203z M179.723,0.518c-0.287-0.007-0.453-0.006-0.552-0.001
	C179.374,0.516,179.59,0.515,179.723,0.518z M32.903,0.082C32.854,0.075,32.595,0.075,32.903,0.082L32.903,0.082z M31.537,0.364
	c-0.009-0.015-0.058-0.024-0.121-0.031C31.47,0.339,31.513,0.349,31.537,0.364z M32.834,0.091c-0.146,0.003-0.282,0.007-0.396,0.015
	C32.647,0.099,32.771,0.096,32.834,0.091z M32.501,0.077c-0.271-0.01-0.305-0.003-0.268,0.007
	C32.313,0.082,32.396,0.08,32.501,0.077z M32.834,0.091c0.16-0.002,0.324-0.003,0.501,0c-0.212-0.005-0.339-0.007-0.432-0.009
	C32.921,0.084,32.896,0.088,32.834,0.091C32.833,0.091,32.833,0.091,32.834,0.091z M141.63,0.847
	c-0.024,0.002-0.044,0.004-0.063,0.006C141.803,0.866,141.936,0.869,141.63,0.847z M182.823,0.594l-0.54-0.013
	c0.736,0.105-0.952,0.248-0.824,0.387c-0.822-0.119-2.09,0.197-3.434,0.028c-0.287,0.03,0.255,0.043,0.103,0.077
	c-0.342-0.058-0.746-0.068-1.491-0.036l0.086,0.014c-2.101-0.001-2.996,0.064-5.358,0.118l0.173-0.07
	c-0.507,0.013-0.614,0.035-0.852,0.054c-0.582-0.101,1.426-0.015,0.893-0.127c-0.67,0.142-3.574,0.032-4.032,0.174
	c-0.78-0.006,0.231-0.078-0.548-0.084l-0.209,0.042L166.596,1.1c-0.513,0.004-0.773,0.057-0.796,0.093
	c0.125-0.003,0.353,0.014,0.486,0.018c-0.667,0.045-1.872-0.034-2.101-0.02l0.752-0.02c-2.127-0.059-4.736-0.025-6.78-0.131
	l0.161-0.032c-1.559-0.074-1.264,0.025-2.982-0.018l0.061,0.008c-0.338-0.036-0.795-0.056-1.267-0.056
	c0.427,0.042-0.837,0.067-0.276,0.114c-1.685-0.08-0.822-0.059-1.914-0.19l-0.269,0.052c-0.37-0.053-0.397-0.079-1.25-0.101
	c0.692,0.053-0.56,0.078,0.216,0.146c-1.802,0.102-2.643-0.145-3.478,0.021c-0.812-0.158,1.554-0.069,1.097-0.105
	c0.393-0.045-0.668-0.118-1.232-0.108c-0.575-0.002-0.985,0.183-2.418,0.167c0.144,0.001,0.152,0.012,0.295,0.013
	c-0.536,0.035-1.051-0.066-1.711-0.002c-0.375-0.086-0.857,0.014-0.971-0.101c0,0,0.331,0.003,0.662,0.007
	c0.332,0.002,0.662,0.009,0.662,0.009c-0.178-0.007-0.354-0.02-0.536-0.033c-0.011,0-0.021-0.001-0.026-0.001
	c-0.242-0.019-0.507-0.036-0.788-0.049c-0.279,0.021-0.552,0.042-0.725,0.065c0.034,0.002,0.071,0.004,0.103,0.006
	c-0.057,0.006-0.11,0.001-0.166,0.003c-0.067,0.011-0.117,0.022-0.121,0.034c-0.082-0.011-0.126-0.021-0.143-0.028
	c-0.209-0.003-0.419-0.009-0.641,0.014c0.115,0.115,1.609,0.009,2.417,0.09c-0.385,0.052-1.522-0.069-1.112,0.052
	c-0.59-0.153-1.416,0.035-2.402-0.078l0.07,0.069c-0.16-0.008-0.482-0.038-0.767-0.033l0.522,0.084
	c-0.797-0.069-1.515,0.082-2.274,0.048c1.585-0.013,0.346-0.087,1.011-0.144c-1.969-0.073-1.104,0.192-3.295,0.181
	c0.297,0.006,1.105-0.053,0.639-0.081c-0.416,0.018-0.959,0.053-1.217,0.085c-1.229-0.015-0.266-0.054-0.272-0.092
	c-0.205,0.002-0.457,0.012-0.496,0.053c-0.716,0.023-0.261-0.044-0.595-0.062c-0.115,0.013-0.384,0.049-0.406,0.076
	c0.082,0.012,0.201,0.022,0.414,0.029c-0.315,0-0.417-0.012-0.418-0.028l0,0c-0.225-0.034-0.021-0.087,0.172-0.141
	c-0.063-0.005-0.115-0.012-0.188-0.015l0.002,0.07c-1.63,0.04-0.525-0.138-1.854-0.1c0.002,0.007-0.004,0.012,0,0.019l0.538,0.083
	l-0.476-0.016c0.075,0.088,0.201,0.173,0.411,0.215c-0.053,0.062-0.684-0.06-0.998-0.068c-0.909-0.099-1.387,0.065-2.146,0.025
	l0.578-0.049c-0.123-0.025-1.235,0-1.418,0.033c-0.008-0.012,0.067-0.037,0.151-0.066c-0.327-0.004-0.635-0.015-0.827-0.015
	c0.147-0.002,0.323-0.005,0.414-0.016l-0.948-0.063c-0.393,0.031-0.715,0.072-0.915,0.114c0.063,0.005,0.136,0.009,0.223,0.013
	l-0.236-0.011c-0.145,0.031-0.223,0.061-0.207,0.086l2.102-0.092c0.064,0.082-1.489,0.074-1.424,0.174c0,0-0.48-0.012-0.959-0.021
	c-0.474-0.016-0.948-0.031-0.948-0.031c0.241,0.002,0.978-0.01,0.7-0.06c-0.784-0.008-0.456-0.021-0.905-0.063
	c-0.134,0.015-0.227,0.029-0.142,0.039c-0.467,0.017-1.054-0.026-1.669-0.059c0.114,0.019,0.651,0.033,0.468,0.059
	c-0.848-0.058-0.157,0.08-1.101,0.029c-0.208-0.088,0.009-0.081,0.453-0.096c-0.378-0.018-0.763-0.031-1.14-0.017
	c-0.055-0.012-0.162-0.023-0.385-0.032c-0.067,0-0.131,0.002-0.197,0.003l0.287,0.026c-0.173,0.005-0.566-0.006-0.902-0.015
	c-0.692,0.017-1.385,0.034-2.227-0.027l-0.668,0.099c-0.916-0.029,0.904-0.124-0.623-0.172c-0.211-0.008-0.341-0.008-0.438-0.005
	c0.055,0.018,0.115,0.032,0.171,0.037c-0.144,0.006-0.269,0.008-0.389,0.01c0.002,0.027,0.039,0.058-0.129,0.07
	c-0.37-0.037-0.942-0.1-1.582-0.109c-0.103,0.007-0.216,0.018-0.345,0.036c0.116,0,0.23,0.001,0.354,0.004
	c0,0-0.758,0.051-0.754,0.054c0.912,0.096,1.573,0.069,0.864,0.146c-0.135-0.214-2.879,0.002-3.014-0.194l-0.482,0.048
	c0.14-0.004,0.164,0.007,0.303,0.004c-0.93,0.107-0.738-0.134-1.97-0.09c-0.427,0.02-0.714,0.053-0.414,0.072
	c0,0-0.244-0.008-0.491-0.013c-0.247-0.006-0.493-0.013-0.493-0.013c-0.28,0.011-0.198,0.043,0.081,0.033l-1.482,0.021l0.015,0.006
	c-0.224-0.026-0.72-0.062-0.962-0.077c-0.364,0.038,0.197,0.016,0.111,0.043l-0.838-0.027c-0.313,0.06,0.387,0.092,0.948,0.071
	c-0.685,0.216-0.692-0.032-2.305,0.123l0.79,0.009c-0.442,0.125-1.088,0.096-1.95,0.188c0.201-0.041,1.713-0.217,0.788-0.246
	c-0.248,0.021-0.581,0.036-1.083,0.007c0.022,0.071-0.46,0.063-1.058,0.073l0.071,0.089c-0.655-0.015-0.618-0.063-1.011-0.096
	c-0.713,0.024-0.842,0.102-0.995,0.165c-1.166,0.027,0.777-0.12-0.61-0.127c-0.965,0.041-1.66,0.007-2.82-0.043
	C93.52,1.27,94.316,1.29,94.074,1.318l-0.604-0.071c-0.146,0.003-0.101,0.024-0.076,0.038c-0.321-0.018-0.252-0.051-0.359-0.078
	c-0.424,0.005-0.861-0.02-1.223-0.04c-0.362,0.021-0.799,0.045-1.222,0.04c-0.108,0.027-0.039,0.061-0.36,0.078
	c0.024-0.014,0.07-0.035-0.077-0.038L89.55,1.318c-0.243-0.028,0.555-0.049-0.123-0.084c-1.16,0.05-1.855,0.084-2.82,0.043
	c-1.388,0.007,0.555,0.154-0.611,0.127c-0.153-0.063-0.282-0.141-0.995-0.165c-0.392,0.032-0.356,0.081-1.011,0.096l0.071-0.089
	c-0.597-0.01-1.079-0.002-1.057-0.073c-0.502,0.029-0.835,0.014-1.083-0.007c-0.925,0.029,0.587,0.205,0.788,0.246
	c-0.863-0.092-1.508-0.063-1.95-0.188l0.79-0.009c-1.613-0.155-1.62,0.093-2.305-0.123c0.561,0.021,1.261-0.011,0.949-0.071
	l-0.838,0.027c-0.086-0.027,0.475-0.005,0.111-0.043c-0.242,0.015-0.739,0.051-0.962,0.077l0.014-0.006l-1.482-0.021
	c0.279,0.01,0.361-0.022,0.081-0.033c0,0-0.246,0.007-0.493,0.013c-0.247,0.005-0.491,0.013-0.491,0.013
	c0.3-0.019,0.012-0.052-0.414-0.072c-1.231-0.044-1.041,0.197-1.97,0.09c0.138,0.003,0.163-0.008,0.303-0.004L73.57,1.015
	c-0.136,0.196-2.88-0.02-3.015,0.194c-0.708-0.077-0.047-0.05,0.865-0.146c0.004-0.003-0.754-0.054-0.754-0.054
	c0.123-0.003,0.238-0.003,0.354-0.004c-0.129-0.018-0.242-0.029-0.345-0.036c-0.64,0.009-1.211,0.073-1.582,0.109
	c-0.168-0.012-0.131-0.043-0.129-0.07c-0.12-0.001-0.245-0.004-0.389-0.01c0.056-0.005,0.116-0.02,0.171-0.037
	c-0.098-0.003-0.228-0.003-0.438,0.005c-1.528,0.048,0.293,0.143-0.624,0.172l-0.668-0.099c-0.842,0.062-1.534,0.044-2.226,0.027
	c-0.336,0.008-0.73,0.02-0.903,0.015l0.288-0.026c-0.066-0.001-0.13-0.003-0.197-0.003c-0.223,0.009-0.331,0.02-0.385,0.032
	c-0.377-0.014-0.761-0.001-1.14,0.017c0.445,0.016,0.661,0.008,0.453,0.096c-0.943,0.051-0.253-0.087-1.101-0.029
	c-0.184-0.025,0.354-0.04,0.468-0.059c-0.615,0.032-1.202,0.076-1.668,0.059c0.085-0.01-0.008-0.024-0.142-0.039
	c-0.449,0.042-0.122,0.055-0.906,0.063c-0.277,0.05,0.459,0.062,0.7,0.06c0,0-0.475,0.016-0.948,0.031
	c-0.479,0.01-0.959,0.021-0.959,0.021c0.065-0.1-1.488-0.092-1.424-0.174l2.102,0.092c0.016-0.025-0.063-0.056-0.207-0.086
	l-0.236,0.011c0.086-0.004,0.159-0.008,0.223-0.013c-0.201-0.042-0.523-0.083-0.916-0.114l-0.949,0.063
	c0.091,0.011,0.267,0.014,0.414,0.016c-0.193,0-0.5,0.011-0.826,0.015c0.083,0.029,0.159,0.054,0.151,0.066
	c-0.183-0.033-1.295-0.058-1.418-0.033l0.578,0.049c-0.759,0.041-1.236-0.124-2.146-0.025c-0.314,0.008-0.945,0.13-0.998,0.068
	c0.21-0.042,0.335-0.127,0.412-0.215L52.635,1.04l0.539-0.083c0.003-0.007-0.002-0.012,0-0.019c-1.33-0.038-0.224,0.14-1.854,0.1
	l0.002-0.07c-0.072,0.003-0.125,0.01-0.188,0.016c0.193,0.054,0.396,0.106,0.171,0.141h0c0,0.016-0.102,0.028-0.417,0.028
	c0.213-0.007,0.333-0.018,0.415-0.029c-0.023-0.027-0.292-0.063-0.407-0.076c-0.334,0.018,0.121,0.085-0.595,0.062
	c-0.039-0.042-0.291-0.051-0.496-0.053c-0.007,0.038,0.956,0.077-0.272,0.092c-0.258-0.032-0.8-0.067-1.216-0.085
	c-0.468,0.028,0.341,0.087,0.638,0.081c-2.191,0.011-1.326-0.254-3.295-0.181c0.665,0.057-0.574,0.131,1.011,0.144
	c-0.76,0.034-1.478-0.117-2.275-0.048l0.523-0.084C44.634,0.97,44.311,1,44.152,1.008l0.07-0.069
	c-0.986,0.113-1.813-0.075-2.403,0.078c0.411-0.121-0.727,0-1.112-0.052c0.807-0.081,2.302,0.025,2.417-0.09
	c-0.222-0.023-0.432-0.018-0.641-0.014c-0.017,0.008-0.061,0.017-0.143,0.028c-0.004-0.012-0.053-0.023-0.121-0.034
	c-0.055-0.002-0.109,0.002-0.166-0.003c0.032-0.002,0.068-0.004,0.103-0.006c-0.173-0.022-0.445-0.044-0.726-0.065
	c-0.281,0.013-0.545,0.031-0.788,0.049c-0.005,0-0.015,0.001-0.026,0.001c-0.182,0.013-0.358,0.026-0.536,0.033
	c0,0,0.33-0.007,0.662-0.009c0.331-0.004,0.662-0.007,0.662-0.007c-0.113,0.115-0.596,0.015-0.971,0.101
	c-0.659-0.064-1.174,0.037-1.711,0.002c0.143-0.001,0.152-0.012,0.295-0.013c-1.432,0.016-1.842-0.169-2.417-0.167
	c-0.565-0.01-1.625,0.063-1.233,0.108c-0.457,0.036,1.908-0.053,1.097,0.105c-0.835-0.166-1.676,0.081-3.477-0.021
	c0.774-0.068-0.477-0.093,0.215-0.146c-0.853,0.022-0.88,0.048-1.25,0.101l-0.268-0.052c-1.092,0.131-0.23,0.11-1.915,0.19
	c0.561-0.047-0.702-0.072-0.276-0.114c-0.472,0-0.929,0.02-1.267,0.056l0.061-0.008c-1.719,0.043-1.424-0.056-2.983,0.018
	l0.162,0.032c-2.044,0.106-4.654,0.072-6.781,0.131l0.753,0.02c-0.229-0.014-1.434,0.065-2.101,0.02
	c0.133-0.004,0.361-0.021,0.486-0.018c-0.022-0.036-0.283-0.089-0.795-0.093l-0.194,0.058l-0.209-0.042
	c-0.779,0.006,0.233,0.078-0.548,0.084c-0.458-0.142-3.362-0.032-4.032-0.174c-0.533,0.112,1.475,0.026,0.892,0.127
	c-0.237-0.019-0.344-0.041-0.851-0.054l0.173,0.07C9.898,1.115,9.002,1.05,6.901,1.051l0.086-0.014
	C6.242,1.005,5.838,1.015,5.496,1.073c-0.152-0.034,0.39-0.047,0.102-0.077C4.255,1.165,2.987,0.849,2.165,0.968
	c0.128-0.139-1.56-0.282-0.824-0.387l-0.54,0.013C0.996,0.503,2.484,0.603,2.81,0.508l1.676,0.107C4.438,0.58,4.723,0.53,4.455,0.52
	c0.3,0,0.568-0.001,0.497-0.021l-0.305-0.02L4.569,0.455l0.259,0.024C4.792,0.475,4.752,0.47,4.698,0.465
	c1.205,0.079,2.429,0.11,3.657,0.126l-0.124-0.01c0.191,0.018,0.836-0.037,0.813-0.003L8.832,0.595
	c0.653,0.006,1.307,0.015,1.959,0.016c2.042-0.006,4.071,0.008,6.063,0.038c0.268-0.011,0.112-0.042,0.008-0.063
	c0.737,0.083,0.698-0.053,1.097-0.069l1.081,0.119c0.432-0.041,0.089-0.078,0.119-0.104c2.023-0.044,4.017,0.064,5.648-0.026
	C25.338,0.547,24.7,0.61,25.393,0.62c-0.625-0.081,0.408-0.09,1.038-0.111c-0.296-0.028-0.789-0.037-1.231,0.007
	c-0.662-0.04-0.267-0.232,0.297-0.341c0.024,0.025,0.028,0.048,0.711,0.079c-0.233,0.033-1.494,0.082-0.914,0.131
	c0.899,0.025,0.731-0.024,1.164-0.057c-0.333,0.068,0.916,0.095,0.965,0.184c0.792,0.034,1.785-0.003,1.588,0.147
	c0.831,0.005,0.666-0.089,0.423-0.104c0.958-0.001,1.742-0.007,2.521-0.076c0.132,0.01,0.469,0.01,0.913,0.005
	c-0.046-0.01-0.052-0.02,0.024-0.029l0.504,0.018c0.472-0.058-0.944-0.099-0.305-0.121c-0.68-0.059-1.438-0.114-2.396-0.077
	l-0.176,0.09c0.02-0.026,0.621-0.057,0.891-0.03c-0.398-0.038-1.457,0.128-1.896,0.013l0.666-0.065
	c-0.684-0.042-1.533-0.132-2.381-0.1c0.381-0.091,0.195,0.009,0.793-0.098c-0.516,0.131,2.174-0.016,1.34,0.123
	c0.613-0.123,1.068-0.056,1.879-0.163c-0.024,0.03-0.287,0.058,0.429,0.04c0.03,0.009,0.106,0.019,0.155,0.025
	c0.021-0.001,0.027-0.001,0.047-0.003l-0.039,0.004c0.031,0.004,0.033,0.005-0.014,0.001c-0.17,0.014-0.309,0.03-0.365,0.046
	c0.351,0.06,1.496,0.077,1.877,0.115c0.427-0.009-0.176-0.036,0.062-0.065l0.57,0.059c0.063-0.064,1.155-0.095,0.149-0.146
	l0.912,0.008c0.543-0.031,1.287-0.036,1.734-0.003c0.438-0.009,1.061,0.085,0.705,0.03c0,0,0.348,0.018,0.693,0.038
	c0.347,0.02,0.692,0.04,0.692,0.04l0.021-0.016c1.382,0.03,2.802,0.185,4.409,0.113c-0.284-0.019-0.562-0.035-0.926-0.041
	c0.378-0.018,0.786-0.022,1.158,0.033c-0.071,0.004-0.139,0.005-0.209,0.008c0.444,0.029,0.906,0.063,1.675,0.066l0.176-0.052
	c0.576,0.037,1.783-0.005,2.01,0.061c0.688-0.137,2.812,0.009,3.839-0.001l0.026,0.075c0.701,0.004,1.365,0.044,2.25,0.063
	L53.79,0.609c0.183,0.012,0.393,0.014,0.62,0.012c0.186-0.034,0.275-0.064-0.53-0.072l1.205-0.068
	c0.661-0.265,3.205,0.014,5.022-0.076c-0.127,0.01-0.158,0.025-0.173,0.033c0.735-0.042,1.558-0.034,2.276-0.019
	c0.373-0.056,0.708-0.109,0.677-0.054L62.763,0.43c-0.026,0-0.044,0-0.069,0c0.022,0,0.045,0.001,0.067,0.001l0.006-0.003
	c0.03,0,0.055,0,0.086,0c0.188-0.017,0.26-0.008,0.263,0.012c0.42,0.011,0.742,0.018,0.866,0.003l0.114,0.054
	c0.088,0.001,0.174-0.001,0.262-0.001c0.114-0.01,0.226-0.019,0.325-0.027c0.058-0.009,0.123-0.011,0.17-0.027
	c0.016,0.003,0.051,0.005,0.077,0.008c0.747-0.055,1.146-0.056,2.431-0.029c-0.021,0.011-0.213,0.033,0.051,0.047
	c0.399-0.057,0.802-0.112,1.945-0.104L69.31,0.388l1.787-0.022c-0.029,0.168,1.935,0.008,3.004,0.056
	c1.518-0.033,4-0.011,5.798-0.047c-0.504,0.164,1.127-0.062,1.184,0.071c0.15-0.039,0.492-0.057,0.117-0.097
	c1.203,0.052,1.846-0.017,2.631,0.113c0.157-0.036-0.229-0.066-0.098-0.086c0.094,0.011,0.367,0.046,0.506,0.026
	c0.135-0.02-0.16-0.039-0.344-0.062c1.233,0.043,1.291,0.17,1.313,0.288c0.646-0.036,0.938-0.019,1.34,0.071
	c0.232-0.031,0.604-0.06-0.133-0.097c0.422,0.005,2.582,0.032,2.582,0.114c0.142-0.021,0.586,0.002,0.692,0.015
	c0.939,0.009,1.023,0.001,1.942,0.025l-0.259,0.011c0.129,0.042,0.276,0.056,0.438,0.061c0.162-0.005,0.309-0.019,0.438-0.061
	l-0.259-0.011c0.919-0.024,1.003-0.016,1.942-0.025c0.106-0.013,0.551-0.036,0.692-0.015c0-0.082,2.16-0.109,2.582-0.114
	c-0.737,0.037-0.365,0.066-0.133,0.097c0.401-0.09,0.694-0.107,1.34-0.071c0.022-0.118,0.08-0.245,1.313-0.288
	c-0.184,0.023-0.479,0.042-0.344,0.062c0.139,0.02,0.412-0.015,0.506-0.026c0.131,0.02-0.255,0.05-0.098,0.086
	c0.785-0.13,1.428-0.061,2.631-0.113c-0.375,0.04-0.033,0.058,0.117,0.097c0.057-0.133,1.688,0.093,1.184-0.071
	c1.799,0.036,4.28,0.014,5.798,0.047c1.069-0.048,3.034,0.113,3.005-0.056l1.787,0.022l-0.047-0.023
	c1.144-0.008,1.547,0.047,1.945,0.104c0.264-0.014,0.072-0.036,0.051-0.047c1.284-0.027,1.685-0.026,2.431,0.029
	c0.025-0.002,0.061-0.004,0.077-0.008c0.048,0.016,0.113,0.019,0.171,0.027c0.099,0.008,0.21,0.017,0.324,0.027
	c0.088,0,0.174,0.003,0.262,0.001l0.114-0.054c0.124,0.014,0.446,0.008,0.866-0.003c0.003-0.02,0.074-0.029,0.263-0.012
	c0.031,0,0.056,0,0.086,0l0.006,0.003c0.022,0,0.045-0.001,0.067-0.001c-0.025,0-0.043-0.001-0.069,0l-0.125-0.065
	c-0.03-0.055,0.305-0.001,0.677,0.054c0.719-0.015,1.542-0.022,2.276,0.019c-0.015-0.008-0.045-0.023-0.172-0.033
	c1.816,0.09,4.36-0.189,5.021,0.076l1.205,0.068c-0.806,0.008-0.717,0.039-0.53,0.072c0.227,0.002,0.438,0,0.62-0.012l-0.057-0.065
	c0.885-0.019,1.549-0.059,2.25-0.063l0.026-0.075c1.027,0.01,3.15-0.136,3.839,0.001c0.227-0.066,1.434-0.024,2.01-0.061
	l0.176,0.052c0.769-0.004,1.23-0.038,1.675-0.066c-0.07-0.003-0.139-0.004-0.209-0.008c0.372-0.055,0.78-0.051,1.158-0.033
	c-0.363,0.006-0.642,0.022-0.926,0.041c1.607,0.071,3.026-0.083,4.409-0.113l0.021,0.016c0,0,0.346-0.02,0.692-0.04
	c0.346-0.02,0.693-0.038,0.693-0.038c-0.355,0.055,0.268-0.039,0.705-0.03c0.447-0.033,1.191-0.028,1.734,0.003l0.912-0.008
	c-1.006,0.051,0.086,0.082,0.149,0.146l0.57-0.059c0.237,0.029-0.365,0.056,0.062,0.065c0.381-0.038,1.526-0.055,1.877-0.115
	c-0.057-0.016-0.195-0.032-0.365-0.046c-0.047,0.004-0.045,0.003-0.014-0.001l-0.039-0.004c0.02,0.002,0.026,0.002,0.047,0.003
	c0.049-0.006,0.125-0.016,0.155-0.025c0.716,0.018,0.453-0.01,0.429-0.04c0.811,0.107,1.266,0.04,1.879,0.163
	c-0.834-0.139,1.855,0.008,1.34-0.123c0.598,0.107,0.412,0.007,0.793,0.098c-0.848-0.032-1.697,0.058-2.381,0.1l0.666,0.065
	c-0.439,0.115-1.498-0.051-1.896-0.013c0.27-0.027,0.871,0.004,0.891,0.03l-0.176-0.09c-0.959-0.037-1.717,0.018-2.396,0.077
	c0.64,0.022-0.776,0.063-0.305,0.121l0.504-0.018c0.076,0.009,0.07,0.02,0.024,0.029c0.444,0.004,0.78,0.005,0.913-0.005
	c0.779,0.069,1.563,0.075,2.521,0.076c-0.243,0.015-0.408,0.109,0.423,0.104c-0.197-0.151,0.796-0.114,1.588-0.147
	c0.05-0.088,1.298-0.115,0.965-0.184c0.433,0.033,0.265,0.082,1.164,0.057c0.58-0.049-0.681-0.098-0.914-0.131
	c0.683-0.031,0.687-0.054,0.711-0.079c0.563,0.109,0.959,0.301,0.297,0.341c-0.442-0.044-0.936-0.035-1.231-0.007
	c0.63,0.021,1.662,0.031,1.037,0.111c0.693-0.01,0.056-0.073,0.586-0.114c1.632,0.09,3.625-0.018,5.648,0.026
	c0.03,0.026-0.313,0.063,0.119,0.104l1.081-0.119c0.399,0.016,0.36,0.152,1.097,0.069c-0.104,0.021-0.26,0.052,0.008,0.063
	c1.992-0.03,4.021-0.044,6.063-0.038c0.653,0,1.306-0.009,1.959-0.016l-0.212-0.017c-0.023-0.034,0.621,0.021,0.813,0.003
	l-0.124,0.01c1.229-0.017,2.452-0.048,3.657-0.126c-0.054,0.005-0.093,0.01-0.129,0.014l0.258-0.024l-0.078,0.024l-0.305,0.02
	c-0.07,0.021,0.196,0.022,0.497,0.021c-0.269,0.01,0.017,0.06-0.03,0.095l1.676-0.107C181.141,0.603,182.628,0.503,182.823,0.594z
	 M147.318,0.183l0.022-0.003C146.988,0.17,146.809,0.162,147.318,0.183z M145.583,0.351l0.696,0.001l-0.514,0.08
	c0.453,0.037,0.942,0.019,0.812,0.058c0.054,0.001,0.11,0.002,0.166,0.004c0.216-0.014,0.48-0.022,0.781-0.026
	c-0.013-0.054,0.421-0.128-0.208-0.191C146.341,0.239,146.021,0.291,145.583,0.351z M140.948,0.801
	c0.074-0.007,0.158-0.015,0.249-0.023c-0.082,0.003-0.155,0.002-0.242,0.007C140.955,0.79,140.945,0.796,140.948,0.801z
	 M97.326,0.757c0.121-0.002,0.24-0.001,0.355,0.003l-0.345,0.048c0.259,0.019,0.59-0.034,0.922-0.096
	c0-0.009-0.015-0.016-0.067-0.02L97.326,0.757z M85.365,0.712c0.332,0.062,0.663,0.114,0.922,0.096L85.943,0.76
	c0.115-0.004,0.234-0.005,0.355-0.003l-0.866-0.065C85.379,0.696,85.365,0.703,85.365,0.712z M42.427,0.778
	c0.09,0.008,0.175,0.016,0.249,0.023c0.003-0.005-0.006-0.011-0.007-0.016C42.582,0.78,42.509,0.781,42.427,0.778z M36.283,0.18
	l0.022,0.003C36.815,0.162,36.636,0.17,36.283,0.18z M36.1,0.468c0.301,0.004,0.565,0.013,0.781,0.026
	c0.056-0.001,0.113-0.002,0.166-0.004c-0.131-0.039,0.358-0.021,0.812-0.058l-0.514-0.08l0.696-0.001
	c-0.438-0.06-0.758-0.112-1.733-0.074C35.679,0.339,36.112,0.414,36.1,0.468z M42.365,0.831c0.095-0.007,0.185-0.015,0.26-0.022
	c-0.091-0.013-0.203-0.026-0.353-0.035c-0.069-0.001-0.146-0.006-0.212-0.006C41.596,0.806,42.11,0.81,42.365,0.831z M56.839,0.989
	c-0.257,0.003-0.402,0.004-0.485,0.002c-0.038,0.016-0.024,0.036,0.018,0.058C56.556,1.042,56.704,1.015,56.839,0.989z
	 M71.557,0.995c-0.214-0.019-0.424-0.025-0.63-0.027l0.125,0.037C71.214,1.004,71.377,1.003,71.557,0.995z M81.901,1.161
	c-0.368-0.032-0.548-0.074-0.834,0C81.208,1.206,81.674,1.17,81.901,1.161z M102.557,1.161c-0.285-0.074-0.466-0.032-0.834,0
	C101.95,1.17,102.416,1.206,102.557,1.161z M112.571,1.005l0.126-0.037c-0.207,0.002-0.417,0.008-0.631,0.027
	C112.247,1.003,112.41,1.004,112.571,1.005z M127.253,1.05c0.041-0.022,0.056-0.042,0.018-0.058c-0.083,0.001-0.228,0-0.485-0.002
	C126.92,1.015,127.068,1.042,127.253,1.05z M141.563,0.768c-0.065,0-0.143,0.004-0.211,0.006c-0.15,0.009-0.263,0.022-0.354,0.035
	c0.075,0.008,0.165,0.015,0.26,0.022C141.515,0.81,142.028,0.806,141.563,0.768z M119.997,1.086l0.067,0.013
	c-0.004-0.004-0.014-0.009-0.032-0.013H119.997z M29.806,0.101c0.16-0.012,0.276-0.028,0.596-0.026L29.74,0.06
	C29.946,0.06,29.821,0.084,29.806,0.101z M24.074,0.526c0.418-0.019,0.129-0.042-0.279-0.039L23.774,0.52
	C23.871,0.527,23.976,0.518,24.074,0.526z M29.142,0.297c-0.492-0.025-0.985-0.05-0.844,0.032C28.271,0.33,28.243,0.33,28.216,0.33
	C28.679,0.339,29.091,0.357,29.142,0.297z M27.683,0.328c0.14-0.003,0.283-0.002,0.426,0C27.854,0.321,27.626,0.295,27.683,0.328z
	 M33.916,0.143c1.212,0.054-0.5-0.133-0.26-0.055C33.785,0.066,33.692,0.156,33.916,0.143z M29.201,0.478L28.938,0.42l-0.157,0.074
	L29.201,0.478z M32.403,0.422c0.018-0.022-0.479-0.005-0.928,0c0.112,0.005,0.207,0.012,0.194,0.024L32.403,0.422z M31.474,0.422
	c-0.188-0.008-0.463-0.009-0.592-0.009C31.015,0.424,31.238,0.424,31.474,0.422z M29.783,0.511l0.733-0.025l-0.518,0.009
	L29.783,0.511z M182.532,0.39l-0.601,0.034l0.219,0.018L182.532,0.39z M183.118,0.527c0.1-0.022,0.368-0.015,0.506-0.012
	l-0.382-0.083L183.118,0.527z M100.086,1.391l0.463-0.063c-0.287,0.01-0.432,0.014-0.518,0.041L100.086,1.391z M108.27,1.131
	l0.095-0.086l-0.233,0.089L108.27,1.131z M114.172,1.188c0.282-0.002,0.612,0.019,0.893,0.017
	C115.143,1.098,114.784,1.207,114.172,1.188z"/>
</svg>
