<?xml version="1.0" encoding="utf-8"?>
<!-- Generator: Adobe Illustrator 16.0.0, SVG Export Plug-In . SVG Version: 6.00 Build 0)  -->
<!DOCTYPE svg PUBLIC "-//W3C//DTD SVG 1.1//EN" "http://www.w3.org/Graphics/SVG/1.1/DTD/svg11.dtd">
<svg version="1.1" id="Layer_3" xmlns="http://www.w3.org/2000/svg" xmlns:xlink="http://www.w3.org/1999/xlink" x="0px" y="0px"
	 width="102.421px" height="101.448px" viewBox="0 0 102.421 101.448" enable-background="new 0 0 102.421 101.448"
	 xml:space="preserve">
<g>
	<g>
		<path fill="#F9D36C" d="M62.055,99.948c-0.54,0-1.076-0.072-1.592-0.214c-0.954-0.265-1.845-0.771-2.581-1.468L37.071,80.06
			l-26.79,5.396c-0.393,0.081-0.804,0.124-1.213,0.124c-1.853,0-3.629-0.883-4.752-2.36c-1.391-1.788-1.646-4.275-0.638-6.321
			l11.985-24.492L2.275,28.639c-1.126-1.982-1.019-4.479,0.275-6.357c1.118-1.646,2.983-2.634,4.982-2.634
			c0.276,0,0.554,0.019,0.833,0.058l27.011,3.834L53.838,3.469C54.974,2.22,56.594,1.5,58.278,1.5c0.586,0,1.164,0.088,1.719,0.261
			c2.2,0.66,3.825,2.479,4.225,4.741l4.688,26.865l24.799,11.353c2.069,0.937,3.454,3.02,3.521,5.305
			c0.068,2.271-1.189,4.433-3.204,5.506L69.973,68.285l-1.91,26.267c-0.278,2.368-1.798,4.276-3.974,5.048
			C63.431,99.831,62.748,99.948,62.055,99.948z"/>
		<path fill="#FFFFFF" d="M58.278,3c0.426,0,0.855,0.063,1.271,0.193c1.656,0.497,2.896,1.875,3.195,3.57l4.823,27.639
			l25.517,11.681c1.574,0.712,2.596,2.263,2.646,3.985c0.052,1.718-0.888,3.327-2.409,4.138L68.537,67.348l-1.97,27.095
			c-0.202,1.714-1.348,3.164-2.979,3.742c-0.498,0.176-1.018,0.263-1.534,0.263c-0.404,0-0.807-0.054-1.195-0.16
			c-0.715-0.198-1.385-0.579-1.947-1.111L37.501,78.443L9.985,83.985c-0.306,0.063-0.613,0.095-0.917,0.095
			c-1.381,0-2.701-0.64-3.558-1.768c-1.059-1.361-1.248-3.206-0.487-4.751l12.333-25.204L3.582,27.903
			c-0.853-1.5-0.772-3.354,0.203-4.77c0.851-1.252,2.266-1.985,3.748-1.985c0.207,0,0.416,0.014,0.624,0.043l27.789,3.944
			L54.942,4.485C55.807,3.533,57.034,3,58.278,3 M58.278,0c-2.105,0-4.13,0.899-5.555,2.466L34.806,21.944L8.578,18.221
			c-0.348-0.049-0.698-0.073-1.045-0.073c-2.497,0-4.825,1.233-6.229,3.299c-1.607,2.332-1.741,5.454-0.33,7.938l12.995,23.07
			L2.329,76.243c-1.256,2.551-0.938,5.658,0.813,7.911c1.384,1.822,3.607,2.926,5.926,2.926c0.512,0,1.026-0.053,1.528-0.157
			l26.045-5.246L56.898,99.4c0.904,0.842,1.995,1.456,3.16,1.778c0.654,0.18,1.323,0.27,1.997,0.27c0.863,0,1.714-0.146,2.53-0.433
			c2.724-0.966,4.623-3.349,4.962-6.221l0.008-0.067l0.005-0.066l1.849-25.439l23.318-12.365c2.519-1.342,4.088-4.041,4.002-6.878
			c-0.084-2.852-1.814-5.454-4.408-6.628L70.251,32.331L65.7,6.248c-0.5-2.83-2.526-5.099-5.289-5.928
			C59.745,0.111,59.016,0,58.278,0L58.278,0z"/>
	</g>
	<g>
		<path fill="#F0B772" d="M80.651,91.734c-0.568,0-1.13-0.19-1.583-0.536c-0.783-0.583-1.177-1.598-0.99-2.574l1.139-6.04
			l-4.334-4.367c-0.7-0.7-0.943-1.761-0.617-2.7c0.316-0.929,1.157-1.617,2.138-1.744l6.105-0.784l2.813-5.47
			c0.438-0.862,1.347-1.425,2.312-1.425c1.072,0.024,1.959,0.599,2.387,1.499l2.629,5.563l6.072,0.984
			c0.973,0.153,1.794,0.866,2.086,1.816c0.29,0.943,0.013,1.994-0.706,2.675l-4.445,4.192l1.147,5.776
			c0.164,1.06-0.253,2.034-1.076,2.609c-0.448,0.311-0.967,0.474-1.504,0.474c-0.428,0-0.857-0.108-1.241-0.313l-5.616-2.713
			l-5.536,2.794C81.474,91.634,81.063,91.734,80.651,91.734z"/>
		<path fill="#FFFFFF" d="M87.635,67.593c0.012,0,0.024,0.001,0.036,0.001c0.428,0.01,0.813,0.257,0.996,0.642l2.965,6.273
			l6.851,1.11c0.422,0.066,0.768,0.369,0.893,0.776c0.125,0.406,0.007,0.852-0.303,1.145l-5.047,4.761l1.309,6.59
			c0.064,0.422-0.113,0.843-0.464,1.088c-0.191,0.133-0.417,0.203-0.645,0.203c-0.184,0-0.368-0.047-0.537-0.137l-6.335-3.062
			l-6.197,3.128c-0.16,0.082-0.333,0.122-0.505,0.122c-0.238,0-0.474-0.077-0.671-0.228c-0.342-0.255-0.508-0.683-0.428-1.101
			l1.286-6.819l-4.89-4.927c-0.302-0.302-0.404-0.749-0.265-1.15c0.138-0.404,0.494-0.695,0.915-0.75l6.885-0.884l3.174-6.171
			C86.845,67.834,87.227,67.593,87.635,67.593 M87.635,64.593c-1.547,0-2.947,0.863-3.652,2.253l-2.445,4.755l-5.32,0.683
			c-1.549,0.201-2.871,1.284-3.373,2.759c-0.508,1.46-0.125,3.131,0.983,4.238l3.771,3.8l-0.994,5.27
			c-0.292,1.528,0.328,3.126,1.583,4.062c0.684,0.522,1.569,0.822,2.465,0.822c0.648,0,1.296-0.156,1.875-0.453l4.857-2.451
			l4.965,2.399c0.583,0.297,1.231,0.453,1.878,0.453c0.844,0,1.659-0.255,2.354-0.738c1.303-0.911,1.958-2.443,1.72-4.006
			l-0.01-0.065l-0.013-0.065l-0.985-4.962l3.84-3.622c1.134-1.073,1.568-2.724,1.111-4.209c-0.458-1.493-1.751-2.615-3.293-2.858
			L93.67,71.8l-2.291-4.847c-0.674-1.421-2.068-2.322-3.64-2.358l-0.034-0.001L87.635,64.593L87.635,64.593z"/>
	</g>
	<g>
		<path fill="#B45834" d="M44.222,44.333c-1.945-1.185-3.807-3.391-5.078-5.987h4.331c0.276,0,0.5-0.224,0.5-0.5v-1.692
			c0-0.276-0.224-0.5-0.5-0.5h-6.486v-3.137c0-0.276-0.224-0.5-0.5-0.5h-1.764c-0.276,0-0.5,0.224-0.5,0.5v3.137h-6.396
			c-0.276,0-0.5,0.224-0.5,0.5v1.692c0,0.276,0.224,0.5,0.5,0.5h4.198c-1.256,2.664-3.1,4.932-5.025,6.154
			c-0.135,0.086-0.221,0.231-0.231,0.392c-0.01,0.16,0.057,0.314,0.181,0.417c0.379,0.313,0.882,0.866,1.145,1.26
			c0.076,0.114,0.196,0.192,0.331,0.215c0.135,0.023,0.274-0.01,0.384-0.092c0.488-0.363,0.963-0.767,1.434-1.22v0.369
			c0,0.276,0.224,0.5,0.5,0.5h3.479v2.687c0,0.276,0.224,0.5,0.5,0.5h1.764c0.276,0,0.5-0.224,0.5-0.5v-2.687h3.479
			c0.276,0,0.5-0.224,0.5-0.5v-0.33c0.445,0.42,0.911,0.8,1.393,1.136c0.113,0.079,0.255,0.105,0.392,0.079
			c0.136-0.03,0.253-0.114,0.324-0.234c0.253-0.427,0.821-1.031,1.203-1.346c0.125-0.103,0.192-0.26,0.18-0.421
			C44.449,44.563,44.36,44.417,44.222,44.333z M34.225,39.764v3.883h-2.361C32.758,42.499,33.556,41.186,34.225,39.764z
			 M36.989,43.647V39.84c0.662,1.402,1.438,2.688,2.298,3.807H36.989z"/>
		<path fill="#B45834" d="M46.049,49.349c0.081,0.115,0.207,0.191,0.346,0.209c0.021,0.003,0.042,0.004,0.063,0.004
			c0.118,0,0.233-0.042,0.324-0.119c1.496-1.275,2.553-3.075,3.146-5.354h7.281l-0.007,2.673c-0.015,0-0.032,0.001-0.052,0.001
			c-0.425,0.018-1.847,0.035-3.231-0.036c-0.183-0.008-0.361,0.085-0.456,0.245c-0.095,0.16-0.093,0.359,0.004,0.517
			c0.25,0.405,0.557,1.158,0.658,1.611c0.051,0.229,0.253,0.392,0.488,0.392c1.818,0,3.172-0.027,4.028-0.374
			c1.175-0.44,1.333-1.431,1.333-2.341v-13.36c0-0.276-0.224-0.5-0.5-0.5H48.259c-0.276,0-0.5,0.224-0.5,0.5v5.653
			c0,3.062-0.352,6.197-2.905,8.39c-0.119,0.102-0.183,0.253-0.173,0.41c0.009,0.156,0.091,0.299,0.222,0.386
			C45.242,48.48,45.842,49.053,46.049,49.349z M57.212,39.804v1.665h-6.849c0.054-0.572,0.088-1.129,0.101-1.665H57.212z
			 M50.47,37.201v-1.665h6.742v1.665H50.47z"/>
		<path fill="#B45834" d="M43.863,67.718c-1.65,0.206-4.304,0.355-6.312,0.355c-1.651,0-2.911-0.094-3.865-0.521
			c3.562-2.397,7.105-5.848,9.179-8.966c0.074-0.11,0.1-0.247,0.073-0.378c-0.027-0.131-0.106-0.245-0.218-0.318l-1.278-0.828
			c-0.121-0.078-0.271-0.102-0.405-0.062l-0.259,0.071h-2.881c0.045-0.128,0.038-0.273-0.031-0.401
			c-0.427-0.799-1.325-2.065-2.023-2.984c-0.147-0.194-0.416-0.257-0.632-0.139l-1.495,0.792c-0.128,0.067-0.22,0.188-0.253,0.328
			s-0.003,0.289,0.082,0.406c0.435,0.602,0.924,1.344,1.321,1.998H28.44c-0.276,0-0.5,0.224-0.5,0.5v1.639
			c0,0.276,0.224,0.5,0.5,0.5h10.081c-2.017,2.385-4.883,4.855-7.434,6.383c-0.032-0.001-0.062-0.001-0.09-0.001
			c-1.034,0-2.321,0.83-3.825,2.467c-0.166,0.18-0.176,0.453-0.026,0.646l1.224,1.566c0.095,0.122,0.24,0.192,0.394,0.192
			c0.006,0,0.011,0,0.017,0c0.16-0.006,0.307-0.087,0.397-0.22c1.182-1.745,1.617-2.044,1.756-2.066
			c0.121,0.017,0.457,0.27,0.702,0.453c0.228,0.172,0.478,0.359,0.758,0.536c1.414,0.853,3.055,1.027,5.084,1.027
			c1.713,0,4.626-0.088,5.994-0.182c0.248-0.018,0.445-0.213,0.464-0.461c0.032-0.409,0.271-1.242,0.445-1.636
			c0.073-0.165,0.051-0.356-0.056-0.501C44.219,67.772,44.044,67.692,43.863,67.718z"/>
		<path fill="#B45834" d="M61.458,68.236h-6.433V67.58h4.523c0.276,0,0.5-0.224,0.5-0.5v-1.314c0-0.276-0.224-0.5-0.5-0.5h-4.523
			v-0.423h5.298c0.276,0,0.5-0.224,0.5-0.5v-1.404c0-0.276-0.224-0.5-0.5-0.5h-5.298v-0.656h4.614c0.276,0,0.5-0.224,0.5-0.5V54.8
			c0-0.276-0.224-0.5-0.5-0.5h-12.01c-0.276,0-0.5,0.224-0.5,0.5v6.481c0,0.276,0.224,0.5,0.5,0.5h0.207
			c-0.66,1.154-1.607,2.242-2.63,3.007c-0.138,0.103-0.213,0.27-0.2,0.44c0.014,0.172,0.115,0.324,0.268,0.403
			c0.367,0.191,1.017,0.687,1.321,0.957c0.188,0.166,0.471,0.169,0.661,0.002c0.071-0.062,0.143-0.127,0.215-0.193v0.682
			c0,0.276,0.224,0.5,0.5,0.5h4.325v0.656h-6.468c-0.276,0-0.5,0.224-0.5,0.5v1.44c0,0.276,0.224,0.5,0.5,0.5h15.629
			c0.276,0,0.5-0.224,0.5-0.5v-1.44C61.958,68.459,61.734,68.236,61.458,68.236z M57.41,59.135v0.332h-7.643v-0.332H57.41z
			 M49.768,56.893v-0.278h7.643v0.278H49.768z M50.506,62.438c0.098-0.176,0.19-0.352,0.274-0.526
			c0.02-0.042,0.034-0.086,0.042-0.13h1.474v0.656H50.506z M52.296,64.842v0.423h-3.74c0.118-0.136,0.236-0.277,0.355-0.423H52.296z
			"/>
	</g>
	<g>
		<g>
			<path fill="#B45834" d="M34.725,50.526c-0.827,0-1.5-0.673-1.5-1.5v-1.687h-2.479c-0.304,0-0.587-0.091-0.823-0.247
				c-0.169,0.138-0.34,0.271-0.514,0.4c-0.254,0.19-0.573,0.297-0.896,0.297h-0.084l-0.168-0.021
				c-0.406-0.071-0.768-0.306-0.995-0.646c-0.209-0.313-0.643-0.791-0.949-1.043c-0.369-0.304-0.572-0.771-0.543-1.249
				c0.029-0.479,0.288-0.917,0.693-1.175c1.399-0.888,2.797-2.445,3.9-4.31h-2.538c-0.827,0-1.5-0.673-1.5-1.5v-1.692
				c0-0.827,0.673-1.5,1.5-1.5h5.396v-2.137c0-0.827,0.673-1.5,1.5-1.5h1.764c0.827,0,1.5,0.673,1.5,1.5v2.137h5.486
				c0.827,0,1.5,0.673,1.5,1.5v1.692c0,0.827-0.673,1.5-1.5,1.5h-2.637c1.108,1.79,2.505,3.281,3.904,4.133
				c0.414,0.251,0.682,0.691,0.715,1.176c0.035,0.479-0.167,0.952-0.541,1.261c-0.345,0.285-0.812,0.802-0.979,1.085
				c-0.211,0.356-0.564,0.612-0.97,0.701c-0.121,0.024-0.22,0.034-0.318,0.034h0c-0.311,0-0.608-0.093-0.86-0.269
				c-0.169-0.118-0.337-0.241-0.502-0.37c-0.235,0.154-0.517,0.243-0.818,0.243h-2.479v1.687c0,0.827-0.673,1.5-1.5,1.5H34.725z"/>
			<path fill="#F9F3EA" d="M36.489,32.016c0.276,0,0.5,0.224,0.5,0.5v3.137h6.486c0.276,0,0.5,0.224,0.5,0.5v1.692
				c0,0.276-0.224,0.5-0.5,0.5h-4.331c1.271,2.597,3.133,4.802,5.078,5.987c0.138,0.084,0.227,0.23,0.238,0.391
				c0.012,0.161-0.056,0.318-0.18,0.421c-0.381,0.315-0.95,0.919-1.203,1.346c-0.071,0.12-0.188,0.204-0.324,0.234
				c-0.035,0.007-0.069,0.01-0.104,0.01c-0.103,0-0.203-0.03-0.288-0.089c-0.482-0.336-0.947-0.716-1.393-1.136v0.33
				c0,0.276-0.224,0.5-0.5,0.5h-3.479v2.687c0,0.276-0.224,0.5-0.5,0.5h-1.764c-0.276,0-0.5-0.224-0.5-0.5v-2.687h-3.479
				c-0.276,0-0.5-0.224-0.5-0.5V45.47c-0.471,0.453-0.946,0.857-1.434,1.22c-0.086,0.065-0.192,0.099-0.299,0.099
				c-0.028,0-0.056-0.002-0.084-0.007c-0.135-0.023-0.254-0.101-0.331-0.215c-0.262-0.394-0.765-0.947-1.145-1.26
				c-0.124-0.102-0.191-0.257-0.181-0.417c0.01-0.16,0.096-0.306,0.231-0.392c1.925-1.222,3.769-3.49,5.025-6.154h-4.198
				c-0.276,0-0.5-0.224-0.5-0.5v-1.692c0-0.276,0.224-0.5,0.5-0.5h6.396v-3.137c0-0.276,0.224-0.5,0.5-0.5H36.489 M31.864,43.647
				h2.361v-3.883C33.556,41.186,32.758,42.499,31.864,43.647 M36.989,43.647h2.298c-0.86-1.119-1.636-2.405-2.298-3.807V43.647
				 M36.489,30.016h-1.764c-1.378,0-2.5,1.122-2.5,2.5v1.137h-4.396c-1.378,0-2.5,1.122-2.5,2.5v1.692c0,1.378,1.122,2.5,2.5,2.5
				h0.665c-0.799,1.049-1.683,1.907-2.563,2.465c-0.675,0.429-1.107,1.161-1.155,1.959c-0.049,0.796,0.29,1.575,0.906,2.083
				c0.225,0.186,0.598,0.595,0.751,0.824c0.378,0.568,0.981,0.96,1.652,1.077c0.146,0.025,0.287,0.037,0.427,0.037
				c0.538,0,1.07-0.177,1.5-0.499c0.02-0.015,0.039-0.029,0.059-0.044c0.215,0.061,0.441,0.093,0.675,0.093h1.479v0.687
				c0,1.378,1.122,2.5,2.5,2.5h1.764c1.378,0,2.5-1.121,2.5-2.5v-0.687h1.479c0.238,0,0.469-0.034,0.687-0.096
				c0.021,0.015,0.041,0.029,0.061,0.043c0.421,0.293,0.916,0.449,1.433,0.449c0.164,0,0.328-0.016,0.488-0.047
				c0.721-0.158,1.31-0.583,1.662-1.178c0.098-0.166,0.49-0.603,0.755-0.822c0.624-0.516,0.96-1.304,0.901-2.108
				c-0.056-0.802-0.502-1.535-1.194-1.955c-0.854-0.521-1.711-1.312-2.494-2.278h0.708c1.378,0,2.5-1.122,2.5-2.5v-1.692
				c0-1.378-1.122-2.5-2.5-2.5h-4.486v-1.137C38.989,31.137,37.867,30.016,36.489,30.016L36.489,30.016z"/>
		</g>
		<g>
			<path fill="#B45834" d="M46.389,50.562l-0.132-0.014c-0.406-0.051-0.786-0.28-1.028-0.626c-0.125-0.179-0.629-0.668-0.882-0.836
				c-0.388-0.259-0.637-0.692-0.665-1.159c-0.029-0.462,0.165-0.922,0.519-1.227c2.123-1.823,2.557-4.369,2.557-7.631v-5.653
				c0-0.827,0.673-1.5,1.5-1.5h11.217c0.827,0,1.5,0.673,1.5,1.5v13.36c0,0.627,0,2.534-1.982,3.277
				c-1.001,0.405-2.448,0.438-4.379,0.438c-0.708,0-1.31-0.483-1.464-1.175c-0.077-0.346-0.341-0.992-0.533-1.303
				c-0.293-0.478-0.298-1.072-0.013-1.552c0.27-0.454,0.766-0.735,1.294-0.735c0.823,0.041,1.584,0.052,2.185,0.052
				c0.042,0,0.083,0,0.123,0l0.002-0.689h-5.526c-0.675,2.132-1.766,3.85-3.25,5.115c-0.272,0.231-0.618,0.358-0.973,0.358H46.389z"
				/>
			<path fill="#F9F3EA" d="M59.477,32.916c0.276,0,0.5,0.224,0.5,0.5v13.36c0,0.91-0.158,1.9-1.333,2.341
				c-0.856,0.347-2.21,0.374-4.028,0.374c-0.234,0-0.437-0.163-0.488-0.392c-0.101-0.453-0.409-1.206-0.658-1.611
				c-0.097-0.158-0.099-0.357-0.004-0.517c0.091-0.153,0.259-0.245,0.434-0.245c0.007,0,0.014,0,0.021,0
				c0.769,0.04,1.548,0.052,2.163,0.052c0.492,0,0.879-0.008,1.068-0.016c0.02,0,0.038,0,0.052-0.001l0.007-2.673h-7.281
				c-0.593,2.279-1.651,4.079-3.146,5.354c-0.091,0.077-0.206,0.119-0.324,0.119c-0.021,0-0.042-0.001-0.063-0.004
				c-0.14-0.018-0.266-0.094-0.346-0.209c-0.208-0.296-0.808-0.869-1.146-1.095c-0.13-0.087-0.212-0.229-0.222-0.386
				c-0.01-0.156,0.055-0.308,0.173-0.41c2.553-2.193,2.905-5.328,2.905-8.39v-5.653c0-0.276,0.224-0.5,0.5-0.5H59.477 M50.47,37.201
				h6.742v-1.665H50.47V37.201 M50.363,41.468h6.849v-1.665h-6.749C50.451,40.339,50.417,40.896,50.363,41.468 M59.477,30.916
				H48.259c-1.378,0-2.5,1.122-2.5,2.5v5.653c0,2.987-0.375,5.298-2.208,6.873c-0.591,0.509-0.915,1.275-0.866,2.052
				c0.046,0.771,0.46,1.493,1.108,1.925c0.143,0.099,0.522,0.456,0.631,0.597c0.389,0.558,1.022,0.939,1.721,1.027
				c0.087,0.012,0.2,0.02,0.313,0.02c0.592,0,1.167-0.211,1.619-0.595c1.464-1.248,2.576-2.885,3.317-4.878h0.274
				c-0.396,0.776-0.363,1.698,0.096,2.446c0.132,0.216,0.358,0.766,0.41,1c0.256,1.151,1.259,1.956,2.44,1.956
				c2.097,0,3.564-0.036,4.755-0.511c1.195-0.455,2.606-1.555,2.606-4.204v-13.36C61.977,32.038,60.855,30.916,59.477,30.916
				L59.477,30.916z"/>
		</g>
		<g>
			<path fill="#B45834" d="M28.765,71.964c-0.465,0-0.896-0.21-1.183-0.577l-1.224-1.565c-0.454-0.581-0.421-1.396,0.079-1.939
				c1.639-1.784,3.069-2.697,4.361-2.782c1.815-1.119,3.771-2.703,5.445-4.389H28.44c-0.827,0-1.5-0.673-1.5-1.5v-1.639
				c0-0.827,0.673-1.5,1.5-1.5h4.585c-0.1-0.144-0.197-0.282-0.291-0.412c-0.254-0.353-0.344-0.797-0.246-1.219
				c0.099-0.424,0.376-0.783,0.761-0.986l1.492-0.791c0.207-0.113,0.454-0.176,0.702-0.176c0.466,0,0.912,0.222,1.194,0.594
				c0.336,0.441,1.444,1.923,2.04,2.99h1.964l0.128-0.035c0.116-0.035,0.257-0.056,0.399-0.056c0.289,0,0.57,0.083,0.813,0.241
				l1.28,0.829c0.34,0.223,0.571,0.561,0.653,0.953c0.081,0.394,0,0.807-0.221,1.138c-1.774,2.669-4.575,5.564-7.589,7.894
				c0.467,0.029,0.957,0.037,1.444,0.037c1.972,0,4.575-0.146,6.188-0.348l0.062-0.008l0.131-0.005c0.464,0,0.911,0.225,1.194,0.602
				c0.325,0.437,0.389,1.012,0.172,1.505c-0.143,0.323-0.343,1.045-0.363,1.31c-0.058,0.747-0.642,1.328-1.391,1.381
				c-1.382,0.095-4.328,0.185-6.064,0.185c-2.196,0-3.989-0.199-5.601-1.171c-0.322-0.203-0.595-0.407-0.844-0.594
				c-0.003-0.003-0.006-0.005-0.01-0.008c-0.214,0.254-0.542,0.681-1.019,1.383c-0.267,0.395-0.711,0.641-1.188,0.658L28.8,71.964
				H28.765z"/>
			<path fill="#F9F3EA" d="M35.445,53.489c0.152,0,0.301,0.07,0.398,0.198c0.699,0.919,1.597,2.186,2.023,2.984
				c0.069,0.128,0.076,0.273,0.031,0.401h2.881l0.259-0.071c0.043-0.013,0.088-0.02,0.134-0.02c0.094,0,0.189,0.028,0.271,0.081
				l1.278,0.828c0.112,0.073,0.19,0.188,0.218,0.318c0.027,0.131,0,0.268-0.073,0.378c-2.073,3.118-5.617,6.568-9.179,8.966
				c0.954,0.427,2.214,0.521,3.865,0.521c2.008,0,4.662-0.149,6.312-0.355c0.023-0.003,0.046-0.005,0.069-0.005
				c0.156,0,0.3,0.077,0.395,0.202c0.107,0.145,0.129,0.336,0.056,0.501c-0.174,0.394-0.414,1.227-0.445,1.636
				c-0.019,0.248-0.217,0.443-0.464,0.461c-1.368,0.094-4.28,0.182-5.994,0.182c-2.029,0-3.67-0.175-5.084-1.027
				c-0.28-0.177-0.53-0.364-0.758-0.536c-0.246-0.184-0.582-0.437-0.702-0.453c-0.139,0.022-0.574,0.321-1.756,2.066
				c-0.09,0.133-0.237,0.214-0.397,0.22c-0.006,0-0.011,0-0.017,0c-0.154,0-0.299-0.07-0.394-0.192l-1.224-1.566
				c-0.15-0.192-0.14-0.466,0.026-0.646c1.504-1.637,2.791-2.467,3.825-2.467c0.028,0,0.058,0,0.09,0.001
				c2.55-1.527,5.417-3.998,7.434-6.383H28.44c-0.276,0-0.5-0.224-0.5-0.5v-1.639c0-0.276,0.224-0.5,0.5-0.5h6.425
				c-0.396-0.654-0.886-1.396-1.321-1.998c-0.084-0.117-0.114-0.266-0.082-0.406s0.125-0.261,0.253-0.328l1.495-0.792
				C35.285,53.507,35.365,53.489,35.445,53.489 M35.445,51.489L35.445,51.489L35.445,51.489c-0.416,0-0.828,0.105-1.193,0.305
				l-1.472,0.779c-0.637,0.336-1.1,0.936-1.264,1.643c-0.066,0.284-0.082,0.574-0.048,0.857H28.44c-1.378,0-2.5,1.121-2.5,2.5v1.639
				c0,1.379,1.122,2.5,2.5,2.5h5.253c-1.067,0.917-2.179,1.753-3.229,2.417c-1.482,0.196-3.047,1.209-4.766,3.078
				c-0.831,0.902-0.886,2.262-0.129,3.23l1.224,1.566c0.476,0.61,1.194,0.961,1.97,0.961h0.037l0.054-0.001
				c0.795-0.029,1.535-0.44,1.98-1.099c0.147-0.218,0.279-0.406,0.396-0.568c0.032,0.021,0.065,0.042,0.098,0.063
				c1.95,1.177,4.106,1.336,6.151,1.336c1.754,0,4.733-0.091,6.13-0.187c1.231-0.087,2.228-1.077,2.322-2.303
				c0.021-0.188,0.185-0.764,0.281-0.981c0.363-0.822,0.255-1.781-0.281-2.502c-0.477-0.635-1.223-1.009-2-1.009
				c-0.118,0-0.237,0.009-0.357,0.025c-1.211,0.151-3.05,0.272-4.722,0.316c2.258-2.01,4.276-4.252,5.678-6.36
				c0.366-0.548,0.5-1.236,0.367-1.888c-0.138-0.661-0.521-1.223-1.081-1.589l-1.287-0.834c-0.409-0.264-0.877-0.402-1.359-0.402
				c-0.225,0-0.448,0.031-0.663,0.091h-1.259c-0.64-1.034-1.518-2.207-1.814-2.597C36.966,51.859,36.222,51.489,35.445,51.489
				L35.445,51.489L35.445,51.489z"/>
		</g>
		<g>
			<path fill="#B45834" d="M45.829,71.676c-0.827,0-1.5-0.673-1.5-1.5v-1.44c0-0.822,0.664-1.491,1.484-1.5
				c-0.307-0.256-0.775-0.599-1.002-0.717c-0.458-0.237-0.759-0.689-0.801-1.208c-0.042-0.521,0.183-1.016,0.601-1.325
				c0.647-0.484,1.273-1.128,1.795-1.838c-0.174-0.245-0.276-0.544-0.276-0.866V54.8c0-0.827,0.673-1.5,1.5-1.5h12.01
				c0.827,0,1.5,0.673,1.5,1.5v6.481c0,0.127-0.016,0.251-0.046,0.369c0.437,0.263,0.73,0.741,0.73,1.287v1.404
				c0,0.565-0.315,1.06-0.778,1.314c0.002,0.036,0.004,0.072,0.004,0.108v1.314c0,0.053-0.003,0.104-0.008,0.156h0.417
				c0.827,0,1.5,0.673,1.5,1.5v1.44c0,0.827-0.673,1.5-1.5,1.5H45.829z"/>
			<path fill="#F9F3EA" d="M59.639,54.3c0.276,0,0.5,0.224,0.5,0.5v6.481c0,0.276-0.224,0.5-0.5,0.5h-4.614v0.656h5.298
				c0.276,0,0.5,0.224,0.5,0.5v1.404c0,0.276-0.224,0.5-0.5,0.5h-5.298v0.423h4.523c0.276,0,0.5,0.224,0.5,0.5v1.314
				c0,0.276-0.224,0.5-0.5,0.5h-4.523v0.656h6.433c0.276,0,0.5,0.224,0.5,0.5v1.44c0,0.276-0.224,0.5-0.5,0.5H45.829
				c-0.276,0-0.5-0.224-0.5-0.5v-1.44c0-0.276,0.224-0.5,0.5-0.5h6.468V67.58h-4.325c-0.276,0-0.5-0.224-0.5-0.5v-0.682
				c-0.072,0.066-0.144,0.132-0.215,0.193c-0.094,0.083-0.211,0.124-0.329,0.124c-0.119,0-0.238-0.042-0.333-0.126
				c-0.305-0.271-0.955-0.766-1.321-0.957c-0.153-0.079-0.253-0.231-0.268-0.403c-0.014-0.171,0.062-0.338,0.2-0.44
				c1.023-0.765,1.97-1.853,2.63-3.007h-0.207c-0.276,0-0.5-0.224-0.5-0.5V54.8c0-0.276,0.224-0.5,0.5-0.5H59.639 M49.768,56.893
				h7.643v-0.278h-7.643V56.893 M49.768,59.467h7.643v-0.332h-7.643V59.467 M50.506,62.438h1.79v-0.656h-1.474
				c-0.008,0.044-0.021,0.088-0.042,0.13C50.697,62.086,50.604,62.262,50.506,62.438 M48.557,65.265h3.74v-0.423h-3.384
				C48.792,64.988,48.674,65.129,48.557,65.265 M59.639,52.3h-12.01c-1.378,0-2.5,1.121-2.5,2.5v6.481
				c0,0.255,0.038,0.501,0.109,0.732c-0.379,0.448-0.799,0.851-1.23,1.172c-0.691,0.513-1.065,1.338-0.996,2.202
				c0.057,0.692,0.387,1.312,0.907,1.735c-0.369,0.436-0.591,0.998-0.591,1.612v1.44c0,1.379,1.122,2.5,2.5,2.5h15.629
				c1.378,0,2.5-1.121,2.5-2.5v-1.44c0-1.175-0.815-2.163-1.909-2.43V66.15c0.477-0.456,0.774-1.098,0.774-1.808v-1.404
				c0-0.664-0.26-1.269-0.684-1.717V54.8C62.139,53.421,61.017,52.3,59.639,52.3L59.639,52.3z"/>
		</g>
	</g>
</g>
</svg>
