<?xml version="1.0" encoding="utf-8"?>
<!-- Generator: Adobe Illustrator 16.0.0, SVG Export Plug-In . SVG Version: 6.00 Build 0)  -->
<!DOCTYPE svg PUBLIC "-//W3C//DTD SVG 1.1//EN" "http://www.w3.org/Graphics/SVG/1.1/DTD/svg11.dtd">
<svg version="1.1" id="圖層_1" xmlns="http://www.w3.org/2000/svg" xmlns:xlink="http://www.w3.org/1999/xlink" x="0px" y="0px"
	 width="38.107px" height="60px" viewBox="0 0 38.107 60" enable-background="new 0 0 38.107 60" xml:space="preserve">
<g>
	<path fill="#5169A7" d="M18.938,10.799l0.009,0.013C18.973,10.717,18.968,10.732,18.938,10.799z"/>
	<polygon fill="#5169A7" points="29.028,18.304 29,18.304 29.005,18.33 	"/>
	<path fill="#5169A7" d="M29.668,18.491c-0.563,0.202-0.612,0.056-0.663-0.161l-0.763,1.018L29.668,18.491z"/>
	<path fill="#5169A7" d="M35.201,25.077c-0.037,0.08-0.104,0.138-0.178,0.197C35.14,25.274,35.226,25.228,35.201,25.077z"/>
	<path fill="#5169A7" d="M21.838,11.03c0.03,0.131,0.011,0.237-0.024,0.33C21.901,11.283,21.938,11.177,21.838,11.03z"/>
	<polygon fill="#5169A7" points="12.714,4.526 12.539,4.146 12.544,4.302 	"/>
	<path fill="#5169A7" d="M16.125,6.722c0.007,0.157-0.068,0.239-0.141,0.402l0.454-0.427L16.125,6.722z"/>
	<path fill="#5169A7" d="M17.489,7.253c-0.153,0.088-0.557-0.119-0.381,0.261C17.262,7.423,17.898,7.615,17.489,7.253z"/>
	<path fill="#5169A7" d="M26.833,15.074c-0.184-0.535-0.537,0.355-0.642-0.187c-0.258,0.082,0.086,0.444-0.149,0.502
		C26.44,15.433,26.449,15.646,26.833,15.074z"/>
	<path fill="#5169A7" d="M1.358,4.753l0.388-0.531L1.2,4.521C1.274,4.551,1.417,4.606,1.358,4.753z"/>
	<path fill="#5169A7" d="M31.755,36.882l0.188,0.449C32.155,37.1,31.896,37.048,31.755,36.882z"/>
	<path fill="#5169A7" d="M11.366,41.063l0.011-0.011C11.282,41.023,11.3,41.031,11.366,41.063z"/>
	<polygon fill="#5169A7" points="18.866,30.969 18.868,30.998 18.896,30.993 	"/>
	<path fill="#5169A7" d="M19.057,30.33c0.201,0.563,0.053,0.611-0.161,0.663l1.02,0.761L19.057,30.33z"/>
	<path fill="#5169A7" d="M37.953,29.389c0.203-0.182-0.106-0.195-0.304-0.024c0.005-0.005-0.029,0.228-0.058,0.404l0.516,0.016
		C38.051,29.85,38.002,29.328,37.953,29.389z"/>
	<path fill="#5169A7" d="M36.687,30.215c0.374-0.248,0.827-0.444,0.871-0.254c0.004-0.003,0.019,0.094,0.035-0.008l-0.399,0.17
		h0.063c-0.143,0-0.318-0.834-0.488-0.867c0.066-0.082,0.273-0.365,0.525-0.579c0.187,0.032,0.313-0.006,0.262-0.057l-0.257-0.016
		c0.205-0.168,0.434-0.362,0.648-0.501c-0.018-0.226-0.199-0.643-0.76-0.787c0.091-0.165,0.546-0.082,0.813-0.166
		c-1.021-0.487-1.161-0.629-1.672-0.771c-0.168-0.244-0.432-0.537-0.568-0.96c0.007,0.146,0.038,0.478-0.002,0.791
		c-0.073-0.02-0.108-0.035-0.192-0.055c0.012,0.011-0.06-0.663-0.069-0.674c-0.073,0.446-0.676,0.429-1.249,0.395
		c-0.066-0.067-0.157-0.141-0.265-0.212c0.296-0.075,0.58-0.166,0.823-0.289c0.044,0.056,0.092,0.112,0.168,0.188l-0.034-0.249
		c0.024-0.016,0.066-0.024,0.087-0.04c-0.026,0-0.063-0.026-0.098-0.031l-0.024-0.166c0.012-0.009,0.035-0.011,0.042-0.016
		c0.01-0.016-0.029-0.02-0.048-0.028h-0.001c-0.051-0.021-0.165-0.022-0.335-0.026l0.415-0.598l-0.256,0.143
		c-0.069-0.067-0.392-1.039-0.367-1.013c-0.943,0.068-2.071,0.431-2.963-0.056c0.542-0.197,0.647-0.563,1.103-0.988
		c-0.285,0.647,0.729,0.339,0.982,0.791c-0.135-0.234,0.119-0.401,0.238-0.426l-1.057-0.222c0.378-0.342,0.14-0.402,0.126-0.719
		c-0.596,0.83-0.945-0.008-1.422-0.053c0.225-0.254,0.532-0.431,0.784-0.057c0.199-0.883-1.288,0.375-1.165-0.423
		c0.082,0.071,0.087,0.15,0.237,0.063c-0.392,0.029-0.657-0.579-0.345-0.681l0.083,0.068c-0.422-0.599-1.533-1.574-2.22-1.054
		c0.073-0.082,0.803-0.652,0.955-0.741l-2.035,0.75l-0.287-0.288c0.527-0.588,1.134-1.297,1.631-1.2
		c-0.046-0.197-0.108-0.434-0.546-0.515c0.007,0.161-0.558,0.952-0.714,0.889c0.273-0.889,0.099-0.526,0.217-1.401
		c0.007,0.234-0.948,0.901-1.116,0.679c0.152-0.091,0.795-0.812,0.952-0.823l-1.291,0.296c0.266-0.018,0.703-0.647,0.822-0.981
		c-0.105,0.204-0.4-0.441-0.61-0.495l0.016,0.394c-0.424-0.678-1.673,0.558-2.173-0.035c0.23-0.097,1.188-0.84,1.015-1.22
		c-0.29,0.147-0.998,0.521-1.72,0.819l-0.602-0.616c0.801-0.263,1.648-0.506,2.146-0.586c-0.018-0.392,0.221-0.327-0.105-0.623
		c0.11-0.325,0.502-0.157,0.604-0.078l-0.567-0.866c-0.451,0.502-1.028-0.084-1.403,0.336l1.273,0.303
		c-0.451,0.506-1.818,0.885-2.238,0.285c0.065-0.32,0.957-0.743,1.104-0.913c-0.23,0.096-0.796-0.177-0.725-0.34l0.473-0.035
		c-0.1-0.465-1.099,0.158-0.977-0.637c-0.084-0.15,0.272-0.965-0.033-0.705c-0.215,0.441-0.9,1.213-1.534,1.839l-0.392-0.4
		l0.206-0.17l-0.08-0.071l-0.183,0.182l-0.384-0.39c0.366-0.446,1.193-0.594,1.377-1.063c-0.14,0.121-0.407,0.175-0.504,0.181
		c-0.01-0.236,0.459-0.349,0.133-0.562c-0.534,0.432-0.5-0.593-0.538,0.274c-0.4-0.128-0.179-0.382-0.504-0.67
		c-0.146,0.272-0.695,0.513-1.167,0.612l-0.327-0.334c0.008-0.023,0.024-0.049,0.031-0.063c-0.489-0.588-0.553-1.099-1.046-1.611
		c0.07-0.16-0.023-0.545,0.287-0.646c-0.157,0.01-0.389,0.106-0.553-0.041c0.124-0.719,0.404,0.287,0.688-0.442
		c-0.303,0.259-0.789-0.022-1.185-0.073c-0.371,0.5,0.42,0.6,0.814,0.65c-0.21,0.205-0.479,0.351-0.763,0.466l-1.655-1.69
		c-0.229-0.542-1.197-1.259-1.435-2.039c-0.166,0.014-0.341,0.024-0.472,0.091l-2.101-2.142c0.063-0.045,0.131-0.066,0.187-0.136
		l-0.426-0.11L11.25,3.048c0.089-0.069,0.285-0.098,0.277-0.245c-0.107,0.095-0.249,0.132-0.383,0.137l-0.411-0.416
		c0.001-0.021-0.011-0.031-0.009-0.055c-0.009-0.002-0.022,0.013-0.03,0.013l-0.399-0.408c-0.002-0.022,0.021-0.021,0.012-0.051
		c-0.049,0.006-0.073-0.017-0.1-0.04L8.271,0L0,5.812l0.657,0.612C0.502,6.83,0.343,7.26,0.027,7.563
		C0.923,7.23,0,9.258,1.351,8.845C1.329,9.097,1.04,8.985,0.949,9.204c0.41-0.183,0.63-0.097,0.796,0.31L1.644,9.559
		c0.896,0.693,0.971,1.321,1.711,2.383l0.258-0.415c0.155,0.233,0.097,0.38,0.108,0.553c0.719-0.314-0.532-0.549,0.219-0.938
		c-0.396,0.955,1.393,1.317,0.821,2.288c0.305,0.289,0.287-0.486,0.588-0.197l-0.12,0.294l0.337-0.208
		c0.158,0.232,0.006,0.598-0.157,0.79C5.379,14.042,5.222,14.032,5.155,14c0.021,0.497,0.814,0.594,0.827,0.762l-0.172-0.41
		c1.025,0.572,1.781,1.811,3.002,2.119l0.091-0.223c0.901,0.27,0.326,0.639,1.135,1.13l-0.061,0.016
		c0.287-0.04,0.546,0.046,0.714,0.236c-0.35,0.037-0.025,0.674-0.448,0.679c0.973,0.296,0.567,0.053,1.578-0.15l-0.149,0.369
		c0.378-0.106,0.513-0.224,0.917,0.02c-0.495-0.024-0.172,0.617-0.771,0.635c0.155,1.258,1.612,0.378,1.128,1.554
		c1.027-0.451-0.224-0.988,0.108-0.983c0.075-0.389,0.794-0.313,0.946-0.029c0.21,0.228-0.515,1.324,0.069,1.838
		c-0.053-0.056-0.107-0.001-0.163-0.058c0.033,0.394,0.66,0.128,0.633,0.685c0.569-0.318,0.313,0.345,0.898-0.201l-0.648-0.352
		c0.438,0.126,1.349-0.3,1.53,0.486c-0.146,0.082-0.435,0.101-0.615,0.096c-0.019,0.305,0.382,0.139,0.363,0.455
		c-0.583,0.544-0.753-0.466-1.483-0.316c-0.074,0.39,0.994,0.136,0.247,0.621c0.977-0.588,0.467,0.622,1.424,0.368l-0.348,0.326
		c0.109,0.003,0.392-0.046,0.494,0.069l-0.625,0.263c0.673-0.097,0.289,0.897,0.784,0.968c-0.637-0.572,0.25-0.552,0.221-1.054
		c1.211,0.25-0.402,1.326,0.618,1.965c-0.159-0.06-0.243-0.617,0.091-0.61c0.1,0.226,0.191,0.562,0.121,0.84
		c0.644,0.463,0.247-0.441,0.691-0.431c-0.199,0.61,0.442,0.091,0.822,0.188l-0.329,0.358c0.441,0.836,0.86-0.577,1.192,0.246
		l-0.704,0.259l0.425,0.158l-0.438,0.348c0.612,0.011,0.645,0.184,0.864,0.601c0.157-0.32,0.643-0.604,0.943-0.345
		c0.001,0.396-0.425,0.235,0.034,0.566c-0.3,0.135-0.659,0.318-0.536-0.177c-0.125,0.102-0.299,0.14-0.425,0.236
		c-0.011,0.44,0.484,0.553,0.638,0.689c-0.045-0.066-0.097-0.149-0.084-0.234l1.053,0.063c-0.029,0.221-0.204,0.258-0.374,0.294
		c0.144,0.07,0.354,0.018,0.546,0.11c-0.164,0.228-0.526,0.314-0.604,0.082l0.072-0.082c-0.6,0.42-1.575,1.534-1.055,2.223
		c-0.082-0.076-0.652-0.803-0.741-0.958l0.75,2.036l-0.289,0.283c-0.587-0.525-1.294-1.13-1.198-1.627
		c-0.196,0.046-0.436,0.109-0.514,0.548c0.159-0.011,0.951,0.552,0.885,0.71c-0.887-0.273-0.521-0.096-1.398-0.213
		c0.236-0.011,0.9,0.946,0.677,1.114c-0.089-0.152-0.812-0.794-0.821-0.952l0.298,1.291c-0.021-0.266-0.649-0.704-0.983-0.821
		c0.207,0.106-0.44,0.4-0.495,0.608l0.395-0.016c-0.68,0.42,0.561,1.674-0.034,2.172c-0.098-0.232-0.84-1.187-1.223-1.014
		c0.147,0.289,0.523,1.002,0.822,1.721l-0.614,0.602c-0.264-0.803-0.507-1.648-0.586-2.145c-0.394,0.016-0.332-0.225-0.622,0.104
		c-0.329-0.114-0.16-0.504-0.081-0.606l-0.866,0.571c0.504,0.448-0.084,1.026,0.337,1.403l0.302-1.275
		c0.503,0.449,0.883,1.817,0.285,2.237c-0.318-0.063-0.742-0.953-0.912-1.104c0.097,0.229-0.178,0.797-0.341,0.725l-0.035-0.473
		c-0.465,0.102,0.157,1.099-0.637,0.979c-0.15,0.086-0.967-0.273-0.707,0.031c0.443,0.217,1.218,0.9,1.841,1.533l-0.399,0.391
		l-0.171-0.204l-0.07,0.082l0.183,0.183l-0.391,0.383c-0.445-0.367-0.595-1.194-1.062-1.377c0.122,0.139,0.173,0.405,0.178,0.502
		c-0.233,0.012-0.348-0.455-0.562-0.133c0.435,0.533-0.593,0.502,0.275,0.539c-0.127,0.4-0.379,0.178-0.671,0.502
		c0.274,0.15,0.514,0.696,0.613,1.168l-0.336,0.327c-0.017-0.009-0.045-0.024-0.06-0.028c-0.59,0.488-1.099,0.553-1.612,1.047
		c-0.161-0.074-0.546,0.021-0.647-0.288c0.012,0.157,0.105,0.391-0.04,0.557c-0.718-0.13,0.285-0.413-0.441-0.69
		c0.259,0.303-0.021,0.787-0.07,1.185c0.499,0.373,0.599-0.42,0.647-0.815c0.206,0.211,0.354,0.478,0.465,0.76l-1.689,1.658
		c-0.542,0.229-1.256,1.196-2.04,1.436c0.016,0.166,0.024,0.339,0.092,0.475l-2.142,2.098C3.84,48.422,3.822,48.354,3.749,48.3
		l-0.108,0.423l-0.026,0.028c-0.07-0.088-0.1-0.285-0.245-0.278c0.094,0.11,0.131,0.25,0.136,0.385l-0.416,0.41
		c-0.024,0-0.031,0.01-0.056,0.01c0,0.01,0.012,0.021,0.012,0.031l-0.407,0.397c-0.021,0.005-0.021-0.022-0.049-0.013
		c0.007,0.05-0.021,0.074-0.041,0.104L0.563,51.74L6.372,60l0.611-0.657c0.408,0.155,0.837,0.313,1.139,0.63
		c-0.331-0.896,1.697,0.026,1.285-1.32c0.25,0.021,0.137,0.31,0.354,0.4c-0.179-0.41-0.095-0.632,0.313-0.798l0.044,0.103
		c0.693-0.894,1.32-0.971,2.381-1.713l-0.413-0.254c0.232-0.156,0.382-0.097,0.555-0.111c-0.315-0.719-0.551,0.533-0.938-0.217
		c0.955,0.397,1.315-1.394,2.289-0.821c0.287-0.304-0.486-0.288-0.198-0.589l0.294,0.119l-0.208-0.338
		c0.229-0.154,0.6-0.007,0.79,0.16c-0.066,0.025-0.076,0.188-0.108,0.252c0.497-0.022,0.596-0.813,0.763-0.828l-0.408,0.17
		c0.574-1.026,1.81-1.78,2.117-3l-0.225-0.09c0.271-0.902,0.641-0.326,1.13-1.135l0.017,0.061c-0.037-0.289,0.049-0.547,0.238-0.711
		c0.033,0.347,0.675,0.022,0.68,0.445c0.294-0.971,0.049-0.57-0.15-1.578l0.367,0.151c-0.106-0.38-0.224-0.515,0.018-0.917
		c-0.021,0.493,0.618,0.17,0.64,0.77c1.258-0.154,0.376-1.613,1.552-1.127c-0.451-1.029-0.99,0.223-0.979-0.111
		c-0.392-0.076-0.315-0.793-0.032-0.945c0.228-0.21,1.323,0.512,1.84-0.072c-0.057,0.055-0.001,0.112-0.059,0.168
		c0.393-0.035,0.128-0.664,0.684-0.633c-0.318-0.572,0.343-0.314-0.2-0.9L22.2,45.211c0.125-0.438-0.3-1.354,0.484-1.534
		c0.082,0.15,0.103,0.439,0.094,0.621c0.308,0.017,0.145-0.383,0.457-0.364c0.544,0.584-0.464,0.752-0.314,1.482
		c0.389,0.073,0.137-0.996,0.618-0.247c-0.588-0.978,0.626-0.471,0.371-1.424l0.324,0.351c0.003-0.111-0.044-0.391,0.069-0.498
		l0.263,0.625c-0.095-0.672,0.899-0.289,0.967-0.785c-0.572,0.643-0.551-0.248-1.055-0.219c0.254-1.209,1.328,0.4,1.967-0.621
		c-0.06,0.162-0.618,0.246-0.607-0.088c0.224-0.1,0.562-0.189,0.838-0.124c0.463-0.641-0.441-0.243-0.429-0.688
		c0.607,0.201,0.089-0.44,0.188-0.82l0.357,0.325c0.834-0.44-0.579-0.86,0.245-1.191l0.258,0.705l0.161-0.425l0.343,0.439
		c0.011-0.612,0.186-0.646,0.604-0.871c-0.318-0.152-0.604-0.642-0.346-0.939c0.395,0,0.236,0.426,0.564-0.031
		c0.137,0.299,0.321,0.657-0.171,0.535c0.098,0.122,0.136,0.299,0.233,0.422c0.44,0.01,0.553-0.484,0.688-0.638
		c-0.066,0.046-0.148,0.097-0.232,0.086l0.062-1.053c0.223,0.028,0.261,0.202,0.296,0.374c0.072-0.154-0.013-0.391,0.122-0.6
		c0.247,0.315,0.554,0.584,0.457,0.957l0.208-0.863c0.16,0.078,0.615,0.029,0.651,0.201c0.462-0.156,0.159-1.291,0.771-1.502
		c-0.036-0.072-0.047-0.168-0.007-0.295c0.09-0.065,0.189-0.117,0.292-0.172c0.233,0.227,0.305,0.075,0.384-0.208
		c0.246-0.149,0.449-0.36,0.467-0.801l0.231,0.063l-0.193,0.385c0.501,0.361,0.774-0.042,1.286-0.365
		c0.037,0.035,0.04,0.055,0.114,0.115c0.079-0.061,0.123-0.163,0.173-0.264c0.054-0.021,0.091-0.056,0.147-0.074
		c-0.023,0-0.065,0.006-0.104,0.006c0.018-0.026,0.027-0.059,0.053-0.081c-0.024,0.055-0.073,0.063-0.117,0.086
		c-0.483,0.028-1.497,0.054-1.198-0.791c0.021-0.009,0.04-0.04,0.063-0.05c0.186,0.101,0.39,0.395,0.565,0.384
		c-0.063-0.206-0.07-0.606,0.077-0.981c0.187,0.021,0.351-0.293,0.574-0.604l0.107,0.128c-0.092,0.097-0.191,0.187-0.265,0.303
		l0.396-0.146l0.182,0.219c0.051-0.123,0.068-0.219,0.084-0.314l0.148-0.055c-0.015,0.436-0.157,0.758-0.23,0.965l-0.038-0.089
		c-0.172-0.058-0.267,0.04-0.459,0.236l0.472-0.066c-0.057,0.197,0.011,0.248,0.489,0.134c-0.508-0.457-0.051-0.998,0.405-1.543
		c0.457-0.539,0.915-1.086,0.188-1.304l0.626-0.252c-0.104,0.091-0.027,0.127-0.129,0.22C37.869,31.066,35.784,30.902,36.687,30.215
		z M34.741,25.142c-0.005,0.016,0.004,0.028,0.004,0.046c-0.023-0.013-0.046-0.009-0.068-0.023
		C34.706,25.159,34.713,25.147,34.741,25.142z M33.037,34.999c-0.106-0.103-0.169-0.233-0.053-0.485
		c0.018-0.043,0.038-0.031,0.06-0.061c0.051-0.01,0.107-0.016,0.172-0.036C33.177,34.563,33.121,34.838,33.037,34.999z
		 M33.244,35.043l-0.041,0.079c-0.02-0.011-0.033-0.026-0.053-0.037C33.185,35.074,33.205,35.055,33.244,35.043z M33.828,25.562
		c-0.035-0.024-0.066-0.046-0.103-0.073l0.166-0.139C33.877,25.422,33.853,25.491,33.828,25.562z M33.751,24.542
		c0.182-0.042,0.195,0.085,0.206,0.358C33.824,24.82,33.764,24.734,33.751,24.542z"/>
	<polygon fill="#5169A7" points="31.72,36.799 31.702,36.807 31.755,36.882 	"/>
	<path fill="#5169A7" d="M11.594,38.158c0.132-0.026,0.238-0.01,0.333,0.027C11.848,38.096,11.741,38.063,11.594,38.158z"/>
	<polygon fill="#5169A7" points="4.712,47.461 4.87,47.456 5.094,47.288 	"/>
	<path fill="#5169A7" d="M7.263,43.563l0.024,0.312c0.156-0.005,0.239,0.069,0.401,0.144L7.263,43.563z"/>
	<path fill="#5169A7" d="M8.081,42.895C7.99,42.741,8.18,42.1,7.819,42.511C7.906,42.663,7.7,43.066,8.081,42.895z"/>
	<path fill="#5169A7" d="M15.953,33.957c0.042-0.4,0.259-0.41-0.314-0.791c-0.535,0.182,0.356,0.535-0.188,0.643
		C15.533,34.063,15.894,33.723,15.953,33.957z"/>
	<path fill="#5169A7" d="M5.081,58.801c0.029-0.074,0.086-0.219,0.232-0.158l-0.531-0.388L5.081,58.801z"/>
	<polygon fill="#5169A7" points="37.918,30.509 38.028,30.412 37.106,30.535 	"/>
</g>
</svg>
