<?xml version="1.0" encoding="utf-8"?>
<!-- Generator: Adobe Illustrator 16.0.0, SVG Export Plug-In . SVG Version: 6.00 Build 0)  -->
<!DOCTYPE svg PUBLIC "-//W3C//DTD SVG 1.1//EN" "http://www.w3.org/Graphics/SVG/1.1/DTD/svg11.dtd">
<svg version="1.1" id="圖層_1" xmlns="http://www.w3.org/2000/svg" xmlns:xlink="http://www.w3.org/1999/xlink" x="0px" y="0px"
	 width="926px" height="11px" viewBox="244.438 441.5 926 11" enable-background="new 244.438 441.5 926 11" xml:space="preserve">
<path fill="#FFFFFF" stroke="#FFFFFF" stroke-width="2" stroke-linejoin="round" stroke-miterlimit="10" d="M1169.438,451.499v-3.06
	l-0.063,0.5c-4.725,0-8.867-2.6-11.031-6.44c-2.166,3.842-6.293,6.44-11.016,6.44c-4.725,0-8.844-2.6-11.008-6.44
	c-2.166,3.842-6.281,6.44-11.004,6.44c-4.727,0-8.838-2.6-11.004-6.44c-2.164,3.842-6.275,6.44-11,6.44s-8.836-2.6-11.002-6.44
	c-2.164,3.842-6.275,6.44-11,6.44s-8.836-2.6-11-6.44c-2.164,3.842-6.275,6.44-11,6.44s-8.836-2.6-11-6.44
	c-2.164,3.842-6.275,6.44-11,6.44s-8.836-2.6-11-6.44c-2.164,3.842-6.275,6.44-11,6.44s-8.836-2.6-11-6.44
	c-2.164,3.842-6.275,6.44-11,6.44s-8.836-2.6-11-6.44c-2.164,3.842-6.275,6.44-11,6.44s-8.836-2.6-11-6.44
	c-2.164,3.842-6.275,6.44-11,6.44s-8.836-2.6-11-6.44c-2.164,3.842-6.275,6.44-11,6.44s-8.836-2.6-11-6.44
	c-2.164,3.842-6.275,6.44-11,6.44s-8.836-2.6-11-6.44c-2.164,3.842-6.275,6.44-11,6.44s-8.836-2.6-11-6.44
	c-2.164,3.842-6.275,6.44-11,6.44s-8.836-2.6-11-6.44c-2.164,3.842-6.275,6.44-11,6.44s-8.836-2.6-11-6.44
	c-2.164,3.842-6.275,6.44-11,6.44s-8.836-2.6-11-6.44c-2.164,3.842-6.275,6.44-11,6.44s-8.836-2.6-11-6.44
	c-2.164,3.842-6.275,6.44-11,6.44s-8.836-2.6-11-6.44c-2.164,3.842-6.275,6.44-11,6.44s-8.836-2.6-11-6.44
	c-2.164,3.842-6.275,6.44-11,6.44s-8.836-2.6-11-6.44c-2.164,3.842-6.275,6.44-11,6.44s-8.836-2.6-11-6.44
	c-2.164,3.842-6.275,6.44-11,6.44s-8.836-2.6-11-6.44c-2.164,3.842-6.275,6.44-10.998,6.44c-4.727,0-8.836-2.6-11-6.44
	c-2.166,3.842-6.277,6.44-11,6.44c-4.727,0-8.836-2.6-11-6.44c-2.166,3.842-6.277,6.44-11,6.44c-4.727,0-8.836-2.6-11-6.44
	c-2.166,3.842-6.277,6.44-11,6.44c-4.727,0-8.836-2.6-11-6.44c-2.166,3.842-6.277,6.44-11,6.44c-4.727,0-8.836-2.6-11-6.44
	c-2.166,3.842-6.277,6.44-11,6.44c-4.727,0-8.836-2.6-11-6.44c-2.166,3.842-6.277,6.44-11,6.44c-4.727,0-8.836-2.6-11-6.44
	c-2.166,3.842-6.277,6.44-11,6.44c-4.727,0-8.836-2.6-11-6.44c-2.166,3.842-6.277,6.44-11,6.44c-4.727,0-8.836-2.6-11-6.44
	c-2.166,3.842-6.277,6.44-11,6.44c-4.727,0-8.836-2.6-11-6.44c-2.166,3.842-6.277,6.44-11,6.44c-4.727,0-8.836-2.6-11-6.44
	c-2.166,3.842-6.277,6.44-11,6.44c-4.727,0-8.836-2.6-11-6.44c-2.166,3.842-6.277,6.44-11,6.44c-4.727,0-8.836-2.6-11-6.44
	c-2.166,3.842-6.277,6.44-11,6.44c-4.727,0-8.836-2.6-11-6.44c-2.166,3.842-6.277,6.44-11,6.44c-4.727,0-8.836-2.6-11-6.44
	c-2.166,3.842-6.277,6.44-11,6.44c-4.727,0-8.836-2.6-11-6.44c-2.166,3.842-6.277,6.44-11,6.44c-4.727,0-8.836-2.6-11-6.44
	c-2.166,3.842-6.277,6.44-11,6.44c-4.727,0-8.836-2.6-11-6.44c-2.166,3.842-6.277,6.44-11,6.44c-4.727,0-8.773-2.6-10.939-6.44
	c-2.164,3.84-5.936,6.44-10.936,6.44v2.56H1169.438z"/>
</svg>
