<?xml version="1.0" encoding="utf-8"?>
<!-- Generator: Adobe Illustrator 16.0.0, SVG Export Plug-In . SVG Version: 6.00 Build 0)  -->
<!DOCTYPE svg PUBLIC "-//W3C//DTD SVG 1.1//EN" "http://www.w3.org/Graphics/SVG/1.1/DTD/svg11.dtd">
<svg version="1.1" id="圖層_1" xmlns="http://www.w3.org/2000/svg" xmlns:xlink="http://www.w3.org/1999/xlink" x="0px" y="0px"
	 width="40px" height="54.303px" viewBox="0 0 40 54.303" enable-background="new 0 0 40 54.303" xml:space="preserve">
<g>
	<g>
		<path fill-rule="evenodd" clip-rule="evenodd" fill="#F1CD6D" d="M38.572,23.925L31.586,1.429l-9.808,2.972l13.767,22.504
			L38.572,23.925z"/>
		<path fill="#FFFFFF" d="M31.586,1.429l6.985,22.496l-3.027,2.981L21.778,4.401L31.586,1.429 M31.587,0
			c-0.137,0-0.277,0.02-0.415,0.062l-9.808,2.973c-0.423,0.128-0.763,0.445-0.921,0.858c-0.158,0.414-0.114,0.876,0.117,1.254
			l13.767,22.504c0.227,0.372,0.612,0.62,1.044,0.672c0.058,0.007,0.116,0.011,0.174,0.011c0.373,0,0.734-0.146,1.002-0.411
			l3.027-2.98c0.38-0.375,0.52-0.931,0.362-1.441L32.951,1.006C32.76,0.394,32.197,0,31.587,0L31.587,0z"/>
	</g>
	<g>
		<path fill-rule="evenodd" clip-rule="evenodd" fill="#F1CD6D" d="M26.676,30.624L6.334,16.745l-4.906,8.413l23.16,9.194
			L26.676,30.624z"/>
		<path fill="#FFFFFF" d="M6.334,16.745l20.341,13.879l-2.087,3.728l-23.16-9.194L6.334,16.745 M6.334,15.316
			c-0.105,0-0.21,0.012-0.314,0.035c-0.387,0.087-0.72,0.332-0.919,0.674l-4.906,8.413c-0.21,0.36-0.252,0.793-0.116,1.186
			c0.136,0.394,0.437,0.708,0.823,0.861l23.16,9.194c0.172,0.068,0.351,0.101,0.526,0.101c0.504,0,0.988-0.268,1.247-0.73
			l2.087-3.728c0.361-0.646,0.17-1.461-0.441-1.878L7.139,15.564C6.9,15.401,6.619,15.316,6.334,15.316L6.334,15.316z"/>
	</g>
	<g>
		<path fill-rule="evenodd" clip-rule="evenodd" fill="#F1CD6D" d="M23.229,44.048L4.867,46.37l3.337,6.505l15.65-3.71
			L23.229,44.048z"/>
		<path fill="#FFFFFF" d="M23.229,44.048l0.625,5.117l-15.65,3.71L4.867,46.37L23.229,44.048 M23.229,42.62
			c-0.059,0-0.119,0.003-0.179,0.011L4.688,44.953c-0.462,0.059-0.867,0.339-1.084,0.75c-0.218,0.412-0.22,0.904-0.008,1.319
			l3.337,6.505c0.248,0.484,0.744,0.776,1.271,0.776c0.109,0,0.22-0.012,0.329-0.038l15.65-3.71
			c0.708-0.168,1.177-0.841,1.089-1.563l-0.625-5.117c-0.046-0.377-0.241-0.721-0.541-0.954
			C23.855,42.725,23.545,42.62,23.229,42.62L23.229,42.62z"/>
	</g>
</g>
</svg>
