<?xml version="1.0" encoding="utf-8"?>
<!-- Generator: Adobe Illustrator 16.0.0, SVG Export Plug-In . SVG Version: 6.00 Build 0)  -->
<!DOCTYPE svg PUBLIC "-//W3C//DTD SVG 1.1//EN" "http://www.w3.org/Graphics/SVG/1.1/DTD/svg11.dtd">
<svg version="1.1" id="圖層_1" xmlns="http://www.w3.org/2000/svg" xmlns:xlink="http://www.w3.org/1999/xlink" x="0px" y="0px"
	 width="183.624px" height="1.409px" viewBox="0 0 183.624 1.409" enable-background="new 0 0 183.624 1.409" xml:space="preserve">
<g>
	<path fill="#AE5634" d="M183.418,0.342c0.271,0.005,0.166-0.056,0.206-0.066C183.176,0.289,183.432,0.358,183.418,0.342z"/>
	<polygon fill="#AE5634" points="178.976,0.479 179.055,0.455 178.396,0.516 	"/>
	<path fill="#AE5634" d="M174.806,0.472c0.384,0.113,1.514-0.013,2.253,0.026l0.121,0.024l0.34-0.084
		C176.617,0.449,175.44,0.511,174.806,0.472z"/>
	<path fill="#AE5634" d="M172.61,0.224c0.132,0.042-0.485,0.03,0.517,0.018c-0.05-0.005-0.063-0.007-0.093-0.011
		C172.944,0.23,172.821,0.229,172.61,0.224z"/>
	<path fill="#AE5634" d="M173.034,0.23C173.474,0.232,172.752,0.194,173.034,0.23L173.034,0.23z"/>
	<path fill="#AE5634" d="M171.004,0.233l0.584-0.03c-0.117-0.025-0.63-0.036-0.437-0.051C170.556,0.165,170.674,0.19,171.004,0.233z
		"/>
	<path fill="#AE5634" d="M170.442,0.303l0.303-0.012C170.694,0.281,170.616,0.276,170.442,0.303z"/>
	<path fill="#AE5634" d="M171.387,0.265l-0.642,0.026c0.081,0.018,0.084,0.052,0.294-0.008
		C170.982,0.313,171.112,0.284,171.387,0.265z"/>
	<path fill="#AE5634" d="M171.744,0.285c0.32,0.026,0.738,0.045,0.151,0.075C173.006,0.357,172.853,0.282,171.744,0.285z"/>
	<path fill="#AE5634" d="M174.579,0.578l0.432,0.035l0.381-0.032C175.201,0.599,174.556,0.544,174.579,0.578z"/>
	<path fill="#AE5634" d="M167.414,0.142c-0.041,0.022,0.182,0.062,0.219,0.09l0.433-0.021
		C167.849,0.193,167.436,0.175,167.414,0.142z"/>
	<path fill="#AE5634" d="M167.633,0.231l-0.649,0.031C167.558,0.274,167.663,0.256,167.633,0.231z"/>
	<polygon fill="#AE5634" points="170.319,0.418 171.385,0.349 170.116,0.417 	"/>
	<polygon fill="#AE5634" points="164.956,0.109 165.331,0.063 164.666,0.132 	"/>
	<path fill="#AE5634" d="M163.323,0.099c0.278-0.039-0.356-0.077-0.066-0.099c-0.444,0.002-0.83,0.034-1.177,0.063
		C162.445,0.049,162.831,0.058,163.323,0.099z"/>
	<path fill="#AE5634" d="M161.5,0.104c0.183-0.008,0.373-0.024,0.58-0.042C161.886,0.07,161.694,0.082,161.5,0.104z"/>
	<path fill="#AE5634" d="M165.89,0.238c-0.047-0.014-0.136-0.05-0.493-0.069l0.24,0.065C165.714,0.236,165.801,0.237,165.89,0.238z"
		/>
	<path fill="#AE5634" d="M165.646,0.236l-0.009-0.002c-0.274-0.005-0.465-0.009-0.546-0.01
		C165.16,0.226,165.327,0.229,165.646,0.236z"/>
	<path fill="#AE5634" d="M165.954,0.239c-0.023,0-0.041,0-0.064-0.001C165.913,0.245,165.928,0.247,165.954,0.239z"/>
	<path fill="#AE5634" d="M168.651,0.344c-0.383,0.031-1.176,0.06-0.427,0.121C168.503,0.425,168.075,0.391,168.651,0.344z"/>
	<path fill="#AE5634" d="M166.252,0.321l0.68,0.022c-0.01-0.017-0.128-0.042,0.063-0.057L166.252,0.321z"/>
	<polygon fill="#AE5634" points="165.913,0.337 166.252,0.321 166,0.313 	"/>
	<path fill="#AE5634" d="M162.66,0.176c-0.301,0.023-0.624,0.022-0.989,0.022c0.389,0.017,0.792,0.028,1.176,0.033
		C162.904,0.212,163.079,0.179,162.66,0.176z"/>
	<path fill="#AE5634" d="M164.109,0.211c-0.021,0.001-0.046,0.002-0.066,0.003C164.083,0.22,164.115,0.222,164.109,0.211z"/>
	<polygon fill="#AE5634" points="158.071,0.163 158.128,0.175 158.143,0.164 	"/>
	<path fill="#AE5634" d="M162.91,0.244c0.291,0.016,0.47,0.002,0.641-0.015c-0.221,0.004-0.455,0.005-0.704,0.002
		C162.82,0.24,162.814,0.246,162.91,0.244z"/>
	<path fill="#AE5634" d="M160.492,0.121c0.15,0.015,0.322,0.028,0.503,0.041C160.849,0.14,160.549,0.105,160.492,0.121z"/>
	<path fill="#AE5634" d="M163.947,0.195l0.045-0.002C163.898,0.178,163.909,0.185,163.947,0.195z"/>
	<path fill="#AE5634" d="M163.947,0.195c-0.152,0.007-0.274,0.021-0.396,0.033c0.18-0.002,0.347-0.007,0.492-0.015
		C164.008,0.209,163.973,0.202,163.947,0.195z"/>
	<path fill="#AE5634" d="M156.93,0.558c0.058-0.057,0.838-0.107,1.495-0.042c0.662-0.04,0.266-0.232-0.297-0.341
		c-0.024,0.025-0.028,0.048-0.711,0.079c0.234,0.033,1.494,0.082,0.915,0.131c-0.9,0.025-0.732-0.024-1.164-0.057
		c0.36,0.074-1.152,0.099-0.968,0.206l0.788-0.033C157.001,0.517,156.714,0.542,156.93,0.558z"/>
	<path fill="#AE5634" d="M159.421,0.188l0.279-0.004c-0.314-0.015-0.538-0.039-0.953-0.086c-0.471,0.026-0.569,0.047-0.604,0.066
		c0,0,0.344,0.003,0.688,0.007c0.345,0.003,0.687,0.009,0.687,0.009L159.421,0.188z"/>
	<path fill="#AE5634" d="M160.948,0.199c-0.229,0.06-0.9,0.079-0.503,0.152c0.815,0.005,0.58-0.046,1.071-0.067
		c-1.318,0,0.385-0.03-0.56-0.077c0.261-0.008,0.493-0.008,0.714-0.008c-0.235-0.011-0.463-0.022-0.676-0.037l0.029,0.004h0.007
		l-0.002,0c0.056,0.009,0.073,0.014,0.01,0.008c-0.004,0.001-0.021,0.001-0.027,0.001C161.001,0.184,160.976,0.191,160.948,0.199
		c-0.379-0.018-0.058-0.018,0.063-0.023c0.005-0.003,0.016-0.006,0.018-0.01l-0.005,0L159.7,0.184
		C159.978,0.196,160.327,0.199,160.948,0.199z"/>
	<path fill="#AE5634" d="M167.496,0.593c-0.04-0.006-0.037-0.01-0.039-0.015C167.37,0.585,167.337,0.59,167.496,0.593z"/>
	<path fill="#AE5634" d="M166.963,0.549c0.097-0.008,0.183-0.032,0.491-0.022c0.266,0.021-0.007,0.03,0.003,0.051
		c0.19-0.015,0.664-0.039,0.084-0.075l-0.095,0.007c-0.524-0.027-1.19-0.114-1.096-0.122C166.493,0.448,166.622,0.489,166.963,0.549
		z"/>
	<path fill="#AE5634" d="M163.917,0.39l-1.103,0.018l0.548,0.062l-0.022-0.033C163.961,0.456,163.834,0.414,163.917,0.39z"/>
	<polygon fill="#AE5634" points="157.949,0.131 158.104,0.065 157.453,0.156 	"/>
	<polygon fill="#AE5634" points="156.511,0.132 156.569,0.075 156.187,0.107 	"/>
	<path fill="#AE5634" d="M76.133,1.047l-0.32,0.013C75.964,1.057,76.061,1.053,76.133,1.047z"/>
	<path fill="#AE5634" d="M78.438,1.108l0.067-0.027C78.393,1.094,78.344,1.104,78.438,1.108z"/>
	<path fill="#AE5634" d="M121.646,0.453c-0.452-0.062-0.948-0.154-0.91-0.088l0.126,0.065
		C121.189,0.424,121.438,0.435,121.646,0.453z"/>
	<path fill="#AE5634" d="M97.641,0.839l0.146,0.015c0.101-0.025,0.195-0.048,0.281-0.07C97.938,0.8,97.793,0.819,97.641,0.839z"/>
	<path fill="#AE5634" d="M97.45,1.11L96.81,1.089C96.956,1.098,97.162,1.105,97.45,1.11z"/>
	<path fill="#AE5634" d="M63.559,1.099l-0.367,0.066C63.776,1.162,63.516,1.131,63.559,1.099z"/>
	<path fill="#AE5634" d="M141.736,0.299c-0.419-0.014-0.749-0.015-1.035-0.01C141.211,0.312,141.632,0.355,141.736,0.299z"/>
	<path fill="#AE5634" d="M77.289,0.399c-0.202,0.007-0.291,0.018-0.29,0.032C77.206,0.424,77.325,0.416,77.289,0.399z"/>
	<path fill="#AE5634" d="M139.545,0.323c0.073,0.004,0.145,0.005,0.219,0.009c0.288-0.019,0.57-0.036,0.938-0.042
		C140.323,0.272,139.916,0.268,139.545,0.323z"/>
	<path fill="#AE5634" d="M17.339,1.21c-0.034-0.002-0.075-0.004-0.105-0.007C17.224,1.212,17.271,1.212,17.339,1.21z"/>
	<path fill="#AE5634" d="M3.902,0.518C4.034,0.515,4.25,0.516,4.453,0.517C4.354,0.512,4.188,0.511,3.902,0.518z"/>
	<path fill="#AE5634" d="M150.72,0.082C151.029,0.075,150.769,0.075,150.72,0.082L150.72,0.082z"/>
	<path fill="#AE5634" d="M152.208,0.333c-0.064,0.007-0.113,0.016-0.121,0.031C152.112,0.349,152.154,0.339,152.208,0.333z"/>
	<path fill="#AE5634" d="M136.75,0.801l-0.026,0C136.818,0.811,136.803,0.809,136.75,0.801z"/>
	<path fill="#AE5634" d="M151.186,0.106c-0.114-0.008-0.25-0.012-0.396-0.015C150.854,0.096,150.976,0.099,151.186,0.106z"/>
	<path fill="#AE5634" d="M151.123,0.077c0.105,0.003,0.188,0.005,0.267,0.007C151.428,0.074,151.394,0.067,151.123,0.077z"/>
	<path fill="#AE5634" d="M150.289,0.091c0.177-0.003,0.342-0.002,0.501,0c-0.061-0.003-0.087-0.007-0.07-0.009
		C150.629,0.084,150.501,0.086,150.289,0.091z"/>
	<path fill="#AE5634" d="M42.058,0.853c-0.02-0.002-0.04-0.004-0.064-0.006C41.688,0.869,41.822,0.866,42.058,0.853z"/>
	<path fill="#AE5634" d="M113.634,0.982l0.035-0.003c-0.015,0-0.031-0.002-0.044-0.002L113.634,0.982z"/>
	<path fill="#AE5634" d="M112.546,1.012c0.475-0.072,0.735-0.058,1.079-0.035l-0.316-0.188L112.546,1.012z"/>
	<path fill="#AE5634" d="M70.666,1.009c0,0,0.758,0.051,0.754,0.054c-0.912,0.096-1.573,0.069-0.865,0.145
		c0.135-0.214,2.879,0.003,3.015-0.194l0.482,0.048c-0.14-0.004-0.165,0.007-0.303,0.004c0.929,0.107,0.739-0.134,1.97-0.09
		c0.426,0.02,0.714,0.053,0.414,0.072c0,0,0.244-0.008,0.491-0.013c0.247-0.006,0.493-0.013,0.493-0.013
		c0.28,0.011,0.198,0.043-0.081,0.033l1.482,0.021l-0.014,0.006c0.223-0.026,0.72-0.062,0.962-0.077
		c0.364,0.038-0.197,0.016-0.111,0.043l0.838-0.027c0.312,0.06-0.388,0.092-0.949,0.071c0.685,0.216,0.692-0.032,2.305,0.123
		l-0.79,0.007c0.442,0.125,1.087,0.097,1.95,0.187c-0.201-0.041-1.713-0.216-0.788-0.245c0.248,0.021,0.581,0.036,1.083,0.007
		c-0.022,0.07,0.46,0.063,1.057,0.073L83.99,1.335c0.655-0.013,0.619-0.062,1.011-0.095c0.713,0.025,0.842,0.101,0.995,0.166
		c1.166,0.027-0.777-0.122,0.611-0.128c0.965,0.041,1.66,0.006,2.82-0.043c0.678,0.035-0.12,0.056,0.123,0.084l0.603-0.072
		c0.147,0.003,0.101,0.025,0.077,0.037c0.506-0.026,0.039-0.093,0.829-0.114c0.194-0.096,1.655,0.128,2.617-0.001
		c0.251,0.022-0.1,0.059-0.015,0.094c1.328-0.101,1.153-0.065,2.191-0.205l0.956,0.032c-0.715-0.048,0.114-0.158,0.831-0.25
		C97.383,0.813,97.163,0.79,97.02,0.78l1.173-0.088c0.153,0.011,0.051,0.046-0.124,0.091c0.075-0.011,0.147-0.021,0.208-0.029
		c0.451,0.021,0.257,0.082-0.021,0.143l-0.468-0.043c-0.267,0.066-0.514,0.137-0.423,0.189c0.073-0.013,0.221-0.027,0.385-0.038
		c-0.07,0.018-0.112,0.033-0.071,0.041C97.725,1.055,97.84,1.03,98.025,1l0.335,0.094l0.043-0.043l1.59,0.019
		c1.058-0.138,1.97-0.325,3.765-0.383c-0.426,0.083-0.063,0.126-0.064,0.217c-0.512-0.085-1.365,0.049-2.285,0.059
		c0.482-0.004,0.394,0.042,0.278,0.061c-0.004-0.009,1.606-0.112,1.605-0.112c-0.016,0.074,0.364,0.051,0.798,0.076
		c-0.358-0.142,1.2-0.113,1.864-0.167c0.047,0.048-0.108,0.101-0.922,0.1c0.909,0.103,1.139-0.197,2.039-0.095
		c-0.2,0-0.309-0.008-0.387,0.017c0.467-0.042,1.613-0.001,1.343,0.041l-0.199,0c1.328,0.024,4.038,0.021,4.264-0.102
		c0.011,0.016-0.202,0.149-0.286,0.173c0,0,0.608-0.106,1.23-0.198c0.621-0.095,1.242-0.189,1.242-0.189
		c-0.234,0.104,0.511,0.37-0.609,0.412c0.313,0.021,0.702,0.045,1.38,0.018c-0.212-0.019-0.502-0.163-0.203-0.168
		c0.784,0.132,0.55,0.073,1.525,0.19c-0.319-0.028,0.087-0.189,0.601-0.176c-0.088,0.024-0.004,0.166-0.196,0.18l1.326-0.143
		c-0.328,0.024-0.098,0.138,0.174,0.189c-0.126-0.034,1.111,0.021,1.46,0.011L119.2,1.033c1.448,0.048,1.501-0.207,2.936-0.175
		c-0.183,0.031-0.483,0.202,0.245,0.234c0.357-0.082,1.584-0.372,2.856-0.432l0.234,0.049l0.978-0.05
		c-0.611,0.125-2.379,0.383-3.339,0.465c0.535,0.047,0.139,0.059,0.956,0.068c0.278,0.05-0.46,0.061-0.701,0.06
		c0,0,0.474,0.015,0.948,0.03c0.479,0.01,0.96,0.021,0.96,0.021c-0.067-0.099,1.488-0.091,1.423-0.173l-2.101,0.091
		c-0.061-0.098,1.254-0.272,2.595-0.248c0.341,0.041-0.272,0.173-0.249,0.206c0.181-0.033,1.294-0.058,1.418-0.033l-0.579,0.049
		c0.758,0.041,1.236-0.124,2.146-0.025c0.313,0.008,0.945,0.131,0.997,0.068c-0.525-0.105-0.636-0.459-0.309-0.539
		c0.105,0.007,1.617,0.083,1.984,0.134c0.53,0.08-0.73,0.221-0.281,0.29c0.015-0.027,0.294-0.064,0.41-0.077
		c0.334,0.018-0.12,0.085,0.595,0.062c0.096-0.101,1.458-0.013,0.317-0.089c0.69-0.039,0.748,0.009,1.567-0.007
		c-0.281-0.062,0.653-0.224,1.323-0.277c-0.03,0.026,0.139,0.055,0.22,0.067c1.412-0.032,2.19-0.009,3.506-0.046
		c0.134,0.02,0.783,0.031,0.535,0.081c0.179-0.022,0.335-0.061,0.737-0.074c0.823,0.064-0.893,0.038-0.245,0.125
		c0.021-0.059,1.002-0.108,1.561-0.16c-0.217-0.083-1.339,0.02-1.896,0.072c-0.066-0.123,0.875-0.278,2.232-0.373
		c1.084-0.061,0.509,0.066,0.692,0.043c2.061-0.038,1.677-0.262,3.445-0.194c0.707,0.07,0.068,0.155,0.235,0.21
		c-0.886,0.041-1.391-0.034-1.999-0.022l0.762,0.027c-0.277,0.028-0.866,0.056-1.197,0.045c0.589,0.048,3.488-0.032,5.081,0.01
		c0.279-0.03,0.766-0.063,0.534-0.092l-0.504,0.018c-0.47-0.058,0.946-0.099,0.304-0.121c0.68-0.059,1.439-0.114,2.396-0.077
		l0.177,0.09c-0.02-0.026-0.622-0.057-0.891-0.03c0.399-0.038,1.458,0.128,1.898,0.013l-0.667-0.065
		c0.683-0.042,1.533-0.132,2.381-0.1c-0.38-0.091-0.196,0.009-0.793-0.098c0.516,0.131-2.174-0.016-1.339,0.123
		c-0.615-0.123-1.069-0.056-1.88-0.163c0.025,0.03,0.287,0.058-0.427,0.04c-0.032,0.009-0.108,0.019-0.156,0.025
		c-0.021-0.001-0.029-0.001-0.048-0.003l0.039,0.004c-0.031,0.004-0.033,0.005,0.015,0.001c0.17,0.014,0.308,0.03,0.364,0.046
		c-0.35,0.06-1.495,0.077-1.876,0.115c-0.427-0.009,0.175-0.036-0.062-0.065l-0.57,0.059c-0.064-0.064-1.155-0.095-0.15-0.146
		l-0.911,0.008c-0.544-0.031-1.289-0.036-1.736-0.003c-0.436-0.009-1.06,0.085-0.704,0.03c0,0-0.349,0.018-0.695,0.038
		c-0.347,0.02-0.693,0.04-0.693,0.04l-0.02-0.016c-1.385,0.03-2.81,0.186-4.422,0.113c-0.448,0.029-0.911,0.063-1.685,0.067
		l-0.175-0.052c-0.577,0.037-1.783-0.005-2.01,0.061c-0.688-0.137-2.811,0.009-3.838-0.001l-0.026,0.075
		c-0.702,0.004-1.367,0.044-2.25,0.063l0.056,0.065c-0.763,0.05-1.958-0.056-3.158-0.056c0.085-0.024,0.389-0.017,0.604,0
		c-1.412-0.154-3.047,0.096-4.346-0.04c-0.332,0.018-0.567,0.006-0.793-0.014c0.031,0,0.059,0,0.082-0.002
		c-0.033-0.001-0.083-0.002-0.134-0.003c-0.142-0.014-0.287-0.029-0.445-0.042c0.133,0.018,0.261,0.033,0.373,0.041
		c-0.253-0.003-0.637-0.001-1.017,0.009l-0.141-0.073c-0.031,0-0.055,0-0.087,0c-0.36-0.032-0.305,0.029-0.123,0.084
		c-0.192,0.009-0.369,0.02-0.509,0.035c-0.266-0.119-0.996,0.022-1.368-0.105c-0.271,0.055-1.917,0.014-2.151,0.134
		c-0.009-0.017-0.118-0.026,0.087-0.023c-0.418-0.021-0.836-0.042-1.223-0.014l-0.156-0.092l-0.95,0.105
		c-0.546-0.063-0.771-0.099-0.199-0.159c-1.367,0.086-1.096,0.017-2.266,0.117l0.066-0.058c-0.412,0-1.078,0.075-1.319,0.025
		c-0.913-0.111-4.535-0.055-6.936-0.103c0.505,0.164-1.127-0.062-1.183,0.071c-0.151-0.039-0.492-0.057-0.117-0.097
		c-1.203,0.052-1.846-0.017-2.63,0.113c-0.158-0.036,0.229-0.066,0.096-0.086c-0.093,0.011-0.367,0.046-0.505,0.026
		c-0.135-0.02,0.16-0.039,0.344-0.062c-1.235,0.043-1.291,0.17-1.314,0.288c-0.647-0.036-0.938-0.019-1.34,0.071
		c-0.232-0.031-0.604-0.06,0.133-0.097c-0.423,0.005-2.582,0.032-2.583,0.114c-0.141-0.021-0.586,0.002-0.692,0.015
		c-0.94,0.009-1.024,0.001-1.943,0.025l0.259,0.011c-0.346,0.114-0.764,0.047-1.51,0.051l0.021-0.011
		c-1.713-0.091-0.744,0.035-2.426-0.067l0.084,0.071c-0.182,0.146-1.486-0.091-2.476-0.051l0.344,0.048
		c-0.556,0.04-1.441-0.238-1.967-0.269c-0.113-0.016,0.191-0.017,0.358-0.022c-1.372-0.12-0.213,0.087-1.27,0.085
		c-0.174-0.054,0.295-0.12-0.404-0.145c-0.328-0.047-2.108,0.114-3.054-0.007c0.2,0.043,0.397,0.087-0.108,0.103
		c-0.76-0.005-1.989-0.195-2.718-0.092C77.032,0.451,77,0.44,76.999,0.431c-0.583,0.011-1.923,0.023-2.287,0.081
		c-0.497-0.247-3.652,0.067-3.615-0.146l-1.787,0.022l0.046-0.023c-1.143-0.008-1.546,0.047-1.945,0.104
		c-0.264-0.014-0.072-0.036-0.051-0.047c-1.67-0.035-1.838-0.025-3.227,0.094l-0.152-0.071c-0.371,0.043-2.433-0.098-4.047-0.007
		c0.015-0.008,0.046-0.023,0.173-0.033c-1.817,0.09-4.361-0.189-5.022,0.076l-1.205,0.068c1.56,0.016-0.235,0.115,0.406,0.157
		c-0.617,0.018-1.587-0.075-0.831-0.09l0.117,0.013c0.282-0.138-1.936-0.043-1.886-0.137c-0.766,0.004-1.526,0.002-2.28-0.002
		c-0.759-0.011-1.515-0.029-2.264-0.046c-1.499-0.034-2.974-0.069-4.421-0.086l0.326,0.11l-1.009-0.016
		c-0.263-0.027-0.351-0.087,0.37-0.076c-0.375-0.064-1.211,0.039-1.232,0.062c-1.408-0.057,0.557-0.119,0.125-0.125l-0.588,0.002
		l0.132,0.014c-0.478,0.039-0.521,0.081-1.39,0.086c-0.549-0.016-0.282-0.063-0.498-0.065c0.001-0.007-0.072-0.01-0.333,0
		l-1.279,0.002l0.514,0.08c-0.564,0.046-1.2,0.006-0.607,0.097c-0.872-0.14-4.761-0.009-5.298-0.05
		c-0.779,0.069-1.563,0.075-2.521,0.076c0.243,0.015,0.408,0.109-0.423,0.104c0.258-0.198-1.536-0.071-2.232-0.207
		c0.615,0.088-2.346,0.044-1.385,0.168c-0.693-0.01-0.055-0.073-0.586-0.114c-1.631,0.09-3.625-0.018-5.648,0.026
		c-0.03,0.026,0.313,0.063-0.119,0.104l-1.081-0.119c-0.399,0.016-0.36,0.152-1.097,0.069c0.104,0.021,0.26,0.052-0.008,0.063
		c-1.992-0.03-4.021-0.044-6.063-0.038c-2.04-0.001-4.092-0.016-6.093-0.146c0.54,0.053,0.175,0.056-0.243,0.055
		C4.723,0.53,4.438,0.58,4.486,0.615L2.81,0.508C2.484,0.603,0.996,0.503,0.801,0.594l0.54-0.013
		C0.605,0.686,2.293,0.829,2.165,0.968c0.822-0.119,2.09,0.197,3.433,0.028c0.288,0.03-0.254,0.043-0.102,0.077
		c0.342-0.058,0.746-0.068,1.491-0.036L6.901,1.051C9.002,1.05,9.898,1.115,12.26,1.169l-0.173-0.07
		c0.507,0.013,0.614,0.035,0.851,0.054c0.583-0.101-1.425-0.015-0.892-0.127c0.67,0.142,3.574,0.032,4.032,0.174
		c0.781-0.006-0.231-0.078,0.548-0.084l0.209,0.042l0.194-0.058c0.512,0.004,0.773,0.057,0.795,0.093
		c-0.125-0.003-0.353,0.014-0.486,0.018c0.667,0.045,1.872-0.034,2.101-0.02l-0.753-0.02c2.127-0.059,4.737-0.025,6.781-0.131
		l-0.162-0.032c1.559-0.074,1.264,0.025,2.983-0.018l-0.061,0.008c0.338-0.036,0.795-0.056,1.267-0.056
		c-0.426,0.042,0.837,0.067,0.276,0.114c1.685-0.08,0.823-0.059,1.915-0.19l0.268,0.052c0.37-0.053,0.397-0.079,1.25-0.101
		c-0.692,0.053,0.559,0.078-0.215,0.146c1.801,0.102,2.642-0.145,3.477,0.021c0.811-0.158-1.554-0.069-1.097-0.105
		c-0.392-0.045,0.668-0.118,1.233-0.108c0.575-0.002,0.985,0.183,2.417,0.167c-0.143,0.001-0.152,0.012-0.295,0.013
		c0.537,0.035,1.052-0.066,1.711-0.002c0.375-0.086,0.858,0.014,0.971-0.101c0,0-0.331,0.003-0.662,0.007
		c-0.332,0.002-0.662,0.009-0.662,0.009c0.75-0.028,1.462-0.152,2.695-0.076c-0.098,0.022-0.468,0.049-0.722,0.064
		c0.359,0.038,0.698-0.016,1.07,0.023c-0.115,0.115-1.61,0.009-2.417,0.09c0.385,0.052,1.523-0.069,1.112,0.052
		c0.59-0.153,1.417,0.035,2.403-0.078l-0.07,0.069C44.311,1,44.634,0.97,44.918,0.975l-0.523,0.084
		c0.797-0.069,1.515,0.082,2.275,0.048c-1.585-0.013-0.346-0.087-1.011-0.144c1.969-0.073,1.104,0.192,3.295,0.181
		c-0.297,0.006-1.106-0.053-0.638-0.081c0.416,0.018,0.958,0.053,1.216,0.085c1.476-0.018-0.216-0.071,0.417-0.115
		c0.49,0.083,0.727-0.036,1.373-0.065l-0.002,0.07c1.672,0.041,0.456-0.148,1.957-0.097l-0.642,0.099l0.788-0.027l-0.166,0.081
		c0.859-0.062,1.124-0.047,1.963-0.027c-0.195-0.049,0.109-0.128,0.849-0.133c0.507,0.041-0.281,0.068,0.77,0.055
		c-0.234,0.045-0.494,0.101-0.954,0.037c-0.046,0.023-0.233,0.045-0.281,0.067c0.547,0.047,1.373,0.007,1.754,0.006
		c-0.147-0.002-0.323-0.005-0.414-0.016l1.519-0.102c0.243,0.026,0.054,0.047-0.133,0.069c0.309-0.008,0.519-0.042,0.973-0.049
		c-0.111,0.058-0.076,0.117-0.718,0.146l1.449-0.067c0.101,0.024,0.757,0.066,0.571,0.088c0.796,0.029,1.931-0.123,2.988-0.084
		c0.054-0.012,0.162-0.023,0.385-0.032c0.991,0.007,1.87,0.072,3.038-0.013l0.668,0.099c0.917-0.029-0.904-0.124,0.624-0.172
		c1.083-0.039,0.405,0.085,0.785,0.112c0.535-0.053,1.48-0.17,2.464-0.083C71.236,1.009,70.972,1.001,70.666,1.009z M81.901,1.161
		c-0.227,0.009-0.693,0.045-0.834,0C81.353,1.087,81.533,1.129,81.901,1.161z M99.375,0.923c-0.149,0.028-0.405,0.023-0.702,0.005
		C98.874,0.917,99.108,0.913,99.375,0.923z M147.342,0.18l-0.023,0.003C146.809,0.162,146.989,0.17,147.342,0.18z M148.391,0.198
		c0.104-0.011,0.094-0.021,0.048-0.03c-0.069,0.019-0.303,0.023-0.571,0.021C147.946,0.206,148.083,0.217,148.391,0.198z
		 M38.842,0.373l0.201,0.016C38.59,0.414,38.716,0.395,38.842,0.373z"/>
	<path fill="#AE5634" d="M97.479,1.078c-0.069-0.01-0.093-0.022-0.115-0.035C97.284,1.058,97.289,1.071,97.479,1.078z"/>
	<path fill="#AE5634" d="M63.627,1.086l-0.035,0c-0.019,0.004-0.028,0.009-0.033,0.013L63.627,1.086z"/>
	<path fill="#AE5634" d="M132.737,1.152c-0.217-0.007-0.338-0.018-0.42-0.03C132.309,1.139,132.408,1.152,132.737,1.152z"/>
	<path fill="#AE5634" d="M153.885,0.06l-0.662,0.015c0.32-0.002,0.434,0.014,0.595,0.026C153.803,0.084,153.678,0.06,153.885,0.06z"
		/>
	<path fill="#AE5634" d="M159.551,0.526c0.097-0.008,0.203,0.001,0.299-0.006l-0.021-0.033
		C159.421,0.484,159.132,0.507,159.551,0.526z"/>
	<path fill="#AE5634" d="M154.483,0.297c0.049,0.06,0.463,0.042,0.924,0.033c-0.027,0-0.054,0-0.081-0.001
		C155.469,0.247,154.975,0.272,154.483,0.297z"/>
	<path fill="#AE5634" d="M155.515,0.328c0.142-0.002,0.287-0.003,0.426,0C155.997,0.295,155.769,0.321,155.515,0.328z"/>
	<path fill="#AE5634" d="M149.708,0.143c0.224,0.013,0.132-0.077,0.261-0.055C150.208,0.01,148.495,0.197,149.708,0.143z"/>
	<polygon fill="#AE5634" points="154.844,0.494 154.685,0.42 154.424,0.478 	"/>
	<path fill="#AE5634" d="M151.22,0.422l0.734,0.024c-0.011-0.012,0.082-0.019,0.196-0.024C151.698,0.417,151.202,0.4,151.22,0.422z"
		/>
	<path fill="#AE5634" d="M152.15,0.422c0.236,0.002,0.46,0.002,0.592-0.009C152.614,0.413,152.34,0.414,152.15,0.422z"/>
	<polygon fill="#AE5634" points="153.841,0.511 153.625,0.495 153.107,0.486 	"/>
	<path fill="#AE5634" d="M143.329,0.536l-0.788,0.042c-0.069,0.027,0.154,0.037,0.446,0.019
		C143.17,0.574,143.462,0.557,143.329,0.536z"/>
	<path fill="#AE5634" d="M145.812,0.671c-0.22-0.013-0.24-0.026-0.37-0.048l0.01,0.091C145.451,0.714,145.812,0.671,145.812,0.671z"
		/>
	<path fill="#AE5634" d="M143.511,0.754c-0.068,0.027-1.115,0.104-0.116,0.07C143.463,0.797,144.247,0.754,143.511,0.754z"/>
	<polygon fill="#AE5634" points="131.449,0.922 131.652,0.917 131.604,0.769 	"/>
	<path fill="#AE5634" d="M120.719,1.197c0.943,0.051,0.251-0.087,1.099-0.029c0.232-0.032-0.693-0.047-0.456-0.074
		C120.777,1.122,120.481,1.096,120.719,1.197z"/>
	<path fill="#AE5634" d="M121.361,1.094c0.094-0.004,0.192-0.01,0.299-0.018C121.491,1.083,121.411,1.088,121.361,1.094z"/>
	<polygon fill="#AE5634" points="1.693,0.424 1.092,0.39 1.474,0.442 	"/>
	<path fill="#AE5634" d="M0.506,0.527L0.382,0.432L0,0.515C0.138,0.512,0.406,0.505,0.506,0.527z"/>
	<path fill="#AE5634" d="M83.538,1.39l0.055-0.021c-0.086-0.027-0.23-0.032-0.518-0.042L83.538,1.39z"/>
	<polygon fill="#AE5634" points="75.355,1.131 75.493,1.134 75.26,1.045 	"/>
	<path fill="#AE5634" d="M68.56,1.205c0.28,0.002,0.61-0.019,0.892-0.017C68.84,1.207,68.482,1.098,68.56,1.205z"/>
</g>
</svg>
