<?xml version="1.0" encoding="utf-8"?>
<!-- Generator: Adobe Illustrator 16.0.0, SVG Export Plug-In . SVG Version: 6.00 Build 0)  -->
<!DOCTYPE svg PUBLIC "-//W3C//DTD SVG 1.1//EN" "http://www.w3.org/Graphics/SVG/1.1/DTD/svg11.dtd">
<svg version="1.1" id="圖層_1" xmlns="http://www.w3.org/2000/svg" xmlns:xlink="http://www.w3.org/1999/xlink" x="0px" y="0px"
	 width="500px" height="3.401px" viewBox="0 -91.401 500 3.401" enable-background="new 0 -91.401 500 3.401" xml:space="preserve">
<g>
	<path fill="#B45834" d="M499.438-90.634c0.736,0.012,0.455-0.126,0.563-0.15C498.779-90.754,499.475-90.597,499.438-90.634z"/>
	<path fill="#B45834" d="M471.163-90.884c-0.243,0-0.579-0.003-1.153-0.016c0.358,0.095-1.32,0.068,1.406,0.041
		C471.281-90.871,471.243-90.877,471.163-90.884z"/>
	<path fill="#B45834" d="M471.163-90.884C472.361-90.881,470.396-90.968,471.163-90.884L471.163-90.884z"/>
	<path fill="#B45834" d="M465.637-90.879l1.59-0.068c-0.314-0.057-1.715-0.08-1.188-0.114
		C464.415-91.03,464.736-90.977,465.637-90.879z"/>
	<path fill="#B45834" d="M464.107-90.721l0.822-0.028C464.793-90.774,464.579-90.783,464.107-90.721z"/>
	<path fill="#B45834" d="M465.732-90.769c-0.154,0.068,0.197,0.005,0.943-0.038l-1.746,0.057
		C465.152-90.71,465.159-90.632,465.732-90.769z"/>
	<path fill="#B45834" d="M468.064-90.595c3.021-0.007,2.604-0.175-0.414-0.168C468.523-90.704,469.661-90.663,468.064-90.595z"/>
	<path fill="#B45834" d="M455.861-91.083c-0.11,0.049,0.494,0.136,0.596,0.203l1.179-0.048
		C457.045-90.97,455.92-91.01,455.861-91.083z"/>
	<path fill="#B45834" d="M456.456-90.882l-1.77,0.069C456.252-90.788,456.538-90.829,456.456-90.882z"/>
	<polygon fill="#B45834" points="450.189,-91.262 448.379,-91.106 449.168,-91.157 	"/>
	<path fill="#B45834" d="M444.723-91.179c0.76-0.088-0.971-0.172-0.183-0.222c-1.209,0.005-2.26,0.076-3.202,0.141
		C442.331-91.293,443.381-91.271,444.723-91.179z"/>
	<path fill="#B45834" d="M439.758-91.168c0.496-0.017,1.018-0.055,1.58-0.092C440.809-91.243,440.286-91.218,439.758-91.168z"/>
	<path fill="#B45834" d="M451.711-90.868c-0.13-0.032-0.371-0.112-1.345-0.156l0.654,0.146
		C451.232-90.874,451.469-90.871,451.711-90.868z"/>
	<path fill="#B45834" d="M451.045-90.871l-0.021-0.005c-0.748-0.012-1.268-0.019-1.486-0.022
		C449.725-90.895,450.178-90.886,451.045-90.871z"/>
	<path fill="#B45834" d="M451.885-90.866c-0.063,0-0.109-0.002-0.174-0.002C451.773-90.854,451.813-90.847,451.885-90.866z"/>
	<path fill="#B45834" d="M454.721-90.76l-2.021,0.078l1.851,0.05C454.521-90.668,454.198-90.727,454.721-90.76z"/>
	<path fill="#B45834" d="M442.915-91.007c-0.817,0.053-1.698,0.05-2.692,0.05c1.061,0.038,2.156,0.064,3.201,0.073
		C443.581-90.926,444.057-91,442.915-91.007z"/>
	<path fill="#B45834" d="M446.863-90.929c-0.061,0.002-0.125,0.003-0.184,0.005C446.79-90.91,446.879-90.905,446.863-90.929z"/>
	<polygon fill="#B45834" points="430.422,-91.036 430.575,-91.01 430.615,-91.035 	"/>
	<path fill="#B45834" d="M443.598-90.856c0.791,0.036,1.279,0.005,1.744-0.033c-0.603,0.008-1.234,0.01-1.918,0.005
		C443.354-90.864,443.336-90.853,443.598-90.856z"/>
	<path fill="#B45834" d="M437.014-91.129c0.408,0.034,0.877,0.063,1.369,0.09C437.984-91.088,437.168-91.165,437.014-91.129z"/>
	<path fill="#B45834" d="M446.424-90.965l0.119-0.005C446.288-91.002,446.318-90.986,446.424-90.965z"/>
	<path fill="#B45834" d="M446.424-90.965c-0.418,0.018-0.75,0.048-1.082,0.076c0.487-0.006,0.942-0.018,1.34-0.035
		C446.586-90.934,446.49-90.949,446.424-90.965z"/>
	<path fill="#B45834" d="M434.359-90.997l-0.266,0.018l0.764-0.008c-0.856-0.033-1.469-0.087-2.598-0.194
		c-1.281,0.058-1.551,0.105-1.646,0.147c0,0,0.937,0.009,1.875,0.018C433.43-91.012,434.359-90.997,434.359-90.997z"/>
	<path fill="#B45834" d="M436.885-90.616c2.223,0.012,1.58-0.103,2.918-0.15c-3.59,0,1.047-0.068-1.521-0.173
		c0.709-0.017,1.342-0.019,1.941-0.019c-0.641-0.024-1.26-0.024-1.84-0.056l0.08,0.036h0.02l-0.006-0.026
		c0.15,0.019,0.199,0.018,0.025,0.003c-0.011,0.001-0.056-0.003-0.074-0.003c-0.027,0.019-0.099,0.033-0.172,0.048
		c-1.033-0.04-0.158-0.04,0.172-0.053c0.016-0.007,0.043-0.013,0.049-0.02l-0.014-0.001l-3.604,0.041
		c0.754,0.028,1.707,0.034,3.396,0.034C437.633-90.82,435.803-90.777,436.885-90.616z"/>
	<path fill="#B45834" d="M453.066-90.497c-0.035-0.01-0.068-0.02-0.104-0.032C452.911-90.525,452.965-90.514,453.066-90.497z"/>
	<polygon fill="#B45834" points="430.512,-91.255 428.738,-91.051 430.09,-91.107 	"/>
	<polygon fill="#B45834" points="426.331,-91.235 425.288,-91.162 426.172,-91.106 	"/>
	<path fill="#B45834" d="M265.873-89.521l0.399,0.032c0.271-0.056,0.531-0.109,0.767-0.156
		C266.688-89.605,266.289-89.564,265.873-89.521z"/>
	<path fill="#B45834" d="M263.611-88.961c0.396,0.021,0.959,0.038,1.744,0.047L263.611-88.961z"/>
	<path fill="#B45834" d="M173.071-88.938l-0.996,0.15C173.666-88.797,172.956-88.865,173.071-88.938z"/>
	<path fill="#B45834" d="M385.943-90.731c-1.143-0.031-2.041-0.034-2.817-0.022C384.512-90.702,385.657-90.605,385.943-90.731z"/>
	<path fill="#B45834" d="M210.458-90.507c-0.551,0.016-0.792,0.038-0.79,0.072C210.232-90.449,210.558-90.47,210.458-90.507z"/>
	<path fill="#B45834" d="M379.977-90.679c0.199,0.009,0.395,0.013,0.598,0.021c0.783-0.042,1.554-0.082,2.554-0.096
		C382.096-90.791,380.986-90.801,379.977-90.679z"/>
	<path fill="#B45834" d="M47.223-88.688c-0.093-0.007-0.205-0.01-0.29-0.017C46.905-88.684,47.034-88.684,47.223-88.688z"/>
	<path fill="#B45834" d="M10.63-90.241c0.362-0.007,0.949-0.003,1.502-0.002C11.865-90.254,11.413-90.255,10.63-90.241z"/>
	<path fill="#B45834" d="M410.404-91.218C411.245-91.235,410.536-91.235,410.404-91.218L410.404-91.218z"/>
	<path fill="#B45834" d="M414.127-90.585c0.067-0.034,0.184-0.056,0.329-0.068C414.281-90.638,414.148-90.619,414.127-90.585z"/>
	<path fill="#B45834" d="M411.672-91.163c-0.312-0.021-0.681-0.027-1.076-0.036C410.768-91.186,411.1-91.179,411.672-91.163z"/>
	<path fill="#B45834" d="M411.502-91.229c0.286,0.005,0.51,0.01,0.727,0.015C412.331-91.236,412.238-91.252,411.502-91.229z"/>
	<path fill="#B45834" d="M410.404-91.218c-0.248,0.003-0.598,0.01-1.174,0.02c0.48-0.008,0.932-0.005,1.363,0
		C410.43-91.204,410.361-91.213,410.404-91.218z"/>
	<path fill="#B45834" d="M114.526-89.49c-0.056-0.005-0.108-0.008-0.176-0.016C113.52-89.453,113.883-89.459,114.526-89.49z"/>
	<path fill="#B45834" d="M265.438-88.985c-0.188-0.021-0.256-0.049-0.313-0.078C264.904-89.031,264.916-89,265.438-88.985z"/>
	<path fill="#B45834" d="M173.258-88.966l-0.093-0.001c-0.051,0.01-0.077,0.02-0.094,0.028L173.258-88.966z"/>
	<path fill="#B45834" d="M361.439-88.82c-0.592-0.015-0.922-0.04-1.146-0.069C360.271-88.849,360.543-88.817,361.439-88.82z"/>
	<path fill="#B45834" d="M419.021-91.269l-1.805,0.036c0.873-0.005,1.184,0.031,1.619,0.057
		C418.799-91.213,418.459-91.269,419.021-91.269z"/>
	<path fill="#B45834" d="M422.947-90.665c0.388-0.184-0.957-0.128-2.295-0.073c0.133,0.134,1.26,0.093,2.517,0.075
		C423.094-90.663,423.021-90.662,422.947-90.665z"/>
	<path fill="#B45834" d="M424.618-90.665c0.154-0.075-0.469-0.019-1.159-0.001C423.846-90.671,424.241-90.673,424.618-90.665z"/>
	<path fill="#B45834" d="M407.648-91.082c0.607,0.029,0.357-0.173,0.707-0.122C409.01-91.379,404.346-90.961,407.648-91.082z"/>
	<polygon fill="#B45834" points="420.49,-90.332 421.635,-90.294 421.198,-90.459 	"/>
	<path fill="#B45834" d="M411.766-90.454l2,0.054c-0.027-0.029,0.225-0.042,0.533-0.054
		C413.068-90.466,411.717-90.504,411.766-90.454z"/>
	<path fill="#B45834" d="M415.909-90.477c-0.348,0-1.096,0.002-1.61,0.021C414.943-90.449,415.551-90.451,415.909-90.477z"/>
	<polygon fill="#B45834" points="4.616,-90.451 2.98,-90.527 4.021,-90.41 	"/>
	<path fill="#B45834" d="M0.007-90.247c0.375-0.007,1.105-0.022,1.377,0.027l-0.335-0.214L0.007-90.247z"/>
	<path fill="#B45834" d="M227.475-88.286l0.152-0.046c-0.237-0.06-0.627-0.073-1.413-0.097L227.475-88.286z"/>
	<path fill="#B45834" d="M186.688-88.701c0.765,0.003,1.662-0.043,2.432-0.04C187.453-88.696,186.477-88.939,186.688-88.701z"/>
	<path fill="#B45834" d="M0.561-88.769C-0.176-88.781,0.105-88.643,0-88.618C1.221-88.648,0.523-88.804,0.561-88.769z"/>
	<path fill="#B45834" d="M28.834-88.518c0.245,0,0.58,0.003,1.153,0.017c-0.358-0.093,1.321-0.066-1.406-0.04
		C28.717-88.532,28.754-88.525,28.834-88.518z"/>
	<path fill="#B45834" d="M28.834-88.518C27.639-88.521,29.604-88.436,28.834-88.518L28.834-88.518z"/>
	<path fill="#B45834" d="M34.362-88.521l-1.59,0.066c0.316,0.057,1.715,0.08,1.188,0.114C35.583-88.372,35.262-88.427,34.362-88.521
		z"/>
	<path fill="#B45834" d="M35.893-88.681l-0.824,0.028C35.207-88.629,35.418-88.618,35.893-88.681z"/>
	<path fill="#B45834" d="M34.268-88.634c0.154-0.068-0.199-0.003-0.946,0.036l1.747-0.056
		C34.848-88.691,34.838-88.769,34.268-88.634z"/>
	<path fill="#B45834" d="M31.936-88.807c-3.022,0.006-2.604,0.176,0.412,0.169C31.476-88.698,30.337-88.741,31.936-88.807z"/>
	<path fill="#B45834" d="M44.138-88.319c0.112-0.048-0.495-0.136-0.595-0.202l-1.178,0.05
		C42.955-88.436,44.077-88.392,44.138-88.319z"/>
	<path fill="#B45834" d="M43.542-88.521l1.768-0.07C43.748-88.615,43.459-88.575,43.542-88.521z"/>
	<polygon fill="#B45834" points="49.81,-88.142 51.621,-88.296 50.831,-88.246 	"/>
	<path fill="#B45834" d="M55.276-88.223c-0.757,0.088,0.973,0.173,0.183,0.223c1.21-0.005,2.26-0.076,3.204-0.142
		C57.667-88.109,56.617-88.131,55.276-88.223z"/>
	<path fill="#B45834" d="M60.242-88.232c-0.497,0.017-1.017,0.053-1.58,0.091C59.188-88.159,59.712-88.183,60.242-88.232z"/>
	<path fill="#B45834" d="M48.289-88.535c0.128,0.033,0.366,0.111,1.343,0.153l-0.654-0.146
		C48.768-88.528,48.527-88.532,48.289-88.535z"/>
	<path fill="#B45834" d="M48.954-88.532l0.023,0.007c0.747,0.01,1.264,0.019,1.486,0.023C50.272-88.508,49.82-88.515,48.954-88.532z
		"/>
	<path fill="#B45834" d="M48.113-88.538c0.064,0,0.112,0.003,0.176,0.003C48.226-88.548,48.186-88.555,48.113-88.538z"/>
	<path fill="#B45834" d="M45.278-88.643l2.023-0.078l-1.851-0.05C45.479-88.734,45.799-88.678,45.278-88.643z"/>
	<path fill="#B45834" d="M57.083-88.396c0.815-0.053,1.699-0.05,2.692-0.05c-1.058-0.036-2.155-0.064-3.2-0.073
		C56.417-88.475,55.941-88.402,57.083-88.396z"/>
	<path fill="#B45834" d="M53.133-88.472c0.062-0.003,0.128-0.003,0.181-0.007C53.208-88.493,53.121-88.498,53.133-88.472z"/>
	<polygon fill="#B45834" points="69.578,-88.365 69.423,-88.392 69.383,-88.369 	"/>
	<path fill="#B45834" d="M56.401-88.545c-0.793-0.037-1.278-0.008-1.745,0.035c0.602-0.012,1.236-0.015,1.918-0.008
		C56.646-88.538,56.663-88.551,56.401-88.545z"/>
	<path fill="#B45834" d="M62.985-88.272c-0.411-0.033-0.877-0.063-1.368-0.09C62.013-88.315,62.832-88.236,62.985-88.272z"/>
	<path fill="#B45834" d="M53.575-88.438l-0.119,0.007C53.71-88.402,53.682-88.417,53.575-88.438z"/>
	<path fill="#B45834" d="M53.575-88.438c0.418-0.017,0.75-0.047,1.083-0.073c-0.489,0.003-0.944,0.017-1.344,0.033
		C53.413-88.469,53.508-88.455,53.575-88.438z"/>
	<path fill="#B45834" d="M65.64-88.405l0.263-0.017l-0.76,0.009c0.856,0.031,1.465,0.088,2.593,0.19
		c1.281-0.057,1.554-0.103,1.648-0.146c0,0-0.938-0.01-1.875-0.017C66.569-88.392,65.64-88.405,65.64-88.405z"/>
	<path fill="#B45834" d="M63.113-88.787c-2.22-0.014-1.579,0.103-2.92,0.149c3.591,0-1.045,0.068,1.526,0.173
		c-0.71,0.017-1.345,0.02-1.944,0.02c0.642,0.025,1.262,0.05,1.841,0.082l-0.08-0.012h-0.02h0.005
		c-0.15-0.021-0.199-0.03-0.028-0.021c0.014,0,0.059,0,0.076,0c0.029-0.02,0.1-0.035,0.174-0.053
		c1.031,0.04,0.153,0.038-0.174,0.053c-0.013,0.007-0.042,0.014-0.048,0.021h0.014l3.605-0.038
		c-0.755-0.027-1.707-0.035-3.397-0.035C62.366-88.582,64.192-88.625,63.113-88.787z"/>
	<path fill="#B45834" d="M46.933-88.904c0.035,0.01,0.069,0.02,0.102,0.031C47.086-88.878,47.034-88.89,46.933-88.904z"/>
	<polygon fill="#B45834" points="69.486,-88.147 71.261,-88.351 69.91,-88.296 	"/>
	<polygon fill="#B45834" points="73.667,-88.169 74.709,-88.242 73.827,-88.296 	"/>
	<path fill="#B45834" d="M234.125-89.883l-0.401-0.032c-0.273,0.056-0.529,0.109-0.763,0.156
		C233.313-89.796,233.709-89.837,234.125-89.883z"/>
	<path fill="#B45834" d="M236.388-90.442c-0.399-0.021-0.962-0.038-1.747-0.047L236.388-90.442z"/>
	<path fill="#B45834" d="M326.924-90.464l0.998-0.15C326.334-90.605,327.04-90.536,326.924-90.464z"/>
	<path fill="#B45834" d="M114.057-88.671c1.141,0.03,2.04,0.033,2.818,0.02C115.486-88.699,114.34-88.797,114.057-88.671z"/>
	<path fill="#B45834" d="M289.537-88.896c0.551-0.016,0.793-0.038,0.789-0.071C289.766-88.954,289.439-88.932,289.537-88.896z"/>
	<path fill="#B45834" d="M120.021-88.724c-0.2-0.01-0.391-0.013-0.593-0.02c-0.784,0.042-1.553,0.08-2.553,0.093
		C117.903-88.611,119.013-88.601,120.021-88.724z"/>
	<path fill="#B45834" d="M452.777-90.713c0.09,0.005,0.199,0.009,0.287,0.016C453.09-90.718,452.963-90.718,452.777-90.713z"/>
	<path fill="#B45834" d="M489.365-89.162c-0.36,0.006-0.949,0.003-1.502,0.003C488.131-89.147,488.584-89.146,489.365-89.162z"/>
	<path fill="#B45834" d="M89.596-88.186C88.751-88.169,89.461-88.169,89.596-88.186L89.596-88.186z"/>
	<path fill="#B45834" d="M85.873-88.817c-0.069,0.037-0.185,0.057-0.33,0.07C85.719-88.764,85.852-88.784,85.873-88.817z"/>
	<path fill="#B45834" d="M88.327-88.239c0.311,0.017,0.681,0.026,1.076,0.035C89.229-88.218,88.898-88.223,88.327-88.239z"/>
	<path fill="#B45834" d="M88.497-88.173c-0.287-0.007-0.514-0.01-0.727-0.017C87.667-88.166,87.761-88.152,88.497-88.173z"/>
	<path fill="#B45834" d="M89.596-88.186c0.247-0.004,0.596-0.011,1.172-0.019c-0.48,0.007-0.933,0.005-1.364-0.002
		C89.568-88.197,89.638-88.189,89.596-88.186z"/>
	<path fill="#B45834" d="M385.469-89.912c0.059,0.005,0.108,0.008,0.178,0.016C386.477-89.949,386.113-89.944,385.469-89.912z"/>
	<path fill="#B45834" d="M494.094-90.172c-1.683,0.2-4.047-0.147-6.67-0.177l0.133-0.036l-0.521,0.039
		c-0.746,0.001-1.516,0.027-2.289,0.107c-0.78-0.069,0.689-0.099,0.279-0.173c-0.606,0.084-1.316,0.119-2.279,0.115l0.634-0.129
		c-0.939,0.009-1.988,0.037-3.021,0.06c-5.113-0.011-7.652-0.146-13.748-0.261l0.015,0.005l-1.438,0.065
		c-0.135-0.013-0.268-0.022-0.422-0.033c-0.18,0.026-0.26,0.046-0.277,0.063l-1.039,0.045c-1.69-0.022-3.573-0.022-5.024-0.058
		c0.09-0.031,0.297-0.061,0.813-0.096c-0.391,0.025-0.932,0.05-1.354,0.08c-0.787-0.029-1.396-0.07-1.672-0.14
		c-2.125,0.013,0.633,0.175-1.492,0.188l-0.568-0.093l-0.526,0.128c-0.152-0.001-0.265-0.006-0.4-0.011
		c-0.062-0.007-0.109-0.016-0.148-0.022c0.019,0.005,0.039,0.012,0.06,0.019c-1.049-0.032-1.623-0.125-1.674-0.196
		c0.129,0.003,0.309-0.003,0.485-0.008l-0.164,0.036l0.922-0.036l-0.434-0.011c0.186-0.008,0.375-0.018,0.514-0.021
		c-1.817-0.102-5.1,0.075-5.725,0.042l2.053,0.046c-5.27,0.121-11.565,0.08-16.86,0.249c0.332-0.172-0.539-0.453-1.666-0.633
		c-0.068,0.056-0.078,0.107-1.938,0.177c0.639,0.073,4.066,0.182,2.49,0.292c-2.451,0.058-1.99-0.054-3.172-0.127
		c0.926,0.155-2.611,0.218-2.627,0.423c-0.611-0.001-1.347,0.002-2.373,0.024l0.166-0.018c-0.92,0.08-2.164,0.125-3.449,0.125
		c1.16-0.094-2.277-0.149-0.752-0.255c-0.648,0.025-1.148,0.045-1.558,0.063l-0.463-0.005l0.371,0.01
		c-2.33,0.104-1.051,0.107-3.565,0.357l-0.729-0.115c-1.01,0.117-1.082,0.177-3.404,0.224c1.888-0.117-1.521-0.173,0.587-0.326
		c-0.361-0.018-0.685-0.022-1.021-0.032c0.771-0.063,1.893-0.131,1.301-0.193l-1.369,0.039c-1.278-0.13,2.576-0.223,0.826-0.271
		c1.853-0.131,3.92-0.255,6.521-0.172l0.479,0.203c-0.055-0.06-1.692-0.128-2.428-0.07c1.09-0.085,3.973,0.289,5.172,0.031
		l-1.815-0.147c1.858-0.093,4.176-0.297,6.479-0.225c-1.031-0.203-0.531,0.021-2.156-0.217c1.402,0.294-5.92-0.036-3.646,0.277
		c-1.674-0.277-2.91-0.126-5.117-0.364c0.068,0.065,0.781,0.129-1.162,0.088c-0.088,0.019-0.295,0.042-0.426,0.058
		c-0.06-0.001-0.08-0.003-0.131-0.005l0.106,0.008c-0.086,0.01-0.094,0.012,0.039,0.002c0.463,0.03,0.838,0.068,0.99,0.105
		c-0.951,0.134-4.07,0.172-5.107,0.256c-1.159-0.02,0.478-0.08-0.166-0.145l-1.555,0.131c-0.176-0.146-3.146-0.214-0.408-0.327
		l-2.479,0.017c-1.48-0.068-3.512-0.08-4.729-0.006c-1.188-0.021-2.887,0.192-1.918,0.068c0,0-0.948,0.041-1.895,0.085
		c-0.941,0.044-1.89,0.089-1.89,0.089l-0.053-0.037c-3.771,0.068-7.649,0.417-12.041,0.254c-1.223,0.066-2.479,0.143-4.588,0.151
		l-0.477-0.117c-1.57,0.083-4.854-0.012-5.474,0.135c-1.875-0.306-7.653,0.022-10.448-0.001l-0.064,0.148
		c-0.965-0.009-1.447,0.014-1.729,0.047c-0.592,0.014-1.206,0.033-1.842,0.049l0.722-0.091l-2.146,0.061l0.451-0.18
		c-2.342,0.138-3.063,0.105-5.348,0.06c0.479,0.101-0.203,0.249-1.822,0.284c-0.287-0.008-0.576-0.015-0.867-0.022
		c-0.479-0.065,0.58-0.106-1.398-0.09c-0.071-0.003-0.143-0.01-0.213-0.013c0.609-0.097,1.306-0.203,2.494-0.068
		c0.125-0.052,0.635-0.101,0.767-0.152c-1.488-0.107-3.738-0.017-4.779-0.013c0.401,0.005,0.881,0.013,1.129,0.036l-3.457,0.19
		c-0.266,0.006-0.531,0.012-0.799,0.021c-0.394-0.051,0.021-0.095,0.481-0.138c-0.84,0.019-1.416,0.094-2.647,0.109
		c0.305-0.129,0.207-0.262,1.957-0.327l-3.949,0.151c-0.271-0.056-2.059-0.148-1.553-0.197c-1.281-0.038-2.886,0.064-4.576,0.137
		c-0.928-0.114-1.715-0.211-1.635-0.096l0.334,0.146c-0.072,0.002-0.144,0.007-0.216,0.007c-0.006,0-0.008,0-0.014,0
		c-0.424,0-0.604-0.02-0.67,0.007c-0.455,0.005-0.912,0.001-1.361-0.01c-0.146,0.026-0.44,0.049-1.051,0.071
		c-0.795-0.005-1.563-0.022-2.332-0.036c-0.008-0.003-0.021-0.003-0.031-0.006c-0.012,0.001-0.043,0.001-0.057,0.003
		c-1.813-0.036-3.643-0.067-5.852,0.068l-1.822-0.224c-2.273,0.06,1.639,0.244-0.824,0.355c-0.131,0.004-0.268,0.006-0.396,0.014
		l-0.427-0.206l-1.813,0.165c-0.08-0.068,0.18-0.16-0.375-0.193c-0.438,0.036-0.982,0.084-1.594,0.13
		c-0.447-0.072-0.349-0.136,0.651-0.221c-3.012,0.156-3.131,0.086-4.741,0.174c-0.363-0.022-0.658-0.039-0.654-0.042
		c2.483-0.215,4.287-0.157,2.356-0.326c-0.321,0.42-6.067,0.103-7.762,0.31c-1.271-0.051-3.127-0.075-5.241-0.086l-0.066-0.05
		l-0.375-0.007l0.184,0.057c-3.396-0.018-7.413-0.011-10.813-0.048c-1.473-0.299-1.832,0.133-5.863-0.185l2.148-0.015
		c-1.201-0.279-2.959-0.216-5.308-0.42c0.548,0.091,4.664,0.484,2.144,0.549c-0.672-0.046-1.582-0.08-2.949-0.013
		c0.063-0.159-1.252-0.143-2.877-0.166L271.292-91c-1.781,0.029-1.688,0.138-2.752,0.212c-1.945-0.057-2.293-0.226-2.711-0.37
		c-3.173-0.062,2.116,0.272-1.664,0.287c-2.625-0.092-4.521-0.015-7.681,0.097c-1.848-0.081,0.326-0.126-0.332-0.189l-1.645,0.16
		c-0.398-0.005-0.271-0.058-0.209-0.083c-1.377,0.059-0.105,0.209-2.26,0.256c-0.529,0.214-4.508-0.287-7.124,0.003
		c-0.684-0.051,0.271-0.133,0.037-0.211c-3.614,0.226-3.141,0.146-5.968,0.461l-2.601-0.071c1.946,0.107-0.312,0.354-2.263,0.56
		c0.701,0.057,1.298,0.109,1.69,0.13l-0.848,0.053c-0.319-0.003-0.638-0.003-0.941,0.007l0.29,0.034l-0.54,0.034
		c-0.295-0.029-0.601-0.066-0.915-0.11c0.034-0.008,0.062-0.013,0.099-0.022c-0.051,0.005-0.09,0.011-0.142,0.016
		c-0.315-0.046-0.635-0.095-0.952-0.146c0.146-0.04,0.352-0.082,0.585-0.125l1.271,0.097c0.726-0.148,1.399-0.308,1.151-0.425
		c-0.199,0.031-0.599,0.061-1.045,0.084c0.188-0.039,0.306-0.073,0.193-0.091c-0.128-0.019-0.443,0.036-0.947,0.104l-0.911-0.212
		l-0.12,0.096l-4.329-0.042c-0.264,0.029-0.521,0.058-0.779,0.089c-0.154-0.024-0.431-0.045-0.915-0.058
		c-0.894-0.105-5.741,0.255-8.314-0.015c0.46,0.083,0.906,0.165,0.188,0.211c-0.377-0.011-0.832-0.016-1.332-0.038
		c0.045,0.014,0.027,0.026,0.051,0.038c-2.058-0.083-4.854-0.39-6.603-0.186c-0.253-0.029-0.34-0.052-0.343-0.073
		c-1.584,0.024-5.238,0.053-6.229,0.182c-1.351-0.554-9.941,0.15-9.841-0.328l-4.866,0.052l0.128-0.053
		c-3.113-0.018-4.212,0.107-5.3,0.233c-0.718-0.031-0.197-0.081-0.138-0.107c-3.566-0.063-4.638-0.06-6.749,0.073
		c-0.963-0.019-2.194-0.05-2.712-0.036l0.212,0.015c-0.563,0.044-2.281-0.012-4.414-0.052c1.417-0.048,2.135-0.011,1.521-0.227
		c-2.565-0.114-0.681,0.198-2.99,0.066c-0.597,0.068,1.582,0.104,1.292,0.159c-1.812-0.035-3.875-0.048-5.784,0.019
		c0.346-0.031,0.675-0.057,0.973-0.078c-1.46-0.105-0.377-0.133-2.604-0.153c-0.759-0.111,1.253-0.138,1.908-0.135
		c0,0-1.29-0.036-2.582-0.066c-1.309-0.024-2.616-0.048-2.616-0.048c0.173,0.206-3.396,0.208-3.801,0.354
		c-0.292-0.005-0.579-0.012-0.858-0.013c0.075-0.026,0.127-0.046,0.117-0.06c-0.145,0.022-0.514,0.042-0.957,0.058
		c-0.604,0-1.146,0.014-1.633,0.038c-0.619,0.005-1.142,0.001-1.269-0.021l1.577-0.11c-2.063-0.091-3.369,0.279-5.842,0.058
		c-0.852-0.019-2.577-0.294-2.719-0.153c0.699,0.114,1.122,0.362,1.273,0.605c-1.561-0.039-4.111,0.003-4.023-0.134
		c-0.361,0.001-0.718-0.002-1.079,0c0.309-0.08,0.465-0.155,0.034-0.211c-0.04,0.062-0.8,0.145-1.116,0.172
		c-0.91-0.041,0.323-0.19-1.622-0.14c-0.245,0.214-3.562,0.051-1.312,0.175c-0.37,0-0.748,0-1.114,0
		c-2.065-0.026-4.127-0.066-6.163-0.104c-4.082-0.075-8.098-0.154-12.041-0.193l0.888,0.248l-2.747-0.035
		c-0.715-0.061-0.955-0.196,1.005-0.17c-1.021-0.145-3.297,0.086-3.353,0.14c-3.834-0.128,1.516-0.268,0.337-0.284l-1.602,0.005
		l0.359,0.031c-1.303,0.086-1.42,0.182-3.787,0.193c-1.495-0.036-0.766-0.141-1.356-0.146c0.006-0.018-0.196-0.024-0.903,0
		l-3.486,0.005l1.401,0.179c-1.537,0.104-3.266,0.013-1.651,0.216c-2.375-0.313-12.966-0.02-14.426-0.11
		c-2.122,0.155-4.257,0.17-6.869,0.17c0.662,0.036,1.114,0.245-1.151,0.235c0.702-0.444-4.183-0.16-6.078-0.463
		c1.679,0.197-6.385,0.098-3.771,0.375c-1.888-0.021-0.149-0.163-1.595-0.255c-4.441,0.203-9.868-0.039-15.38,0.057
		c-0.08,0.058,0.854,0.14-0.324,0.235l-2.941-0.267c-1.088,0.036-0.983,0.339-2.989,0.153c0.285,0.045,0.711,0.115-0.021,0.141
		c-5.424-0.068-10.95-0.101-16.51-0.085c-5.556-0.001-11.143-0.036-16.59-0.327c1.468,0.12,0.476,0.125-0.662,0.123
		c0.733,0.031-0.042,0.143,0.09,0.221l-4.566-0.24c-0.886,0.212-4.938-0.01-5.47,0.194l1.471-0.031
		c-2.004,0.234,2.594,0.556,2.245,0.869c1.684-0.2,4.05,0.15,6.674,0.175l-0.136,0.036l0.524-0.039
		c0.747-0.001,1.51-0.027,2.287-0.107c0.781,0.068-0.691,0.097-0.279,0.172c0.607-0.085,1.317-0.119,2.281-0.116l-0.622,0.124
		c0.94-0.01,1.988-0.036,3.022-0.059c5.113,0.012,7.653,0.146,13.745,0.262l-0.014-0.003l1.44-0.065
		c0.134,0.01,0.267,0.02,0.42,0.033c0.182-0.026,0.262-0.046,0.279-0.064l1.04-0.045c1.688,0.022,3.574,0.022,5.026,0.058
		c-0.09,0.03-0.298,0.062-0.813,0.095c0.385-0.027,0.925-0.05,1.349-0.08c0.786,0.03,1.396,0.07,1.673,0.14
		c2.125-0.013-0.633-0.175,1.492-0.188l0.568,0.092l0.529-0.128c0.15,0,0.266,0.007,0.4,0.01c0.063,0.008,0.112,0.015,0.152,0.022
		c-0.019-0.006-0.04-0.012-0.059-0.019c1.048,0.032,1.62,0.125,1.67,0.194c-0.125-0.003-0.31,0.003-0.484,0.01l0.165-0.037
		l-0.923,0.035l0.431,0.013c-0.184,0.008-0.372,0.019-0.511,0.022c1.816,0.103,5.095-0.077,5.72-0.043l-2.05-0.043
		c5.269-0.121,11.569-0.08,16.864-0.249c-0.333,0.172,0.54,0.453,1.667,0.633c0.065-0.055,0.077-0.105,1.936-0.176
		c-0.638-0.073-4.067-0.179-2.49-0.294c2.45-0.056,1.99,0.055,3.169,0.128c-0.926-0.155,2.613-0.217,2.63-0.424
		c0.608,0.001,1.343-0.001,2.372-0.023l-0.168,0.02c0.92-0.08,2.165-0.125,3.452-0.127c-1.162,0.094,2.278,0.149,0.75,0.257
		c0.647-0.026,1.147-0.046,1.556-0.065l0.465,0.005l-0.372-0.01c2.332-0.104,1.048-0.107,3.566-0.357l0.73,0.116
		c1.008-0.117,1.08-0.177,3.401-0.226c-1.885,0.119,1.521,0.174-0.585,0.327c0.364,0.017,0.683,0.022,1.021,0.032
		c-0.771,0.063-1.891,0.133-1.3,0.192l1.369-0.038c1.282,0.13-2.574,0.223-0.824,0.272c-1.854,0.131-3.919,0.256-6.521,0.173
		l-0.484-0.203c0.054,0.06,1.697,0.126,2.428,0.07c-1.087,0.083-3.973-0.29-5.169-0.033l1.816,0.141
		c-1.859,0.095-4.175,0.297-6.483,0.224c1.032,0.203,0.535-0.02,2.159,0.22c-1.404-0.293,5.919,0.034,3.646-0.276
		c1.675,0.276,2.911,0.126,5.118,0.362c-0.068-0.066-0.781-0.128,1.162-0.09c0.088-0.019,0.292-0.043,0.425-0.057
		c0.06,0.004,0.08,0.004,0.131,0.007l-0.106-0.01c0.083-0.01,0.09-0.01-0.04,0c-0.462-0.031-0.84-0.07-0.992-0.106
		c0.952-0.135,4.071-0.173,5.108-0.256c1.162,0.02-0.477,0.08,0.168,0.143l1.553-0.132c0.176,0.146,3.144,0.215,0.41,0.327
		l2.481-0.017c1.48,0.068,3.51,0.08,4.728,0.007c1.187,0.021,2.883-0.19,1.917-0.068c0,0,0.949-0.039,1.893-0.086
		c0.944-0.043,1.889-0.086,1.889-0.086l0.053,0.035c3.771-0.068,7.65-0.417,12.04-0.254c1.221-0.066,2.481-0.14,4.584-0.148
		l0.479,0.117c1.571-0.083,4.853,0.012,5.47-0.136c1.877,0.307,7.656-0.022,10.453,0.001l0.063-0.148
		c0.962,0.008,1.446-0.013,1.729-0.047c0.593-0.014,1.208-0.032,1.843-0.05l-0.72,0.092l2.143-0.062l-0.452,0.18
		c2.34-0.138,3.062-0.105,5.348-0.059c-0.481-0.1,0.204-0.248,1.821-0.284c0.287,0.008,0.577,0.015,0.87,0.021
		c0.479,0.066-0.583,0.107,1.401,0.09c0.072,0.003,0.141,0.008,0.21,0.014c-0.612,0.097-1.306,0.203-2.492,0.068
		c-0.127,0.052-0.635,0.101-0.769,0.151c1.491,0.107,3.741,0.017,4.778,0.014c-0.401-0.005-0.88-0.014-1.125-0.036l3.457-0.191
		c0.267-0.005,0.532-0.012,0.795-0.02c0.395,0.051-0.021,0.095-0.479,0.138c0.84-0.019,1.412-0.094,2.646-0.109
		c-0.3,0.129-0.205,0.262-1.955,0.329l3.946-0.153c0.274,0.056,2.062,0.15,1.556,0.197c1.279,0.037,2.886-0.063,4.574-0.138
		c0.932,0.111,1.718,0.211,1.635,0.098l-0.333-0.059c0.072-0.001,0.145,0.084,0.216,0.084c0.005,0,0.008,0,0.013,0
		c0.423,0,0.604-0.071,0.67-0.097c0.455-0.005,0.912-0.047,1.361-0.034c0.144-0.026,0.44-0.073,1.047-0.094
		c0.795,0.005,1.561,0.011,2.332,0.026c0.008,0.001,0.021-0.001,0.032,0c0.011-0.001,0.042-0.005,0.056-0.007
		c1.813,0.036,3.643,0.067,5.853-0.068l1.819,0.221c2.278-0.059-1.633-0.243,0.829-0.355c0.131-0.005,0.266-0.006,0.396-0.013
		l0.427,0.206l1.811-0.165c0.08,0.068-0.178,0.159,0.375,0.191c0.438-0.036,0.984-0.083,1.595-0.128
		c0.447,0.071,0.35,0.136-0.65,0.221c3.01-0.156,3.13-0.086,4.738-0.173c0.364,0.022,0.659,0.039,0.654,0.042
		c-2.482,0.213-4.284,0.157-2.353,0.326c0.318-0.423,6.064-0.106,7.756-0.311c1.273,0.052,3.127,0.075,5.247,0.086l0.065,0.05
		l0.375,0.008l-0.181-0.058c3.393,0.017,7.411,0.011,10.809,0.05c1.471,0.3,1.832-0.133,5.866,0.188l-2.15,0.013
		c1.201,0.283,2.96,0.216,5.308,0.422c-0.545-0.094-4.661-0.485-2.143-0.552c0.675,0.046,1.582,0.08,2.948,0.015
		c-0.061,0.158,1.255,0.143,2.88,0.164l-0.198,0.209c1.783-0.03,1.686-0.14,2.752-0.212c1.943,0.056,2.295,0.226,2.71,0.372
		c3.175,0.061-2.117-0.272,1.665-0.289c2.627,0.094,4.52,0.017,7.679-0.097c1.846,0.078-0.327,0.126,0.335,0.19l1.641-0.16
		c0.402,0.003,0.274,0.056,0.211,0.08c1.377-0.06,0.105-0.209,2.257-0.256c0.528-0.214,4.506,0.287,7.125-0.003
		c0.686,0.05-0.271,0.133-0.039,0.211c3.617-0.228,3.143-0.147,5.971-0.461l2.602,0.072c-1.946-0.107,0.312-0.354,2.263-0.56
		c-0.701-0.06-1.299-0.109-1.688-0.133l0.849-0.051c0.321,0.002,0.639,0.002,0.94-0.006l-0.291-0.034l0.537-0.036
		c0.299,0.029,0.604,0.066,0.918,0.11c-0.035,0.007-0.063,0.013-0.1,0.021c0.051-0.005,0.09-0.01,0.141-0.015
		c0.314,0.045,0.635,0.095,0.949,0.146c-0.146,0.039-0.348,0.08-0.582,0.125l-1.271-0.099c-0.729,0.148-1.397,0.308-1.151,0.425
		c0.199-0.029,0.604-0.062,1.049-0.086c-0.191,0.04-0.309,0.074-0.193,0.092c0.127,0.019,0.439-0.036,0.947-0.102l0.91,0.211
		l0.117-0.096l4.328,0.042c0.264-0.029,0.521-0.058,0.782-0.087c0.148,0.024,0.429,0.045,0.91,0.058
		c0.896,0.107,5.742-0.255,8.316,0.015c-0.459-0.083-0.904-0.165-0.188-0.209c0.379,0.009,0.834,0.014,1.334,0.038
		c-0.047-0.016-0.026-0.026-0.051-0.038c2.055,0.084,4.854,0.388,6.603,0.185c0.25,0.028,0.34,0.052,0.34,0.073
		c1.588-0.024,5.239-0.051,6.229-0.183c1.354,0.557,9.939-0.149,9.842,0.332l4.867-0.053l-0.129,0.056
		c3.111,0.017,4.211-0.108,5.299-0.236c0.721,0.031,0.195,0.081,0.139,0.107c3.566,0.063,4.638,0.06,6.748-0.073
		c0.964,0.019,2.197,0.05,2.716,0.036l-0.216-0.015c0.562-0.044,2.279,0.011,4.416,0.052c-1.416,0.048-2.135,0.011-1.522,0.227
		c2.567,0.111,0.686-0.198,2.992-0.066c0.598-0.066-1.582-0.104-1.289-0.159c1.813,0.034,3.873,0.05,5.785-0.018
		c-0.347,0.031-0.679,0.058-0.978,0.078c1.459,0.105,0.379,0.133,2.604,0.15c0.758,0.113-1.252,0.139-1.908,0.136
		c0,0,1.289,0.035,2.582,0.066c1.307,0.025,2.612,0.046,2.612,0.046c-0.17-0.202,3.398-0.206,3.802-0.352
		c0.291,0.006,0.582,0.01,0.856,0.013c-0.074,0.026-0.127,0.048-0.117,0.06c0.146-0.021,0.515-0.04,0.962-0.056
		c0.602,0,1.145-0.015,1.629-0.035c0.623-0.006,1.146-0.001,1.271,0.019l-1.576,0.109c2.063,0.093,3.367-0.279,5.843-0.057
		c0.854,0.02,2.573,0.294,2.715,0.153c-0.695-0.113-1.119-0.362-1.271-0.605c1.562,0.041,4.109-0.002,4.021,0.134
		c0.364-0.001,0.719,0.001,1.082,0c-0.31,0.082-0.466,0.154-0.035,0.211c0.041-0.062,0.803-0.143,1.117-0.172
		c0.909,0.041-0.326,0.19,1.618,0.14c0.248-0.214,3.564-0.051,1.313-0.175c0.369,0,0.744,0,1.113,0
		c2.067,0.026,4.127,0.068,6.166,0.104c4.08,0.075,8.1,0.155,12.039,0.191l-0.888-0.248l2.744,0.036
		c0.719,0.063,0.955,0.195-1.004,0.17c1.021,0.143,3.297-0.086,3.354-0.14c3.832,0.128-1.521,0.268-0.343,0.284l1.603-0.005
		l-0.357-0.031c1.304-0.086,1.42-0.181,3.787-0.194c1.494,0.036,0.766,0.143,1.354,0.147c-0.002,0.015,0.196,0.023,0.907,0
		l3.482-0.008l-1.4-0.177c1.537-0.107,3.269-0.014,1.652-0.216c2.373,0.312,12.965,0.02,14.426,0.112
		c2.119-0.155,4.256-0.17,6.867-0.172c-0.662-0.036-1.111-0.244,1.148-0.235c-0.701,0.444,4.186,0.16,6.077,0.461
		c-1.678-0.197,6.39-0.096,3.771-0.375c1.889,0.022,0.146,0.163,1.596,0.255c4.438-0.203,9.871,0.039,15.379-0.059
		c0.084-0.057-0.854-0.139,0.326-0.232l2.938,0.267c1.088-0.036,0.983-0.339,2.989-0.154c-0.284-0.046-0.711-0.116,0.023-0.141
		c5.422,0.07,10.947,0.101,16.508,0.084c5.555,0.002,11.142,0.036,16.59,0.327c-1.469-0.119-0.477-0.125,0.662-0.122
		c-0.733-0.031,0.043-0.143-0.09-0.221l4.563,0.239c0.887-0.212,4.938,0.011,5.473-0.193l-1.471,0.031
		C498.342-89.537,493.743-89.861,494.094-90.172z M33.374-88.786l-0.455-0.154c0.968,0.02,1.396,0.05,1.792,0.083L33.374-88.786z
		 M35.499-88.899c-0.298-0.094-3.904,0.007-2.691-0.204c0.6,0.105,1.854,0.147,3.312,0.172L35.499-88.899z M68.937-89.138
		l-0.021-0.003c1.857-0.073,2.744-0.07,3.55-0.055C71.907-89.104,70.368-89.045,68.937-89.138z M72.813-89.187
		c0.295,0.006,0.617,0.013,0.972,0.02l-1.259,0.044C72.507-89.141,72.693-89.165,72.813-89.187z M406.627-90.206
		c-2.521,0.05-4.156,0.24-5.73,0.02C402.775-90.199,404.809-90.21,406.627-90.206z M401.204-90.999l-0.063,0.009
		C399.754-91.04,400.245-91.021,401.204-90.999z M281.916-90.427c0.215-0.014,0.483-0.023,0.791-0.028
		C282.734-90.407,282.391-90.41,281.916-90.427z M279.252-90.604c-0.281,0.061-0.527,0.08-0.771,0.085
		c-0.071-0.028,0.008-0.057,0.431-0.094c-0.566,0.021-1.074,0.031-1.56,0.038c-0.121-0.01-0.231-0.02-0.371-0.03
		C277.6-90.626,278.869-90.706,279.252-90.604z M230.724-90.064c-0.112-0.018-0.218-0.031-0.327-0.044
		c0.284,0.003,0.582,0.01,0.917,0.026C231.13-90.074,230.925-90.069,230.724-90.064z M218.083-88.974
		c-0.219,0.013-0.487,0.021-0.79,0.028C217.264-88.997,217.608-88.993,218.083-88.974z M175.417-90.316
		c-0.367-0.011-0.67-0.009-0.979-0.009l-0.196-0.077L175.417-90.316z M160.729-90.738c0.06,0.076-0.361,0.175-1.061,0.268
		c-1.337-0.021-2.687-0.061-3.946-0.088L160.729-90.738z M144.4-89.964c0-0.003,0-0.009,0-0.013
		C144.4-89.973,144.4-89.97,144.4-89.964z M105.771-90.566l0.545,0.037C105.084-90.473,105.431-90.517,105.771-90.566z
		 M93.369-89.198c2.522-0.05,4.158-0.24,5.735-0.02C97.225-89.204,95.189-89.191,93.369-89.198z M98.792-88.402l0.063-0.01
		C100.245-88.365,99.752-88.382,98.792-88.402z M108.237-89.05c-5.609,0.084-4.564,0.588-9.381,0.435
		c-1.925-0.158-0.188-0.35-0.641-0.471c2.412-0.091,3.784,0.075,5.439,0.05l-2.07-0.062c0.755-0.063,2.357-0.126,3.26-0.102
		c-0.753-0.051-2.904-0.037-5.409-0.02c1.715-0.316-4.334-0.131-3.122-0.209c-1.065-0.103,1.822-0.266,3.361-0.245
		c1.563-0.003,2.68,0.409,6.581,0.374c-0.388,0-0.415,0.027-0.803,0.029c1.428,0.076,2.803-0.135,4.539-0.01
		c-0.29,0.028-0.486,0.053-0.273,0.078l2.143-0.095c0.189-0.061-0.403-0.08-1.181-0.042c0.891-0.059,1.824,0.051,2.077-0.16
		c0,0-0.901,0.007-1.806,0.015c-0.901,0.005-1.801,0.021-1.801,0.021c0.719-0.022,1.429-0.072,2.188-0.118
		c0.688,0.062,2.141-0.013,3.414-0.101c0.407,0.003,0.84,0.015,1.298,0.033c-0.063,0.027-0.125,0.055-0.231,0.082
		c-0.403,0.031-0.896,0.057-1.295,0.076c0.27,0.024,0.534,0.031,0.799,0.033c-0.274,0.05-0.629,0.101-1.015,0.147
		c-1.199-0.003-2.499-0.005-3.454,0.073c0.682,0.077,2.207-0.008,2.904-0.005c-0.989,0.109-2.229,0.209-3.637,0.291
		C107.171-88.817,108.737-89.102,108.237-89.05z M110.456-89.321c0.051-0.005,0.104-0.011,0.153-0.014
		C110.563-89.332,110.508-89.326,110.456-89.321z M220.747-88.797c0.281-0.063,0.526-0.081,0.773-0.085
		c0.069,0.027-0.008,0.056-0.431,0.092c0.565-0.02,1.072-0.03,1.558-0.037c0.12,0.01,0.231,0.02,0.37,0.03
		C222.397-88.776,221.129-88.696,220.747-88.797z M251.199-89.675c-0.942,0.255-2.08,0.105-4.112,0.114l0.056-0.026
		c-0.808-0.036-1.388-0.054-1.832-0.066c1.587-0.008,2.109-0.005,4.191-0.047l-0.702-0.026c0.938-0.256,2.079-0.105,4.11-0.114
		l-0.06,0.026c0.81,0.036,1.39,0.054,1.836,0.066c-1.588,0.008-2.11,0.005-4.192,0.049L251.199-89.675z M269.271-89.337
		c0.111,0.016,0.219,0.029,0.328,0.042c-0.285-0.003-0.58-0.01-0.914-0.026C268.865-89.328,269.072-89.332,269.271-89.337z
		 M324.577-89.085c0.367,0.011,0.675,0.009,0.98,0.009L325.753-89L324.577-89.085z M339.271-88.665
		c-0.061-0.076,0.357-0.176,1.059-0.267c1.341,0.021,2.688,0.059,3.945,0.088L339.271-88.665z M354.4-89.438
		c0,0.003,0,0.009,0,0.012C354.4-89.428,354.4-89.434,354.4-89.438z M394.227-88.837l-0.545-0.038
		C394.911-88.928,394.566-88.884,394.227-88.837z M400.322-89.73c-1.563,0.003-2.684-0.409-6.584-0.374
		c0.394,0,0.416-0.027,0.806-0.029c-1.427-0.076-2.804,0.136-4.539,0.01c0.291-0.027,0.487-0.051,0.274-0.078l-2.146,0.097
		c-0.187,0.059,0.407,0.08,1.178,0.042c-0.887,0.059-1.818-0.052-2.068,0.159c0,0,0.898-0.006,1.804-0.015
		c0.899-0.005,1.801-0.021,1.801-0.021c-0.719,0.022-1.428,0.071-2.187,0.118c-0.69-0.062-2.146,0.015-3.418,0.101
		c-0.405-0.003-0.84-0.015-1.297-0.033c0.063-0.027,0.127-0.057,0.229-0.084c0.405-0.031,0.896-0.057,1.295-0.076
		c-0.269-0.022-0.535-0.031-0.795-0.031c0.272-0.051,0.627-0.101,1.014-0.148c1.199,0.003,2.496,0.005,3.451-0.073
		c-0.678-0.076-2.205,0.008-2.898,0.005c0.986-0.109,2.229-0.211,3.638-0.291c2.95-0.138,1.385,0.148,1.885,0.097
		c5.61-0.083,4.565-0.587,9.383-0.438c1.926,0.159,0.188,0.351,0.643,0.474c-2.411,0.089-3.786-0.077-5.442-0.05l2.074,0.062
		c-0.757,0.065-2.359,0.126-3.261,0.103c0.752,0.049,2.9,0.037,5.406,0.018c-1.719,0.316,4.332,0.131,3.119,0.211
		C404.747-89.871,401.859-89.708,400.322-89.73z M389.536-90.08c-0.047,0.005-0.096,0.008-0.146,0.012
		C389.439-90.069,389.486-90.075,389.536-90.08z M426.215-90.235l1.258-0.044c0.02,0.018-0.168,0.041-0.285,0.064
		C426.891-90.222,426.566-90.228,426.215-90.235z M427.532-90.208c0.56-0.092,2.097-0.148,3.523-0.058l0.021,0.003
		C429.225-90.188,428.34-90.191,427.532-90.208z M466.622-90.618l0.453,0.154c-0.967-0.019-1.396-0.05-1.789-0.083L466.622-90.618z
		 M467.189-90.299c-0.602-0.105-1.854-0.148-3.311-0.172l0.618-0.034C464.799-90.41,468.4-90.51,467.189-90.299z"/>
	<path fill="#B45834" d="M234.563-90.418c0.187,0.022,0.252,0.051,0.312,0.078C235.096-90.373,235.08-90.403,234.563-90.418z"/>
	<path fill="#B45834" d="M326.738-90.436h0.097c0.051-0.01,0.075-0.02,0.09-0.028L326.738-90.436z"/>
	<path fill="#B45834" d="M138.56-90.583c0.59,0.015,0.92,0.041,1.145,0.07C139.725-90.555,139.454-90.583,138.56-90.583z"/>
	<path fill="#B45834" d="M80.978-88.135l1.802-0.034c-0.871,0.006-1.181-0.033-1.618-0.057
		C81.198-88.189,81.541-88.135,80.978-88.135z"/>
	<path fill="#B45834" d="M77.053-88.737c-0.389,0.181,0.957,0.126,2.292,0.073c-0.133-0.136-1.258-0.096-2.513-0.076
		C76.905-88.741,76.978-88.741,77.053-88.737z"/>
	<path fill="#B45834" d="M75.379-88.737c-0.154,0.073,0.468,0.017,1.159,0C76.15-88.731,75.757-88.728,75.379-88.737z"/>
	<path fill="#B45834" d="M92.351-88.322c-0.608-0.028-0.358,0.176-0.71,0.125C90.988-88.023,95.652-88.441,92.351-88.322z"/>
	<polygon fill="#B45834" points="79.509,-89.071 78.362,-89.109 78.799,-88.942 	"/>
	<path fill="#B45834" d="M88.233-88.948l-2-0.054c0.029,0.027-0.223,0.042-0.537,0.054C86.931-88.935,88.282-88.898,88.233-88.948z"
		/>
	<path fill="#B45834" d="M84.087-88.927c0.349,0,1.096-0.003,1.608-0.021C85.057-88.954,84.446-88.953,84.087-88.927z"/>
	<polygon fill="#B45834" points="495.381,-88.953 497.016,-88.875 495.977,-88.992 	"/>
	<path fill="#B45834" d="M498.611-89.182l0.334,0.214l1.043-0.188C499.613-89.147,498.883-89.133,498.611-89.182z"/>
	<path fill="#B45834" d="M272.521-91.118l-0.147,0.049c0.235,0.06,0.627,0.071,1.407,0.094L272.521-91.118z"/>
	<path fill="#B45834" d="M313.311-90.702c-0.768-0.003-1.66,0.042-2.432,0.039C312.543-90.706,313.521-90.462,313.311-90.702z"/>
</g>
</svg>
