<?xml version="1.0" encoding="utf-8"?>
<!-- Generator: Adobe Illustrator 16.0.0, SVG Export Plug-In . SVG Version: 6.00 Build 0)  -->
<!DOCTYPE svg PUBLIC "-//W3C//DTD SVG 1.1//EN" "http://www.w3.org/Graphics/SVG/1.1/DTD/svg11.dtd">
<svg version="1.1" id="圖層_1" xmlns="http://www.w3.org/2000/svg" xmlns:xlink="http://www.w3.org/1999/xlink" x="0px" y="0px"
	 width="95px" height="70.54px" viewBox="-270.002 -147.397 95 70.54" enable-background="new -270.002 -147.397 95 70.54"
	 xml:space="preserve">
<g>
	<g>
		<path fill="#5169A7" d="M-214.48-78.385c-0.7,0-1.768-0.106-3.572-0.474c-6.454-1.313-11.167-7.018-14.078-11.845
			c-22.649-0.682-36.391-3.151-36.587-28.899c-0.125-16.514,11.277-25.039,34.86-26.074c4.497-0.198,8.72-0.294,12.553-0.294
			c32.68,0,44.882,6.979,45.019,25.747c0.067,8.807-1.877,15.321-5.942,19.912c-5.896,6.659-16.123,9.529-35.125,9.801
			c0.645,3.446,2.408,5.932,3.625,7.649c0.975,1.375,1.679,2.318,1.182,3.46c-0.463,1.062-1.562,1.017-1.929,1.017
			C-214.478-78.385-214.48-78.385-214.48-78.385z"/>
		<path fill="#FFFFFF" d="M-221.306-144.54c34.651,0,43.616,8.035,43.735,24.329c0.174,23.082-13.665,28.089-41.266,28.288
			c0.649,8.287,7.456,12.209,4.356,12.209c-0.642,0-1.708-0.168-3.341-0.5c-6.205-1.263-10.756-6.969-13.605-11.874
			c-23.268-0.661-35.819-2.967-36.007-27.515c-0.131-17.155,12.727-23.723,33.626-24.641
			C-229.31-144.441-225.15-144.54-221.306-144.54 M-221.306-147.397c-3.85,0-8.09,0.1-12.603,0.298
			c-11.545,0.507-20.025,2.679-25.925,6.64c-6.817,4.578-10.239,11.603-10.167,20.88c0.097,12.774,3.489,20.779,10.675,25.192
			c6.596,4.051,16.253,4.792,26.504,5.115c4.172,6.685,9.176,10.777,14.538,11.868c1.91,0.389,3.012,0.547,3.803,0.547
			c1.879,0,2.716-1.018,3.088-1.872c0.849-1.947-0.258-3.509-1.329-5.019c-0.921-1.299-2.177-3.071-2.936-5.362
			c13.772-0.289,27.086-2.005,34.342-10.199c4.316-4.875,6.381-11.721,6.311-20.927
			C-175.148-140.035-187.697-147.397-221.306-147.397L-221.306-147.397z"/>
	</g>
</g>
<g>
	<path fill="#FFFFFF" d="M-233.56-112.184c0,1.02-0.2,1.58-0.88,1.92c-0.64,0.34-1.561,0.38-2.781,0.38
		c-0.12-0.6-0.46-1.48-0.76-2.02c0.74,0.04,1.541,0.04,1.801,0.02c0.24,0,0.32-0.08,0.32-0.32v-1.78h-3.521
		c-0.22,1.52-0.68,3.021-1.48,4.161c-0.36-0.38-1.3-1.1-1.78-1.34c1.24-1.8,1.36-4.321,1.36-6.281v-4.581h7.721V-112.184z
		 M-224.458-125.546v2.14h-18.104v-2.14h4.261c-0.36-0.68-0.94-1.541-1.5-2.201l2.261-0.78c0.72,0.76,1.52,1.841,1.86,2.601
		l-1.1,0.38h5.561c0.6-0.92,1.24-2.101,1.64-3.021l2.581,0.76c-0.48,0.78-1.02,1.561-1.52,2.261H-224.458z M-235.86-115.725v-1.3
		h-3.281c0,0.42-0.02,0.84-0.06,1.3H-235.86z M-239.141-120.166v1.38h3.281v-1.38H-239.141z M-229.659-113.664h-2.18v-8.162h2.18
		V-113.664z M-227.858-122.386h2.34v9.942c0,1.181-0.22,1.761-1.02,2.141c-0.76,0.36-1.841,0.42-3.281,0.4
		c-0.12-0.64-0.5-1.62-0.86-2.24c1.02,0.04,2.061,0.04,2.4,0.02c0.32,0,0.42-0.08,0.42-0.36V-122.386z"/>
	<path fill="#FFFFFF" d="M-219.361-117.885c-0.5,0.5-1,0.98-1.5,1.4c-0.18-0.54-0.78-1.88-1.14-2.46
		c1.661-1.241,3.521-3.201,4.601-5.141l2.101,0.84c-0.46,0.82-1,1.641-1.601,2.46v10.982h-2.46V-117.885z M-215.661-127.607
		c-1.22,1.86-3.121,3.841-4.881,5.061c-0.28-0.54-0.84-1.52-1.22-2.021c1.44-0.96,3.061-2.581,3.841-3.901L-215.661-127.607z
		 M-203.258-112.664v2.26h-12.663v-2.26h5.281v-4.081h-3.98v-2.26h3.98v-3.521h-4.661v-2.26h5.101c-0.24-0.84-0.84-2.101-1.4-3.061
		l2.201-0.74c0.6,0.94,1.3,2.24,1.56,3.101l-1.92,0.7h5.981v2.26h-4.381v3.521h3.781v2.26h-3.781v4.081H-203.258z"/>
</g>
</svg>
