<?xml version="1.0" encoding="utf-8"?>
<!-- Generator: Adobe Illustrator 21.1.0, SVG Export Plug-In . SVG Version: 6.00 Build 0)  -->
<svg version="1.1" id="圖層_1" xmlns="http://www.w3.org/2000/svg" xmlns:xlink="http://www.w3.org/1999/xlink" x="0px" y="0px"
	 viewBox="0 0 299.6968689 116.3312683" style="enable-background:new 0 0 299.6968689 116.3312683;" xml:space="preserve">
<style type="text/css">
	.st0{fill:#FFFFFF;}
	.st1{fill:#E9C860;}
</style>
<g>
	<path class="st0" d="M141.2433014,0.0591736c-12.9446716,0-24.9642639,0.421589-36.7455902,1.2888982
		C86.4566574,2.6760817,67.1435623,4.6136575,48.1487808,9.7545424
		C28.4981174,15.0729542,13.9411745,25.9680958,4.8823433,42.1372795c-4.77669,8.5259209-6.0747156,17.2258949-3.7537894,25.1594276
		c2.2971048,7.8520889,7.9890666,14.428894,16.4606113,19.0194397c5.856329,3.1734695,12.1653328,5.4073868,18.7517204,6.6396866
		c33.4576759,6.2596207,64.1095734,9.8240585,93.7072601,10.8969803c2.7167358,0.0984573,6.7434235,2.9275055,8.6833191,4.7179718
		l5.1614532,5.2689362l2.1741333,2.2194519l2.1534271-2.2391434l5.1710663-5.376915
		c1.3487244-1.2287903,5.4056549-4.2913589,8.8126221-4.4445419c1.1182098-0.050293,2.3119354-0.0747223,3.6494598-0.0747223
		c1.8300171,0,3.7144928,0.0465088,5.5369568,0.0914536c1.8620911,0.0459366,3.7876434,0.0934448,5.697876,0.0934448
		c21.7266846-0.2302322,46.9516754-0.8257828,71.7841492-5.0061569
		c11.6579437-1.9625244,25.1207733-5.1346054,36.5816803-13.7813263
		c8.042572-6.0678787,13.1176453-14.2771606,14.2903748-23.1156082c1.1621704-8.7587128-1.5544128-17.8773155-7.6492004-25.676033
		c-10.9778748-14.0469246-26.6056824-20.1314697-38.9940948-23.8629799
		c-16.3572845-4.9269342-39.329483-10.2130299-85.6894073-12.0628996
		C158.3553772,0.2423786,149.5509949,0.0591736,141.2433014,0.0591736L141.2433014,0.0591736z"/>
	<path class="st1" d="M177.0884552,101.13974c-5.0102692,0-10.0381012-0.3310623-15.0204163-0.1070786
		c-5.3575745,0.2408447-10.786087,5.2974014-10.786087,5.2974014l-5.2348328,5.4431839l-5.2117767-5.3203888
		c0,0-5.7604523-5.3888245-10.6773529-5.5670471c-31.3541718-1.1365509-62.4248428-5.078331-93.2597351-10.84729
		c-6.2345867-1.1664352-12.2406044-3.2770462-17.8680935-6.3264694C3.1507385,75.1073151-1.3820993,59.4419212,7.5063057,43.5768929
		c9.2376003-16.4883213,23.6291885-26.1397667,41.4339752-30.9585705
		C67.1985245,7.676795,85.9128571,5.6932931,104.720253,4.3088155c20.848732-1.5347474,41.7318192-1.5700305,62.5708084-0.7385061
		c28.6642303,1.1437695,57.2565308,3.5991895,84.9366455,11.9366531c14.383255,4.3323507,27.8612213,10.5127001,37.4944,22.8389511
		c11.6676025,14.9294434,9.1074524,33.150692-6.0868835,44.6142845
		c-10.4787903,7.9058228-22.6841125,11.0974731-35.2658081,13.2154999
		C224.7740784,100.1477585,200.9437866,100.8867722,177.0884552,101.13974z"/>
</g>
</svg>
