<?xml version="1.0" encoding="utf-8"?>
<!-- Generator: Adobe Illustrator 21.1.0, SVG Export Plug-In . SVG Version: 6.00 Build 0)  -->
<svg version="1.1" id="圖層_1" xmlns="http://www.w3.org/2000/svg" xmlns:xlink="http://www.w3.org/1999/xlink" x="0px" y="0px"
	 viewBox="0 0 402.5277405 447" style="enable-background:new 0 0 402.5277405 447;" xml:space="preserve">
<style type="text/css">
	.st0{fill:#FFFFFF;}
	.st1{fill:#3E3A39;}
	.st2{fill:#E9C860;stroke:#473C38;stroke-width:3;stroke-miterlimit:10;}
	.st3{fill:#E9C860;}
</style>
<g>
	<path class="st0" d="M399.1206055,298.2649536c1.0835571-1.2026978,1.8563843-2.6079712,2.3291626-4.2231445
		c3.0652466-10.46698-8.8147583-16.6911621-22.3311768-22.6586914
		c-50.37323-22.2515869-90.8027954-27.9262695-109.3006592-29.3590698
		c21.9645386-15.8305664,38.4024658-36.3082275,47.8578491-59.7562256
		c8.7935181-21.8067627,8.8707275-43.3366089,0.2286987-63.9909058
		c-7.0288696-16.7992554-18.0926514-28.9865723-24.7085571-36.2739868c-0.8886108-0.9783936-1.9055176-2.0980835-2.699585-3.0093384
		c0.6531982-2.5201416,2.4342651-7.161499,3.3865967-9.644043c5.5092163-14.3394165,13.8347778-36.0096436,1.5543213-55.4221802
		c-5.3635254-8.4780273-13.1072998-13.2723389-22.3822632-13.8637695
		c-21.4358521-1.4313354-45.6242676,21.6109009-59.4310913,37.22052
		c-12.1608276-3.020874-35.8659058-7.8580933-53.1018066-4.8226929l-3.6644287,0.6449585
		c-17.2570801,3.0344238-37.8766403,15.6641235-48.2698288,22.6495972
		c-7.9859619-4.3432617-18.9508667-9.6884155-30.2756348-13.3075562
		c-15.897644-5.0812988-28.7753296-5.5569458-38.2785034-1.4105835
		c-8.5267334,3.7286377-14.170105,10.8775635-16.3197632,20.6749878
		c-4.9172974,22.4344482,10.2962646,39.9631348,20.3870239,51.5884399c1.722229,1.9846802,4.9805298,5.7383423,6.4557495,7.8856201
		c-0.4472046,1.1572876-1.0338135,2.586731-1.5157471,3.7599487c-3.729126,9.0998535-9.9696655,24.3303223-10.8447876,42.5198975
		c-1.0758057,22.3639526,6.3418579,42.5758667,22.0469971,60.0741577c0.6117554,0.6811523,1.2306519,1.3560791,1.8582764,2.0252075
		c-8.9247437-2.0271606-17.9338989-3.8193359-26.9503174-5.3591919
		c-19.6378174-3.3547363-25.8730469,2.9837646-27.6478882,8.8981934c-0.5118408,1.7140503-0.7197876,3.9158325,0.0395508,6.4615479
		c-2.9919434,1.0062866-5.7161865,3.0040283-6.9752808,6.8710938c-1.5133667,4.6326294-0.0491943,8.8340454,4.9848633,13.4039917
		c-2.6827395,1.4279785-4.3494873,3.5317993-4.9978638,6.7567749c-0.3584595,1.7858887-0.237854,3.5095825,0.3565063,5.119873
		c1.0217285,2.7729492,3.2746584,4.8661499,6.7007446,6.2236938c2.5635982,1.0135498,10.0377197,4.5139771,18.7593384,8.5986328
		c9.7029419,4.5453491,22.4831543,10.8201904,36.0140381,17.4640503
		c18.9884644,9.3232422,38.5462036,18.925293,50.9743042,24.4055786
		c-1.5606689,12.8390503-8.9175415,78.697876,1.4458008,100.9335327c0.8037109,1.7241821,2.1414185,3.1502075,4.0532837,4.3099365
		c0.3768311,4.6484375,0.8153687,9.1168213,1.3044434,13.3461914h187.9344482l-0.0178833-0.2803345
		c-0.6271362-9.8249512-1.4896851-19.307373-2.6292114-28.9036865c0.6647949-0.8934326,1.1481934-1.8447266,1.4434204-2.847229
		c6.4682617-21.9345703-7.9483032-79.1185913-12.7223511-96.836853c14.9086914,2.4275513,37.3575439,5.5922241,55.4501953,8.1422729
		l0.2952271,0.0415039c13.6900635,1.9287109,25.512207,3.5939941,29.4420166,4.2886963
		c8.9343872,1.5775146,12.0209351-3.5139771,12.9355469-5.781311c1.2446899-3.0855713,1.0314331-5.6723022-0.4640503-8.1519165
		c6.0388794-1.211853,9.1572876-3.8168945,10.3150635-8.168335
		C403.3157349,304.1099243,401.6552734,300.7783203,399.1206055,298.2649536z"/>
	<g>
		<path class="st1" d="M388.1936035,297.6859131c6.9072266-1.2943115,7.6987305-4.0004272,8.0411987-5.1713867
			c1.4427795-4.9257507-3.7961426-9.3106995-19.3120728-16.1608276
			c-66.8826599-29.5449371-115.8112488-29.394577-117.8615723-29.3743439
			c-0.2607727,0.0027924-0.5174866,0.0354767-0.7684937,0.0873871c-0.6486816-0.6857758-1.5810852-1.0625305-2.5545349-0.9897003
			l-117.4095764,8.7859802c-1.2924194,0.0966644-2.3979034,0.9645844-2.797287,2.1983185
			c-0.1109161,0.3422852-0.2182312,0.7561035-0.3239594,1.2030334
			c-20.802803-8.6755676-55.7868729-20.9824677-100.9712982-28.7011261
			c-13.8947773-2.3735962-20.0847492,0.2922668-21.5257454,5.0965424c-0.8496904,2.8451233,0.6206017,6.0105133,4.3943319,9.4706573
			c-8.0107212-0.44104-10.451973,1.1694489-11.3712158,3.9944458c-0.5892129,1.8028107-1.8420744,5.6282654,12.8966122,14.2761383
			c-11.9218655,1.1579895-12.355629,3.3157349-12.7475414,5.2672424c-0.1585383,0.788208-0.1155901,1.5132141,0.1274486,2.1716919
			c0.4664478,1.2649231,1.669785,2.2841187,3.5996485,3.0486145c2.7260427,1.0776672,9.9364996,4.4552002,19.0663567,8.7313538
			c29.6526566,13.8898926,89.2991486,44.5426941,98.3238831,46.1848755
			c-5.0894699,43.9971619-5.5306091,83.8690186-1.3609848,119.2612305h177.0174255
			c-2.8953552-45.3636169-10.8066101-83.2655334-23.6262207-127.5090027
			c4.5763855-4.1861572,8.7245178-7.9839172,15.3187561-6.9022522c14.9187317,2.445343,37.8778992,5.6793823,56.3267517,8.2800903
			c13.7401123,1.9350281,25.609375,3.6072083,29.6298218,4.3189697c3.6886292,0.6513062,6.0265503-0.1774597,6.9494019-2.4629517
			c0.805542-1.9977417,1.5623474-3.9085693-9.1320496-10.7872009c17.3263245,0.5379028,18.2677612-3.0028687,18.7720032-4.9001465
			C397.6708069,304.1930542,396.2723694,301.5725403,388.1936035,297.6859131z"/>
		<path class="st2" d="M174.5372162,267.8280334"/>
		<g>
			<path class="st3" d="M284.6104431,315.8844604c0,0-41.7014771-26.9375916-33.5381927-72.6568146l-27.4348145,2.8292694
				c0,0-22.7359467,20.864502-22.0625305,46.480835c0.082901,3.154541,0.1958923,6.5568848,0.3345032,10.1499634
				c-0.3976898-3.573761-0.7923889-6.9550781-1.1799164-10.0868835
				c-3.1466522-25.4312134-28.7347107-42.6793976-28.7347107-42.6793976l-27.550293,1.2853394
				c7.6454163,42.7438812-22.35112,76.8393097-22.35112,76.8393097s-9.5915222,75.9428711,0.5294189,97.6540527
				c3.2937317,7.0656738,86.4627991,3.927887,87.8819733-5.961792c0.0371704-0.258667,0.066864-0.5897217,0.0897827-0.9873047
				c0.0819092,0.3898315,0.1605377,0.7127686,0.2357635,0.9629822c2.8752136,9.5683289,85.5849152,0.2930603,87.7905121-7.1840515
				C305.3977051,389.5541687,284.6104431,315.8844604,284.6104431,315.8844604z"/>
			<g>
				<path class="st1" d="M260.0954895,359.2501221c-1.1530151-1.3256836-3.1716614-1.4685059-4.5010529-0.3088074
					c-1.3276978,1.1575928-1.4663086,3.1715698-0.3088074,4.5010681
					c8.4053192,9.6495056,18.0206451,27.1961365,18.1169281,27.3723145c0.6182861,1.1367798,1.8279114,1.743927,3.0397339,1.6531677
					c0.4389343-0.0328064,0.8773804-0.1573486,1.2875366-0.3816528c1.5469971-0.8428345,2.1165771-2.7806702,1.2718811-4.3274841
					C278.5959473,387.0142822,268.9633789,369.429657,260.0954895,359.2501221z"/>
				<path class="st1" d="M287.679657,315.0178223l-0.5383911-1.9048462l-1.9457092-0.3648987
					c-0.1898193-0.0333862-11.1231689-5.8148193-21.0974426-22.2596741
					c-5.236145-8.6350098-10.9988403-18.2123718-11.885498-30.0126648c4.9739685-3.6059265,10.52771-6.55896,13.0149841-8.9207916
					c1.6174622-1.5370636,1.1184387-4.2298279-0.9423523-5.0851898c0,0-6.9463806-2.8832855-7.2280884-3.0001678
					c-5.2110443-2.1617432-11.45224-0.7374878-16.8680573-0.337204c-6.0722809,0.4488068-11.8379669,1.0723877-17.4776764,3.5701447
					c-11.7943268,5.2236938-19.629364,15.9642487-23.333252,30.2384796
					c-3.0376282-6.4793396-7.2332764-12.3524475-11.9855347-17.6803589
					c-4.0395966-4.5288696-8.8813324-8.5983429-14.755722-10.4503784
					c-6.8787384-2.1687317-13.1437378,0.172287-20.0320435,0.9919739c-2.5923157,0.3085175-19.739975,0.8045502-15.3871918,6.767334
					c0.729126,0.9988708,1.8609161,1.6046143,2.8874817,2.2945557c5.6463928,3.795166,1.5623627,18.8910828,0.3182678,24.4931335
					c-1.6964874,7.6386414-4.3828735,15.0457153-7.7945862,22.0818787
					c-3.4725952,7.1616516-7.6446228,14.4865723-12.9314957,20.50177l-0.6467056,0.7358093l-0.1212692,0.9692688
					c-0.3959961,3.1392822-9.587738,77.1118164,0.8007584,99.4014587c3.2199936,6.9049377,34.2523651,6.165741,54.9333954,4.6179504
					c7.3380127-0.5489807,13.37323-1.2005615,16.3993073-1.6477661c11.1093445-1.6427917,16.7785645-3.593689,19.6740112-5.5836182
					c3.2712097,1.5295715,9.6062622,2.5801392,20.848938,2.5510559c3.0587616-0.0078735,9.121582-0.2617798,16.4617767-0.8109436
					c20.6807404-1.547699,51.4774323-5.4372253,53.6342926-12.7425537
					C308.6374207,389.8442383,288.5385132,318.063446,287.679657,315.0178223z M227.2329102,254.8167877
					c3.2362366-2.4001923,11.6653748-5.3781433,15.5960388-5.8452911c1.2830658-0.15625,2.4404602-0.2495117,3.4972229-0.3044281
					c-0.4363556,1.975708-0.7519379,3.9065704-0.9146729,5.7787323c-2.1835632,3.3109741-4.3807678,6.9223633-6.5454102,10.4827576
					c-3.8017273,6.2537537-9.5004425,15.6299438-11.9309235,16.8302917
					c-2.8269958-0.6776123-8.782196-6.0284424-13.4750671-11.3196106
					C215.4335022,267.1425171,220.1789856,260.0557251,227.2329102,254.8167877z M151.9268799,255.7248688
					c0.4873657-0.0276031,0.9950714-0.04953,1.5238953-0.0648651c3.9565887-0.1230621,12.7348938,1.5671387,16.2922821,3.4586487
					c6.6468658,3.5418396,11.821228,8.6788635,14.7012329,11.9418945c0.7582092,0.8589478,0.822876,2.1115112,0.1771698,3.058075
					c-3.0432281,4.4610901-6.6025085,8.790741-9.1308594,10.7203064c-0.8688202,0.6630554-2.0856018,0.6452332-2.9502411-0.023407
					c-3.2110291-2.4833069-8.837204-9.2240295-12.7957764-13.9661255
					c-3.1555176-3.7794189-6.3662415-7.6268921-9.4701538-10.9694519
					C148.8527679,258.348877,149.8408661,255.8430481,151.9268799,255.7248688z M207.3840179,418.9757385
					c-0.586319,0.5439758-3.8203583,2.829071-18.2592163,4.8760376c-26.8135071,3.7915649-59.2150269,2.8212891-63.787529,0.1098938
					c-8.751297-19.864502-1.2282486-85.9104309-0.1920166-94.5795288
					c3.8962021-4.6948853,22.8110886-29.1238403,23.710701-61.5162964c2.0189514,2.318512,4.0497589,4.7496033,5.9898834,7.0743408
					c9.4464264,11.3147278,14.8990173,17.5445557,19.6582642,17.1885071
					c0.3626099-0.0270996,0.7241211-0.0938416,1.0809631-0.1974792
					c5.8489838-1.7202148,13.0006409-12.1034241,15.7959442-16.4717407c3.0211945,5.195282,5.3856201,11.0977783,6.1819,17.5325623
					C202.5686798,333.446228,208.2554321,409.9941711,207.3840179,418.9757385z M295.6780396,411.2148438
					c-4.1183167,3.3594055-36.012146,9.1494751-63.0934906,9.3848572
					c-14.5827484,0.1246643-18.1189117-1.6516418-18.7818756-2.1040649
					c-0.0029755-0.0120544-0.0062714-0.0282898-0.0093536-0.0406494
					c0.4953461-13.2787476-4.2484589-76.094635-8.7030792-116.0346375c-0.133728-3.5014038-0.2437286-6.8405762-0.325943-9.9672852
					c-0.169693-6.4706726,1.2936249-12.6576538,3.5124664-18.2470703
					c3.4196777,3.9087524,12.0274811,13.0971985,18.0628052,13.927063c0.3680878,0.0496216,0.7354889,0.0614929,1.1002045,0.0342712
					c4.7574463-0.355835,9.2219238-7.3279419,16.8791046-19.922821c0.4734192-0.7791138,1.051178-1.5323486,1.6826324-2.2693481
					c1.9860687,10.5511169,7.5892181,19.4918518,12.6417084,27.8228455
					c9.5228882,15.7017517,17.7638855,23.2736511,23.3943481,24.7600708
					C285.1142578,329.8622437,301.2055664,390.8938293,295.6780396,411.2148438z"/>
				<path class="st1" d="M154.6166534,365.7805786c-8.8678894,10.1795654-18.5004578,27.7641602-18.9061279,28.508606
					c-0.8448029,1.5468445-0.2752228,3.4846802,1.2717896,4.3274841c0.4101562,0.2243042,0.8486023,0.348877,1.2876434,0.3816528
					c1.2117004,0.0907593,2.4213257-0.5163879,3.0396271-1.6531372c0.0963593-0.176178,9.7116089-17.7228394,18.1169281-27.372345
					c1.1575012-1.3294983,1.0188904-3.3434448-0.3088074-4.5010376
					C157.7883148,364.3121033,155.7696686,364.454895,154.6166534,365.7805786z"/>
			</g>
			<g>
				<path class="st1" d="M158.5142365,320.8719788c0.4419403-0.1737671,1.039032-0.565094,1.3738403-1.4407959
					c0.0471344-0.1238708,0.0749359-0.2536011,0.082901-0.3857422c0.5075073-8.6077881-1.2281494-14.2402344-2.9462585-17.6167908
					l1.9364471-2.2500305c0.465744-0.5412598,0.4046631-1.3581848-0.1370239-1.8245239
					c-0.5406799-0.4654541-1.3581848-0.4045715-1.8245392,0.1371155l-1.3754272,1.5983276
					c-0.826767-1.1661682-1.4623108-1.7337341-1.5450287-1.8049011c-0.5393829-0.4642639-1.348114-0.4033508-1.8153687,0.1322327
					c-0.4675446,0.535614-0.4121399,1.3511047,0.1201782,1.8225403c0.0192413,0.0171509,0.6604614,0.6071472,1.4802551,1.8948975
					l-2.4518127,2.8489075c-0.465744,0.5411682-0.4046631,1.3578796,0.1371155,1.8242493
					c0.2702484,0.2329712,0.6100464,0.3342896,0.9402771,0.3096924c0.3302155-0.0249023,0.6511841-0.1756897,0.8841553-0.4465332
					l1.7914581-2.081604c1.3438416,3.0487976,2.5984955,7.8487854,2.2468414,14.8641357
					c-0.4243927-0.0667725-1.2108154-0.4516907-1.5354614-0.6105347c-0.1753845-0.0858154-0.337204-0.164917-0.4810028-0.2295837
					c-0.650589-0.2941589-1.4170685-0.0039062-1.7112274,0.6470032c-0.2940674,0.6508789-0.0043945,1.4170837,0.6468048,1.7112427
					c0.1216736,0.0552979,0.2594757,0.1226501,0.407959,0.1955872c0.8489838,0.4149475,1.9514771,0.9549255,3.0263824,0.8737183
					C158.017807,321.0218506,158.2685089,320.9691467,158.5142365,320.8719788z"/>
				<path class="st1" d="M156.4183655,311.254364c0.4659576-0.5411987,0.4048615-1.3580933-0.1368103-1.8244324
					c-0.5417786-0.4654541-1.3581848-0.4048767-1.8245392,0.137085l-2.3027496,2.6755371
					c-0.4656372,0.5412903-0.4045563,1.3581848,0.1371155,1.8245239c0.2709503,0.2324829,0.6101379,0.3340149,0.9402771,0.3094177
					c0.3302307-0.0246277,0.6508942-0.1756897,0.8842621-0.4465332L156.4183655,311.254364z"/>
				<path class="st1" d="M164.1880493,309.7289429l4.9964905-0.3737488l0.2036743,2.7247314l-5.8417053,0.4371643
					c-0.7125702,0.0534973-1.2470703,0.6744995-1.1938629,1.3867798c0.0534058,0.7125854,0.674408,1.2470703,1.3867798,1.1938782
					l5.8419037-0.4371643l0.1842499,2.4613953l-7.3170776,0.5473633c-0.7123718,0.0534973-1.2467804,0.6744995-1.193573,1.3867798
					c0.053421,0.7125549,0.6744232,1.2470703,1.3866882,1.1938782l17.2141266-1.288147
					c0.7125702-0.0534058,1.2470856-0.674408,1.1938629-1.3867798c-0.0535126-0.7125854-0.674408-1.2471008-1.387085-1.1938782
					l-7.3164825,0.5476685l-0.1840515-2.4613953l5.8414154-0.4372559c0.7122803-0.0531921,1.2470856-0.6741028,1.193573-1.3867798
					c-0.0531158-0.7122803-0.674408-1.2470703-1.386795-1.193573l-5.8413086,0.4369507l-0.2039642-2.7248535l4.9964905-0.3737793
					c1.3592834-0.1016235,2.3820648-1.2904053,2.280426-2.6495972l-0.6582642-8.7978516
					c-0.1018524-1.3594666-1.2902374-2.3830566-2.6495209-2.281189l-12.5733643,0.9408569
					c-1.3597717,0.101532-2.383255,1.2908325-2.2816162,2.6502991l0.6585693,8.7978516
					C161.639267,308.8077087,162.8282623,309.8308105,164.1880493,309.7289429z M175.8115692,297.6485596l0.6413269,8.567749
					l-12.3434753,0.9236145l-0.6410217-8.567749L175.8115692,297.6485596z"/>
				<path class="st1" d="M165.6302338,304.1986389l3.1505432-0.2356567l0.1059265,1.4147034
					c0.0534973,0.712677,0.6744995,1.2470703,1.3867798,1.1936646c0.7125702-0.0532227,1.2470856-0.6742249,1.1938782-1.3867798
					l-0.1059265-1.4147034l3.1511383-0.2356567c0.712265-0.0535278,1.2470703-0.67453,1.193573-1.3867798
					c-0.0531158-0.7125854-0.674118-1.2471008-1.386795-1.1938782l-3.1510315,0.2358704l-0.1059265-1.4147034
					c-0.0532074-0.7123718-0.6742096-1.2470703-1.386795-1.1936646c-0.712265,0.0531921-1.2470703,0.6741943-1.1936646,1.3867798
					l0.1060181,1.4147949l-3.1508331,0.2356567c-0.7123718,0.0534058-1.2470856,0.674408-1.1936646,1.3867798
					C164.2966614,303.7176514,164.9176636,304.2520752,165.6302338,304.1986389z"/>
				<path class="st1" d="M177.4229584,332.0480042c0.7123718-0.0535278,1.2470856-0.67453,1.1936646-1.3868103
					c-0.0532074-0.7125549-0.6742096-1.2470703-1.3867798-1.1938477l-13.7399292,1.0282593
					c-0.7122803,0.0531921-1.2467804,0.6741943-1.193573,1.3867798c0.053421,0.7122803,0.674408,1.2470703,1.386795,1.193573
					L177.4229584,332.0480042z"/>
				<path class="st1" d="M164.0007019,337.3182068l13.739624-1.0280457c0.712677-0.0534058,1.2470856-0.674408,1.1936798-1.3867798
					c-0.0532074-0.7125854-0.6742096-1.2471008-1.386795-1.193573l-13.739624,1.0279541
					c-0.7125702,0.0534973-1.2470856,0.6744995-1.1936646,1.3867798
					C162.6671295,336.8371277,163.2881317,337.3716431,164.0007019,337.3182068z"/>
				<path class="st1" d="M166.3648376,347.4281921l-3.6888428,0.2759399l-0.4573822-6.11026l17.5829163-1.3157349
					c0.7125854-0.0531006,1.2470856-0.674408,1.1938782-1.3867798c-0.053421-0.7125854-0.6744232-1.2471008-1.387085-1.193573
					l-17.5829163,1.3157349l-0.7665863-10.2460022l15.9983215-1.1973572
					c0.712677-0.0531311,1.2470856-0.6741028,1.1939697-1.3867798c-0.0535126-0.7122803-0.6744995-1.2467957-1.3867798-1.193573
					l-16.2234344,1.2140808c-1.2987976,0.097168-2.2766266,1.2330322-2.1794739,2.5318298l0.7836151,10.4709167
					l-2.8139191,0.2104492c-0.7123871,0.0534058-1.2467957,0.674408-1.1936798,1.3867798
					c0.0535126,0.7125854,0.6745148,1.2469788,1.386795,1.1938782l2.8139343-0.2107544l0.4741058,6.3356628
					c0.0970612,1.2987061,1.2330322,2.2760315,2.5318451,2.1788635l3.9139252-0.2928467
					c0.7122803-0.0532227,1.2467804-0.6742249,1.193573-1.3867798
					C167.6982117,347.9095154,167.0772095,347.3750916,166.3648376,347.4281921z"/>
				<path class="st1" d="M180.7386169,346.7325745l-1.5861816-1.3656616l1.3653564-1.5863953
					c0.4657593-0.5411682,0.4046631-1.3581848-0.1371155-1.8245239c-0.5406799-0.4653625-1.358078-0.4048767-1.8244324,0.1368103
					l-1.3647614,1.5861816l-1.58638-1.3655701c-0.5414886-0.4654541-1.35849-0.4043579-1.8250427,0.1365356
					c-0.465744,0.541687-0.4046631,1.3586731,0.1368256,1.8250122l5.1338043,4.4185486
					c0.2708435,0.2330017,0.6106415,0.3346252,0.9407654,0.3100281c0.3302307-0.0249329,0.6508942-0.1756897,0.883667-0.4465332
					C181.3413696,348.0158386,181.2802887,347.198822,180.7386169,346.7325745z"/>
			</g>
		</g>
		<g>
			<path class="st1" d="M289.1733704,85.6561432c-1.8383789-2.0246277-3.5816956-3.943428-4.3229675-4.998291
				c-0.3429871-2.0507355,2.1394043-8.5120468,3.9608459-13.2573318
				c5.4250793-14.1212769,12.8545837-33.4618645,2.0332031-50.568161
				c-4.3938293-6.946393-10.6691895-10.8694954-18.1488037-11.3469048
				c-20.5360413-1.3603806-45.274704,24.032465-57.1756439,37.8946571
				c-9.7935181-2.5933151-36.0200043-8.7453194-54.0566101-5.5666809l-3.6652222,0.6448135
				c-18.045166,3.17276-40.593689,17.8962021-48.9111252,23.6737366
				C92.9702377,53.1672401,61.0854874,37.7808456,42.2110519,46.016571
				c-6.8673744,3.0026627-11.4278164,8.8321114-13.1889782,16.8597717
				c-4.3334484,19.7712631,9.2463436,35.4154434,19.1614208,46.838974c3.3322945,3.8389969,7.872509,9.0666809,8.2483788,11.1108398
				c-0.3383026,1.2438889-1.3208199,3.6437912-2.3601379,6.1751251
				c-7.1997948,17.5696564-24.0654488,58.7151031,10.2158089,96.90979
				c33.1767731,36.9652405,81.9910507,46.7901306,120.5587234,43.9039612
				c3.218689-0.2408447,6.3638458-0.5699768,9.4261932-0.9802246c0.2665558-0.0012817,0.5395966-0.0259094,0.8117371-0.0650635
				c1.4704895-0.2181396,2.9582214-0.4607849,4.4645844-0.7340088c1.6166687-0.2727356,3.2024536-0.5684814,4.7596283-0.8850708
				c0.2789154-0.0581665,0.5502472-0.1328125,0.8099365-0.2249756
				c39.1633606-8.5648804,87.3956909-34.7911682,107.5180969-84.6904907
				C331.8308716,132.6362152,301.9370728,99.7157364,289.1733704,85.6561432z"/>
			<g>
				<path class="st0" d="M90.5893707,211.7261353c-18.3444138-21.0256195-4.6131592-46.6966705-6.7466049-66.2754211
					c-2.3291473-21.3749695-19.9292946-0.4770966-19.9292946-0.4770966
					c-7.4389496,8.9572601-34.3228111,88.2768707,76.3629761,109.8417816
					C165.6178741,259.7520142,108.935379,232.753952,90.5893707,211.7261353z"/>
				<path class="st0" d="M286.057312,105.9082031c0,0-23.6737366-13.639679-18.5709229,7.2474213
					c4.6741638,19.1319275,26.3395996,38.5782318,16.2691956,64.6008453
					c-10.0714417,26.025116-54.1425171,70.7414093-32.0056305,57.4556732
					C348.4377441,177.1790161,296.1058044,111.7898636,286.057312,105.9082031z"/>
				<path class="st0" d="M77.9241333,79.8853912c0,0-35.2824059-25.6473465-37.0773506-11.2951889
					c-1.7952385,14.3522568,7.78582,25.1718292,17.6274567,35.7703781
					C65.8003845,112.249939,69.1372604,94.3875122,77.9241333,79.8853912z"/>
				<path class="st0" d="M277.3153992,65.8757172c5.6353149-13.3203125,10.9505005-26.759304,4.3665161-39.6381798
					c-6.5836792-12.8785763-30.999588,23.2670746-30.999588,23.2670746
					C263.88974,60.1389427,273.1205444,75.7911911,277.3153992,65.8757172z"/>
				<path class="st0" d="M170.9612427,183.9142609c1.3183289,10.5653687,11.6363831,10.9103546,15.3022003,10.2658386
					c0.2667542-0.046936,0.5105896-0.1944122,0.7410736-0.3911133c0.2837982,0.1063232,0.5632019,0.1617279,0.8299561,0.1147919
					c3.6654205-0.644516,13.2469788-4.4889069,10.881546-14.8705292c-1.8600006-8.162384-9.1891327-7.682785-12.2457123-7.1050262
					c2.0046997-11.2813416,3.2160034-30.9045258,1.1117554-65.0292282
					c-1.513031-24.5299072-4.2005157-47.2821045-5.3266296-56.2341919
					c-2.1766815-0.8720093-7.7031097-1.9035568-21.3037262-0.3237534
					c-6.4080963,0.7283211-13.7939301,4.5685158-18.3122253,7.3494644
					c6.3870697,28.552948,22.045105,88.9452133,37.3369293,115.3790665
					C176.8693237,173.5896301,169.9328918,175.6710663,170.9612427,183.9142609z"/>
				<path class="st0" d="M211.1225739,201.9071198c-9.0522308-0.5928955-36.4837494,3.2050476-45.765274,7.565506
					c-4.551178,2.1401062-4.0000305,5.7186432-3.7219086,6.7642365
					c1.8922882,7.1397095,19.1137848,13.8884888,29.4221649,13.1171265c0.0267029-0.0020905,0.0557098-0.0042877,0.0828094-0.006073
					c10.9569855-0.8679352,25.2974854-14.7210541,25.2492523-22.2153015
					C216.3695831,204.1680145,214.3021088,202.1170807,211.1225739,201.9071198z M190.6655426,223.3390045
					c-0.0226135,0.0017853-0.0455322,0.0035858-0.070343,0.0054779c-8.6492615,0.6472015-21.2025909-5.2865753-22.9627533-8.2667236
					c0.0800171-0.043335,0.1740723-0.0942535,0.290863-0.1486664c7.59729-3.5719452,33.0375671-7.4542999,42.325058-7.0329895
					C209.0670624,211.8148193,198.8896179,222.686203,190.6655426,223.3390045z"/>
				
					<ellipse transform="matrix(0.9848863 -0.173202 0.173202 0.9848863 -29.0255108 26.1454029)" class="st0" cx="135.2997742" cy="179.3881989" rx="8.5072947" ry="8.5072947"/>
				
					<ellipse transform="matrix(0.9848863 -0.173202 0.173202 0.9848863 -24.6781616 42.4142799)" class="st0" cx="230.6937408" cy="162.6124268" rx="8.5072947" ry="8.5072947"/>
			</g>
		</g>
	</g>
</g>
</svg>
