<?xml version="1.0" encoding="utf-8"?>
<!-- Generator: Adobe Illustrator 21.1.0, SVG Export Plug-In . SVG Version: 6.00 Build 0)  -->
<svg version="1.1" id="圖層_1" xmlns="http://www.w3.org/2000/svg" xmlns:xlink="http://www.w3.org/1999/xlink" x="0px" y="0px"
	 viewBox="0 0 217.3249817 67.3640747" style="enable-background:new 0 0 217.3249817 67.3640747;" xml:space="preserve">
<style type="text/css">
	.st0{fill:#483D38;}
	.st1{fill:#FFFFFF;}
</style>
<g>
	<rect y="47.1190453" class="st0" width="217.3249817" height="20.2450294"/>
	<g>
		<path class="st0" d="M9.8453598,1.5670166L7.5461655,3.866333C6.4128036,1.9799805,5.5020981,1.0358887,5.3835678,0.9173584
			C4.621727,0.1554565,3.3907089,0.1547852,2.6233749,0.913269c-0.7679443,0.7571411-0.776062,1.9970093-0.0236206,2.7696533
			C2.6272202,3.7113037,3.5434189,4.6897583,4.6523666,6.760376l-4.0780029,4.0783081
			c-0.7659302,0.7659302-0.7659302,2.0084229,0.0006714,2.7750244c0.3826294,0.3826294,0.8849487,0.574646,1.387207,0.574646
			s1.0045776-0.1920166,1.3878784-0.5753174l2.9926147-2.9928589c1.7096558,4.8122559,3.0854492,12.300354,1.739563,23.0038452
			c-0.638855-0.1426392-1.8171387-0.8328857-2.3012085-1.1168213c-0.2555542-0.149353-0.4921265-0.2879639-0.7023926-0.4028931
			c-0.9525146-0.5198364-2.1436768-0.1690063-2.6628418,0.7821655s-0.1690063,2.1436768,0.7821655,2.6628418
			c0.1791382,0.0980225,0.3812866,0.2163696,0.598938,0.3441162c1.246582,0.7307739,2.8676758,1.680603,4.5144653,1.680603
			c0.385376,0,0.7713623-0.052063,1.1546631-0.1703491c0.6915894-0.2142944,1.6434326-0.7409668,2.2518311-2.0335083
			c0.0858765-0.1811523,0.1426392-0.3751831,0.1696777-0.5739136C13.6471786,21.7067871,11.637352,12.9104004,9.399498,7.5632324
			l3.2216187-3.2218628c0.7659302-0.7659302,0.7659302-2.0084229-0.0006714-2.7750244
			C11.8551865,0.8010864,10.6119614,0.800415,9.8453598,1.5670166z"/>
		<path class="st0" d="M7.3589096,22.4858398c0.7666626-0.7666016,0.7666626-2.0090942,0-2.7750854
			c-0.7652588-0.7666016-2.0084229-0.7666016-2.7750244,0l-3.8202515,3.8202515
			c-0.7666016,0.7666016-0.7666016,2.0091553,0,2.7750854c0.3826294,0.3833008,0.8849487,0.5752563,1.387207,0.5752563
			c0.5023193,0,1.0045776-0.1919556,1.3878784-0.5752563L7.3589096,22.4858398z"/>
		<path class="st0" d="M42.2714462,32.9973145H31.02108v-3.8140869h8.9857178c1.0836792,0,1.9624634-0.8788452,1.9624634-1.9625244
			c0-1.0836182-0.8787842-1.9624634-1.9624634-1.9624634H31.02108V21.039856h7.6884155
			c2.0767822,0,3.7661133-1.6900635,3.7661133-3.7667847V3.7667847C42.4756088,1.6900635,40.7862778,0,38.7094955,0H19.4070053
			c-2.0767212,0-3.7667847,1.6900635-3.7667847,3.7667847v13.5062866c0,2.0767212,1.6900635,3.7667847,3.7667847,3.7667847
			h7.6890869v4.2183838h-8.9856567c-1.0836792,0-1.9625244,0.8788452-1.9625244,1.9624634
			c0,1.0836792,0.8788452,1.9625244,1.9625244,1.9625244h8.9856567v3.8140869H15.8450546
			c-1.0836792,0-1.9625244,0.8788452-1.9625244,1.9625244s0.8788452,1.9625244,1.9625244,1.9625244h26.4263916
			c1.0836792,0,1.9625244-0.8788452,1.9625244-1.9625244S43.3551254,32.9973145,42.2714462,32.9973145z M19.5652084,3.9249878
			H38.550621v13.1898804H19.5652084V3.9249878z"/>
		<path class="st0" d="M35.5862656,8.8369751H31.02108V7.0759277c0-1.0836792-0.8787842-1.9625244-1.9624634-1.9625244
			s-1.9625244,0.8788452-1.9625244,1.9625244v1.7610474h-4.5645142c-1.0836182,0-1.9624634,0.8787842-1.9624634,1.9624634
			s0.8788452,1.9625244,1.9624634,1.9625244h4.5645142v1.7610474c0,1.0836182,0.8788452,1.9624634,1.9625244,1.9624634
			s1.9624634-0.8788452,1.9624634-1.9624634v-1.7610474h4.5651855c1.0836792,0,1.9625244-0.8788452,1.9625244-1.9625244
			S36.6699448,8.8369751,35.5862656,8.8369751z"/>
		<path class="st0" d="M79.4067612,6.8548584H58.3148422c-1.0836792,0-1.9624634,0.8788452-1.9624634,1.9624634
			c0,1.0836792,0.8787842,1.9625244,1.9624634,1.9625244h21.0919189c1.0836792,0,1.9625244-0.8788452,1.9625244-1.9625244
			C81.3692856,7.7337036,80.4904404,6.8548584,79.4067612,6.8548584z"/>
		<path class="st0" d="M79.4067612,13.3670044H58.3148422c-1.0836792,0-1.9624634,0.8787842-1.9624634,1.9624634
			s0.8787842,1.9625244,1.9624634,1.9625244h21.0919189c1.0836792,0,1.9625244-0.8788452,1.9625244-1.9625244
			S80.4904404,13.3670044,79.4067612,13.3670044z"/>
		<path class="st0" d="M82.0980453,19.6904907H55.0868149V3.9249878h24.5788574
			c1.0836792,0,1.9625244-0.8788452,1.9625244-1.9625244S80.7493515,0,79.6656723,0H54.7610092
			c-1.9841309,0-3.5991821,1.6143188-3.5991821,3.5984497v16.092041h-4.3366699
			c-1.0836792,0-1.9624634,0.8788452-1.9624634,1.9625244c0,1.0836182,0.8787842,1.9624634,1.9624634,1.9624634h4.3366699v9.7442017
			c0,1.9834595,1.6150513,3.5977783,3.5991821,3.5977783h6.0078125c1.0836792,0,1.9624634-0.8787842,1.9624634-1.9624634
			s-0.8787842-1.9625244-1.9624634-1.9625244h-5.6820068v-9.4169922h27.0112305
			c1.0836182,0,1.9624634-0.8788452,1.9624634-1.9624634C84.0605087,20.5693359,83.1816635,19.6904907,82.0980453,19.6904907z"/>
		<path class="st0" d="M80.4996567,31.3277588l2.2784424-2.2783813c0.7666016-0.7659302,0.7666016-2.0084839,0-2.7750854
			c-0.7652588-0.7652588-2.0084839-0.7652588-2.7750854,0l-2.2782593,2.2783203l-2.2774658-2.2776489
			c-0.7666016-0.7666016-2.0098267-0.7659302-2.7750854-0.0006714c-0.7666016,0.7666016-0.7666016,2.0091553-0.0006714,2.7750854
			l7.3321533,7.3328247c0.3833008,0.3833008,0.8856201,0.5752563,1.3878784,0.5752563
			c0.5023193,0,1.0045776-0.1919556,1.387207-0.574585c0.7666016-0.7666016,0.7666016-2.0091553,0.0006714-2.7750854
			L80.4996567,31.3277588z"/>
		<path class="st0" d="M89.5856552,8.5935669c-0.9173584,0.5773315-1.1931763,1.7887573-0.6158447,2.7061157l1.1120605,1.7678223
			c0.3731689,0.5922241,1.0106201,0.9173584,1.6630249,0.9173584c0.3569336,0,0.7185669-0.0973511,1.0430908-0.3015137
			c0.9173584-0.5773315,1.1931763-1.7887573,0.6158447-2.7061157l-1.1120605-1.7678223
			C91.7144394,8.2927246,90.5030136,8.0162354,89.5856552,8.5935669z"/>
		<path class="st0" d="M88.4215317,6.8163452h12.9992676c1.0836792,0,1.9624634-0.8788452,1.9624634-1.9625244
			s-0.8787842-1.9624634-1.9624634-1.9624634h-4.5368042v-0.928894C96.8839951,0.8787842,96.0051498,0,94.9215317,0
			c-1.0836792,0-1.9625244,0.8787842-1.9625244,1.9624634v0.928894h-4.5374756
			c-1.0836792,0-1.9624634,0.8787842-1.9624634,1.9624634S87.3378525,6.8163452,88.4215317,6.8163452z"/>
		<path class="st0" d="M103.3832626,25.8883057c0-1.0836792-0.8787842-1.9625244-1.9624634-1.9625244h-4.1251221
			c0.081604-1.0581055,0.1386719-2.0709229,0.1765747-3.0116577h3.9485474c1.0836792,0,1.9624634-0.8788452,1.9624634-1.9625244
			s-0.8787842-1.9624634-1.9624634-1.9624634h-3.8752441c-0.001709-0.3956909-0.005188-0.750061-0.0098877-1.0133667
			l3.3517456-4.8788452c0.6131592-0.8937378,0.3866577-2.1152954-0.5063477-2.729126
			c-0.8950806-0.614502-2.1152954-0.3859863-2.729126,0.5063477l-3.7113647,5.402771
			c-0.2372437,0.3461304-0.357605,0.7591553-0.3433838,1.1789551c0.0008545,0.0258789,0.0186768,0.5964966,0.0216064,1.5332642
			h-5.1972656c-1.0836792,0-1.9624634,0.8787842-1.9624634,1.9624634s0.8787842,1.9625244,1.9624634,1.9625244h5.1208496
			c-0.0392456,0.9436035-0.0966797,1.9595947-0.1809692,3.0116577h-4.9398804c-1.0836792,0-1.9624634,0.8788452-1.9624634,1.9625244
			c0,1.0836182,0.8787842,1.9624634,1.9624634,1.9624634h4.4996948c-0.338623,2.276123-0.836731,4.484436-1.5684204,6.2410278
			c-0.4171143,0.9998779,0.0560913,2.1491089,1.0565796,2.5655518c0.2467651,0.1027222,0.5023193,0.1514282,0.7537842,0.1514282
			c0.7686157,0,1.4980469-0.4542847,1.8117676-1.2080688c0.9261475-2.2223511,1.519165-4.9854736,1.9025269-7.749939h4.543335
			C102.5044785,27.850769,103.3832626,26.9719238,103.3832626,25.8883057z"/>
		<path class="st0" d="M114.2456284,8.1034546h-4.7659912V3.437561c0-1.0836792-0.8787842-1.9625244-1.9624634-1.9625244
			s-1.9625244,0.8788452-1.9625244,1.9625244v4.6658936h-1.3885498c-1.0836182,0-1.9624634,0.8788452-1.9624634,1.9625244
			c0,1.0836182,0.8788452,1.9624634,1.9624634,1.9624634h1.3885498v4.7578735
			c-0.0432129,0.7767334-0.6658325,11.1219482-3.2415161,17.305481c-0.4171143,0.9998779,0.0560913,2.1491089,1.0566406,2.5655518
			c0.2467651,0.1027222,0.5022583,0.1514282,0.7537842,0.1514282c0.7686157,0,1.4980469-0.4542847,1.8117065-1.2080688
			c2.9291992-7.0299683,3.5180054-18.1917725,3.541687-18.6636353c0.0013428-0.0324707,0.0026855-0.0656128,0.0026855-0.0980225
			v-4.8106079h2.8034668v20.437561h-1.7265625c-1.0836182,0-1.9624634,0.8788452-1.9624634,1.9624634
			c0,1.0836792,0.8788452,1.9625244,1.9624634,1.9625244h2.0524292c1.9841309,0,3.5991821-1.6143799,3.5991821-3.5985107V10.5371704
			c0-0.0806885-0.0142822-0.1574707-0.0237427-0.2355957c0.0094604-0.078125,0.0237427-0.1549072,0.0237427-0.2355957
			C116.2081528,8.9822998,115.3293076,8.1034546,114.2456284,8.1034546z"/>
		<path class="st0" d="M118.7661972,13.0668335c0.3724976,0.5928955,1.0106812,0.9180298,1.6630249,0.9180298
			c0.3569336,0,0.7178955-0.0973511,1.0424194-0.3015137c0.9173584-0.5766602,1.1938477-1.7880859,0.6165161-2.7054443
			l-1.1113892-1.7677612c-0.5765991-0.9174194-1.7880859-1.1939087-2.7054443-0.6165771
			c-0.9173584,0.5766602-1.1938477,1.7880859-0.6165161,2.7054443L118.7661972,13.0668335z"/>
		<path class="st0" d="M130.1058044,2.8913574h-4.5374832v-0.928894C125.5683212,0.8787842,124.689537,0,123.6058578,0
			s-1.9625244,0.8787842-1.9625244,1.9624634v0.928894h-4.5374756c-1.0836182,0-1.9624634,0.8787842-1.9624634,1.9624634
			s0.8788452,1.9625244,1.9624634,1.9625244h12.9999466c1.0836792,0,1.9625244-0.8788452,1.9625244-1.9625244
			S131.1894836,2.8913574,130.1058044,2.8913574z"/>
		<path class="st0" d="M129.8238831,20.9141235c1.0836792,0,1.9625244-0.8788452,1.9625244-1.9625244
			s-0.8788452-1.9624634-1.9625244-1.9624634h-3.618721v-0.9917603l3.3665848-4.9004517
			c0.6131592-0.8937378,0.3867188-2.1152954-0.5063477-2.729126c-0.8956909-0.614502-2.1159744-0.3859863-2.7290726,0.5063477
			l-3.7113647,5.402771c-0.2244873,0.3272095-0.3447876,0.7145386-0.3447876,1.1113892v1.6008301h-3.3693237
			c-1.0836792,0-1.9624634,0.8787842-1.9624634,1.9624634s0.8787842,1.9625244,1.9624634,1.9625244h3.3693237v3.0116577h-3.3693237
			c-1.0836792,0-1.9624634,0.8788452-1.9624634,1.9625244c0,1.0836182,0.8787842,1.9624634,1.9624634,1.9624634h3.3693237v7.1090698
			c0,1.0836792,0.8788452,1.9625244,1.9624634,1.9625244c1.0836792,0,1.9625244-0.8788452,1.9625244-1.9625244V27.850769h3.618721
			c1.0836792,0,1.9625244-0.8788452,1.9625244-1.9624634c0-1.0836792-0.8788452-1.9625244-1.9625244-1.9625244h-3.618721v-3.0116577
			H129.8238831z"/>
		<path class="st0" d="M137.2953186,18.7650146l9.7002563-14.1221313c0.6131592-0.8930054,0.3866577-2.114563-0.5063477-2.7283936
			c-0.8950195-0.6138306-2.1152954-0.3867188-2.729126,0.5063477l-9.7002563,14.1213989
			c-0.6130981,0.8937378-0.3866577,2.1152954,0.5063477,2.729126c0.3400879,0.2332153,0.7267456,0.3447876,1.109375,0.3447876
			C136.3002014,19.6161499,136.9147034,19.3186646,137.2953186,18.7650146z"/>
		<path class="st0" d="M165.8160706,2.4208374c-0.366394-0.5327148-0.9714355-0.8511353-1.6177368-0.8511353h-11.9602051
			c-1.0836792,0-1.9624634,0.8788452-1.9624634,1.9625244c0,1.0836182,0.8787842,1.9624634,1.9624634,1.9624634h10.9272461
			l9.1154785,13.2703247c0.3806152,0.5536499,0.9951172,0.8511353,1.619751,0.8511353
			c0.3826294,0,0.7693481-0.1115723,1.1087036-0.3447876c0.8936768-0.6138306,1.1201782-1.8353882,0.507019-2.729126
			L165.8160706,2.4208374z"/>
		<path class="st0" d="M162.1330872,32.4301758h-19.8652344l10.3225098-15.0280151
			c0.6131592-0.8930054,0.3866577-2.114624-0.507019-2.7284546c-0.8937378-0.614502-2.114624-0.3866577-2.7284546,0.507019
			l-12.4334106,18.1011963c-0.0012817,0.0018311-0.0018921,0.0039062-0.0031738,0.0057373
			c-0.1442261,0.2111206-0.2490234,0.4514771-0.3018799,0.7108154c-0.026123,0.1276855-0.0384521,0.2568359-0.0388794,0.3856812
			c0,0.0029297-0.0008545,0.0055542-0.0008545,0.0084839c0,0.0443115,0.0101929,0.0858154,0.0130615,0.1293945
			c0.0054932,0.0817871,0.0089722,0.1636353,0.0245972,0.2440796c0.0128174,0.0661621,0.0355835,0.1280518,0.0548706,0.1917114
			c0.0175171,0.0582275,0.0310059,0.1171875,0.0539551,0.173645c0.0252686,0.0620728,0.0592651,0.1186523,0.0905151,0.1773682
			c0.0285645,0.0539551,0.0534668,0.1092529,0.0872192,0.1607056c0.0371704,0.0563965,0.0822144,0.1060791,0.1248169,0.1582031
			c0.0379639,0.0465088,0.0717163,0.0952148,0.1143188,0.1385498c0.0650635,0.0662842,0.1384888,0.1231689,0.2123413,0.1796875
			c0.0266724,0.0203857,0.0480957,0.045166,0.0761108,0.0643921c0.0014648,0.0010376,0.0031738,0.0012817,0.0046387,0.0022583
			c0.1449585,0.0991821,0.3068237,0.1721191,0.4760742,0.2298584c0.0397339,0.0135498,0.0783691,0.0259399,0.1186523,0.0368042
			c0.1620483,0.0439453,0.3293457,0.074707,0.505127,0.0752563c0.0014038,0,0.0028076,0.0006104,0.0042114,0.0006104
			c0.0003052,0,0.0006104-0.0001221,0.0009155-0.0001221c0.0003662,0,0.0007324,0.0001221,0.0010986,0.0001221h23.5938721
			c1.0836792,0,1.9624634-0.8788452,1.9624634-1.9625244S163.2167664,32.4301758,162.1330872,32.4301758z"/>
		<path class="st0" d="M164.4024963,21.751709c-0.6138306-0.8937378-1.833374-1.121521-2.7284546-0.507019
			c-0.8936768,0.6138306-1.1201172,1.8353882-0.507019,2.7283936l8.5030518,12.3807373
			c0.3806152,0.5543213,0.9944458,0.8517456,1.619751,0.8517456c0.3826294,0,0.7692871-0.1115112,1.1086426-0.3447266
			c0.8937378-0.6138306,1.1201782-1.8354492,0.507019-2.7284546L164.4024963,21.751709z"/>
		<path class="st0" d="M213.7257996,2.8913574h-15.1956177v-0.928894C198.5301819,0.8787842,197.6513367,0,196.5676575,0
			c-1.0836182,0-1.9624634,0.8787842-1.9624634,1.9624634v0.928894H179.408844
			c-2.0179443,0-3.5991211,1.3668823-3.5991211,3.1123657v4.5334473c0,1.0836182,0.8788452,1.9624634,1.9624634,1.9624634
			c1.0836792,0,1.9625244-0.8788452,1.9625244-1.9624634V6.8163452h33.6652832v3.7208252
			c0,1.0836182,0.8787842,1.9624634,1.9624634,1.9624634s1.9625244-0.8788452,1.9625244-1.9624634V6.0037231
			C217.3249817,4.2582397,215.7437439,2.8913574,213.7257996,2.8913574z"/>
		<path class="st0" d="M214.9136047,33.0324707h-16.3834229V29.711853h12.1359863
			c1.0836182,0,1.9624634-0.8787842,1.9624634-1.9624634s-0.8788452-1.9625244-1.9624634-1.9625244h-12.1359863v-3.5065308
			h6.6608276c1.0836792,0,1.9625244-0.8788452,1.9625244-1.9624634c0-1.0836792-0.8788452-1.9625244-1.9625244-1.9625244
			h-16.7684326l3.4095459-4.9640503c0.0139771-0.0203247,0.0216675-0.0428467,0.03479-0.0635376h18.4443359
			c1.0836182,0,1.9624634-0.8788452,1.9624634-1.9624634c0-1.0836792-0.8788452-1.9625244-1.9624634-1.9625244h-27.487793
			c-1.0836792,0-1.9625244,0.8788452-1.9625244,1.9625244c0,1.0836182,0.8788452,1.9624634,1.9625244,1.9624634h4.2911377
			l-4.0383301,5.8793945c-0.0013428,0.0018921-0.0020142,0.0040894-0.0032959,0.0059814
			c-0.144165,0.2110596-0.2487793,0.4510498-0.3016968,0.7102661c-0.0261841,0.1279297-0.0384521,0.2573242-0.0388794,0.3862915
			c0,0.0028076-0.0008545,0.0053711-0.0008545,0.0081787c0,0.0427246,0.0098877,0.0827026,0.0125732,0.1247559
			c0.0054321,0.0834961,0.0091553,0.1670532,0.0250854,0.2490845c0.0125732,0.0651855,0.0352173,0.1260376,0.0541382,0.1887817
			c0.0177612,0.0591431,0.0314941,0.1190796,0.0547485,0.1764526c0.0250244,0.0613403,0.0586548,0.1173096,0.0894775,0.175354
			c0.0288696,0.0546875,0.0541382,0.1105957,0.0883179,0.1626587c0.0369263,0.0559692,0.081604,0.1052856,0.1239014,0.1570435
			c0.038147,0.0467529,0.0721436,0.0958862,0.1150513,0.1394653c0.0650635,0.0662842,0.1384888,0.1231689,0.2123413,0.1796875
			c0.0266724,0.0203857,0.0480957,0.045166,0.0761108,0.0643921c0.0014648,0.0010376,0.0032349,0.0012207,0.0046997,0.0022583
			c0.1447754,0.0991211,0.3065186,0.1719971,0.475708,0.2297363c0.039978,0.0136108,0.0788574,0.026123,0.1193237,0.0370483
			c0.1619873,0.0438843,0.3291016,0.074585,0.5047607,0.0751343c0.0014038,0,0.0028076,0.0006104,0.0042114,0.0006104
			c0.0003052,0,0.0006104-0.0001221,0.0009155-0.0001221c0.0003662,0,0.0007324,0.0001221,0.0010986,0.0001221h9.9111938v3.5065308
			h-12.1359863c-1.0836792,0-1.9624634,0.8788452-1.9624634,1.9625244s0.8787842,1.9624634,1.9624634,1.9624634h12.1359863
			v3.3206177h-16.3840942c-1.0836792,0-1.9625244,0.8788452-1.9625244,1.9625244s0.8788452,1.9624634,1.9625244,1.9624634
			h36.6925049c1.0836792,0,1.9624634-0.8787842,1.9624634-1.9624634S215.9972839,33.0324707,214.9136047,33.0324707z"/>
		<path class="st0" d="M208.103363,14.756897c-0.8937378,0.6138306-1.1201782,1.8353882-0.507019,2.7283936l5.3466187,7.7837524
			c0.3806152,0.5543213,0.9951172,0.8518066,1.619751,0.8518066c0.3826294,0,0.7693481-0.1115723,1.1087036-0.3447876
			c0.8936768-0.6138306,1.1201782-1.8353882,0.507019-2.7284546l-5.3466797-7.7836914
			C210.217926,14.3695068,208.9963684,14.1430664,208.103363,14.756897z"/>
	</g>
	<g>
		<path class="st1" d="M55.230957,60.5863037h-4.5683746c-0.0084038,0-0.0163841-0.0004234-0.0237579-0.0008507v-7.8093452
			c0-0.6740036-0.5463753-1.2205925-1.2203789-1.2205925c-0.6740379,0-1.2204132,0.5465889-1.2204132,1.2205925v7.9825821
			c0,1.2508736,1.1056213,2.2688293,2.46455,2.2688293h4.5683746c0.6740074,0,1.2204132-0.5466194,1.2204132-1.220623
			S55.9049644,60.5863037,55.230957,60.5863037z"/>
		<path class="st1" d="M64.9719543,52.0545845c-0.2248688-0.4749527-0.7167358-0.7333336-1.2106934-0.6896439
			c-0.4943504-0.0436897-0.9850807,0.2146912-1.2099495,0.6896439l-4.3715935,9.2300873
			c-0.2884178,0.60886-0.0285835,1.3366966,0.5806656,1.6251144c0.1688385,0.079895,0.3464699,0.117733,0.5215836,0.117733
			c0.4570465,0,0.8951874-0.25774,1.1039543-0.6983986l0.955864-2.018219h4.839695l0.955864,2.018219
			c0.2087708,0.4406586,0.6469116,0.6983986,1.1039581,0.6983986c0.1751099,0,0.3529587-0.037838,0.5215836-0.117733
			c0.6092453-0.2884178,0.8690796-1.0162544,0.5806656-1.6251144L64.9719543,52.0545845z M62.4980431,57.869648l1.263607-2.6679268
			l1.2635727,2.6679268H62.4980431z"/>
		<path class="st1" d="M122.1564331,52.0545845c-0.2246857-0.4749527-0.7164841-0.7333336-1.2104111-0.6896439
			c-0.494278-0.0436897-0.9851532,0.2146912-1.2099838,0.6896439l-4.3715973,9.2300873
			c-0.2884521,0.60886-0.0286179,1.3366966,0.5806732,1.6251144c0.1688004,0.079895,0.3464279,0.117733,0.5215836,0.117733
			c0.4570389,0,0.8951492-0.25774,1.10392-0.6983986l0.9572067-2.0210915
			c0.0097504,0.0002136,0.0187912,0.0028725,0.0285797,0.0028725h4.8099518l0.9559326,2.018219
			c0.208519,0.4406586,0.6466599,0.6983986,1.1036987,0.6983986c0.1749039,0,0.3527832-0.037838,0.5213776-0.117733
			c0.6092834-0.2884178,0.869545-1.0162544,0.5806656-1.6251144L122.1564331,52.0545845z M119.6826324,57.869648
			l1.2636414-2.6682129l1.2637863,2.6682129H119.6826324z"/>
		<path class="st1" d="M78.0867691,53.9967346c0.6740036,0,1.2203827-0.5466232,1.2203827-1.2206268
			s-0.5463791-1.2205925-1.2203827-1.2205925h-5.7763748c-0.6740036,0-1.2204132,0.5465889-1.2204132,1.2205925
			s0.5464096,1.2206268,1.2204132,1.2206268h1.667778v6.5895691h-1.667778c-0.6740036,0-1.2204132,0.5465889-1.2204132,1.2205925
			s0.5464096,1.220623,1.2204132,1.220623h5.7763748c0.6740036,0,1.2203827-0.5466194,1.2203827-1.220623
			s-0.5463791-1.2205925-1.2203827-1.2205925h-1.6677704v-6.5895691H78.0867691z"/>
		<path class="st1" d="M98.6106644,51.5555153h-2.6847076c-1.3589249,0-2.4645462,1.0175323-2.4645462,2.2684097v7.9829712
			c0,0.6740036,0.5463715,1.220623,1.2204132,1.220623c0.6740036,0,1.2203751-0.5466194,1.2203751-1.220623v-2.1076889
			c0.0080872,0.0001411,0.0156403,0.0024109,0.0237579,0.0024109h2.6847076c2.2459183,0,4.0728531-1.8273239,4.0728531-4.0730705
			C102.6835175,53.3828392,100.8565826,51.5555153,98.6106644,51.5555153z M98.6106644,57.2603989h-2.6847076
			c-0.0081177,0-0.0156708,0.0022697-0.0237579,0.0024147v-3.2652283c0.0073776-0.0004272,0.015358-0.0008507,0.0237579-0.0008507
			h2.6847076c0.8997955,0,1.6320267,0.7320213,1.6320267,1.631813
			C100.242691,56.5283813,99.5104599,57.2603989,98.6106644,57.2603989z"/>
		<path class="st1" d="M113.0106049,51.4491272c-0.6740036,0-1.2204132,0.5465889-1.2204132,1.2206268v3.3717232h-4.5616302
			V52.669754c0-0.6740379-0.5463791-1.2206268-1.2204132-1.2206268c-0.6740036,0-1.2203827,0.5465889-1.2203827,1.2206268v9.1850853
			c0,0.6740036,0.5463791,1.2206268,1.2203827,1.2206268c0.6740341,0,1.2204132-0.5466232,1.2204132-1.2206268v-3.3721466h4.5616302
			v3.3721466c0,0.6740036,0.5464096,1.2206268,1.2204132,1.2206268s1.2204132-0.5466232,1.2204132-1.2206268V52.669754
			C114.2310181,51.9957161,113.6846085,51.4491272,113.0106049,51.4491272z"/>
		<path class="st1" d="M159.0722504,51.4062195h-7.6302185c-0.6740112,0-1.2205963,0.5466232-1.2205963,1.2206268
			s0.5465851,1.220623,1.2205963,1.220623h2.594696v8.00737c0,0.6740036,0.5466156,1.2206268,1.2206268,1.2206268
			c0.673996,0,1.2206268-0.5466232,1.2206268-1.2206268v-8.00737h2.5942688c0.673996,0,1.2206268-0.5466194,1.2206268-1.220623
			S159.7462463,51.4062195,159.0722504,51.4062195z"/>
		<path class="st1" d="M136.492691,51.4327087c-0.673996,0-1.2205963,0.5466232-1.2205963,1.2206268v5.1393585
			c0,1.5931625-1.2959137,2.8890419-2.8890381,2.8890419c-1.5927277,0-2.8886108-1.2958794-2.8886108-2.8890419v-5.1393585
			c0-0.6740036-0.5466156-1.2206268-1.2206268-1.2206268c-0.6740036,0-1.2205887,0.5466232-1.2205887,1.2206268v5.1393585
			c0,2.9390793,2.3911819,5.3302574,5.3298264,5.3302574c2.9390411,0,5.3302612-2.3911781,5.3302612-5.3302574v-5.1393585
			C137.7133179,51.979332,137.1667023,51.4327087,136.492691,51.4327087z"/>
		<path class="st1" d="M87.9271698,56.0709114h-2.5833511c-0.6740036,0-1.2203751,0.5465851-1.2203751,1.2205887
			s0.5463715,1.2206268,1.2203751,1.2206268h2.5833511c0.6740417,0,1.2204132-0.5466232,1.2204132-1.2206268
			S88.6012115,56.0709114,87.9271698,56.0709114z"/>
		<path class="st1" d="M145.1118622,56.0709114h-2.5833435c-0.6740112,0-1.2205963,0.5465851-1.2205963,1.2205887
			s0.5465851,1.2206268,1.2205963,1.2206268h2.5833435c0.6740417,0,1.2206268-0.5466232,1.2206268-1.2206268
			S145.7859039,56.0709114,145.1118622,56.0709114z"/>
		<path class="st1" d="M169.8147888,60.5863037h-4.9972687c-0.0084076,0-0.0163727-0.0004234-0.0235443-0.0008507v-6.5878677
			c0.0071716-0.0004272,0.0151367-0.0008507,0.0235443-0.0008507h4.9972687c0.673996,0,1.2206268-0.5466232,1.2206268-1.2206268
			s-0.5466309-1.2205925-1.2206268-1.2205925h-4.9972687c-1.3589325,0-2.4647522,1.0179214-2.4647522,2.2688332v6.9343414
			c0,1.2508736,1.1058197,2.2688293,2.4647522,2.2688293h4.9972687c0.673996,0,1.2206268-0.5466194,1.2206268-1.220623
			S170.4887848,60.5863037,169.8147888,60.5863037z"/>
		<path class="st1" d="M167.0750122,56.0709114c-0.6740112,0-1.2205963,0.5465851-1.2205963,1.2205887
			s0.5465851,1.2206268,1.2205963,1.2206268h2.3470612c0.673996,0,1.2206268-0.5466232,1.2206268-1.2206268
			s-0.5466309-1.2205887-1.2206268-1.2205887H167.0750122z"/>
	</g>
</g>
</svg>
