<?xml version="1.0" encoding="utf-8"?>
<!-- Generator: Adobe Illustrator 16.0.0, SVG Export Plug-In . SVG Version: 6.00 Build 0)  -->
<!DOCTYPE svg PUBLIC "-//W3C//DTD SVG 1.1//EN" "http://www.w3.org/Graphics/SVG/1.1/DTD/svg11.dtd">
<svg version="1.1" id="圖層_1" xmlns="http://www.w3.org/2000/svg" xmlns:xlink="http://www.w3.org/1999/xlink" x="0px" y="0px"
	 width="1024px" height="1024px" viewBox="0 0 1024 1024" enable-background="new 0 0 1024 1024" xml:space="preserve">
<title></title>
<g id="icomoon-ignore">
</g>
<path fill="#FFFFFF" d="M1023.919,511.962C1023.919,229.214,794.709,0,511.962,0S0,229.214,0,511.962
	c0,255.534,187.217,467.332,431.966,505.74V659.951H301.978V511.963h129.988V399.169c0-128.312,76.434-199.186,193.374-199.186
	c56.013,0,114.603,10.001,114.603,10.001v125.99h-64.555c-63.599,0-83.435,39.462-83.435,79.949v96.038h141.989L711.244,659.95
	H591.952v357.751C836.705,979.293,1023.918,767.495,1023.919,511.962L1023.919,511.962z"/>
</svg>
