<?xml version="1.0" encoding="utf-8"?>
<!-- Generator: Adobe Illustrator 21.1.0, SVG Export Plug-In . SVG Version: 6.00 Build 0)  -->
<svg version="1.1" id="圖層_1" xmlns="http://www.w3.org/2000/svg" xmlns:xlink="http://www.w3.org/1999/xlink" x="0px" y="0px"
	 viewBox="0 0 51.5485611 51.5488014" style="enable-background:new 0 0 51.5485611 51.5488014;" xml:space="preserve">
<style type="text/css">
	.st0{fill:#483D38;}
	.st1{fill:#FFFFFF;}
	.st2{fill:none;stroke:#FFFFFF;stroke-width:4;stroke-linecap:round;stroke-linejoin:round;stroke-miterlimit:10;}
</style>
<g>
	<path class="st0" d="M25.7742805,50.0490341c-13.3847647,0-24.2744141-10.8896484-24.2744141-24.2744141
		S12.3895159,1.5002062,25.7742805,1.5002062s24.2744141,10.8896484,24.2744141,24.2744141
		S39.1590462,50.0490341,25.7742805,50.0490341z"/>
	<path class="st1" d="M25.7742805,2.9999926c12.5578003,0,22.774292,10.2165833,22.774292,22.7745056
		c0,12.5578003-10.2164917,22.774292-22.774292,22.774292S2.9999895,38.3322983,2.9999895,25.774498
		C2.9999895,13.2165756,13.2164812,2.9999926,25.7742805,2.9999926 M25.7742805-0.0000074
		c-14.2346792,0-25.774292,11.5396118-25.774292,25.7745056c0,14.2346802,11.5396118,25.774292,25.774292,25.774292
		c14.2348938,0,25.774292-11.5396118,25.774292-25.774292C51.5485725,11.5396042,40.0091743-0.0000074,25.7742805-0.0000074
		L25.7742805-0.0000074z"/>
</g>
<polyline class="st2" points="23.8885288,18.0028934 31.6600342,25.7744007 23.8885288,33.5459061 "/>
</svg>
