<?xml version="1.0" encoding="utf-8"?>
<!-- Generator: Adobe Illustrator 21.1.0, SVG Export Plug-In . SVG Version: 6.00 Build 0)  -->
<svg version="1.1" id="圖層_1" xmlns="http://www.w3.org/2000/svg" xmlns:xlink="http://www.w3.org/1999/xlink" x="0px" y="0px"
	 viewBox="0 0 117.862999 56.8289795" style="enable-background:new 0 0 117.862999 56.8289795;" xml:space="preserve">
<style type="text/css">
	.st0{fill:#493C37;}
</style>
<path class="st0" d="M7.8203955,56.8286743l44.4295044-36.9486694c1.8596191,1.4141846,4.1704712,2.2640991,6.6817017,2.2640991
	s4.8221436-0.8499146,6.6817627-2.2640991l44.4294434,36.9486694h7.8201904v0.0003052l0.0002441-0.0003052L68.8136215,16.0383301
	c0.7549438-1.4958487,1.1902466-3.1795645,1.1902466-4.9664907c0-6.1049809-4.9667969-11.0717773-11.0722656-11.0717773
	S47.8593369,4.9668584,47.8593369,11.0718393c0,1.7869263,0.4353027,3.4706421,1.1902466,4.9665518L-0.0000393,56.8286743H7.8203955
	z M58.9316025,5.0000615c3.3486328,0,6.0722656,2.7236328,6.0722656,6.0717778s-2.7236328,6.0722647-6.0722656,6.0722647
	c-3.3481445,0-6.0722656-2.7241201-6.0722656-6.0722647S55.5834579,5.0000615,58.9316025,5.0000615z"/>
</svg>
