<?xml version="1.0" encoding="utf-8"?>
<!-- Generator: Adobe Illustrator 21.1.0, SVG Export Plug-In . SVG Version: 6.00 Build 0)  -->
<svg version="1.1" id="圖層_1" xmlns="http://www.w3.org/2000/svg" xmlns:xlink="http://www.w3.org/1999/xlink" x="0px" y="0px"
	 viewBox="0 0 51.5485611 51.5488014" style="enable-background:new 0 0 51.5485611 51.5488014;" xml:space="preserve">
<style type="text/css">
	.st0{fill:#FFFFFF;}
	.st1{fill:#EAC960;}
</style>
<path class="st0" d="M50.0489235,25.7743912c0,13.3847656-10.8896484,24.2744141-24.2744141,24.2744141
	S1.5000955,39.1591568,1.5000955,25.7743912S12.3897438,1.4999772,25.7745094,1.4999772
	S50.0489235,12.3896255,50.0489235,25.7743912z"/>
<path class="st1" d="M2.999882,25.7743912c0-12.5578003,10.2165833-22.774292,22.7745056-22.774292
	c12.5578003,0,22.774292,10.2164917,22.774292,22.774292s-10.2164917,22.774292-22.774292,22.774292
	C13.216465,48.5486832,2.999882,38.3321915,2.999882,25.7743912 M-0.0001181,25.7743912
	c0,14.2346802,11.5396118,25.774292,25.7745056,25.774292c14.2346802,0,25.774292-11.5396118,25.774292-25.774292
	c0-14.2348938-11.5396118-25.774292-25.774292-25.774292C11.5394936,0.0000993-0.0001181,11.5394974-0.0001181,25.7743912
	L-0.0001181,25.7743912z"/>
<path class="st1" d="M33.5458984,29.6601562c-0.5117188,0-1.0234375-0.1953125-1.4140625-0.5859375l-6.3574219-6.3569336
	l-6.3574219,6.3569336c-0.7802734,0.78125-2.0478516,0.78125-2.828125,0c-0.78125-0.78125-0.78125-2.046875,0-2.828125
	l7.7714844-7.7714844c0.7802734-0.78125,2.046875-0.78125,2.828125,0l7.7714844,7.7714844
	c0.78125,0.78125,0.78125,2.046875,0,2.828125C34.5693359,29.4648438,34.0576172,29.6601562,33.5458984,29.6601562z"/>
</svg>
