<?xml version="1.0" encoding="utf-8"?>
<!-- Generator: Adobe Illustrator 21.1.0, SVG Export Plug-In . SVG Version: 6.00 Build 0)  -->
<svg version="1.1" id="圖層_1" xmlns="http://www.w3.org/2000/svg" xmlns:xlink="http://www.w3.org/1999/xlink" x="0px" y="0px"
	 viewBox="0 0 51.5485611 51.5488014" style="enable-background:new 0 0 51.5485611 51.5488014;" xml:space="preserve">
<style type="text/css">
	.st0{fill:#FFFFFF;}
</style>
<path class="st0" d="M25.774292,0.0000343c-14.2348022,0-25.774353,11.5396118-25.774353,25.774353
	c0,14.2348022,11.5395508,25.774353,25.774353,25.774353c14.2347412,0,25.774353-11.5395508,25.774353-25.774353
	C51.548645,11.5396461,40.0090332,0.0000343,25.774292,0.0000343z M11.5106201,14.8560524h28.5273438
	c0.4732666,0,0.6505127,0.6199951,0.2488403,0.8701782l-14.2636719,8.8844604c-0.1522827,0.0948486-0.3453369,0.0948486-0.4976807,0
	l-14.2636719-8.8844604C10.8600464,15.4760475,11.0373535,14.8560524,11.5106201,14.8560524z M41.6838379,35.0642433
	c0,0.8994141-0.7290649,1.628479-1.628479,1.628479H11.4931641c-0.899353,0-1.628479-0.7290649-1.628479-1.628479v-16.437561
	c0-0.180542,0.1984863-0.2907715,0.3516846-0.1953125l14.5005493,9.0319214
	c0.3236084,0.2015381,0.6904907,0.3023682,1.057373,0.3023682s0.7337646-0.1008301,1.057373-0.3023682l14.5004883-9.0319214
	c0.1532593-0.095459,0.3516846,0.0147705,0.3516846,0.1953125V35.0642433z"/>
</svg>
