<?xml version="1.0" encoding="utf-8"?>
<!-- Generator: Adobe Illustrator 21.1.0, SVG Export Plug-In . SVG Version: 6.00 Build 0)  -->
<svg version="1.1" id="圖層_1" xmlns="http://www.w3.org/2000/svg" xmlns:xlink="http://www.w3.org/1999/xlink" x="0px" y="0px"
	 viewBox="0 0 51.1 60.7" style="enable-background:new 0 0 51.1 60.7;" xml:space="preserve">
<style type="text/css">
	.st0{fill:#C39347;}
</style>
<path class="st0" d="M47.9,57.5c0-1.2,0-2.4,0-3.6c0-0.3,0-0.7,0-1c0.1-0.8,0.7-1.4,1.5-1.4c0.8,0,1.6,0.6,1.6,1.4
	c0,2.1,0,4.2,0,6.3c0,0.8-0.6,1.4-1.5,1.4c-0.2,0-0.5,0-0.7,0c-13.6,0-27.2,0-40.9,0c-3.8,0-6.7-2.2-7.7-5.9C0.1,54.1,0,53.4,0,52.7
	c0-15,0-30,0-45C0,3.6,3.3,0.1,7.4,0c2.4-0.1,4.8,0,7.2,0c11.4,0,22.7,0,34.1,0c2,0,2.4,0.4,2.4,2.4c0,14.6,0,29.1,0,43.7
	c0,1.9-0.5,2.4-2.5,2.4c-13.5,0-27,0-40.5,0c-2.3,0-4,1.1-4.7,3.1C2.6,54.2,4.2,57,7,57.4c0.3,0.1,0.7,0.1,1,0.1
	c13.1,0,26.2,0,39.3,0C47.4,57.5,47.6,57.5,47.9,57.5z M12,24c0-5.2,0-10.4,0-15.6c0-0.3,0-0.6,0-0.9c-0.1-0.8-0.8-1.3-1.5-1.3
	C9.7,6.1,9,6.7,8.9,7.4c-0.1,0.3,0,0.7,0,1c0,10.4,0,20.7,0,31.1c0,0.3,0,0.6,0,0.9c0.1,0.8,0.8,1.4,1.6,1.3
	c0.9-0.1,1.5-0.7,1.5-1.9C12,34.6,12,29.3,12,24z"/>
</svg>
