<?xml version="1.0" encoding="utf-8"?>
<!-- Generator: Adobe Illustrator 21.1.0, SVG Export Plug-In . SVG Version: 6.00 Build 0)  -->
<svg version="1.1" id="圖層_1" xmlns="http://www.w3.org/2000/svg" xmlns:xlink="http://www.w3.org/1999/xlink" x="0px" y="0px"
	 viewBox="0 0 51.5485611 51.5488014" style="enable-background:new 0 0 51.5485611 51.5488014;" xml:space="preserve">
<style type="text/css">
	.st0{fill:#FFFFFF;}
</style>
<g>
	<path class="st0" d="M26.5911255,12.8259621c-5.598877,0-10.1532593,4.4120483-10.1532593,9.8359985v13.1146851
		c0,1.8078613,1.5181274,3.2786255,3.3843994,3.2786255s3.3843994-1.4707642,3.3843994-3.2786255v-3.2786865h3.3844604
		c5.5988159,0,10.1532593-4.4121704,10.1532593-9.8359985C36.7443848,17.2380104,32.1899414,12.8259621,26.5911255,12.8259621z
		 M26.5911255,27.0335426h-4.5125732v-4.371582c0-2.4109497,2.0249023-4.371521,4.5125732-4.371521
		c2.4876099,0,4.5125732,1.9605713,4.5125732,4.371521S29.0787354,27.0335426,26.5911255,27.0335426z"/>
	<path class="st0" d="M25.774292-0.0000267c-14.2348022,0-25.774353,11.5395508-25.774353,25.774353
		c0,14.2347412,11.5395508,25.774353,25.774353,25.774353c14.2347412,0,25.774353-11.5396118,25.774353-25.774353
		C51.548645,11.5395241,40.0090332-0.0000267,25.774292-0.0000267z M27.6443481,36.8331642
		c-0.5332031,3.7205811-3.8383179,6.593689-7.8220825,6.593689c-4.3539429,0-7.8969727-3.432373-7.8969727-7.6502075V22.6619606
		c0-7.8338013,6.5793457-14.2075195,14.6658325-14.2075195S41.256958,14.8281593,41.256958,22.6619606
		C41.256958,30.1531105,35.2416992,36.3091774,27.6443481,36.8331642z"/>
</g>
</svg>
