<?xml version="1.0" encoding="utf-8"?>
<!-- Generator: Adobe Illustrator 21.1.0, SVG Export Plug-In . SVG Version: 6.00 Build 0)  -->
<svg version="1.1" id="圖層_1" xmlns="http://www.w3.org/2000/svg" xmlns:xlink="http://www.w3.org/1999/xlink" x="0px" y="0px"
	 viewBox="0 0 217.3 67.4" style="enable-background:new 0 0 217.3 67.4;" xml:space="preserve">
<style type="text/css">
	.st0{fill:#FFFFFF;}
</style>
<g>
	<g>
		<path class="st0" d="M9.8,1.6L7.5,3.9C6.4,2,5.5,1,5.4,0.9c-0.8-0.8-2-0.8-2.8,0c-0.8,0.8-0.8,2,0,2.8c0,0,0.9,1,2.1,3.1l-4.1,4.1
			c-0.8,0.8-0.8,2,0,2.8C1,14,1.5,14.2,2,14.2s1-0.2,1.4-0.6l3-3c1.7,4.8,3.1,12.3,1.7,23c-0.6-0.1-1.8-0.8-2.3-1.1
			c-0.3-0.1-0.5-0.3-0.7-0.4c-1-0.5-2.1-0.2-2.7,0.8S2.2,35,3.2,35.5c0.2,0.1,0.4,0.2,0.6,0.3c1.2,0.7,2.9,1.7,4.5,1.7
			c0.4,0,0.8-0.1,1.2-0.2c0.7-0.2,1.6-0.7,2.3-2c0.1-0.2,0.1-0.4,0.2-0.6c1.8-13.1-0.3-21.9-2.5-27.2l3.2-3.2c0.8-0.8,0.8-2,0-2.8
			C11.9,0.8,10.6,0.8,9.8,1.6z"/>
		<path class="st0" d="M7.4,22.5c0.8-0.8,0.8-2,0-2.8c-0.8-0.8-2-0.8-2.8,0l-3.8,3.8c-0.8,0.8-0.8,2,0,2.8c0.4,0.4,0.9,0.6,1.4,0.6
			c0.5,0,1-0.2,1.4-0.6L7.4,22.5z"/>
		<path class="st0" d="M42.3,33H31v-3.8h9c1.1,0,2-0.9,2-2c0-1.1-0.9-2-2-2h-9V21h7.7c2.1,0,3.8-1.7,3.8-3.8V3.8
			c0-2.1-1.7-3.8-3.8-3.8H19.4c-2.1,0-3.8,1.7-3.8,3.8v13.5c0,2.1,1.7,3.8,3.8,3.8h7.7v4.2h-9c-1.1,0-2,0.9-2,2c0,1.1,0.9,2,2,2h9
			V33H15.8c-1.1,0-2,0.9-2,2s0.9,2,2,2h26.4c1.1,0,2-0.9,2-2S43.4,33,42.3,33z M19.6,3.9h19v13.2h-19V3.9z"/>
		<path class="st0" d="M35.6,8.8H31V7.1c0-1.1-0.9-2-2-2s-2,0.9-2,2v1.8h-4.6c-1.1,0-2,0.9-2,2s0.9,2,2,2h4.6v1.8c0,1.1,0.9,2,2,2
			s2-0.9,2-2v-1.8h4.6c1.1,0,2-0.9,2-2S36.7,8.8,35.6,8.8z"/>
		<path class="st0" d="M79.4,6.9H58.3c-1.1,0-2,0.9-2,2c0,1.1,0.9,2,2,2h21.1c1.1,0,2-0.9,2-2C81.4,7.7,80.5,6.9,79.4,6.9z"/>
		<path class="st0" d="M79.4,13.4H58.3c-1.1,0-2,0.9-2,2s0.9,2,2,2h21.1c1.1,0,2-0.9,2-2S80.5,13.4,79.4,13.4z"/>
		<path class="st0" d="M82.1,19.7h-27V3.9h24.6c1.1,0,2-0.9,2-2s-0.9-2-2-2H54.8c-2,0-3.6,1.6-3.6,3.6v16.1h-4.3c-1.1,0-2,0.9-2,2
			c0,1.1,0.9,2,2,2h4.3v9.7c0,2,1.6,3.6,3.6,3.6h6c1.1,0,2-0.9,2-2s-0.9-2-2-2h-5.7v-9.4h27c1.1,0,2-0.9,2-2
			C84.1,20.6,83.2,19.7,82.1,19.7z"/>
		<path class="st0" d="M80.5,31.3l2.3-2.3c0.8-0.8,0.8-2,0-2.8c-0.8-0.8-2-0.8-2.8,0l-2.3,2.3l-2.3-2.3c-0.8-0.8-2-0.8-2.8,0
			c-0.8,0.8-0.8,2,0,2.8l7.3,7.3c0.4,0.4,0.9,0.6,1.4,0.6c0.5,0,1-0.2,1.4-0.6c0.8-0.8,0.8-2,0-2.8L80.5,31.3z"/>
		<path class="st0" d="M89.6,8.6c-0.9,0.6-1.2,1.8-0.6,2.7l1.1,1.8c0.4,0.6,1,0.9,1.7,0.9c0.4,0,0.7-0.1,1-0.3
			c0.9-0.6,1.2-1.8,0.6-2.7l-1.1-1.8C91.7,8.3,90.5,8,89.6,8.6z"/>
		<path class="st0" d="M88.4,6.8h13c1.1,0,2-0.9,2-2s-0.9-2-2-2h-4.5V2c0-1.1-0.9-2-2-2c-1.1,0-2,0.9-2,2v0.9h-4.5c-1.1,0-2,0.9-2,2
			S87.3,6.8,88.4,6.8z"/>
		<path class="st0" d="M103.4,25.9c0-1.1-0.9-2-2-2h-4.1c0.1-1.1,0.1-2.1,0.2-3h3.9c1.1,0,2-0.9,2-2s-0.9-2-2-2h-3.9
			c0-0.4,0-0.8,0-1l3.4-4.9c0.6-0.9,0.4-2.1-0.5-2.7c-0.9-0.6-2.1-0.4-2.7,0.5l-3.7,5.4c-0.2,0.3-0.4,0.8-0.3,1.2c0,0,0,0.6,0,1.5
			h-5.2c-1.1,0-2,0.9-2,2s0.9,2,2,2h5.1c0,0.9-0.1,2-0.2,3h-4.9c-1.1,0-2,0.9-2,2c0,1.1,0.9,2,2,2h4.5c-0.3,2.3-0.8,4.5-1.6,6.2
			c-0.4,1,0.1,2.1,1.1,2.6c0.2,0.1,0.5,0.2,0.8,0.2c0.8,0,1.5-0.5,1.8-1.2c0.9-2.2,1.5-5,1.9-7.7h4.5
			C102.5,27.9,103.4,27,103.4,25.9z"/>
		<path class="st0" d="M114.2,8.1h-4.8V3.4c0-1.1-0.9-2-2-2s-2,0.9-2,2v4.7h-1.4c-1.1,0-2,0.9-2,2c0,1.1,0.9,2,2,2h1.4v4.8
			c0,0.8-0.7,11.1-3.2,17.3c-0.4,1,0.1,2.1,1.1,2.6c0.2,0.1,0.5,0.2,0.8,0.2c0.8,0,1.5-0.5,1.8-1.2c2.9-7,3.5-18.2,3.5-18.7
			c0,0,0-0.1,0-0.1V12h2.8v20.4h-1.7c-1.1,0-2,0.9-2,2c0,1.1,0.9,2,2,2h2.1c2,0,3.6-1.6,3.6-3.6V10.5c0-0.1,0-0.2,0-0.2
			c0-0.1,0-0.2,0-0.2C116.2,9,115.3,8.1,114.2,8.1z"/>
		<path class="st0" d="M118.8,13.1c0.4,0.6,1,0.9,1.7,0.9c0.4,0,0.7-0.1,1-0.3c0.9-0.6,1.2-1.8,0.6-2.7L121,9.2
			c-0.6-0.9-1.8-1.2-2.7-0.6c-0.9,0.6-1.2,1.8-0.6,2.7L118.8,13.1z"/>
		<path class="st0" d="M130.1,2.9h-4.5V2c0-1.1-0.9-2-2-2s-2,0.9-2,2v0.9h-4.5c-1.1,0-2,0.9-2,2s0.9,2,2,2h13c1.1,0,2-0.9,2-2
			S131.2,2.9,130.1,2.9z"/>
		<path class="st0" d="M129.8,20.9c1.1,0,2-0.9,2-2s-0.9-2-2-2h-3.6v-1l3.4-4.9c0.6-0.9,0.4-2.1-0.5-2.7c-0.9-0.6-2.1-0.4-2.7,0.5
			l-3.7,5.4c-0.2,0.3-0.3,0.7-0.3,1.1V17h-3.4c-1.1,0-2,0.9-2,2s0.9,2,2,2h3.4v3h-3.4c-1.1,0-2,0.9-2,2c0,1.1,0.9,2,2,2h3.4V35
			c0,1.1,0.9,2,2,2c1.1,0,2-0.9,2-2v-7.1h3.6c1.1,0,2-0.9,2-2c0-1.1-0.9-2-2-2h-3.6v-3H129.8z"/>
		<path class="st0" d="M137.3,18.8L147,4.6c0.6-0.9,0.4-2.1-0.5-2.7c-0.9-0.6-2.1-0.4-2.7,0.5l-9.7,14.1c-0.6,0.9-0.4,2.1,0.5,2.7
			c0.3,0.2,0.7,0.3,1.1,0.3C136.3,19.6,136.9,19.3,137.3,18.8z"/>
		<path class="st0" d="M165.8,2.4c-0.4-0.5-1-0.9-1.6-0.9h-12c-1.1,0-2,0.9-2,2c0,1.1,0.9,2,2,2h10.9l9.1,13.3
			c0.4,0.6,1,0.9,1.6,0.9c0.4,0,0.8-0.1,1.1-0.3c0.9-0.6,1.1-1.8,0.5-2.7L165.8,2.4z"/>
		<path class="st0" d="M162.1,32.4h-19.9l10.3-15c0.6-0.9,0.4-2.1-0.5-2.7c-0.9-0.6-2.1-0.4-2.7,0.5l-12.4,18.1c0,0,0,0,0,0
			c-0.1,0.2-0.2,0.5-0.3,0.7c0,0.1,0,0.3,0,0.4c0,0,0,0,0,0c0,0,0,0.1,0,0.1c0,0.1,0,0.2,0,0.2c0,0.1,0,0.1,0.1,0.2
			c0,0.1,0,0.1,0.1,0.2c0,0.1,0.1,0.1,0.1,0.2c0,0.1,0.1,0.1,0.1,0.2c0,0.1,0.1,0.1,0.1,0.2c0,0,0.1,0.1,0.1,0.1
			c0.1,0.1,0.1,0.1,0.2,0.2c0,0,0,0,0.1,0.1c0,0,0,0,0,0c0.1,0.1,0.3,0.2,0.5,0.2c0,0,0.1,0,0.1,0c0.2,0,0.3,0.1,0.5,0.1
			c0,0,0,0,0,0c0,0,0,0,0,0c0,0,0,0,0,0h23.6c1.1,0,2-0.9,2-2S163.2,32.4,162.1,32.4z"/>
		<path class="st0" d="M164.4,21.8c-0.6-0.9-1.8-1.1-2.7-0.5c-0.9,0.6-1.1,1.8-0.5,2.7l8.5,12.4c0.4,0.6,1,0.9,1.6,0.9
			c0.4,0,0.8-0.1,1.1-0.3c0.9-0.6,1.1-1.8,0.5-2.7L164.4,21.8z"/>
		<path class="st0" d="M213.7,2.9h-15.2V2c0-1.1-0.9-2-2-2c-1.1,0-2,0.9-2,2v0.9h-15.2c-2,0-3.6,1.4-3.6,3.1v4.5c0,1.1,0.9,2,2,2
			c1.1,0,2-0.9,2-2V6.8h33.7v3.7c0,1.1,0.9,2,2,2s2-0.9,2-2V6C217.3,4.3,215.7,2.9,213.7,2.9z"/>
		<path class="st0" d="M214.9,33h-16.4v-3.3h12.1c1.1,0,2-0.9,2-2s-0.9-2-2-2h-12.1v-3.5h6.7c1.1,0,2-0.9,2-2c0-1.1-0.9-2-2-2h-16.8
			l3.4-5c0,0,0,0,0-0.1h18.4c1.1,0,2-0.9,2-2c0-1.1-0.9-2-2-2h-27.5c-1.1,0-2,0.9-2,2c0,1.1,0.9,2,2,2h4.3l-4,5.9c0,0,0,0,0,0
			c-0.1,0.2-0.2,0.5-0.3,0.7c0,0.1,0,0.3,0,0.4c0,0,0,0,0,0c0,0,0,0.1,0,0.1c0,0.1,0,0.2,0,0.2c0,0.1,0,0.1,0.1,0.2
			c0,0.1,0,0.1,0.1,0.2c0,0.1,0.1,0.1,0.1,0.2c0,0.1,0.1,0.1,0.1,0.2c0,0.1,0.1,0.1,0.1,0.2c0,0,0.1,0.1,0.1,0.1
			c0.1,0.1,0.1,0.1,0.2,0.2c0,0,0,0,0.1,0.1c0,0,0,0,0,0c0.1,0.1,0.3,0.2,0.5,0.2c0,0,0.1,0,0.1,0c0.2,0,0.3,0.1,0.5,0.1
			c0,0,0,0,0,0c0,0,0,0,0,0c0,0,0,0,0,0h9.9v3.5h-12.1c-1.1,0-2,0.9-2,2s0.9,2,2,2h12.1V33h-16.4c-1.1,0-2,0.9-2,2s0.9,2,2,2h36.7
			c1.1,0,2-0.9,2-2S216,33,214.9,33z"/>
		<path class="st0" d="M208.1,14.8c-0.9,0.6-1.1,1.8-0.5,2.7l5.3,7.8c0.4,0.6,1,0.9,1.6,0.9c0.4,0,0.8-0.1,1.1-0.3
			c0.9-0.6,1.1-1.8,0.5-2.7l-5.3-7.8C210.2,14.4,209,14.1,208.1,14.8z"/>
	</g>
	<g>
		<polygon class="st0" points="62.5,57.9 65,57.9 63.8,55.2 		"/>
		<polygon class="st0" points="119.7,57.9 122.2,57.9 120.9,55.2 		"/>
		<path class="st0" d="M0,47.1v20.2h217.3V47.1H0z M55.2,63h-4.6c-1.4,0-2.5-1-2.5-2.3v-8c0-0.7,0.5-1.2,1.2-1.2
			c0.7,0,1.2,0.5,1.2,1.2v7.8c0,0,0,0,0,0h4.6c0.7,0,1.2,0.5,1.2,1.2S55.9,63,55.2,63z M68.8,62.9C68.6,63,68.4,63,68.2,63
			c-0.5,0-0.9-0.3-1.1-0.7l-1-2h-4.8l-1,2c-0.2,0.4-0.6,0.7-1.1,0.7c-0.2,0-0.4,0-0.5-0.1c-0.6-0.3-0.9-1-0.6-1.6l4.4-9.2
			c0.2-0.5,0.7-0.7,1.2-0.7c0.5,0,1,0.2,1.2,0.7l4.4,9.2C69.6,61.9,69.4,62.6,68.8,62.9z M78.1,60.6c0.7,0,1.2,0.5,1.2,1.2
			S78.8,63,78.1,63h-5.8c-0.7,0-1.2-0.5-1.2-1.2s0.5-1.2,1.2-1.2H74V54h-1.7c-0.7,0-1.2-0.5-1.2-1.2s0.5-1.2,1.2-1.2h5.8
			c0.7,0,1.2,0.5,1.2,1.2S78.8,54,78.1,54h-1.7v6.6H78.1z M87.9,58.5h-2.6c-0.7,0-1.2-0.5-1.2-1.2s0.5-1.2,1.2-1.2h2.6
			c0.7,0,1.2,0.5,1.2,1.2S88.6,58.5,87.9,58.5z M98.6,59.7h-2.7c0,0,0,0,0,0v2.1c0,0.7-0.5,1.2-1.2,1.2s-1.2-0.5-1.2-1.2v-8
			c0-1.3,1.1-2.3,2.5-2.3h2.7c2.2,0,4.1,1.8,4.1,4.1S100.9,59.7,98.6,59.7z M114.2,61.9c0,0.7-0.5,1.2-1.2,1.2s-1.2-0.5-1.2-1.2
			v-3.4h-4.6v3.4c0,0.7-0.5,1.2-1.2,1.2s-1.2-0.5-1.2-1.2v-9.2c0-0.7,0.5-1.2,1.2-1.2s1.2,0.5,1.2,1.2V56h4.6v-3.4
			c0-0.7,0.5-1.2,1.2-1.2s1.2,0.5,1.2,1.2V61.9z M125.9,62.9c-0.2,0.1-0.3,0.1-0.5,0.1c-0.5,0-0.9-0.3-1.1-0.7l-1-2h-4.8
			c0,0,0,0,0,0l-1,2c-0.2,0.4-0.6,0.7-1.1,0.7c-0.2,0-0.4,0-0.5-0.1c-0.6-0.3-0.9-1-0.6-1.6l4.4-9.2c0.2-0.5,0.7-0.7,1.2-0.7
			c0.5,0,1,0.2,1.2,0.7l4.4,9.2C126.8,61.9,126.6,62.6,125.9,62.9z M137.7,57.8c0,2.9-2.4,5.3-5.3,5.3c-2.9,0-5.3-2.4-5.3-5.3v-5.1
			c0-0.7,0.5-1.2,1.2-1.2s1.2,0.5,1.2,1.2v5.1c0,1.6,1.3,2.9,2.9,2.9c1.6,0,2.9-1.3,2.9-2.9v-5.1c0-0.7,0.5-1.2,1.2-1.2
			c0.7,0,1.2,0.5,1.2,1.2V57.8z M145.1,58.5h-2.6c-0.7,0-1.2-0.5-1.2-1.2s0.5-1.2,1.2-1.2h2.6c0.7,0,1.2,0.5,1.2,1.2
			S145.8,58.5,145.1,58.5z M159.1,53.8h-2.6v8c0,0.7-0.5,1.2-1.2,1.2c-0.7,0-1.2-0.5-1.2-1.2v-8h-2.6c-0.7,0-1.2-0.5-1.2-1.2
			s0.5-1.2,1.2-1.2h7.6c0.7,0,1.2,0.5,1.2,1.2S159.7,53.8,159.1,53.8z M169.8,54h-5c0,0,0,0,0,0v6.6c0,0,0,0,0,0h5
			c0.7,0,1.2,0.5,1.2,1.2s-0.5,1.2-1.2,1.2h-5c-1.4,0-2.5-1-2.5-2.3v-6.9c0-1.3,1.1-2.3,2.5-2.3h5c0.7,0,1.2,0.5,1.2,1.2
			S170.5,54,169.8,54z M170.6,57.3c0,0.7-0.5,1.2-1.2,1.2h-2.3c-0.7,0-1.2-0.5-1.2-1.2s0.5-1.2,1.2-1.2h2.3
			C170.1,56.1,170.6,56.6,170.6,57.3z"/>
		<path class="st0" d="M98.6,54h-2.7c0,0,0,0,0,0v3.3c0,0,0,0,0,0h2.7c0.9,0,1.6-0.7,1.6-1.6C100.2,54.7,99.5,54,98.6,54z"/>
	</g>
</g>
</svg>
