<?xml version="1.0" encoding="utf-8"?>
<!-- Generator: Adobe Illustrator 16.0.0, SVG Export Plug-In . SVG Version: 6.00 Build 0)  -->
<!DOCTYPE svg PUBLIC "-//W3C//DTD SVG 1.1//EN" "http://www.w3.org/Graphics/SVG/1.1/DTD/svg11.dtd">
<svg version="1.1" id="圖層_1" xmlns="http://www.w3.org/2000/svg" xmlns:xlink="http://www.w3.org/1999/xlink" x="0px" y="0px"
	 width="500px" height="2px" viewBox="0 -27.692 500 2" enable-background="new 0 -27.692 500 2" xml:space="preserve">
<g>
	<path fill="#794431" d="M499.438-27.241c0.736,0.007,0.455-0.074,0.563-0.088C498.78-27.311,499.476-27.219,499.438-27.241z"/>
	<path fill="#794431" d="M471.165-27.388c-0.244,0-0.58-0.002-1.154-0.009c0.359,0.056-1.321,0.04,1.406,0.024
		C471.282-27.38,471.245-27.384,471.165-27.388z"/>
	<path fill="#794431" d="M471.165-27.388C472.361-27.386,470.396-27.437,471.165-27.388L471.165-27.388z"/>
	<path fill="#794431" d="M465.637-27.385l1.59-0.04c-0.315-0.033-1.715-0.047-1.188-0.067
		C464.416-27.474,464.737-27.442,465.637-27.385z"/>
	<path fill="#794431" d="M464.107-27.292l0.824-0.016C464.794-27.323,464.581-27.328,464.107-27.292z"/>
	<path fill="#794431" d="M465.732-27.32c-0.154,0.04,0.198,0.003,0.945-0.022l-1.746,0.034
		C465.153-27.285,465.161-27.24,465.732-27.32z"/>
	<path fill="#794431" d="M468.064-27.218c3.021-0.004,2.605-0.103-0.413-0.099C468.524-27.282,469.663-27.258,468.064-27.218z"/>
	<path fill="#794431" d="M455.862-27.505c-0.112,0.029,0.494,0.08,0.596,0.119l1.178-0.028
		C457.045-27.438,455.921-27.462,455.862-27.505z"/>
	<path fill="#794431" d="M456.458-27.387l-1.77,0.041C456.253-27.331,456.54-27.355,456.458-27.387z"/>
	<polygon fill="#794431" points="450.19,-27.61 448.379,-27.518 449.169,-27.548 	"/>
	<path fill="#794431" d="M444.723-27.561c0.759-0.052-0.97-0.101-0.181-0.131c-1.21,0.003-2.26,0.045-3.204,0.083
		C442.333-27.628,443.382-27.615,444.723-27.561z"/>
	<path fill="#794431" d="M439.759-27.555c0.496-0.01,1.017-0.032,1.579-0.054C440.809-27.599,440.288-27.584,439.759-27.555z"/>
	<path fill="#794431" d="M451.711-27.378c-0.128-0.019-0.37-0.066-1.343-0.092l0.654,0.086
		C451.232-27.382,451.469-27.38,451.711-27.378z"/>
	<path fill="#794431" d="M451.046-27.38l-0.022-0.003c-0.748-0.007-1.267-0.011-1.486-0.013
		C449.725-27.394,450.179-27.389,451.046-27.38z"/>
	<path fill="#794431" d="M451.886-27.377c-0.063,0-0.11-0.001-0.175-0.001C451.774-27.37,451.813-27.366,451.886-27.377z"/>
	<path fill="#794431" d="M454.722-27.315l-2.023,0.046l1.851,0.029C454.521-27.261,454.2-27.295,454.722-27.315z"/>
	<path fill="#794431" d="M442.917-27.46c-0.818,0.031-1.699,0.029-2.693,0.029c1.06,0.022,2.156,0.038,3.201,0.043
		C443.582-27.412,444.058-27.456,442.917-27.46z"/>
	<path fill="#794431" d="M446.863-27.414c-0.06,0.001-0.125,0.002-0.182,0.003C446.792-27.403,446.88-27.4,446.863-27.414z"/>
	<polygon fill="#794431" points="430.423,-27.477 430.577,-27.462 430.616,-27.476 	"/>
	<path fill="#794431" d="M443.599-27.371c0.791,0.021,1.278,0.003,1.744-0.02c-0.602,0.005-1.235,0.006-1.918,0.003
		C443.354-27.376,443.337-27.369,443.599-27.371z"/>
	<path fill="#794431" d="M437.015-27.532c0.408,0.02,0.877,0.037,1.369,0.053C437.985-27.508,437.169-27.553,437.015-27.532z"/>
	<path fill="#794431" d="M446.425-27.435l0.119-0.003C446.289-27.457,446.318-27.448,446.425-27.435z"/>
	<path fill="#794431" d="M446.425-27.435c-0.418,0.01-0.75,0.028-1.082,0.044c0.488-0.003,0.943-0.01,1.34-0.02
		C446.587-27.417,446.491-27.426,446.425-27.435z"/>
	<path fill="#794431" d="M434.36-27.454l-0.265,0.01l0.762-0.005c-0.856-0.019-1.467-0.051-2.596-0.114
		c-1.282,0.034-1.551,0.062-1.646,0.087c0,0,0.936,0.005,1.875,0.01C433.43-27.463,434.36-27.454,434.36-27.454z"/>
	<path fill="#794431" d="M436.886-27.23c2.222,0.007,1.58-0.06,2.918-0.088c-3.59,0,1.047-0.04-1.522-0.102
		c0.709-0.01,1.342-0.011,1.942-0.011c-0.641-0.014-1.26-0.014-1.84-0.033l0.08,0.021h0.019l-0.006-0.015
		c0.151,0.011,0.2,0.01,0.026,0.002c-0.01,0.001-0.056-0.002-0.074-0.002c-0.028,0.011-0.098,0.019-0.173,0.028
		c-1.032-0.023-0.157-0.023,0.173-0.031c0.015-0.004,0.043-0.008,0.048-0.012l-0.013-0.001l-3.605,0.024
		c0.755,0.017,1.708,0.02,3.397,0.02C437.634-27.35,435.804-27.325,436.886-27.23z"/>
	<path fill="#794431" d="M453.067-27.16c-0.035-0.006-0.069-0.012-0.103-0.019C452.913-27.177,452.966-27.17,453.067-27.16z"/>
	<polygon fill="#794431" points="430.513,-27.606 428.739,-27.486 430.09,-27.519 	"/>
	<polygon fill="#794431" points="426.333,-27.594 425.29,-27.551 426.173,-27.518 	"/>
	<path fill="#794431" d="M265.874-26.586l0.399,0.019c0.273-0.033,0.531-0.064,0.767-0.092
		C266.688-26.636,266.29-26.612,265.874-26.586z"/>
	<path fill="#794431" d="M263.611-26.257c0.398,0.013,0.959,0.022,1.744,0.028L263.611-26.257z"/>
	<path fill="#794431" d="M173.072-26.243l-0.997,0.088C173.666-26.16,172.956-26.201,173.072-26.243z"/>
	<path fill="#794431" d="M385.943-27.298c-1.142-0.018-2.04-0.02-2.818-0.013C384.513-27.281,385.659-27.224,385.943-27.298z"/>
	<path fill="#794431" d="M210.459-27.166c-0.551,0.009-0.792,0.022-0.79,0.042C210.233-27.132,210.558-27.144,210.459-27.166z"/>
	<path fill="#794431" d="M379.977-27.267c0.199,0.005,0.395,0.007,0.597,0.012c0.784-0.025,1.553-0.048,2.553-0.056
		C382.096-27.333,380.987-27.339,379.977-27.267z"/>
	<path fill="#794431" d="M47.223-26.097c-0.093-0.003-0.205-0.005-0.29-0.009C46.906-26.094,47.034-26.094,47.223-26.097z"/>
	<path fill="#794431" d="M10.631-27.01c0.362-0.004,0.949-0.002,1.502-0.001C11.865-27.017,11.413-27.018,10.631-27.01z"/>
	<path fill="#794431" d="M410.405-27.584C411.247-27.594,410.538-27.594,410.405-27.584L410.405-27.584z"/>
	<path fill="#794431" d="M414.128-27.212c0.068-0.02,0.184-0.033,0.329-0.04C414.282-27.243,414.148-27.232,414.128-27.212z"/>
	<path fill="#794431" d="M411.673-27.552c-0.311-0.012-0.681-0.016-1.076-0.021C410.769-27.565,411.101-27.561,411.673-27.552z"/>
	<path fill="#794431" d="M411.503-27.591c0.287,0.003,0.51,0.006,0.726,0.009C412.333-27.595,412.239-27.604,411.503-27.591z"/>
	<path fill="#794431" d="M410.405-27.584c-0.248,0.002-0.597,0.006-1.174,0.011c0.481-0.004,0.932-0.003,1.364,0
		C410.431-27.576,410.362-27.581,410.405-27.584z"/>
	<path fill="#794431" d="M114.527-26.568c-0.056-0.003-0.109-0.005-0.176-0.009C113.52-26.546,113.884-26.55,114.527-26.568z"/>
	<path fill="#794431" d="M265.438-26.271c-0.189-0.013-0.256-0.029-0.314-0.046C264.904-26.298,264.917-26.28,265.438-26.271z"/>
	<path fill="#794431" d="M173.259-26.26l-0.093-0.001c-0.05,0.006-0.077,0.012-0.093,0.017L173.259-26.26z"/>
	<path fill="#794431" d="M361.44-26.174c-0.592-0.009-0.921-0.024-1.146-0.041C360.272-26.191,360.544-26.173,361.44-26.174z"/>
	<path fill="#794431" d="M419.022-27.614l-1.804,0.021c0.872-0.003,1.182,0.018,1.619,0.034
		C418.8-27.581,418.459-27.614,419.022-27.614z"/>
	<path fill="#794431" d="M422.948-27.259c0.387-0.108-0.958-0.075-2.295-0.043c0.133,0.079,1.26,0.055,2.516,0.044
		C423.094-27.258,423.022-27.257,422.948-27.259z"/>
	<path fill="#794431" d="M424.62-27.259c0.154-0.044-0.469-0.011-1.16-0.001C423.847-27.263,424.243-27.264,424.62-27.259z"/>
	<path fill="#794431" d="M407.649-27.504c0.608,0.017,0.358-0.102,0.707-0.072C409.011-27.679,404.347-27.433,407.649-27.504z"/>
	<polygon fill="#794431" points="420.491,-27.063 421.636,-27.041 421.2,-27.138 	"/>
	<path fill="#794431" d="M411.767-27.135l1.999,0.032c-0.028-0.017,0.225-0.025,0.534-0.032
		C413.069-27.142,411.718-27.164,411.767-27.135z"/>
	<path fill="#794431" d="M415.911-27.148c-0.348,0-1.096,0.001-1.611,0.012C414.944-27.132,415.552-27.133,415.911-27.148z"/>
	<polygon fill="#794431" points="4.616,-27.133 2.981,-27.178 4.021,-27.109 	"/>
	<path fill="#794431" d="M0.008-27.013c0.375-0.004,1.106-0.013,1.377,0.016L1.05-27.123L0.008-27.013z"/>
	<path fill="#794431" d="M227.475-25.86l0.152-0.028c-0.237-0.035-0.627-0.042-1.412-0.056L227.475-25.86z"/>
	<path fill="#794431" d="M186.689-26.104c0.764,0.002,1.662-0.025,2.431-0.023C187.453-26.101,186.477-26.244,186.689-26.104z"/>
	<path fill="#794431" d="M0.561-26.144C-0.176-26.151,0.106-26.07,0-26.055C1.221-26.073,0.524-26.165,0.561-26.144z"/>
	<path fill="#794431" d="M28.835-25.996c0.245,0,0.58,0.002,1.154,0.009c-0.359-0.055,1.321-0.039-1.407-0.023
		C28.718-26.005,28.755-26.001,28.835-25.996z"/>
	<path fill="#794431" d="M28.835-25.996C27.639-25.999,29.604-25.947,28.835-25.996L28.835-25.996z"/>
	<path fill="#794431" d="M34.363-25.999l-1.59,0.04c0.316,0.033,1.715,0.047,1.188,0.068C35.584-25.91,35.262-25.943,34.363-25.999z
		"/>
	<path fill="#794431" d="M35.893-26.092l-0.824,0.016C35.207-26.062,35.419-26.056,35.893-26.092z"/>
	<path fill="#794431" d="M34.268-26.065c0.154-0.04-0.199-0.002-0.946,0.022l1.747-0.034C34.848-26.099,34.839-26.144,34.268-26.065
		z"/>
	<path fill="#794431" d="M31.936-26.166c-3.023,0.004-2.605,0.103,0.412,0.099C31.476-26.102,30.338-26.127,31.936-26.166z"/>
	<path fill="#794431" d="M44.138-25.88c0.112-0.028-0.495-0.08-0.595-0.118l-1.178,0.028C42.955-25.947,44.077-25.923,44.138-25.88z
		"/>
	<path fill="#794431" d="M43.543-25.998l1.768-0.041C43.748-26.053,43.46-26.03,43.543-25.998z"/>
	<polygon fill="#794431" points="49.81,-25.775 51.621,-25.866 50.831,-25.837 	"/>
	<path fill="#794431" d="M55.277-25.823c-0.758,0.052,0.971,0.101,0.181,0.131c1.21-0.003,2.26-0.045,3.204-0.083
		C57.668-25.757,56.617-25.769,55.277-25.823z"/>
	<path fill="#794431" d="M60.242-25.829c-0.497,0.01-1.016,0.032-1.58,0.054C59.189-25.785,59.713-25.8,60.242-25.829z"/>
	<path fill="#794431" d="M48.289-26.007c0.128,0.019,0.367,0.066,1.343,0.091l-0.654-0.086
		C48.768-26.003,48.528-26.005,48.289-26.007z"/>
	<path fill="#794431" d="M48.954-26.004l0.024,0.003c0.747,0.007,1.263,0.011,1.486,0.013C50.273-25.99,49.821-25.995,48.954-26.004
		z"/>
	<path fill="#794431" d="M48.114-26.008c0.064,0,0.112,0.001,0.175,0.001C48.226-26.014,48.186-26.018,48.114-26.008z"/>
	<path fill="#794431" d="M45.279-26.07l2.023-0.046l-1.851-0.029C45.479-26.123,45.8-26.09,45.279-26.07z"/>
	<path fill="#794431" d="M57.083-25.925c0.816-0.031,1.699-0.029,2.693-0.029c-1.058-0.022-2.156-0.038-3.201-0.043
		C56.418-25.972,55.942-25.928,57.083-25.925z"/>
	<path fill="#794431" d="M53.134-25.97c0.062-0.001,0.128-0.002,0.181-0.004C53.208-25.982,53.121-25.985,53.134-25.97z"/>
	<polygon fill="#794431" points="69.578,-25.907 69.424,-25.923 69.384,-25.908 	"/>
	<path fill="#794431" d="M56.402-26.013c-0.793-0.021-1.279-0.004-1.745,0.02c0.601-0.005,1.236-0.007,1.917-0.003
		C56.646-26.009,56.663-26.016,56.402-26.013z"/>
	<path fill="#794431" d="M62.986-25.852c-0.412-0.02-0.877-0.037-1.369-0.053C62.013-25.877,62.832-25.831,62.986-25.852z"/>
	<path fill="#794431" d="M53.575-25.949l-0.119,0.003C53.711-25.928,53.682-25.937,53.575-25.949z"/>
	<path fill="#794431" d="M53.575-25.949c0.418-0.01,0.75-0.028,1.083-0.044c-0.489,0.003-0.944,0.01-1.343,0.02
		C53.413-25.968,53.509-25.959,53.575-25.949z"/>
	<path fill="#794431" d="M65.64-25.93l0.263-0.01l-0.76,0.005c0.856,0.019,1.465,0.051,2.593,0.113
		c1.281-0.034,1.553-0.062,1.648-0.087c0,0-0.938-0.005-1.875-0.01C66.57-25.922,65.64-25.93,65.64-25.93z"/>
	<path fill="#794431" d="M63.114-26.155c-2.22-0.007-1.58,0.06-2.92,0.088c3.59,0-1.045,0.04,1.526,0.102
		c-0.71,0.01-1.345,0.011-1.944,0.011c0.641,0.014,1.261,0.03,1.84,0.048l-0.08-0.006l-0.019,0l0.005-0.001
		c-0.151-0.011-0.199-0.018-0.029-0.011c0.014-0.001,0.059-0.001,0.077-0.001c0.029-0.011,0.099-0.021,0.173-0.03
		c1.032,0.023,0.154,0.022-0.173,0.03c-0.013,0.004-0.042,0.008-0.048,0.012l0.013,0.001l3.606-0.024
		c-0.755-0.016-1.707-0.019-3.398-0.02C62.366-26.034,64.193-26.059,63.114-26.155z"/>
	<path fill="#794431" d="M46.933-26.224c0.035,0.006,0.069,0.012,0.101,0.019C47.087-26.208,47.034-26.215,46.933-26.224z"/>
	<polygon fill="#794431" points="69.487,-25.779 71.261,-25.898 69.91,-25.865 	"/>
	<polygon fill="#794431" points="73.667,-25.791 74.71,-25.834 73.827,-25.866 	"/>
	<path fill="#794431" d="M234.125-26.799l-0.401-0.019c-0.274,0.033-0.529,0.064-0.763,0.092
		C233.314-26.748,233.71-26.772,234.125-26.799z"/>
	<path fill="#794431" d="M236.388-27.128c-0.399-0.013-0.962-0.022-1.747-0.028L236.388-27.128z"/>
	<path fill="#794431" d="M326.925-27.141l0.998-0.088C326.335-27.224,327.042-27.183,326.925-27.141z"/>
	<path fill="#794431" d="M114.057-26.087c1.141,0.018,2.04,0.02,2.818,0.013C115.487-26.103,114.341-26.16,114.057-26.087z"/>
	<path fill="#794431" d="M289.538-26.219c0.551-0.009,0.793-0.022,0.789-0.042C289.766-26.253,289.439-26.24,289.538-26.219z"/>
	<path fill="#794431" d="M120.021-26.118c-0.2-0.006-0.391-0.007-0.593-0.011c-0.784,0.025-1.553,0.047-2.553,0.055
		C117.904-26.052,119.013-26.045,120.021-26.118z"/>
	<path fill="#794431" d="M452.777-27.287c0.091,0.003,0.201,0.005,0.287,0.009C453.091-27.29,452.964-27.29,452.777-27.287z"/>
	<path fill="#794431" d="M489.366-26.375c-0.361,0.004-0.949,0.002-1.502,0.002C488.132-26.367,488.585-26.366,489.366-26.375z"/>
	<path fill="#794431" d="M89.596-25.801C88.752-25.791,89.462-25.791,89.596-25.801L89.596-25.801z"/>
	<path fill="#794431" d="M85.873-26.172c-0.069,0.02-0.184,0.033-0.33,0.041C85.719-26.141,85.852-26.153,85.873-26.172z"/>
	<path fill="#794431" d="M88.327-25.833c0.311,0.011,0.681,0.016,1.077,0.021C89.229-25.82,88.899-25.823,88.327-25.833z"/>
	<path fill="#794431" d="M88.497-25.793c-0.287-0.004-0.513-0.007-0.726-0.01C87.668-25.789,87.761-25.781,88.497-25.793z"/>
	<path fill="#794431" d="M89.596-25.801c0.247-0.002,0.596-0.006,1.172-0.011c-0.481,0.004-0.933,0.003-1.364-0.001
		C89.569-25.808,89.638-25.803,89.596-25.801z"/>
	<path fill="#794431" d="M385.47-26.816c0.058,0.003,0.109,0.005,0.177,0.009C386.478-26.838,386.114-26.835,385.47-26.816z"/>
	<path fill="#794431" d="M494.095-26.969c-1.682,0.118-4.048-0.087-6.67-0.103l0.133-0.021l-0.522,0.023
		c-0.747,0.001-1.515,0.016-2.289,0.063c-0.782-0.041,0.69-0.058,0.279-0.102c-0.607,0.05-1.316,0.07-2.279,0.068l0.633-0.076
		c-0.941,0.005-1.988,0.021-3.023,0.035c-5.112-0.007-7.651-0.086-13.747-0.154l0.014,0.003l-1.438,0.038
		c-0.134-0.007-0.267-0.013-0.421-0.019c-0.181,0.015-0.261,0.027-0.278,0.037l-1.04,0.027c-1.691-0.013-3.573-0.013-5.025-0.034
		c0.09-0.018,0.298-0.036,0.814-0.057c-0.39,0.015-0.93,0.03-1.353,0.047c-0.787-0.017-1.396-0.041-1.672-0.082
		c-2.125,0.008,0.633,0.103-1.492,0.111l-0.568-0.055l-0.528,0.076c-0.152-0.001-0.264-0.004-0.399-0.007
		c-0.062-0.004-0.111-0.009-0.15-0.013c0.018,0.003,0.039,0.007,0.059,0.011c-1.049-0.019-1.623-0.073-1.673-0.115
		c0.128,0.002,0.308-0.002,0.486-0.005l-0.165,0.021l0.923-0.021l-0.434-0.007c0.185-0.004,0.375-0.01,0.514-0.012
		c-1.819-0.06-5.099,0.044-5.724,0.025l2.051,0.027c-5.269,0.071-11.566,0.047-16.861,0.146c0.333-0.101-0.539-0.266-1.666-0.372
		c-0.067,0.033-0.078,0.063-1.938,0.104c0.639,0.043,4.068,0.107,2.491,0.172c-2.451,0.034-1.991-0.032-3.172-0.075
		c0.926,0.091-2.611,0.128-2.627,0.249c-0.611-0.001-1.346,0.001-2.372,0.014l0.165-0.011c-0.92,0.047-2.164,0.074-3.449,0.074
		c1.16-0.055-2.278-0.088-0.752-0.15c-0.648,0.015-1.148,0.027-1.557,0.037l-0.463-0.003l0.371,0.006
		c-2.33,0.061-1.05,0.063-3.566,0.21l-0.729-0.068c-1.008,0.069-1.081,0.104-3.403,0.132c1.886-0.069-1.521-0.102,0.586-0.192
		c-0.362-0.01-0.685-0.013-1.021-0.019c0.771-0.037,1.892-0.077,1.3-0.113l-1.37,0.023c-1.278-0.077,2.577-0.131,0.827-0.16
		c1.851-0.077,3.92-0.15,6.521-0.101l0.481,0.119c-0.054-0.035-1.693-0.075-2.427-0.041c1.089-0.05,3.972,0.17,5.171,0.018
		l-1.816-0.086c1.859-0.055,4.176-0.175,6.481-0.132c-1.032-0.119-0.532,0.012-2.157-0.128c1.403,0.173-5.92-0.021-3.646,0.163
		c-1.674-0.163-2.911-0.074-5.118-0.214c0.069,0.039,0.782,0.076-1.162,0.052c-0.087,0.011-0.295,0.025-0.425,0.034
		c-0.059-0.001-0.08-0.002-0.131-0.003l0.106,0.005c-0.085,0.006-0.092,0.007,0.04,0.001c0.463,0.018,0.838,0.04,0.991,0.062
		c-0.952,0.079-4.071,0.101-5.108,0.151c-1.161-0.012,0.477-0.047-0.166-0.085l-1.555,0.077c-0.176-0.086-3.146-0.126-0.409-0.192
		l-2.48,0.01c-1.481-0.04-3.511-0.047-4.729-0.004c-1.187-0.012-2.886,0.113-1.918,0.04c0,0-0.949,0.024-1.894,0.05
		c-0.942,0.026-1.889,0.052-1.889,0.052l-0.053-0.021c-3.771,0.04-7.65,0.245-12.04,0.149c-1.222,0.039-2.481,0.084-4.587,0.089
		l-0.478-0.069c-1.57,0.049-4.854-0.007-5.473,0.08c-1.874-0.18-7.654,0.013-10.449-0.001l-0.064,0.087
		c-0.965-0.005-1.448,0.008-1.729,0.028c-0.592,0.008-1.207,0.019-1.842,0.029l0.721-0.054l-2.146,0.036l0.451-0.106
		c-2.341,0.081-3.062,0.062-5.348,0.035c0.481,0.059-0.202,0.146-1.821,0.167c-0.287-0.005-0.577-0.009-0.868-0.013
		c-0.479-0.039,0.581-0.063-1.398-0.053c-0.072-0.002-0.142-0.006-0.213-0.008c0.61-0.057,1.305-0.119,2.494-0.04
		c0.125-0.03,0.635-0.059,0.766-0.089c-1.489-0.063-3.738-0.01-4.779-0.008c0.402,0.003,0.881,0.008,1.128,0.021l-3.456,0.112
		c-0.267,0.003-0.532,0.007-0.799,0.012c-0.393-0.03,0.021-0.056,0.482-0.081c-0.841,0.011-1.416,0.055-2.648,0.064
		c0.304-0.076,0.207-0.154,1.957-0.192l-3.949,0.089c-0.272-0.033-2.059-0.087-1.553-0.116c-1.281-0.022-2.885,0.038-4.576,0.081
		c-0.928-0.067-1.715-0.124-1.636-0.057l0.335,0.086c-0.072,0.001-0.144,0.004-0.215,0.004c-0.006,0-0.008,0-0.014,0
		c-0.424,0-0.604-0.012-0.67,0.004c-0.455,0.003-0.912,0.001-1.361-0.006c-0.146,0.015-0.441,0.029-1.051,0.042
		c-0.795-0.003-1.562-0.013-2.332-0.021c-0.008-0.002-0.021-0.002-0.031-0.004c-0.012,0.001-0.043,0.001-0.057,0.002
		c-1.813-0.021-3.642-0.039-5.851,0.04l-1.822-0.131c-2.274,0.035,1.637,0.143-0.825,0.209c-0.131,0.002-0.267,0.003-0.396,0.008
		l-0.426-0.121l-1.813,0.097c-0.079-0.04,0.179-0.094-0.375-0.113c-0.437,0.021-0.983,0.049-1.594,0.076
		c-0.446-0.042-0.348-0.08,0.652-0.13c-3.011,0.092-3.131,0.051-4.742,0.102c-0.363-0.013-0.658-0.023-0.654-0.025
		c2.484-0.126,4.287-0.092,2.357-0.191c-0.322,0.247-6.068,0.06-7.76,0.182c-1.273-0.03-3.128-0.044-5.244-0.051l-0.066-0.029
		l-0.375-0.005l0.183,0.033c-3.395-0.01-7.414-0.006-10.813-0.028c-1.473-0.176-1.832,0.078-5.864-0.109l2.149-0.009
		c-1.201-0.164-2.959-0.127-5.308-0.247c0.547,0.054,4.664,0.285,2.144,0.323c-0.673-0.027-1.582-0.047-2.949-0.008
		c0.062-0.093-1.252-0.084-2.877-0.097l0.197-0.122c-1.782,0.017-1.687,0.081-2.753,0.125c-1.944-0.034-2.292-0.133-2.71-0.218
		c-3.173-0.036,2.116,0.16-1.664,0.169c-2.625-0.054-4.521-0.009-7.681,0.057c-1.846-0.047,0.328-0.074-0.332-0.111l-1.644,0.094
		c-0.399-0.003-0.271-0.034-0.208-0.049c-1.377,0.035-0.107,0.123-2.26,0.151c-0.529,0.126-4.507-0.169-7.124,0.002
		c-0.683-0.03,0.271-0.078,0.037-0.124c-3.614,0.133-3.14,0.086-5.967,0.271l-2.601-0.042c1.946,0.063-0.311,0.208-2.263,0.329
		c0.702,0.034,1.298,0.064,1.691,0.077l-0.848,0.031c-0.319-0.002-0.638-0.002-0.941,0.004l0.29,0.02l-0.54,0.02
		c-0.295-0.017-0.601-0.039-0.915-0.065c0.034-0.005,0.061-0.008,0.098-0.013c-0.05,0.003-0.09,0.006-0.141,0.009
		c-0.316-0.027-0.635-0.056-0.952-0.086c0.146-0.023,0.351-0.048,0.585-0.073l1.271,0.057c0.726-0.087,1.399-0.181,1.151-0.25
		c-0.199,0.018-0.598,0.036-1.045,0.05c0.189-0.023,0.306-0.043,0.194-0.054c-0.128-0.011-0.444,0.021-0.947,0.061l-0.912-0.125
		l-0.12,0.057l-4.329-0.025c-0.263,0.017-0.521,0.034-0.779,0.052c-0.154-0.014-0.431-0.026-0.915-0.034
		c-0.894-0.062-5.741,0.15-8.315-0.009c0.46,0.049,0.907,0.097,0.188,0.124c-0.377-0.006-0.832-0.009-1.332-0.022
		c0.045,0.008,0.027,0.015,0.051,0.022c-2.058-0.049-4.855-0.229-6.603-0.109c-0.253-0.017-0.34-0.031-0.343-0.043
		c-1.584,0.014-5.238,0.031-6.228,0.107c-1.351-0.326-9.942,0.088-9.841-0.193l-4.866,0.03l0.128-0.031
		c-3.114-0.011-4.212,0.063-5.3,0.137c-0.718-0.018-0.197-0.047-0.138-0.063c-3.566-0.037-4.637-0.035-6.749,0.043
		c-0.963-0.011-2.194-0.029-2.712-0.021l0.212,0.009c-0.563,0.026-2.281-0.007-4.414-0.031c1.417-0.028,2.135-0.006,1.521-0.133
		c-2.566-0.067-0.681,0.116-2.991,0.039c-0.596,0.04,1.582,0.061,1.292,0.093c-1.811-0.02-3.875-0.028-5.784,0.011
		c0.346-0.018,0.675-0.033,0.973-0.046c-1.46-0.062-0.377-0.078-2.604-0.09c-0.758-0.065,1.253-0.081,1.909-0.079
		c0,0-1.29-0.02-2.582-0.039c-1.309-0.014-2.617-0.028-2.617-0.028c0.173,0.121-3.396,0.122-3.8,0.208
		c-0.292-0.003-0.58-0.007-0.859-0.008c0.075-0.015,0.127-0.027,0.117-0.035c-0.144,0.013-0.513,0.024-0.957,0.034
		c-0.604,0-1.146,0.008-1.633,0.022c-0.619,0.003-1.141,0.001-1.268-0.012l1.577-0.065c-2.063-0.054-3.369,0.164-5.842,0.034
		c-0.851-0.011-2.577-0.173-2.718-0.09c0.699,0.067,1.122,0.213,1.273,0.356c-1.561-0.023-4.111,0.002-4.023-0.079
		c-0.362,0.001-0.718-0.001-1.08,0c0.309-0.047,0.465-0.091,0.035-0.124c-0.04,0.036-0.8,0.085-1.117,0.101
		c-0.91-0.024,0.324-0.112-1.622-0.082c-0.245,0.126-3.561,0.03-1.311,0.103c-0.37,0-0.748,0-1.114,0
		c-2.066-0.015-4.127-0.039-6.164-0.061c-4.082-0.044-8.097-0.091-12.041-0.114l0.888,0.146l-2.747-0.021
		c-0.715-0.036-0.955-0.115,1.005-0.1c-1.021-0.085-3.297,0.051-3.353,0.082c-3.834-0.075,1.516-0.157,0.337-0.167l-1.601,0.003
		l0.359,0.018c-1.303,0.051-1.42,0.107-3.787,0.114c-1.495-0.021-0.766-0.083-1.356-0.086c0.005-0.01-0.197-0.014-0.904,0
		l-3.486,0.003l1.401,0.105c-1.537,0.061-3.265,0.008-1.651,0.127c-2.375-0.184-12.966-0.012-14.426-0.065
		c-2.122,0.091-4.257,0.1-6.869,0.1c0.662,0.021,1.114,0.144-1.151,0.138c0.702-0.261-4.183-0.094-6.078-0.272
		c1.678,0.116-6.385,0.058-3.771,0.221c-1.888-0.013-0.149-0.096-1.595-0.15c-4.441,0.119-9.868-0.023-15.38,0.034
		c-0.08,0.034,0.854,0.082-0.324,0.138l-2.941-0.157c-1.088,0.021-0.984,0.2-2.989,0.09c0.285,0.027,0.71,0.068-0.021,0.083
		c-5.424-0.04-10.95-0.059-16.51-0.05c-5.555-0.001-11.142-0.021-16.59-0.192c1.468,0.07,0.476,0.073-0.662,0.072
		c0.734,0.018-0.042,0.084,0.09,0.13L7.648-27.02c-0.886,0.125-4.938-0.006-5.47,0.114l1.471-0.018
		c-2.005,0.138,2.592,0.327,2.244,0.511c1.683-0.118,4.05,0.088,6.674,0.103l-0.136,0.021l0.524-0.023
		c0.747-0.001,1.51-0.016,2.287-0.063c0.782,0.04-0.691,0.057-0.279,0.101c0.608-0.05,1.318-0.07,2.281-0.068l-0.622,0.073
		c0.941-0.006,1.989-0.021,3.023-0.035c5.113,0.007,7.653,0.086,13.745,0.154l-0.013-0.002l1.441-0.038
		c0.133,0.006,0.266,0.012,0.42,0.019c0.181-0.015,0.261-0.027,0.279-0.037l1.04-0.027c1.688,0.013,3.574,0.013,5.026,0.034
		c-0.09,0.018-0.298,0.036-0.813,0.056c0.385-0.015,0.925-0.03,1.348-0.047c0.787,0.017,1.396,0.041,1.673,0.082
		c2.125-0.007-0.633-0.103,1.492-0.111l0.569,0.055l0.529-0.076c0.151,0,0.266,0.004,0.401,0.006
		c0.062,0.005,0.112,0.009,0.152,0.013c-0.019-0.003-0.04-0.007-0.059-0.011c1.048,0.019,1.62,0.074,1.67,0.115
		c-0.125-0.002-0.309,0.002-0.484,0.005l0.165-0.021l-0.923,0.02l0.431,0.007c-0.184,0.005-0.372,0.01-0.511,0.012
		c1.816,0.06,5.095-0.044,5.72-0.025l-2.05-0.026c5.268-0.071,11.569-0.047,16.864-0.146c-0.333,0.101,0.54,0.266,1.667,0.372
		c0.066-0.033,0.077-0.063,1.936-0.104c-0.638-0.043-4.068-0.107-2.491-0.173c2.451-0.033,1.991,0.032,3.169,0.075
		c-0.925-0.092,2.614-0.128,2.63-0.249c0.609,0.001,1.343-0.001,2.372-0.014l-0.168,0.012c0.92-0.047,2.165-0.074,3.452-0.075
		c-1.162,0.055,2.279,0.088,0.75,0.151c0.648-0.015,1.148-0.027,1.556-0.038l0.465,0.003l-0.372-0.006
		c2.332-0.061,1.048-0.063,3.566-0.21l0.731,0.068c1.008-0.069,1.08-0.104,3.401-0.133c-1.885,0.07,1.521,0.102-0.585,0.192
		c0.364,0.01,0.683,0.013,1.021,0.019c-0.771,0.037-1.891,0.078-1.3,0.113l1.369-0.022c1.282,0.076-2.574,0.13-0.824,0.16
		c-1.854,0.077-3.919,0.151-6.522,0.101l-0.484-0.119c0.054,0.035,1.697,0.074,2.428,0.04c-1.087,0.05-3.973-0.17-5.169-0.018
		l1.816,0.086c-1.859,0.055-4.175,0.175-6.483,0.132c1.032,0.119,0.535-0.012,2.159,0.128c-1.404-0.172,5.919,0.021,3.646-0.162
		c1.675,0.162,2.912,0.074,5.119,0.214c-0.069-0.04-0.782-0.076,1.162-0.053c0.088-0.011,0.292-0.025,0.425-0.033
		c0.059,0.001,0.08,0.002,0.13,0.003l-0.106-0.005c0.083-0.006,0.09-0.007-0.04-0.001c-0.462-0.018-0.84-0.04-0.992-0.062
		c0.952-0.079,4.071-0.101,5.108-0.151c1.162,0.012-0.476,0.047,0.168,0.085l1.553-0.078c0.176,0.086,3.143,0.126,0.41,0.192
		l2.481-0.01c1.481,0.04,3.51,0.047,4.728,0.004c1.186,0.012,2.883-0.113,1.917-0.04c0,0,0.949-0.023,1.893-0.05
		c0.944-0.026,1.888-0.052,1.888-0.052l0.053,0.021c3.771-0.04,7.65-0.245,12.04-0.149c1.221-0.04,2.481-0.084,4.584-0.089
		l0.479,0.069c1.572-0.049,4.853,0.007,5.47-0.08c1.877,0.18,7.656-0.013,10.453,0.001l0.064-0.087
		c0.962,0.005,1.446-0.008,1.728-0.028c0.593-0.008,1.208-0.019,1.843-0.029l-0.72,0.054l2.143-0.036l-0.452,0.106
		c2.34-0.081,3.061-0.062,5.347-0.035c-0.481-0.059,0.205-0.146,1.822-0.167c0.287,0.005,0.577,0.009,0.87,0.013
		c0.479,0.039-0.583,0.063,1.401,0.053c0.072,0.002,0.141,0.005,0.21,0.008c-0.612,0.057-1.306,0.119-2.492,0.04
		c-0.127,0.03-0.635,0.059-0.769,0.089c1.492,0.063,3.742,0.01,4.779,0.008c-0.402-0.003-0.88-0.008-1.125-0.021l3.457-0.112
		c0.266-0.003,0.532-0.007,0.795-0.012c0.394,0.03-0.021,0.056-0.479,0.081c0.84-0.011,1.412-0.055,2.646-0.064
		c-0.3,0.076-0.205,0.154-1.955,0.192l3.946-0.089c0.274,0.033,2.061,0.087,1.556,0.116c1.279,0.022,2.885-0.037,4.574-0.081
		c0.931,0.067,1.718,0.124,1.635,0.057l-0.333-0.034c0.072-0.001,0.144,0.049,0.215,0.049c0.005,0,0.008,0,0.013,0
		c0.423,0,0.604-0.041,0.67-0.057c0.455-0.003,0.912-0.028,1.361-0.02c0.144-0.015,0.441-0.043,1.047-0.055
		c0.795,0.003,1.561,0.006,2.332,0.015c0.008,0.001,0.021-0.001,0.032,0c0.011-0.001,0.042-0.003,0.056-0.004
		c1.813,0.021,3.643,0.039,5.853-0.04l1.819,0.13c2.278-0.035-1.633-0.143,0.829-0.209c0.131-0.003,0.266-0.004,0.396-0.008
		l0.426,0.121l1.811-0.097c0.08,0.04-0.178,0.094,0.375,0.113c0.438-0.021,0.984-0.049,1.595-0.076
		c0.447,0.042,0.349,0.08-0.651,0.13c3.01-0.092,3.13-0.051,4.739-0.102c0.364,0.013,0.659,0.023,0.654,0.025
		c-2.483,0.126-4.284,0.092-2.353,0.191c0.319-0.248,6.065-0.06,7.756-0.182c1.274,0.031,3.127,0.044,5.247,0.051l0.066,0.029
		l0.375,0.005l-0.181-0.034c3.393,0.01,7.411,0.006,10.809,0.029c1.47,0.177,1.832-0.078,5.866,0.109l-2.151,0.009
		c1.202,0.165,2.96,0.127,5.308,0.247c-0.545-0.054-4.661-0.285-2.143-0.323c0.675,0.027,1.582,0.046,2.949,0.008
		c-0.061,0.093,1.255,0.084,2.88,0.097l-0.199,0.122c1.784-0.017,1.686-0.081,2.752-0.125c1.944,0.034,2.295,0.133,2.71,0.219
		c3.175,0.035-2.117-0.16,1.665-0.169c2.627,0.054,4.52,0.009,7.679-0.057c1.846,0.046-0.327,0.074,0.335,0.111l1.641-0.094
		c0.402,0.003,0.274,0.034,0.21,0.048c1.377-0.035,0.106-0.123,2.257-0.151c0.529-0.126,4.507,0.169,7.126-0.002
		c0.685,0.03-0.271,0.078-0.039,0.124c3.616-0.133,3.142-0.087,5.97-0.271l2.602,0.042c-1.947-0.063,0.311-0.208,2.262-0.329
		c-0.701-0.035-1.299-0.064-1.689-0.078l0.849-0.03c0.321,0.001,0.638,0.001,0.94-0.004l-0.291-0.02l0.537-0.02
		c0.299,0.017,0.604,0.039,0.918,0.065c-0.035,0.004-0.061,0.008-0.098,0.013c0.05-0.003,0.09-0.006,0.139-0.009
		c0.315,0.027,0.635,0.056,0.951,0.086c-0.146,0.023-0.349,0.047-0.582,0.073l-1.273-0.058c-0.727,0.087-1.398,0.181-1.151,0.25
		c0.199-0.017,0.603-0.036,1.048-0.05c-0.191,0.023-0.308,0.043-0.193,0.054c0.127,0.011,0.44-0.021,0.946-0.06l0.912,0.124
		l0.117-0.057l4.328,0.025c0.264-0.017,0.521-0.034,0.782-0.051c0.15,0.014,0.429,0.026,0.91,0.034
		c0.896,0.063,5.742-0.15,8.318,0.009c-0.46-0.049-0.906-0.097-0.189-0.123c0.379,0.005,0.834,0.008,1.334,0.022
		c-0.047-0.009-0.026-0.015-0.051-0.022c2.055,0.049,4.855,0.228,6.603,0.108c0.25,0.017,0.34,0.031,0.34,0.043
		c1.588-0.014,5.239-0.03,6.229-0.107c1.354,0.326,9.94-0.088,9.842,0.194l4.868-0.03l-0.129,0.031
		c3.111,0.011,4.21-0.063,5.298-0.137c0.721,0.018,0.196,0.047,0.139,0.063c3.566,0.037,4.637,0.035,6.748-0.043
		c0.963,0.011,2.197,0.029,2.715,0.021l-0.215-0.009c0.561-0.026,2.279,0.007,4.417,0.031c-1.417,0.028-2.136,0.006-1.524,0.133
		c2.569,0.067,0.685-0.116,2.992-0.039c0.598-0.039-1.582-0.061-1.289-0.093c1.812,0.02,3.873,0.029,5.785-0.011
		c-0.346,0.018-0.678,0.034-0.976,0.046c1.458,0.062,0.378,0.078,2.603,0.09c0.759,0.066-1.252,0.081-1.908,0.079
		c0,0,1.289,0.02,2.582,0.04c1.306,0.014,2.613,0.027,2.613,0.027c-0.17-0.12,3.398-0.122,3.801-0.207
		c0.292,0.003,0.582,0.006,0.858,0.008c-0.075,0.015-0.128,0.028-0.117,0.035c0.144-0.013,0.513-0.024,0.96-0.034
		c0.602,0,1.144-0.008,1.63-0.021c0.622-0.004,1.145-0.001,1.271,0.011l-1.576,0.065c2.063,0.054,3.367-0.164,5.842-0.034
		c0.852,0.012,2.574,0.173,2.715,0.09c-0.696-0.067-1.119-0.213-1.272-0.356c1.561,0.024,4.11-0.001,4.022,0.079
		c0.364-0.001,0.718,0.001,1.082,0c-0.309,0.048-0.465,0.091-0.035,0.124c0.041-0.036,0.802-0.084,1.117-0.101
		c0.91,0.024-0.326,0.112,1.619,0.082c0.248-0.126,3.563-0.03,1.312-0.103c0.37,0,0.745,0,1.114,0
		c2.068,0.015,4.127,0.04,6.166,0.061c4.08,0.044,8.099,0.091,12.038,0.114l-0.886-0.146l2.744,0.021
		c0.719,0.037,0.955,0.115-1.005,0.1c1.021,0.084,3.298-0.051,3.355-0.082c3.831,0.075-1.52,0.157-0.342,0.167l1.602-0.003
		l-0.358-0.018c1.303-0.051,1.42-0.107,3.787-0.114c1.493,0.021,0.766,0.084,1.354,0.087c-0.002,0.009,0.197,0.014,0.907,0
		l3.482-0.004l-1.4-0.105c1.537-0.062,3.269-0.008,1.653-0.127c2.372,0.184,12.964,0.012,14.426,0.066
		c2.119-0.091,4.255-0.1,6.866-0.101c-0.662-0.021-1.111-0.143,1.15-0.138c-0.702,0.261,4.184,0.094,6.078,0.271
		c-1.678-0.116,6.388-0.057,3.771-0.221c1.888,0.013,0.147,0.096,1.596,0.15c4.438-0.119,9.87,0.023,15.379-0.034
		c0.083-0.034-0.854-0.082,0.325-0.137l2.939,0.157c1.088-0.021,0.984-0.2,2.989-0.091c-0.284-0.027-0.71-0.068,0.024-0.083
		c5.422,0.041,10.948,0.059,16.508,0.05c5.555,0.001,11.141,0.021,16.59,0.192c-1.469-0.07-0.477-0.074,0.662-0.072
		c-0.734-0.018,0.043-0.084-0.091-0.13l4.564,0.141c0.886-0.125,4.938,0.006,5.472-0.114l-1.47,0.018
		C498.343-26.596,493.745-26.786,494.095-26.969z M33.374-26.154l-0.455-0.09c0.968,0.011,1.396,0.029,1.792,0.048L33.374-26.154z
		 M35.499-26.221c-0.298-0.055-3.904,0.004-2.691-0.12c0.599,0.062,1.854,0.087,3.311,0.101L35.499-26.221z M68.937-26.361
		l-0.021-0.002c1.858-0.043,2.744-0.041,3.55-0.032C71.907-26.341,70.368-26.307,68.937-26.361z M72.814-26.39
		c0.295,0.004,0.617,0.008,0.971,0.012l-1.258,0.026C72.508-26.363,72.694-26.377,72.814-26.39z M406.628-26.989
		c-2.522,0.03-4.156,0.141-5.731,0.012C402.776-26.985,404.81-26.992,406.628-26.989z M401.206-27.455l-0.063,0.005
		C399.755-27.479,400.247-27.468,401.206-27.455z M281.917-27.119c0.215-0.008,0.483-0.014,0.79-0.017
		C282.734-27.107,282.391-27.109,281.917-27.119z M279.253-27.223c-0.282,0.036-0.528,0.047-0.772,0.05
		c-0.072-0.016,0.008-0.033,0.43-0.055c-0.566,0.012-1.074,0.018-1.559,0.022c-0.121-0.006-0.232-0.012-0.371-0.018
		C277.6-27.236,278.87-27.283,279.253-27.223z M230.724-26.906c-0.112-0.01-0.218-0.018-0.327-0.026
		c0.284,0.002,0.582,0.006,0.917,0.016C231.131-26.911,230.926-26.909,230.724-26.906z M218.083-26.265
		c-0.218,0.008-0.487,0.013-0.79,0.017C217.264-26.278,217.609-26.276,218.083-26.265z M175.418-27.054
		c-0.367-0.006-0.67-0.005-0.979-0.005l-0.197-0.045L175.418-27.054z M160.729-27.302c0.059,0.045-0.362,0.103-1.061,0.158
		c-1.337-0.013-2.686-0.036-3.946-0.052L160.729-27.302z M144.401-26.847c0-0.002,0-0.005,0-0.007
		C144.401-26.852,144.401-26.85,144.401-26.847z M105.771-27.201l0.545,0.022C105.085-27.146,105.431-27.172,105.771-27.201z
		 M93.369-26.396c2.523-0.03,4.159-0.141,5.736-0.012C97.225-26.4,95.19-26.392,93.369-26.396z M98.793-25.929l0.064-0.005
		C100.245-25.906,99.753-25.917,98.793-25.929z M108.238-26.309c-5.61,0.049-4.565,0.345-9.381,0.256
		c-1.925-0.093-0.189-0.206-0.641-0.277c2.412-0.054,3.784,0.044,5.44,0.029l-2.071-0.036c0.755-0.037,2.358-0.074,3.26-0.06
		c-0.753-0.03-2.904-0.022-5.409-0.012c1.715-0.186-4.334-0.077-3.122-0.123c-1.066-0.06,1.822-0.156,3.361-0.144
		c1.563-0.002,2.68,0.241,6.581,0.22c-0.388,0-0.415,0.016-0.803,0.017c1.428,0.045,2.803-0.079,4.539-0.006
		c-0.29,0.016-0.486,0.031-0.273,0.046l2.143-0.056c0.189-0.036-0.404-0.047-1.181-0.025c0.891-0.035,1.824,0.03,2.077-0.094
		c0,0-0.901,0.004-1.806,0.009c-0.901,0.003-1.8,0.012-1.8,0.012c0.718-0.013,1.428-0.042,2.188-0.069
		c0.688,0.036,2.141-0.008,3.414-0.06c0.407,0.002,0.84,0.009,1.298,0.02c-0.062,0.016-0.125,0.032-0.231,0.048
		c-0.404,0.018-0.896,0.034-1.295,0.045c0.269,0.014,0.534,0.018,0.798,0.019c-0.274,0.03-0.628,0.059-1.014,0.087
		c-1.199-0.002-2.499-0.003-3.454,0.043c0.681,0.045,2.207-0.005,2.904-0.003c-0.989,0.064-2.228,0.123-3.637,0.171
		C107.172-26.172,108.738-26.34,108.238-26.309z M110.456-26.469c0.051-0.003,0.104-0.006,0.154-0.008
		C110.563-26.475,110.509-26.472,110.456-26.469z M220.747-26.161c0.282-0.036,0.527-0.047,0.774-0.05
		c0.069,0.016-0.008,0.033-0.431,0.055c0.566-0.012,1.072-0.018,1.558-0.022c0.12,0.006,0.231,0.012,0.37,0.018
		C222.398-26.148,221.13-26.101,220.747-26.161z M251.199-26.677c-0.941,0.15-2.079,0.062-4.111,0.067l0.056-0.015
		c-0.808-0.021-1.388-0.032-1.832-0.039c1.587-0.005,2.109-0.003,4.191-0.028l-0.702-0.015c0.938-0.151,2.079-0.062,4.11-0.067
		l-0.06,0.015c0.81,0.021,1.39,0.032,1.836,0.039c-1.588,0.005-2.11,0.003-4.192,0.029L251.199-26.677z M269.271-26.478
		c0.112,0.009,0.22,0.017,0.328,0.025c-0.285-0.002-0.58-0.006-0.914-0.016C268.866-26.473,269.073-26.475,269.271-26.478z
		 M324.579-26.33c0.367,0.006,0.674,0.005,0.981,0.005l0.195,0.045L324.579-26.33z M339.271-26.082
		c-0.06-0.045,0.358-0.103,1.059-0.157c1.34,0.013,2.688,0.035,3.946,0.052L339.271-26.082z M354.401-26.537
		c0,0.002,0,0.005,0,0.007C354.401-26.532,354.401-26.535,354.401-26.537z M394.227-26.184l-0.545-0.022
		C394.913-26.238,394.567-26.212,394.227-26.184z M400.323-26.709c-1.565,0.002-2.683-0.241-6.584-0.22
		c0.392,0,0.416-0.016,0.804-0.017c-1.425-0.045-2.803,0.08-4.539,0.006c0.292-0.016,0.489-0.03,0.276-0.046l-2.146,0.057
		c-0.187,0.035,0.407,0.047,1.178,0.025c-0.888,0.035-1.82-0.03-2.07,0.094c0,0,0.9-0.004,1.803-0.009
		c0.901-0.003,1.801-0.012,1.801-0.012c-0.719,0.013-1.428,0.042-2.186,0.069c-0.691-0.036-2.146,0.009-3.418,0.06
		c-0.406-0.002-0.84-0.009-1.297-0.02c0.063-0.016,0.127-0.033,0.229-0.049c0.407-0.018,0.896-0.034,1.295-0.045
		c-0.268-0.013-0.534-0.018-0.795-0.018c0.273-0.03,0.628-0.059,1.014-0.087c1.199,0.002,2.496,0.003,3.451-0.043
		c-0.678-0.045-2.205,0.005-2.899,0.003c0.987-0.064,2.229-0.124,3.637-0.171c2.951-0.081,1.386,0.087,1.886,0.057
		c5.61-0.049,4.565-0.345,9.382-0.257c1.925,0.093,0.188,0.206,0.642,0.278c-2.412,0.053-3.787-0.045-5.443-0.029l2.074,0.036
		c-0.756,0.038-2.359,0.074-3.26,0.06c0.752,0.029,2.901,0.022,5.407,0.011c-1.719,0.186,4.332,0.077,3.119,0.124
		C404.749-26.792,401.86-26.696,400.323-26.709z M389.538-26.915c-0.047,0.003-0.096,0.005-0.146,0.007
		C389.44-26.909,389.487-26.912,389.538-26.915z M426.216-27.006l1.258-0.026c0.019,0.011-0.168,0.024-0.286,0.038
		C426.892-26.998,426.566-27.002,426.216-27.006z M427.534-26.99c0.559-0.054,2.096-0.087,3.524-0.034l0.021,0.002
		C429.226-26.978,428.341-26.98,427.534-26.99z M466.623-27.231l0.454,0.09c-0.967-0.011-1.396-0.029-1.789-0.048L466.623-27.231z
		 M467.189-27.044c-0.6-0.062-1.854-0.087-3.309-0.101l0.619-0.02C464.799-27.109,468.401-27.168,467.189-27.044z"/>
	<path fill="#794431" d="M234.564-27.114c0.186,0.013,0.252,0.03,0.311,0.046C235.096-27.087,235.08-27.105,234.564-27.114z"/>
	<path fill="#794431" d="M326.739-27.124l0.096,0c0.051-0.006,0.076-0.012,0.09-0.017L326.739-27.124z"/>
	<path fill="#794431" d="M138.56-27.211c0.59,0.009,0.92,0.024,1.144,0.041C139.725-27.194,139.454-27.211,138.56-27.211z"/>
	<path fill="#794431" d="M80.978-25.771l1.803-0.02c-0.872,0.003-1.181-0.019-1.619-0.034
		C81.198-25.803,81.541-25.771,80.978-25.771z"/>
	<path fill="#794431" d="M77.053-26.126c-0.389,0.108,0.957,0.075,2.292,0.043c-0.133-0.079-1.258-0.055-2.513-0.044
		C76.906-26.127,76.978-26.127,77.053-26.126z"/>
	<path fill="#794431" d="M75.38-26.126c-0.154,0.044,0.468,0.011,1.159,0.001C76.151-26.122,75.758-26.12,75.38-26.126z"/>
	<path fill="#794431" d="M92.351-25.881c-0.609-0.017-0.359,0.102-0.71,0.073C90.989-25.705,95.653-25.951,92.351-25.881z"/>
	<polygon fill="#794431" points="79.51,-26.322 78.363,-26.344 78.8,-26.246 	"/>
	<path fill="#794431" d="M88.234-26.249l-2-0.032c0.029,0.016-0.223,0.025-0.537,0.032C86.931-26.242,88.282-26.22,88.234-26.249z"
		/>
	<path fill="#794431" d="M84.088-26.237c0.349,0,1.096-0.002,1.609-0.012C85.057-26.253,84.447-26.252,84.088-26.237z"/>
	<polygon fill="#794431" points="495.382,-26.252 497.017,-26.206 495.978,-26.275 	"/>
	<path fill="#794431" d="M498.612-26.387l0.334,0.126l1.043-0.11C499.614-26.367,498.884-26.358,498.612-26.387z"/>
	<path fill="#794431" d="M272.521-27.525l-0.147,0.029c0.235,0.035,0.627,0.042,1.408,0.055L272.521-27.525z"/>
	<path fill="#794431" d="M313.311-27.281c-0.767-0.002-1.661,0.025-2.431,0.023C312.544-27.283,313.521-27.14,313.311-27.281z"/>
</g>
</svg>
