<?xml version="1.0" encoding="utf-8"?>
<!-- Generator: Adobe Illustrator 16.0.0, SVG Export Plug-In . SVG Version: 6.00 Build 0)  -->
<!DOCTYPE svg PUBLIC "-//W3C//DTD SVG 1.1//EN" "http://www.w3.org/Graphics/SVG/1.1/DTD/svg11.dtd">
<svg version="1.1" id="圖層_1" xmlns="http://www.w3.org/2000/svg" xmlns:xlink="http://www.w3.org/1999/xlink" x="0px" y="0px"
	 width="500px" height="2px" viewBox="0 0 500 2" enable-background="new 0 0 500 2" xml:space="preserve">
<g>
	<path fill="#587937" d="M499.438,0.451c0.736,0.007,0.455-0.074,0.563-0.088C498.779,0.381,499.475,0.473,499.438,0.451z"/>
	<path fill="#587937" d="M471.162,0.304c-0.242,0-0.578-0.002-1.152-0.009c0.357,0.056-1.32,0.04,1.405,0.024
		C471.281,0.312,471.242,0.308,471.162,0.304z"/>
	<path fill="#587937" d="M471.162,0.304C472.361,0.306,470.396,0.255,471.162,0.304L471.162,0.304z"/>
	<path fill="#587937" d="M465.637,0.307l1.59-0.04c-0.314-0.033-1.715-0.047-1.188-0.067C464.414,0.218,464.736,0.25,465.637,0.307z
		"/>
	<path fill="#587937" d="M464.107,0.4l0.822-0.016C464.793,0.369,464.578,0.364,464.107,0.4z"/>
	<path fill="#587937" d="M465.732,0.372c-0.154,0.04,0.197,0.003,0.943-0.022l-1.746,0.034
		C465.152,0.407,465.158,0.452,465.732,0.372z"/>
	<path fill="#587937" d="M468.064,0.474c3.021-0.004,2.604-0.103-0.414-0.099C468.523,0.41,469.66,0.434,468.064,0.474z"/>
	<path fill="#587937" d="M455.861,0.187c-0.109,0.029,0.494,0.08,0.596,0.119l1.18-0.028C457.045,0.254,455.92,0.23,455.861,0.187z"
		/>
	<path fill="#587937" d="M456.455,0.305l-1.77,0.041C456.252,0.361,456.537,0.337,456.455,0.305z"/>
	<polygon fill="#587937" points="450.189,0.082 448.379,0.174 449.168,0.144 	"/>
	<path fill="#587937" d="M444.723,0.131c0.76-0.052-0.971-0.101-0.184-0.131c-1.209,0.003-2.26,0.045-3.201,0.083
		C442.33,0.064,443.381,0.077,444.723,0.131z"/>
	<path fill="#587937" d="M439.758,0.137c0.496-0.01,1.018-0.032,1.58-0.054C440.809,0.093,440.285,0.108,439.758,0.137z"/>
	<path fill="#587937" d="M451.711,0.314c-0.131-0.019-0.371-0.066-1.346-0.092l0.654,0.086
		C451.232,0.31,451.469,0.312,451.711,0.314z"/>
	<path fill="#587937" d="M451.045,0.312l-0.021-0.003c-0.748-0.007-1.268-0.011-1.486-0.013
		C449.725,0.298,450.178,0.303,451.045,0.312z"/>
	<path fill="#587937" d="M451.885,0.315c-0.063,0-0.109-0.001-0.174-0.001C451.773,0.322,451.813,0.326,451.885,0.315z"/>
	<path fill="#587937" d="M454.721,0.377l-2.021,0.046l1.852,0.029C454.521,0.431,454.198,0.397,454.721,0.377z"/>
	<path fill="#587937" d="M442.914,0.232c-0.816,0.031-1.697,0.029-2.691,0.029c1.061,0.022,2.156,0.038,3.201,0.043
		C443.58,0.28,444.057,0.236,442.914,0.232z"/>
	<path fill="#587937" d="M446.863,0.278c-0.061,0.001-0.125,0.002-0.184,0.003C446.789,0.289,446.879,0.292,446.863,0.278z"/>
	<polygon fill="#587937" points="430.422,0.215 430.574,0.23 430.615,0.216 	"/>
	<path fill="#587937" d="M443.598,0.321c0.791,0.021,1.279,0.003,1.744-0.02c-0.604,0.005-1.234,0.006-1.918,0.003
		C443.354,0.316,443.336,0.323,443.598,0.321z"/>
	<path fill="#587937" d="M437.014,0.16c0.408,0.02,0.877,0.037,1.369,0.053C437.984,0.184,437.168,0.139,437.014,0.16z"/>
	<path fill="#587937" d="M446.424,0.257l0.119-0.003C446.287,0.235,446.318,0.244,446.424,0.257z"/>
	<path fill="#587937" d="M446.424,0.257c-0.418,0.01-0.75,0.028-1.082,0.044c0.486-0.003,0.941-0.01,1.34-0.021
		C446.586,0.275,446.49,0.266,446.424,0.257z"/>
	<path fill="#587937" d="M434.359,0.238l-0.266,0.01l0.764-0.005c-0.855-0.019-1.469-0.051-2.598-0.114
		c-1.281,0.034-1.551,0.062-1.646,0.087c0,0,0.938,0.005,1.875,0.01C433.43,0.229,434.359,0.238,434.359,0.238z"/>
	<path fill="#587937" d="M436.885,0.462c2.223,0.007,1.58-0.06,2.918-0.088c-3.59,0,1.047-0.04-1.521-0.102
		c0.709-0.01,1.342-0.011,1.941-0.011c-0.641-0.014-1.26-0.014-1.84-0.033l0.08,0.021h0.02l-0.006-0.015
		c0.15,0.011,0.199,0.01,0.025,0.002c-0.012,0.001-0.057-0.002-0.074-0.002c-0.027,0.011-0.1,0.019-0.172,0.028
		c-1.033-0.023-0.158-0.023,0.172-0.031c0.016-0.004,0.043-0.008,0.049-0.012l-0.014-0.001l-3.604,0.024
		c0.754,0.017,1.707,0.02,3.396,0.02C437.633,0.342,435.803,0.367,436.885,0.462z"/>
	<path fill="#587937" d="M453.066,0.532c-0.035-0.006-0.068-0.012-0.104-0.019C452.91,0.515,452.965,0.522,453.066,0.532z"/>
	<polygon fill="#587937" points="430.512,0.086 428.738,0.206 430.09,0.173 	"/>
	<polygon fill="#587937" points="426.33,0.098 425.287,0.141 426.172,0.174 	"/>
	<path fill="#587937" d="M265.873,1.106l0.398,0.019c0.271-0.033,0.531-0.064,0.768-0.092C266.688,1.056,266.289,1.08,265.873,1.106
		z"/>
	<path fill="#587937" d="M263.611,1.435c0.396,0.013,0.959,0.022,1.744,0.028L263.611,1.435z"/>
	<path fill="#587937" d="M173.071,1.449l-0.995,0.088C173.666,1.531,172.956,1.491,173.071,1.449z"/>
	<path fill="#587937" d="M385.943,0.394c-1.143-0.018-2.041-0.02-2.816-0.013C384.512,0.411,385.656,0.468,385.943,0.394z"/>
	<path fill="#587937" d="M210.458,0.526c-0.551,0.009-0.792,0.022-0.79,0.042C210.232,0.56,210.558,0.548,210.458,0.526z"/>
	<path fill="#587937" d="M379.977,0.425c0.199,0.005,0.395,0.007,0.598,0.012c0.783-0.025,1.555-0.048,2.555-0.056
		C382.096,0.359,380.986,0.353,379.977,0.425z"/>
	<path fill="#587937" d="M47.223,1.596c-0.093-0.004-0.205-0.006-0.29-0.01C46.905,1.598,47.034,1.598,47.223,1.596z"/>
	<path fill="#587937" d="M10.63,0.682c0.362-0.004,0.949-0.002,1.502-0.001C11.865,0.675,11.413,0.674,10.63,0.682z"/>
	<path fill="#587937" d="M410.404,0.108C411.244,0.098,410.535,0.098,410.404,0.108L410.404,0.108z"/>
	<path fill="#587937" d="M414.127,0.48c0.066-0.02,0.184-0.033,0.328-0.04C414.281,0.449,414.148,0.46,414.127,0.48z"/>
	<path fill="#587937" d="M411.672,0.14c-0.313-0.012-0.682-0.016-1.076-0.021C410.768,0.127,411.1,0.131,411.672,0.14z"/>
	<path fill="#587937" d="M411.502,0.101c0.285,0.003,0.51,0.006,0.727,0.009C412.33,0.097,412.238,0.088,411.502,0.101z"/>
	<path fill="#587937" d="M410.404,0.108c-0.248,0.002-0.598,0.006-1.174,0.011c0.48-0.004,0.932-0.003,1.363,0
		C410.43,0.116,410.361,0.111,410.404,0.108z"/>
	<path fill="#587937" d="M114.526,1.124c-0.056-0.003-0.107-0.005-0.176-0.009C113.52,1.146,113.883,1.142,114.526,1.124z"/>
	<path fill="#587937" d="M265.438,1.421c-0.188-0.013-0.256-0.029-0.313-0.046C264.904,1.394,264.916,1.412,265.438,1.421z"/>
	<path fill="#587937" d="M173.258,1.432l-0.093-0.001c-0.052,0.006-0.077,0.012-0.095,0.017L173.258,1.432z"/>
	<path fill="#587937" d="M361.439,1.518c-0.592-0.009-0.922-0.022-1.146-0.041C360.271,1.501,360.543,1.52,361.439,1.518z"/>
	<path fill="#587937" d="M419.021,0.078l-1.805,0.021c0.873-0.003,1.184,0.018,1.619,0.034
		C418.799,0.111,418.459,0.078,419.021,0.078z"/>
	<path fill="#587937" d="M422.947,0.433c0.389-0.108-0.957-0.075-2.295-0.043c0.133,0.079,1.26,0.055,2.518,0.044
		C423.094,0.434,423.021,0.435,422.947,0.433z"/>
	<path fill="#587937" d="M424.617,0.433c0.154-0.044-0.469-0.011-1.158-0.001C423.846,0.429,424.24,0.428,424.617,0.433z"/>
	<path fill="#587937" d="M407.648,0.188c0.607,0.017,0.357-0.102,0.707-0.072C409.01,0.013,404.346,0.259,407.648,0.188z"/>
	<polygon fill="#587937" points="420.49,0.629 421.635,0.651 421.198,0.554 	"/>
	<path fill="#587937" d="M411.766,0.557l2,0.032c-0.027-0.017,0.225-0.025,0.533-0.032C413.068,0.55,411.717,0.528,411.766,0.557z"
		/>
	<path fill="#587937" d="M415.908,0.544c-0.348,0-1.096,0.001-1.609,0.012C414.943,0.56,415.551,0.559,415.908,0.544z"/>
	<polygon fill="#587937" points="4.616,0.559 2.98,0.514 4.021,0.583 	"/>
	<path fill="#587937" d="M0.007,0.679c0.375-0.004,1.104-0.013,1.377,0.016L1.049,0.569L0.007,0.679z"/>
	<path fill="#587937" d="M227.475,1.832l0.152-0.027C227.39,1.77,227,1.762,226.214,1.748L227.475,1.832z"/>
	<path fill="#587937" d="M186.688,1.588c0.766,0.002,1.662-0.025,2.433-0.023C187.453,1.591,186.477,1.448,186.688,1.588z"/>
	<path fill="#587937" d="M0.561,1.548C-0.176,1.541,0.105,1.622,0,1.637C1.221,1.619,0.523,1.527,0.561,1.548z"/>
	<path fill="#587937" d="M28.834,1.695c0.245,0,0.58,0.002,1.152,0.01c-0.357-0.055,1.321-0.039-1.405-0.023
		C28.717,1.688,28.754,1.691,28.834,1.695z"/>
	<path fill="#587937" d="M28.834,1.695C27.639,1.693,29.604,1.744,28.834,1.695L28.834,1.695z"/>
	<path fill="#587937" d="M34.362,1.693l-1.59,0.039c0.316,0.033,1.715,0.047,1.188,0.066C35.583,1.781,35.262,1.749,34.362,1.693z"
		/>
	<path fill="#587937" d="M35.893,1.6l-0.824,0.018C35.207,1.63,35.418,1.637,35.893,1.6z"/>
	<path fill="#587937" d="M34.268,1.627c0.154-0.04-0.199-0.002-0.946,0.021l1.747-0.033C34.848,1.594,34.838,1.548,34.268,1.627z"/>
	<path fill="#587937" d="M31.936,1.525c-3.021,0.004-2.604,0.104,0.412,0.1C31.476,1.59,30.337,1.564,31.936,1.525z"/>
	<path fill="#587937" d="M44.138,1.813c0.112-0.027-0.495-0.08-0.595-0.119l-1.178,0.029C42.955,1.744,44.077,1.77,44.138,1.813z"/>
	<path fill="#587937" d="M43.542,1.693l1.768-0.041C43.748,1.639,43.459,1.662,43.542,1.693z"/>
	<polygon fill="#587937" points="49.81,1.917 51.621,1.826 50.831,1.855 	"/>
	<path fill="#587937" d="M55.276,1.869C54.519,1.921,56.248,1.971,55.458,2c1.21-0.003,2.26-0.045,3.204-0.083
		C57.667,1.936,56.617,1.923,55.276,1.869z"/>
	<path fill="#587937" d="M60.242,1.863c-0.497,0.01-1.018,0.031-1.58,0.054C59.188,1.906,59.712,1.893,60.242,1.863z"/>
	<path fill="#587937" d="M48.289,1.686c0.128,0.021,0.365,0.065,1.343,0.09l-0.654-0.086C48.768,1.689,48.527,1.688,48.289,1.686z"
		/>
	<path fill="#587937" d="M48.954,1.688l0.022,0.004c0.747,0.006,1.265,0.012,1.486,0.015C50.272,1.701,49.82,1.697,48.954,1.688z"/>
	<path fill="#587937" d="M48.113,1.684c0.064,0,0.112,0.002,0.177,0.002C48.226,1.678,48.186,1.674,48.113,1.684z"/>
	<path fill="#587937" d="M45.278,1.622l2.023-0.046L45.45,1.547C45.479,1.568,45.799,1.602,45.278,1.622z"/>
	<path fill="#587937" d="M57.083,1.768c0.814-0.031,1.699-0.029,2.691-0.029c-1.058-0.02-2.154-0.037-3.199-0.043
		C56.417,1.721,55.941,1.764,57.083,1.768z"/>
	<path fill="#587937" d="M53.133,1.723c0.062-0.002,0.128-0.002,0.181-0.004C53.208,1.71,53.121,1.707,53.133,1.723z"/>
	<polygon fill="#587937" points="69.578,1.785 69.423,1.77 69.383,1.783 	"/>
	<path fill="#587937" d="M56.401,1.68c-0.793-0.021-1.277-0.005-1.745,0.021c0.603-0.008,1.236-0.01,1.919-0.006
		C56.646,1.684,56.663,1.676,56.401,1.68z"/>
	<path fill="#587937" d="M62.985,1.84c-0.41-0.02-0.877-0.037-1.367-0.053C62.013,1.814,62.832,1.861,62.985,1.84z"/>
	<path fill="#587937" d="M53.575,1.742l-0.119,0.004C53.71,1.764,53.682,1.755,53.575,1.742z"/>
	<path fill="#587937" d="M53.575,1.742c0.418-0.01,0.75-0.027,1.083-0.043c-0.489,0.002-0.944,0.01-1.345,0.02
		C53.413,1.725,53.508,1.732,53.575,1.742z"/>
	<path fill="#587937" d="M65.64,1.762l0.263-0.01l-0.76,0.005c0.856,0.019,1.465,0.052,2.593,0.112
		c1.281-0.033,1.555-0.061,1.648-0.086c0,0-0.938-0.006-1.875-0.01C66.569,1.77,65.64,1.762,65.64,1.762z"/>
	<path fill="#587937" d="M63.113,1.537c-2.22-0.008-1.578,0.061-2.92,0.088c3.592,0-1.045,0.04,1.526,0.102
		c-0.71,0.01-1.345,0.012-1.944,0.012c0.643,0.016,1.263,0.029,1.842,0.049l-0.08-0.008h-0.021h0.005
		c-0.149-0.012-0.199-0.018-0.027-0.012c0.014,0,0.059,0,0.075,0c0.029-0.012,0.101-0.021,0.175-0.031
		c1.03,0.023,0.152,0.022-0.175,0.031c-0.013,0.004-0.042,0.008-0.048,0.012h0.015l3.604-0.021
		c-0.755-0.016-1.707-0.021-3.396-0.021C62.366,1.658,64.192,1.633,63.113,1.537z"/>
	<path fill="#587937" d="M46.933,1.468c0.035,0.006,0.069,0.012,0.103,0.019C47.086,1.484,47.034,1.477,46.933,1.468z"/>
	<polygon fill="#587937" points="69.486,1.913 71.261,1.794 69.91,1.826 	"/>
	<polygon fill="#587937" points="73.667,1.9 74.709,1.857 73.827,1.826 	"/>
	<path fill="#587937" d="M234.125,0.893l-0.401-0.019c-0.272,0.033-0.529,0.064-0.763,0.092
		C233.313,0.944,233.709,0.92,234.125,0.893z"/>
	<path fill="#587937" d="M236.388,0.564c-0.399-0.013-0.962-0.022-1.747-0.028L236.388,0.564z"/>
	<path fill="#587937" d="M326.924,0.551l0.998-0.088C326.334,0.468,327.039,0.509,326.924,0.551z"/>
	<path fill="#587937" d="M114.057,1.605c1.141,0.018,2.04,0.02,2.818,0.012C115.486,1.589,114.34,1.531,114.057,1.605z"/>
	<path fill="#587937" d="M289.537,1.473c0.551-0.009,0.793-0.022,0.789-0.042C289.766,1.439,289.439,1.452,289.537,1.473z"/>
	<path fill="#587937" d="M120.021,1.574c-0.2-0.006-0.391-0.008-0.593-0.012c-0.784,0.023-1.553,0.047-2.553,0.055
		C117.903,1.641,119.013,1.646,120.021,1.574z"/>
	<path fill="#587937" d="M452.777,0.405c0.09,0.003,0.199,0.005,0.287,0.009C453.09,0.402,452.963,0.402,452.777,0.405z"/>
	<path fill="#587937" d="M489.365,1.317c-0.359,0.004-0.949,0.002-1.502,0.002C488.131,1.325,488.584,1.326,489.365,1.317z"/>
	<path fill="#587937" d="M89.596,1.891C88.751,1.9,89.461,1.9,89.596,1.891L89.596,1.891z"/>
	<path fill="#587937" d="M85.873,1.52c-0.069,0.021-0.186,0.033-0.33,0.041C85.719,1.551,85.852,1.539,85.873,1.52z"/>
	<path fill="#587937" d="M88.327,1.859c0.311,0.01,0.681,0.016,1.075,0.021C89.229,1.872,88.898,1.869,88.327,1.859z"/>
	<path fill="#587937" d="M88.497,1.898c-0.287-0.004-0.515-0.006-0.728-0.01C87.667,1.902,87.761,1.91,88.497,1.898z"/>
	<path fill="#587937" d="M89.596,1.891c0.247-0.002,0.596-0.006,1.172-0.011c-0.479,0.004-0.933,0.003-1.364-0.001
		C89.568,1.884,89.638,1.889,89.596,1.891z"/>
	<path fill="#587937" d="M385.469,0.876c0.059,0.003,0.107,0.005,0.178,0.009C386.477,0.854,386.113,0.857,385.469,0.876z"/>
	<path fill="#587937" d="M494.094,0.723c-1.684,0.118-4.047-0.087-6.67-0.104l0.133-0.021l-0.521,0.023
		c-0.746,0.001-1.516,0.016-2.289,0.063c-0.779-0.041,0.689-0.058,0.279-0.102c-0.605,0.05-1.316,0.07-2.279,0.068l0.635-0.076
		c-0.939,0.005-1.988,0.021-3.021,0.035c-5.113-0.007-7.652-0.086-13.748-0.154l0.016,0.003l-1.438,0.038
		c-0.135-0.007-0.268-0.013-0.422-0.019c-0.18,0.015-0.26,0.027-0.277,0.037l-1.039,0.027c-1.689-0.013-3.572-0.013-5.023-0.034
		c0.09-0.018,0.297-0.036,0.813-0.057c-0.391,0.015-0.932,0.03-1.354,0.047c-0.787-0.017-1.396-0.041-1.672-0.082
		c-2.125,0.008,0.633,0.103-1.492,0.111l-0.568-0.055l-0.525,0.076c-0.152-0.001-0.266-0.004-0.4-0.007
		c-0.062-0.004-0.109-0.009-0.148-0.013c0.02,0.003,0.039,0.007,0.061,0.011c-1.049-0.019-1.623-0.073-1.674-0.115
		c0.129,0.002,0.309-0.002,0.484-0.005l-0.164,0.021l0.923-0.021l-0.435-0.007c0.187-0.004,0.375-0.01,0.514-0.012
		c-1.816-0.06-5.1,0.044-5.725,0.025l2.053,0.027c-5.27,0.071-11.564,0.047-16.859,0.146c0.332-0.101-0.539-0.266-1.666-0.372
		c-0.068,0.033-0.078,0.063-1.938,0.104c0.64,0.043,4.066,0.107,2.49,0.172c-2.451,0.034-1.99-0.032-3.172-0.075
		c0.926,0.091-2.611,0.128-2.627,0.249c-0.611-0.001-1.348,0.001-2.373,0.014l0.166-0.011c-0.92,0.047-2.164,0.074-3.449,0.074
		c1.16-0.055-2.277-0.088-0.752-0.15c-0.648,0.015-1.148,0.027-1.558,0.037l-0.464-0.003l0.371,0.006
		c-2.33,0.061-1.051,0.063-3.564,0.21l-0.729-0.068c-1.01,0.069-1.082,0.104-3.403,0.132c1.888-0.069-1.521-0.102,0.587-0.192
		c-0.361-0.01-0.686-0.013-1.021-0.019c0.771-0.037,1.894-0.077,1.301-0.113l-1.368,0.023c-1.278-0.077,2.575-0.131,0.825-0.16
		c1.854-0.077,3.92-0.15,6.521-0.101l0.479,0.119c-0.055-0.035-1.691-0.075-2.428-0.041c1.09-0.05,3.973,0.17,5.172,0.018
		l-1.814-0.086c1.857-0.055,4.176-0.175,6.479-0.132c-1.031-0.119-0.531,0.012-2.156-0.128c1.402,0.173-5.92-0.021-3.646,0.163
		c-1.674-0.163-2.91-0.074-5.117-0.214c0.068,0.039,0.781,0.076-1.162,0.052c-0.088,0.011-0.295,0.025-0.426,0.034
		c-0.06-0.001-0.08-0.002-0.131-0.003l0.105,0.005c-0.086,0.006-0.094,0.007,0.039,0.001c0.463,0.018,0.838,0.04,0.99,0.062
		c-0.951,0.079-4.07,0.101-5.107,0.151c-1.158-0.012,0.479-0.047-0.165-0.085l-1.556,0.077c-0.176-0.086-3.146-0.126-0.408-0.192
		l-2.479,0.01c-1.48-0.04-3.512-0.047-4.729-0.004c-1.188-0.012-2.887,0.113-1.918,0.04c0,0-0.947,0.024-1.895,0.05
		c-0.941,0.026-1.89,0.052-1.89,0.052l-0.054-0.021c-3.771,0.04-7.648,0.245-12.041,0.149c-1.223,0.039-2.479,0.084-4.588,0.089
		l-0.477-0.069c-1.57,0.049-4.854-0.007-5.475,0.08c-1.875-0.18-7.652,0.013-10.447-0.001l-0.064,0.087
		c-0.965-0.005-1.447,0.008-1.729,0.028c-0.593,0.008-1.206,0.019-1.843,0.029l0.723-0.054l-2.146,0.036l0.451-0.106
		c-2.342,0.081-3.063,0.062-5.348,0.035c0.479,0.059-0.203,0.146-1.822,0.167c-0.287-0.005-0.576-0.009-0.867-0.013
		c-0.479-0.039,0.58-0.063-1.397-0.053c-0.071-0.002-0.144-0.006-0.214-0.008c0.609-0.057,1.307-0.119,2.494-0.04
		c0.125-0.03,0.636-0.059,0.768-0.089c-1.488-0.063-3.738-0.01-4.779-0.008c0.401,0.003,0.881,0.008,1.129,0.021l-3.457,0.112
		c-0.266,0.003-0.531,0.007-0.799,0.012c-0.395-0.03,0.021-0.056,0.48-0.081c-0.84,0.011-1.416,0.055-2.646,0.064
		c0.305-0.076,0.207-0.154,1.957-0.192l-3.949,0.089c-0.271-0.033-2.059-0.087-1.553-0.116c-1.281-0.022-2.886,0.038-4.576,0.081
		c-0.928-0.067-1.715-0.124-1.635-0.057L329.1,0.56c-0.072,0.001-0.145,0.004-0.216,0.004c-0.007,0-0.009,0-0.015,0
		c-0.424,0-0.604-0.012-0.67,0.004c-0.455,0.003-0.912,0.001-1.36-0.006c-0.146,0.015-0.44,0.029-1.052,0.042
		c-0.795-0.003-1.563-0.013-2.332-0.021c-0.008-0.002-0.021-0.002-0.03-0.004c-0.013,0.001-0.043,0.001-0.058,0.002
		c-1.813-0.021-3.643-0.039-5.852,0.04L315.69,0.49c-2.273,0.035,1.639,0.143-0.824,0.209c-0.131,0.002-0.268,0.003-0.396,0.008
		l-0.427-0.121l-1.813,0.097c-0.08-0.04,0.18-0.094-0.375-0.113c-0.438,0.021-0.982,0.049-1.594,0.076
		c-0.447-0.042-0.35-0.08,0.65-0.13c-3.012,0.092-3.131,0.051-4.74,0.102c-0.363-0.013-0.658-0.023-0.654-0.025
		c2.483-0.126,4.287-0.092,2.355-0.191c-0.32,0.247-6.066,0.06-7.762,0.182c-1.271-0.03-3.127-0.044-5.24-0.051l-0.066-0.029
		L294.43,0.5l0.184,0.033c-3.396-0.01-7.412-0.006-10.813-0.028c-1.473-0.176-1.832,0.078-5.863-0.109l2.148-0.009
		c-1.201-0.164-2.959-0.127-5.309-0.247c0.549,0.054,4.664,0.285,2.145,0.323c-0.672-0.027-1.582-0.047-2.949-0.008
		c0.063-0.093-1.252-0.084-2.877-0.097l0.197-0.122c-1.781,0.017-1.688,0.081-2.752,0.125c-1.945-0.034-2.293-0.133-2.711-0.218
		c-3.174-0.036,2.115,0.16-1.664,0.169c-2.625-0.054-4.521-0.009-7.682,0.057c-1.848-0.047,0.326-0.074-0.332-0.111l-1.645,0.094
		c-0.398-0.003-0.271-0.034-0.209-0.049c-1.377,0.035-0.105,0.123-2.26,0.151c-0.529,0.126-4.509-0.169-7.124,0.002
		c-0.685-0.03,0.271-0.078,0.037-0.124c-3.614,0.133-3.142,0.086-5.969,0.271l-2.601-0.042c1.946,0.063-0.313,0.208-2.263,0.329
		c0.7,0.034,1.298,0.064,1.689,0.077l-0.848,0.031c-0.319-0.002-0.639-0.002-0.941,0.004l0.29,0.02l-0.54,0.02
		c-0.295-0.017-0.601-0.039-0.915-0.065c0.034-0.005,0.063-0.008,0.1-0.013c-0.052,0.003-0.091,0.006-0.143,0.009
		c-0.314-0.027-0.635-0.056-0.952-0.086c0.146-0.023,0.353-0.048,0.585-0.073l1.271,0.057c0.726-0.087,1.399-0.181,1.151-0.25
		c-0.199,0.018-0.6,0.036-1.046,0.05c0.188-0.023,0.307-0.043,0.193-0.054c-0.128-0.011-0.443,0.021-0.947,0.061l-0.91-0.125
		l-0.12,0.057l-4.329-0.025c-0.265,0.017-0.521,0.034-0.779,0.052c-0.154-0.014-0.431-0.026-0.915-0.034
		c-0.894-0.062-5.741,0.15-8.313-0.009c0.46,0.049,0.905,0.097,0.188,0.124c-0.377-0.006-0.832-0.009-1.332-0.022
		c0.045,0.008,0.027,0.015,0.051,0.022c-2.058-0.049-4.854-0.229-6.603-0.109c-0.253-0.017-0.34-0.031-0.343-0.043
		c-1.584,0.014-5.238,0.031-6.229,0.107c-1.351-0.326-9.94,0.088-9.841-0.193l-4.866,0.03l0.128-0.031
		c-3.112-0.011-4.212,0.063-5.3,0.137c-0.718-0.018-0.197-0.047-0.138-0.063c-3.566-0.037-4.639-0.035-6.749,0.043
		c-0.963-0.011-2.194-0.029-2.712-0.021l0.212,0.009c-0.563,0.026-2.281-0.007-4.414-0.031c1.417-0.028,2.135-0.006,1.521-0.133
		c-2.564-0.067-0.681,0.116-2.989,0.039c-0.598,0.04,1.582,0.061,1.292,0.093c-1.813-0.021-3.875-0.028-5.784,0.011
		c0.346-0.018,0.675-0.033,0.973-0.046c-1.46-0.062-0.377-0.078-2.604-0.09c-0.76-0.065,1.253-0.081,1.907-0.079
		c0,0-1.29-0.021-2.582-0.039c-1.309-0.014-2.615-0.028-2.615-0.028c0.173,0.121-3.396,0.122-3.802,0.208
		c-0.292-0.003-0.578-0.007-0.857-0.008c0.075-0.015,0.127-0.027,0.117-0.035c-0.146,0.013-0.515,0.024-0.957,0.034
		c-0.604,0-1.146,0.008-1.634,0.022c-0.618,0.003-1.142,0.001-1.269-0.012l1.577-0.065c-2.063-0.054-3.369,0.164-5.842,0.034
		c-0.853-0.011-2.577-0.173-2.72-0.09c0.699,0.067,1.122,0.213,1.273,0.356c-1.561-0.023-4.111,0.002-4.023-0.079
		c-0.36,0.001-0.718-0.001-1.078,0c0.309-0.047,0.465-0.091,0.033-0.124c-0.04,0.036-0.8,0.085-1.115,0.101
		c-0.91-0.024,0.322-0.112-1.622-0.082c-0.245,0.126-3.563,0.03-1.313,0.103c-0.37,0-0.748,0-1.114,0
		c-2.064-0.015-4.127-0.039-6.162-0.061c-4.082-0.044-8.099-0.091-12.041-0.114l0.888,0.146l-2.747-0.021
		c-0.715-0.036-0.955-0.115,1.005-0.1c-1.021-0.085-3.297,0.051-3.353,0.082c-3.834-0.075,1.516-0.157,0.337-0.167l-1.603,0.003
		l0.359,0.018c-1.303,0.051-1.42,0.107-3.787,0.114c-1.495-0.021-0.766-0.083-1.356-0.086c0.007-0.01-0.195-0.014-0.902,0
		l-3.486,0.003l1.401,0.105c-1.537,0.061-3.267,0.008-1.651,0.127c-2.375-0.184-12.966-0.012-14.426-0.065
		c-2.122,0.091-4.257,0.1-6.869,0.1c0.662,0.021,1.114,0.144-1.151,0.138c0.702-0.261-4.183-0.094-6.078-0.272
		c1.68,0.116-6.385,0.058-3.771,0.221c-1.888-0.013-0.149-0.096-1.595-0.15c-4.441,0.119-9.868-0.023-15.38,0.034
		c-0.08,0.034,0.854,0.082-0.324,0.138L48.895,0.68c-1.088,0.021-0.982,0.2-2.989,0.09c0.285,0.027,0.712,0.068-0.021,0.083
		c-5.424-0.04-10.95-0.059-16.51-0.05c-5.557-0.001-11.144-0.021-16.59-0.192c1.468,0.07,0.476,0.073-0.662,0.072
		c0.732,0.018-0.042,0.084,0.09,0.13L7.647,0.672c-0.886,0.125-4.938-0.006-5.47,0.114l1.471-0.018
		C1.644,0.906,6.241,1.095,5.893,1.279c1.685-0.118,4.05,0.088,6.674,0.103l-0.136,0.021l0.524-0.023
		c0.747-0.001,1.51-0.016,2.287-0.063c0.78,0.04-0.691,0.057-0.279,0.101c0.606-0.05,1.316-0.07,2.281-0.068l-0.622,0.073
		c0.939-0.006,1.987-0.021,3.021-0.035c5.113,0.007,7.653,0.086,13.745,0.154L33.376,1.54l1.439-0.038
		c0.135,0.006,0.268,0.012,0.42,0.02c0.183-0.016,0.263-0.026,0.279-0.038l1.04-0.027c1.688,0.013,3.574,0.013,5.026,0.034
		c-0.09,0.018-0.298,0.036-0.813,0.056c0.385-0.016,0.925-0.029,1.35-0.047c0.785,0.018,1.396,0.041,1.673,0.082
		c2.125-0.008-0.633-0.103,1.492-0.111l0.567,0.054l0.53-0.075c0.149,0,0.266,0.004,0.399,0.006
		c0.063,0.005,0.112,0.009,0.152,0.013c-0.019-0.003-0.04-0.007-0.059-0.011c1.048,0.019,1.62,0.073,1.67,0.114
		c-0.125-0.002-0.311,0.002-0.484,0.006l0.165-0.021l-0.923,0.021l0.431,0.008C47.548,1.591,47.36,1.598,47.221,1.6
		c1.816,0.061,5.095-0.045,5.72-0.025l-2.05-0.025c5.27-0.073,11.57-0.049,16.865-0.148c-0.333,0.101,0.54,0.266,1.667,0.373
		c0.064-0.031,0.077-0.063,1.936-0.104c-0.638-0.043-4.066-0.105-2.489-0.173c2.449-0.033,1.989,0.032,3.169,0.075
		c-0.927-0.091,2.612-0.127,2.63-0.25c0.607,0.001,1.343-0.001,2.372-0.014L76.872,1.32c0.92-0.047,2.165-0.074,3.452-0.075
		c-1.162,0.055,2.277,0.088,0.75,0.151c0.646-0.015,1.146-0.027,1.556-0.038l0.465,0.003l-0.372-0.006
		c2.332-0.061,1.048-0.063,3.566-0.21l0.729,0.068c1.008-0.069,1.08-0.104,3.401-0.133c-1.885,0.07,1.521,0.102-0.585,0.192
		c0.364,0.01,0.683,0.013,1.021,0.019c-0.771,0.037-1.891,0.078-1.3,0.113l1.369-0.022c1.282,0.076-2.574,0.132-0.824,0.16
		c-1.854,0.077-3.919,0.149-6.521,0.103l-0.484-0.119c0.054,0.035,1.697,0.074,2.428,0.041c-1.087,0.049-3.973-0.17-5.169-0.021
		L82.17,1.63c-1.859,0.056-4.175,0.175-6.483,0.132c1.032,0.119,0.535-0.012,2.159,0.129c-1.404-0.172,5.919,0.021,3.646-0.162
		c1.675,0.162,2.91,0.074,5.117,0.213c-0.067-0.039-0.78-0.074,1.162-0.053c0.088-0.011,0.292-0.025,0.425-0.033
		c0.061,0.002,0.08,0.002,0.132,0.004l-0.106-0.006c0.083-0.006,0.09-0.006-0.04,0c-0.462-0.019-0.84-0.041-0.992-0.063
		c0.952-0.079,4.071-0.102,5.108-0.15c1.162,0.012-0.478,0.047,0.168,0.084l1.553-0.078c0.176,0.086,3.145,0.127,0.41,0.192
		l2.481-0.01c1.479,0.04,3.51,0.047,4.728,0.004c1.188,0.013,2.883-0.112,1.917-0.04c0,0,0.949-0.023,1.893-0.051
		c0.944-0.025,1.89-0.051,1.89-0.051l0.053,0.021c3.771-0.04,7.65-0.245,12.04-0.149c1.221-0.039,2.481-0.083,4.584-0.086
		l0.479,0.069c1.57-0.049,4.853,0.008,5.47-0.08c1.877,0.182,7.656-0.013,10.453,0.001l0.063-0.087
		c0.962,0.005,1.446-0.008,1.729-0.028c0.593-0.008,1.208-0.019,1.843-0.029l-0.72,0.054l2.143-0.036l-0.452,0.106
		c2.34-0.081,3.063-0.062,5.349-0.035c-0.481-0.059,0.204-0.146,1.82-0.167c0.287,0.005,0.577,0.009,0.87,0.013
		c0.479,0.039-0.583,0.063,1.401,0.053c0.072,0.002,0.141,0.005,0.21,0.008c-0.612,0.057-1.306,0.119-2.492,0.04
		c-0.127,0.03-0.635,0.059-0.769,0.089c1.49,0.063,3.74,0.01,4.777,0.008c-0.4-0.003-0.88-0.008-1.125-0.021l3.457-0.112
		c0.268-0.003,0.532-0.007,0.795-0.012c0.396,0.03-0.021,0.056-0.479,0.081c0.84-0.011,1.412-0.055,2.646-0.064
		c-0.3,0.076-0.205,0.154-1.955,0.192l3.946-0.089c0.274,0.033,2.063,0.087,1.556,0.116c1.279,0.021,2.887-0.037,4.574-0.081
		c0.933,0.064,1.718,0.124,1.635,0.059l-0.333-0.036c0.072-0.001,0.146,0.049,0.217,0.049c0.005,0,0.008,0,0.013,0
		c0.423,0,0.604-0.042,0.67-0.057c0.455-0.003,0.912-0.028,1.361-0.02c0.144-0.015,0.439-0.043,1.047-0.055
		c0.795,0.003,1.561,0.006,2.332,0.015c0.008,0.001,0.021-0.001,0.032,0c0.011-0.001,0.042-0.003,0.056-0.004
		c1.813,0.021,3.643,0.039,5.853-0.04l1.819,0.13c2.278-0.035-1.633-0.143,0.829-0.209c0.131-0.003,0.266-0.004,0.396-0.008
		l0.428,0.121l1.811-0.097c0.08,0.04-0.178,0.094,0.375,0.113c0.438-0.021,0.984-0.049,1.595-0.076
		c0.447,0.042,0.351,0.08-0.649,0.13c3.01-0.092,3.13-0.051,4.738-0.102c0.363,0.013,0.658,0.023,0.653,0.025
		c-2.481,0.125-4.284,0.092-2.353,0.193c0.317-0.25,6.063-0.064,7.756-0.184c1.272,0.031,3.127,0.044,5.247,0.051l0.064,0.029
		l0.375,0.005l-0.181-0.034c3.394,0.01,7.411,0.006,10.81,0.029c1.471,0.177,1.831-0.078,5.865,0.109l-2.149,0.008
		c1.201,0.166,2.96,0.127,5.308,0.248c-0.545-0.055-4.661-0.285-2.143-0.323c0.675,0.026,1.582,0.047,2.947,0.009
		c-0.061,0.094,1.256,0.084,2.881,0.098l-0.198,0.123c1.783-0.019,1.686-0.082,2.752-0.125c1.942,0.032,2.295,0.133,2.71,0.219
		c3.175,0.035-2.117-0.16,1.665-0.17c2.627,0.056,4.52,0.01,7.679-0.058c1.846,0.046-0.327,0.074,0.335,0.111l1.642-0.095
		c0.401,0.002,0.273,0.033,0.211,0.047c1.377-0.034,0.104-0.123,2.257-0.149c0.527-0.126,4.506,0.169,7.125-0.002
		c0.686,0.028-0.271,0.078-0.039,0.124c3.617-0.135,3.143-0.087,5.971-0.271l2.603,0.042c-1.946-0.063,0.312-0.208,2.263-0.329
		c-0.701-0.035-1.299-0.064-1.688-0.078l0.85-0.03c0.316,0,0.634,0,0.936-0.005l-0.291-0.02l0.537-0.021
		c0.299,0.017,0.604,0.039,0.918,0.065c-0.035,0.004-0.063,0.008-0.1,0.013c0.051-0.003,0.09-0.006,0.141-0.009
		c0.314,0.027,0.635,0.056,0.949,0.086c-0.146,0.023-0.348,0.047-0.582,0.073l-1.271-0.058c-0.729,0.087-1.396,0.181-1.15,0.25
		c0.199-0.017,0.604-0.036,1.049-0.05c-0.191,0.023-0.309,0.043-0.193,0.054c0.127,0.011,0.439-0.021,0.947-0.06l0.91,0.124
		l0.117-0.057l4.328,0.025c0.264-0.017,0.521-0.034,0.781-0.051c0.148,0.014,0.43,0.026,0.91,0.034
		c0.896,0.063,5.742-0.15,8.316,0.009c-0.459-0.049-0.904-0.097-0.188-0.123c0.379,0.005,0.834,0.008,1.334,0.022
		c-0.047-0.009-0.025-0.015-0.051-0.022c2.055,0.049,4.854,0.228,6.604,0.108c0.25,0.017,0.34,0.031,0.34,0.043
		c1.588-0.014,5.239-0.03,6.229-0.107c1.354,0.328,9.939-0.088,9.842,0.195l4.867-0.031l-0.129,0.033
		c3.111,0.01,4.211-0.063,5.299-0.139c0.721,0.018,0.195,0.047,0.139,0.063c3.566,0.037,4.639,0.035,6.748-0.043
		c0.965,0.011,2.197,0.029,2.717,0.021l-0.217-0.009c0.563-0.026,2.279,0.007,4.416,0.031c-1.416,0.028-2.135,0.006-1.521,0.133
		c2.566,0.065,0.686-0.116,2.992-0.039c0.598-0.039-1.582-0.061-1.289-0.093c1.813,0.02,3.873,0.029,5.785-0.011
		c-0.348,0.018-0.68,0.034-0.979,0.046c1.459,0.062,0.379,0.079,2.604,0.088c0.758,0.065-1.252,0.082-1.908,0.08
		c0,0,1.289,0.021,2.582,0.039c1.307,0.015,2.612,0.026,2.612,0.026c-0.171-0.118,3.397-0.12,3.802-0.207
		c0.291,0.005,0.582,0.007,0.855,0.009c-0.073,0.016-0.127,0.027-0.117,0.034c0.146-0.013,0.516-0.022,0.963-0.032
		c0.602,0,1.145-0.01,1.629-0.021c0.623-0.004,1.146-0.001,1.271,0.011l-1.576,0.063c2.063,0.056,3.367-0.164,5.844-0.032
		c0.854,0.012,2.572,0.173,2.715,0.09c-0.695-0.065-1.119-0.213-1.271-0.356c1.563,0.024,4.109-0.001,4.021,0.079
		c0.363-0.001,0.719,0.001,1.082,0c-0.311,0.048-0.467,0.091-0.035,0.124c0.041-0.036,0.803-0.084,1.117-0.101
		c0.908,0.024-0.326,0.112,1.617,0.082c0.248-0.126,3.564-0.03,1.313-0.103c0.369,0,0.744,0,1.113,0
		c2.066,0.015,4.127,0.04,6.166,0.061c4.08,0.044,8.1,0.091,12.039,0.111l-0.889-0.146l2.744,0.021
		c0.719,0.037,0.955,0.115-1.004,0.1c1.021,0.084,3.297-0.051,3.354-0.082c3.832,0.075-1.521,0.157-0.344,0.167l1.604-0.003
		l-0.357-0.019c1.305-0.051,1.42-0.106,3.787-0.114c1.494,0.021,0.766,0.084,1.354,0.087c-0.002,0.009,0.195,0.014,0.906,0
		l3.482-0.006l-1.4-0.103c1.537-0.063,3.27-0.008,1.652-0.127c2.373,0.184,12.965,0.012,14.426,0.066
		c2.119-0.091,4.256-0.1,6.867-0.101c-0.662-0.021-1.111-0.143,1.148-0.138c-0.701,0.261,4.186,0.094,6.076,0.271
		c-1.678-0.116,6.391-0.057,3.771-0.221c1.889,0.013,0.146,0.096,1.596,0.15c4.438-0.119,9.871,0.023,15.379-0.034
		c0.084-0.034-0.854-0.082,0.326-0.137l2.938,0.157c1.088-0.021,0.982-0.2,2.988-0.091c-0.283-0.027-0.711-0.068,0.023-0.083
		c5.422,0.041,10.947,0.059,16.508,0.05c5.555,0.001,11.143,0.021,16.59,0.192c-1.469-0.07-0.477-0.074,0.662-0.072
		c-0.732-0.018,0.043-0.084-0.09-0.13l4.563,0.141c0.887-0.125,4.938,0.006,5.473-0.114l-1.471,0.018
		C498.342,1.096,493.742,0.906,494.094,0.723z M33.374,1.538l-0.455-0.09c0.968,0.011,1.396,0.029,1.792,0.048L33.374,1.538z
		 M35.499,1.471c-0.298-0.055-3.904,0.004-2.691-0.12c0.601,0.062,1.854,0.087,3.313,0.101L35.499,1.471z M68.937,1.331
		l-0.021-0.002c1.856-0.043,2.744-0.041,3.55-0.032C71.907,1.351,70.368,1.385,68.937,1.331z M72.813,1.302
		c0.295,0.004,0.617,0.008,0.973,0.012l-1.26,0.026C72.507,1.329,72.693,1.315,72.813,1.302z M406.627,0.703
		c-2.521,0.03-4.156,0.141-5.73,0.012C402.775,0.707,404.809,0.7,406.627,0.703z M401.203,0.237l-0.063,0.005
		C399.754,0.213,400.244,0.224,401.203,0.237z M281.916,0.573c0.215-0.008,0.482-0.014,0.791-0.017
		C282.734,0.585,282.391,0.583,281.916,0.573z M279.252,0.469c-0.281,0.036-0.527,0.047-0.771,0.05
		c-0.07-0.016,0.008-0.033,0.432-0.055c-0.566,0.012-1.074,0.018-1.561,0.022c-0.121-0.006-0.23-0.012-0.371-0.018
		C277.6,0.456,278.869,0.409,279.252,0.469z M230.724,0.786c-0.112-0.01-0.218-0.018-0.327-0.026
		c0.284,0.002,0.582,0.006,0.917,0.016C231.13,0.781,230.925,0.783,230.724,0.786z M218.083,1.427
		c-0.22,0.008-0.487,0.013-0.79,0.017C217.264,1.414,217.608,1.416,218.083,1.427z M175.417,0.638
		c-0.367-0.006-0.67-0.005-0.979-0.005l-0.195-0.045L175.417,0.638z M160.729,0.39c0.061,0.045-0.36,0.103-1.061,0.158
		c-1.337-0.013-2.688-0.036-3.946-0.052L160.729,0.39z M144.4,0.845c0-0.002,0-0.005,0-0.007C144.4,0.84,144.4,0.842,144.4,0.845z
		 M105.771,0.491l0.545,0.022C105.084,0.546,105.431,0.52,105.771,0.491z M93.369,1.296c2.521-0.03,4.157-0.141,5.734-0.012
		C97.225,1.292,95.189,1.3,93.369,1.296z M98.792,1.764l0.063-0.006C100.245,1.785,99.752,1.775,98.792,1.764z M108.237,1.383
		c-5.608,0.049-4.563,0.346-9.381,0.256c-1.925-0.093-0.188-0.206-0.641-0.277c2.412-0.054,3.784,0.044,5.438,0.029l-2.069-0.036
		c0.755-0.037,2.356-0.074,3.26-0.06c-0.753-0.03-2.904-0.022-5.409-0.012c1.715-0.186-4.334-0.077-3.122-0.123
		c-1.064-0.06,1.822-0.156,3.361-0.144c1.563-0.002,2.68,0.241,6.581,0.22c-0.388,0-0.415,0.016-0.803,0.017
		c1.428,0.045,2.803-0.079,4.539-0.006c-0.29,0.016-0.486,0.031-0.273,0.046l2.143-0.056c0.189-0.036-0.402-0.047-1.181-0.025
		c0.891-0.035,1.824,0.03,2.077-0.094c0,0-0.901,0.004-1.806,0.009c-0.901,0.003-1.802,0.012-1.802,0.012
		c0.72-0.013,1.43-0.042,2.188-0.069c0.688,0.036,2.141-0.008,3.414-0.06c0.407,0.002,0.84,0.009,1.298,0.02
		c-0.063,0.016-0.125,0.032-0.231,0.048c-0.402,0.018-0.896,0.034-1.295,0.045c0.271,0.014,0.534,0.018,0.8,0.019
		c-0.274,0.03-0.63,0.059-1.016,0.087c-1.199-0.002-2.499-0.003-3.454,0.043c0.683,0.045,2.207-0.005,2.904-0.003
		c-0.989,0.064-2.229,0.123-3.637,0.171C107.171,1.52,108.737,1.352,108.237,1.383z M110.456,1.223
		c0.051-0.003,0.104-0.006,0.152-0.008C110.563,1.217,110.508,1.22,110.456,1.223z M220.747,1.531
		c0.28-0.037,0.525-0.047,0.772-0.05c0.069,0.016-0.008,0.033-0.431,0.054c0.564-0.012,1.072-0.018,1.558-0.021
		c0.12,0.006,0.231,0.012,0.37,0.018C222.397,1.544,221.129,1.591,220.747,1.531z M251.199,1.015
		c-0.942,0.15-2.08,0.062-4.112,0.067l0.056-0.015c-0.808-0.021-1.388-0.032-1.832-0.039c1.587-0.005,2.109-0.003,4.191-0.028
		L248.8,0.985c0.938-0.151,2.079-0.062,4.11-0.067l-0.061,0.015c0.811,0.021,1.391,0.032,1.836,0.039
		c-1.588,0.005-2.109,0.003-4.191,0.029L251.199,1.015z M269.271,1.214c0.111,0.009,0.219,0.017,0.328,0.025
		c-0.285-0.002-0.58-0.006-0.914-0.016C268.865,1.219,269.072,1.217,269.271,1.214z M324.576,1.362
		c0.367,0.006,0.676,0.005,0.98,0.005l0.195,0.045L324.576,1.362z M339.271,1.609c-0.061-0.045,0.357-0.104,1.059-0.157
		c1.342,0.013,2.688,0.035,3.945,0.052L339.271,1.609z M354.4,1.155c0,0.002,0,0.005,0,0.007C354.4,1.16,354.4,1.157,354.4,1.155z
		 M394.227,1.508l-0.545-0.022C394.91,1.454,394.566,1.48,394.227,1.508z M400.322,0.983c-1.563,0.002-2.684-0.241-6.584-0.22
		c0.395,0,0.416-0.016,0.807-0.017c-1.428-0.045-2.805,0.08-4.539,0.006c0.291-0.016,0.486-0.03,0.273-0.046l-2.146,0.057
		c-0.188,0.035,0.406,0.047,1.178,0.025c-0.887,0.035-1.818-0.03-2.068,0.094c0,0,0.898-0.004,1.805-0.009
		c0.898-0.003,1.801-0.012,1.801-0.012c-0.719,0.013-1.428,0.042-2.188,0.069c-0.689-0.036-2.146,0.009-3.418,0.06
		c-0.404-0.002-0.84-0.009-1.297-0.02c0.063-0.016,0.127-0.033,0.229-0.049c0.404-0.018,0.896-0.034,1.295-0.045
		c-0.27-0.013-0.535-0.018-0.795-0.018c0.271-0.03,0.627-0.059,1.014-0.087c1.199,0.002,2.496,0.003,3.451-0.043
		c-0.678-0.045-2.205,0.005-2.898,0.003c0.986-0.064,2.229-0.124,3.639-0.171c2.949-0.081,1.385,0.087,1.885,0.057
		c5.609-0.049,4.564-0.345,9.383-0.257c1.926,0.093,0.188,0.206,0.643,0.278c-2.41,0.053-3.785-0.045-5.441-0.029l2.074,0.036
		c-0.758,0.038-2.359,0.074-3.262,0.06c0.752,0.029,2.9,0.022,5.406,0.011c-1.719,0.186,4.332,0.077,3.119,0.124
		C404.746,0.9,401.859,0.996,400.322,0.983z M389.535,0.777c-0.047,0.003-0.096,0.005-0.146,0.007
		C389.439,0.783,389.486,0.78,389.535,0.777z M426.215,0.686l1.258-0.026c0.02,0.011-0.168,0.024-0.285,0.038
		C426.891,0.694,426.566,0.69,426.215,0.686z M427.531,0.702c0.561-0.054,2.098-0.087,3.523-0.034l0.021,0.002
		C429.225,0.714,428.34,0.712,427.531,0.702z M466.621,0.461l0.453,0.09c-0.967-0.011-1.396-0.029-1.789-0.048L466.621,0.461z
		 M467.189,0.648c-0.602-0.062-1.854-0.087-3.311-0.101l0.617-0.02C464.799,0.583,468.4,0.524,467.189,0.648z"/>
	<path fill="#587937" d="M234.563,0.578c0.188,0.013,0.252,0.03,0.313,0.046C235.096,0.605,235.08,0.587,234.563,0.578z"/>
	<path fill="#587937" d="M326.738,0.568h0.098c0.051-0.006,0.074-0.012,0.09-0.017L326.738,0.568z"/>
	<path fill="#587937" d="M138.56,0.481c0.59,0.009,0.92,0.024,1.146,0.041C139.725,0.498,139.454,0.481,138.56,0.481z"/>
	<path fill="#587937" d="M80.978,1.921L82.78,1.9c-0.87,0.004-1.181-0.021-1.617-0.033C81.198,1.889,81.541,1.921,80.978,1.921z"/>
	<path fill="#587937" d="M77.053,1.566c-0.389,0.105,0.957,0.074,2.292,0.043c-0.133-0.08-1.258-0.057-2.513-0.045
		C76.905,1.564,76.978,1.564,77.053,1.566z"/>
	<path fill="#587937" d="M75.379,1.566c-0.154,0.043,0.468,0.01,1.159,0C76.15,1.57,75.757,1.572,75.379,1.566z"/>
	<path fill="#587937" d="M92.351,1.811c-0.607-0.017-0.357,0.104-0.71,0.073C90.988,1.986,95.652,1.74,92.351,1.811z"/>
	<polygon fill="#587937" points="79.509,1.37 78.362,1.348 78.799,1.446 	"/>
	<path fill="#587937" d="M88.233,1.443l-2-0.032c0.029,0.016-0.223,0.025-0.537,0.032C86.931,1.45,88.282,1.472,88.233,1.443z"/>
	<path fill="#587937" d="M84.087,1.455c0.349,0,1.096-0.002,1.607-0.012C85.057,1.439,84.446,1.44,84.087,1.455z"/>
	<polygon fill="#587937" points="495.381,1.44 497.016,1.486 495.977,1.417 	"/>
	<path fill="#587937" d="M498.611,1.305l0.334,0.126l1.043-0.11C499.613,1.325,498.883,1.334,498.611,1.305z"/>
	<path fill="#587937" d="M272.521,0.167l-0.146,0.029c0.234,0.035,0.627,0.042,1.406,0.055L272.521,0.167z"/>
	<path fill="#587937" d="M313.311,0.411c-0.768-0.002-1.66,0.025-2.432,0.023C312.543,0.409,313.521,0.552,313.311,0.411z"/>
</g>
</svg>
