<?xml version="1.0" encoding="utf-8"?>
<!-- Generator: Adobe Illustrator 16.0.0, SVG Export Plug-In . SVG Version: 6.00 Build 0)  -->
<!DOCTYPE svg PUBLIC "-//W3C//DTD SVG 1.1//EN" "http://www.w3.org/Graphics/SVG/1.1/DTD/svg11.dtd">
<svg version="1.1" id="圖層_1" xmlns="http://www.w3.org/2000/svg" xmlns:xlink="http://www.w3.org/1999/xlink" x="0px" y="0px"
	 width="10.939px" height="926px" viewBox="0 0 10.939 926" enable-background="new 0 0 10.939 926" xml:space="preserve">
<path fill="#FFFFFF" stroke="#FFFFFF" stroke-width="2" stroke-linejoin="round" stroke-miterlimit="10" d="M0.94,925H4l-0.5-0.063
	c0-4.724,2.599-8.866,6.439-11.031C6.098,911.74,3.5,907.614,3.5,902.89s2.599-8.843,6.439-11.008
	c-3.842-2.165-6.439-6.28-6.439-11.004c0-4.725,2.599-8.837,6.439-11.003c-3.842-2.164-6.439-6.276-6.439-11
	c0-4.725,2.599-8.836,6.439-11.002c-3.842-2.163-6.439-6.275-6.439-11c0-4.724,2.599-8.835,6.439-11
	c-3.842-2.164-6.439-6.275-6.439-11c0-4.724,2.599-8.835,6.439-11c-3.842-2.164-6.439-6.275-6.439-11c0-4.724,2.599-8.835,6.439-11
	c-3.842-2.164-6.439-6.275-6.439-11c0-4.724,2.599-8.835,6.439-11c-3.842-2.164-6.439-6.275-6.439-11c0-4.724,2.599-8.835,6.439-11
	c-3.842-2.164-6.439-6.275-6.439-11c0-4.724,2.599-8.835,6.439-11c-3.842-2.164-6.439-6.275-6.439-11c0-4.724,2.599-8.835,6.439-11
	c-3.842-2.164-6.439-6.275-6.439-11c0-4.724,2.599-8.835,6.439-11c-3.842-2.164-6.439-6.275-6.439-11c0-4.724,2.599-8.835,6.439-11
	c-3.842-2.164-6.439-6.275-6.439-11c0-4.724,2.599-8.835,6.439-11c-3.842-2.164-6.439-6.275-6.439-11c0-4.724,2.599-8.835,6.439-11
	c-3.842-2.164-6.439-6.275-6.439-11c0-4.724,2.599-8.835,6.439-11c-3.842-2.164-6.439-6.275-6.439-11c0-4.724,2.599-8.835,6.439-11
	c-3.842-2.164-6.439-6.275-6.439-11c0-4.724,2.599-8.835,6.439-11c-3.842-2.164-6.439-6.275-6.439-11c0-4.724,2.599-8.835,6.439-11
	c-3.842-2.164-6.439-6.275-6.439-11c0-4.724,2.599-8.835,6.439-11c-3.842-2.164-6.439-6.275-6.439-11c0-4.724,2.599-8.835,6.439-11
	c-3.842-2.164-6.439-6.275-6.439-11c0-4.724,2.599-8.835,6.439-11c-3.842-2.164-6.439-6.275-6.439-11c0-4.724,2.599-8.835,6.439-11
	c-3.842-2.164-6.439-6.275-6.439-10.999c0-4.725,2.599-8.835,6.439-11c-3.842-2.165-6.439-6.276-6.439-11
	c0-4.725,2.599-8.835,6.439-11c-3.842-2.165-6.439-6.276-6.439-11c0-4.725,2.599-8.835,6.439-11c-3.842-2.165-6.439-6.276-6.439-11
	c0-4.725,2.599-8.835,6.439-11c-3.842-2.165-6.439-6.276-6.439-11c0-4.725,2.599-8.835,6.439-11c-3.842-2.165-6.439-6.276-6.439-11
	c0-4.725,2.599-8.835,6.439-11c-3.842-2.165-6.439-6.276-6.439-11c0-4.725,2.599-8.835,6.439-11c-3.842-2.165-6.439-6.276-6.439-11
	c0-4.725,2.599-8.835,6.439-11c-3.842-2.165-6.439-6.276-6.439-11c0-4.725,2.599-8.835,6.439-11c-3.842-2.165-6.439-6.276-6.439-11
	c0-4.725,2.599-8.835,6.439-11c-3.842-2.165-6.439-6.276-6.439-11c0-4.725,2.599-8.835,6.439-11c-3.842-2.165-6.439-6.276-6.439-11
	c0-4.725,2.599-8.835,6.439-11c-3.842-2.165-6.439-6.276-6.439-11c0-4.725,2.599-8.835,6.439-11c-3.842-2.165-6.439-6.276-6.439-11
	c0-4.725,2.599-8.835,6.439-11c-3.842-2.165-6.439-6.276-6.439-11c0-4.725,2.599-8.835,6.439-11c-3.842-2.165-6.439-6.276-6.439-11
	c0-4.725,2.599-8.835,6.439-11c-3.842-2.165-6.439-6.276-6.439-11c0-4.725,2.599-8.835,6.439-11c-3.842-2.165-6.439-6.276-6.439-11
	c0-4.725,2.599-8.835,6.439-11c-3.842-2.165-6.439-6.276-6.439-11c0-4.725,2.599-8.772,6.439-10.938C6.099,9.772,3.5,6,3.5,1H0.94
	V925z"/>
</svg>
