<?xml version="1.0" encoding="utf-8"?>
<!-- Generator: Adobe Illustrator 16.0.0, SVG Export Plug-In . SVG Version: 6.00 Build 0)  -->
<!DOCTYPE svg PUBLIC "-//W3C//DTD SVG 1.1//EN" "http://www.w3.org/Graphics/SVG/1.1/DTD/svg11.dtd">
<svg version="1.1" id="圖層_1" xmlns="http://www.w3.org/2000/svg" xmlns:xlink="http://www.w3.org/1999/xlink" x="0px" y="0px"
	 width="10.939px" height="926px" viewBox="0 0 10.939 926" enable-background="new 0 0 10.939 926" xml:space="preserve">
<path fill="#FFFFFF" stroke="#FFFFFF" stroke-width="2" stroke-linejoin="round" stroke-miterlimit="10" d="M9.94,925H6.88
	l0.5-0.063c0-4.724-2.6-8.866-6.44-11.031c3.843-2.165,6.44-6.292,6.44-11.016s-2.6-8.843-6.44-11.008
	c3.843-2.165,6.44-6.28,6.44-11.004c0-4.725-2.6-8.837-6.44-11.003c3.843-2.164,6.44-6.276,6.44-11c0-4.725-2.6-8.836-6.44-11.002
	c3.843-2.163,6.44-6.275,6.44-11c0-4.724-2.6-8.835-6.44-11c3.843-2.164,6.44-6.275,6.44-11c0-4.724-2.6-8.835-6.44-11
	c3.843-2.164,6.44-6.275,6.44-11c0-4.724-2.6-8.835-6.44-11c3.843-2.164,6.44-6.275,6.44-11c0-4.724-2.6-8.835-6.44-11
	c3.843-2.164,6.44-6.275,6.44-11c0-4.724-2.6-8.835-6.44-11c3.843-2.164,6.44-6.275,6.44-11c0-4.724-2.6-8.835-6.44-11
	c3.843-2.164,6.44-6.275,6.44-11c0-4.724-2.6-8.835-6.44-11c3.843-2.164,6.44-6.275,6.44-11c0-4.724-2.6-8.835-6.44-11
	c3.843-2.164,6.44-6.275,6.44-11c0-4.724-2.6-8.835-6.44-11c3.843-2.164,6.44-6.275,6.44-11c0-4.724-2.6-8.835-6.44-11
	c3.843-2.164,6.44-6.275,6.44-11c0-4.724-2.6-8.835-6.44-11c3.843-2.164,6.44-6.275,6.44-11c0-4.724-2.6-8.835-6.44-11
	c3.843-2.164,6.44-6.275,6.44-11c0-4.724-2.6-8.835-6.44-11c3.843-2.164,6.44-6.275,6.44-11c0-4.724-2.6-8.835-6.44-11
	c3.843-2.164,6.44-6.275,6.44-11c0-4.724-2.6-8.835-6.44-11c3.843-2.164,6.44-6.275,6.44-11c0-4.724-2.6-8.835-6.44-11
	c3.843-2.164,6.44-6.275,6.44-11c0-4.724-2.6-8.835-6.44-11c3.843-2.164,6.44-6.275,6.44-11c0-4.724-2.6-8.835-6.44-11
	c3.843-2.164,6.44-6.275,6.44-11c0-4.724-2.6-8.835-6.44-11c3.843-2.164,6.44-6.275,6.44-10.999c0-4.725-2.6-8.835-6.44-11
	c3.843-2.165,6.44-6.276,6.44-11c0-4.725-2.6-8.835-6.44-11c3.843-2.165,6.44-6.276,6.44-11c0-4.725-2.6-8.835-6.44-11
	c3.843-2.165,6.44-6.276,6.44-11c0-4.725-2.6-8.835-6.44-11c3.843-2.165,6.44-6.276,6.44-11c0-4.725-2.6-8.835-6.44-11
	c3.843-2.165,6.44-6.276,6.44-11c0-4.725-2.6-8.835-6.44-11c3.843-2.165,6.44-6.276,6.44-11c0-4.725-2.6-8.835-6.44-11
	c3.843-2.165,6.44-6.276,6.44-11c0-4.725-2.6-8.835-6.44-11c3.843-2.165,6.44-6.276,6.44-11c0-4.725-2.6-8.835-6.44-11
	c3.843-2.165,6.44-6.276,6.44-11c0-4.725-2.6-8.835-6.44-11c3.843-2.165,6.44-6.276,6.44-11c0-4.725-2.6-8.835-6.44-11
	c3.843-2.165,6.44-6.276,6.44-11c0-4.725-2.6-8.835-6.44-11c3.843-2.165,6.44-6.276,6.44-11c0-4.725-2.6-8.835-6.44-11
	c3.843-2.165,6.44-6.276,6.44-11c0-4.725-2.6-8.835-6.44-11c3.843-2.165,6.44-6.276,6.44-11c0-4.725-2.6-8.835-6.44-11
	c3.843-2.165,6.44-6.276,6.44-11c0-4.725-2.6-8.835-6.44-11c3.843-2.165,6.44-6.276,6.44-11c0-4.725-2.6-8.835-6.44-11
	c3.843-2.165,6.44-6.276,6.44-11c0-4.725-2.6-8.835-6.44-11c3.843-2.165,6.44-6.276,6.44-11c0-4.725-2.6-8.772-6.44-10.938
	C4.782,9.772,7.381,6,7.381,1h2.56L9.94,925L9.94,925z"/>
</svg>
