<?xml version="1.0" encoding="utf-8"?>
<!-- Generator: Adobe Illustrator 16.0.0, SVG Export Plug-In . SVG Version: 6.00 Build 0)  -->
<!DOCTYPE svg PUBLIC "-//W3C//DTD SVG 1.1//EN" "http://www.w3.org/Graphics/SVG/1.1/DTD/svg11.dtd">
<svg version="1.1" id="圖層_1" xmlns="http://www.w3.org/2000/svg" xmlns:xlink="http://www.w3.org/1999/xlink" x="0px" y="0px"
	 width="10.94px" height="926px" viewBox="0 0 10.94 926" enable-background="new 0 0 10.94 926" xml:space="preserve">
<path fill="#F2F2F3" stroke="#F2F2F3" stroke-width="2" stroke-linejoin="round" stroke-miterlimit="10" d="M0.94,925H4l-0.5-0.063
	c0-4.724,2.599-8.866,6.44-11.031c-3.842-2.165-6.44-6.292-6.44-11.016s2.599-8.843,6.44-11.008c-3.842-2.165-6.44-6.28-6.44-11.004
	s2.599-8.837,6.44-11.002c-3.842-2.165-6.44-6.277-6.44-11.001s2.599-8.835,6.44-11.001c-3.842-2.164-6.44-6.276-6.44-11
	s2.599-8.835,6.44-11c-3.842-2.165-6.44-6.276-6.44-11s2.599-8.835,6.44-11c-3.842-2.165-6.44-6.276-6.44-11s2.599-8.835,6.44-11
	c-3.842-2.165-6.44-6.276-6.44-11s2.599-8.835,6.44-11c-3.842-2.165-6.44-6.276-6.44-11s2.599-8.835,6.44-11
	c-3.842-2.165-6.44-6.276-6.44-11s2.599-8.835,6.44-11c-3.842-2.165-6.44-6.276-6.44-11s2.599-8.835,6.44-11
	c-3.842-2.165-6.44-6.276-6.44-11s2.599-8.835,6.44-11c-3.842-2.165-6.44-6.276-6.44-11s2.599-8.835,6.44-11
	c-3.842-2.165-6.44-6.276-6.44-11s2.599-8.835,6.44-11c-3.842-2.165-6.44-6.276-6.44-11s2.599-8.835,6.44-11
	c-3.842-2.165-6.44-6.276-6.44-11s2.599-8.835,6.44-11c-3.842-2.165-6.44-6.276-6.44-11s2.599-8.835,6.44-11
	c-3.842-2.165-6.44-6.276-6.44-11s2.599-8.835,6.44-11c-3.842-2.165-6.44-6.276-6.44-11s2.599-8.835,6.44-11
	c-3.842-2.165-6.44-6.276-6.44-11s2.599-8.835,6.44-11c-3.842-2.165-6.44-6.276-6.44-11s2.599-8.835,6.44-11
	c-3.842-2.165-6.44-6.276-6.44-11s2.599-8.835,6.44-11c-3.842-2.165-6.44-6.276-6.44-11s2.599-8.835,6.44-11
	c-3.842-2.165-6.44-6.276-6.44-11s2.599-8.835,6.44-11c-3.842-2.165-6.44-6.276-6.44-11s2.599-8.835,6.44-11
	c-3.842-2.165-6.44-6.276-6.44-11s2.599-8.835,6.44-11c-3.842-2.165-6.44-6.276-6.44-11s2.599-8.835,6.44-11
	c-3.842-2.165-6.44-6.276-6.44-11s2.599-8.835,6.44-11c-3.842-2.165-6.44-6.276-6.44-11s2.599-8.835,6.44-11
	c-3.842-2.165-6.44-6.276-6.44-11s2.599-8.835,6.44-11c-3.842-2.165-6.44-6.276-6.44-11s2.599-8.835,6.44-11
	c-3.842-2.165-6.44-6.276-6.44-11s2.599-8.835,6.44-11c-3.842-2.165-6.44-6.276-6.44-11s2.599-8.835,6.44-11
	c-3.842-2.165-6.44-6.276-6.44-11s2.599-8.835,6.44-11c-3.842-2.165-6.44-6.276-6.44-11s2.599-8.835,6.44-11
	c-3.842-2.165-6.44-6.276-6.44-11s2.599-8.835,6.44-11c-3.842-2.165-6.44-6.276-6.44-11s2.599-8.835,6.44-11
	c-3.842-2.165-6.44-6.276-6.44-11s2.599-8.835,6.44-11c-3.842-2.165-6.44-6.276-6.44-11s2.599-8.835,6.44-11
	c-3.842-2.165-6.44-6.276-6.44-11s2.599-8.835,6.44-11c-3.842-2.165-6.44-6.276-6.44-11s2.599-8.835,6.44-11
	c-3.842-2.165-6.44-6.276-6.44-11s2.599-8.772,6.44-10.938C6.099,9.772,3.5,6,3.5,1H0.94V925z"/>
</svg>
