<?xml version="1.0" encoding="utf-8"?>
<!-- Generator: Adobe Illustrator 16.0.0, SVG Export Plug-In . SVG Version: 6.00 Build 0)  -->
<!DOCTYPE svg PUBLIC "-//W3C//DTD SVG 1.1//EN" "http://www.w3.org/Graphics/SVG/1.1/DTD/svg11.dtd">
<svg version="1.1" id="圖層_1" xmlns="http://www.w3.org/2000/svg" xmlns:xlink="http://www.w3.org/1999/xlink" x="0px" y="0px"
	 width="60px" height="38.109px" viewBox="-10.946 10.946 60 38.109" enable-background="new -10.946 10.946 60 38.109"
	 xml:space="preserve">
<g>
	<path fill="#587937" d="M38.257,29.881l-0.012,0.011C38.339,29.918,38.323,29.914,38.257,29.881z"/>
	<path fill="#587937" d="M26.839,27.113c0.02,0,0.031,0,0.053,0C26.872,27.113,26.845,27.113,26.839,27.113z"/>
	<polygon fill="#587937" points="30.753,39.973 30.753,39.945 30.726,39.951 	"/>
	<path fill="#587937" d="M30.566,40.615c-0.203-0.563-0.057-0.613,0.16-0.664l-1.02-0.764L30.566,40.615z"/>
	<path fill="#587937" d="M23.978,46.146c-0.078-0.033-0.137-0.104-0.197-0.174C23.781,46.086,23.829,46.172,23.978,46.146z"/>
	<path fill="#587937" d="M38.025,32.785c-0.129,0.027-0.236,0.012-0.33-0.025C37.773,32.848,37.878,32.883,38.025,32.785z"/>
	<polygon fill="#587937" points="44.529,23.659 44.907,23.484 44.755,23.491 	"/>
	<path fill="#587937" d="M42.335,27.07c-0.156,0.009-0.24-0.066-0.404-0.139l0.428,0.453L42.335,27.07z"/>
	<path fill="#587937" d="M41.804,28.435c-0.09-0.151,0.117-0.558-0.264-0.383C41.632,28.206,41.441,28.844,41.804,28.435z"/>
	<path fill="#587937" d="M33.982,37.779c0.535-0.184-0.355-0.535,0.188-0.641c-0.082-0.258-0.443,0.084-0.504-0.15
		C33.622,37.387,33.407,37.396,33.982,37.779z"/>
	<path fill="#587937" d="M44.302,12.305l0.531,0.389l-0.299-0.549C44.507,12.221,44.448,12.365,44.302,12.305z"/>
	<path fill="#587937" d="M20.484,48.502l-0.012-0.301C20.439,48.416,20.429,48.557,20.484,48.502z"/>
	<path fill="#587937" d="M12.174,42.701l-0.447,0.186C11.958,43.102,12.01,42.84,12.174,42.701z"/>
	<path fill="#587937" d="M7.992,22.313l0.013,0.011C8.032,22.229,8.027,22.247,7.992,22.313z"/>
	<path fill="#587937" d="M5.177,33.723c0-0.018,0-0.029,0-0.053C5.177,33.688,5.177,33.717,5.177,33.723z"/>
	<polygon fill="#587937" points="18.089,29.812 18.058,29.814 18.064,29.841 	"/>
	<path fill="#587937" d="M18.727,30c-0.562,0.203-0.612,0.055-0.663-0.159l-0.763,1.018L18.727,30z"/>
	<path fill="#587937" d="M18.841,47.633c0.25,0.373,0.444,0.826,0.256,0.871c0.007,0.008,0.604,0.1,0.594,0.092
		c0.172,0.197,0.158,0.504-0.021,0.301c0.061,0.053-0.523,0.098-0.458,0.158l-0.033-0.916v0.063c0-0.141,0.71-0.318,0.746-0.488
		c0.148,0.121,0.697,0.697,1.01,1.18c0.225-0.018,0.648-0.199,0.793-0.758c0.17,0.09,0.09,0.541,0.176,0.809
		c0.49-1.021,0.629-1.162,0.771-1.668c0.246-0.174,0.539-0.432,0.959-0.57c-0.146,0.006-0.475,0.037-0.787-0.004
		c0.02-0.07,0.035-0.105,0.057-0.193c-0.012,0.012,0.662-0.055,0.672-0.064c-0.451-0.076-0.428-0.678-0.395-1.254
		c0.066-0.063,0.141-0.154,0.211-0.262c0.076,0.297,0.166,0.58,0.289,0.824c-0.057,0.043-0.111,0.088-0.188,0.168l0.248-0.035
		c0.018,0.025,0.025,0.064,0.041,0.088c0-0.029,0.027-0.064,0.033-0.1l0.164-0.023c0.008,0.01,0.012,0.035,0.018,0.041
		c0.016,0.01,0.018-0.029,0.025-0.047l0,0v-0.002c0.021-0.051,0.025-0.162,0.027-0.334l0.598,0.414l-0.143-0.256
		c0.068-0.066,1.037-0.395,1.012-0.367c-0.066-0.941-0.43-2.072,0.057-2.965c0.197,0.547,0.564,0.652,0.99,1.104
		c-0.648-0.283-0.342,0.729-0.793,0.984c0.236-0.135,0.4,0.117,0.426,0.238l0.221-1.057c0.344,0.377,0.404,0.139,0.721,0.125
		c-0.83-0.594,0.008-0.945,0.055-1.424c0.254,0.227,0.43,0.533,0.055,0.787c0.883,0.197-0.373-1.289,0.424-1.164
		c-0.072,0.08-0.148,0.084-0.063,0.238c-0.029-0.396,0.58-0.658,0.682-0.348l-0.068,0.084c0.598-0.424,1.574-1.535,1.053-2.221
		c0.082,0.074,0.652,0.805,0.742,0.957L29.263,38.6l0.289-0.281c0.59,0.523,1.297,1.131,1.201,1.627
		c0.197-0.045,0.432-0.107,0.514-0.547c-0.162,0.008-0.953-0.553-0.887-0.715c0.887,0.277,0.525,0.102,1.398,0.219
		c-0.234,0.01-0.9-0.947-0.68-1.115c0.092,0.152,0.813,0.795,0.824,0.951l-0.295-1.291c0.016,0.266,0.646,0.707,0.98,0.824
		c-0.205-0.107,0.441-0.4,0.494-0.611l-0.393,0.018c0.676-0.424-0.561-1.674,0.035-2.172c0.096,0.23,0.838,1.186,1.219,1.01
		c-0.148-0.289-0.521-0.996-0.818-1.717l0.615-0.602c0.262,0.801,0.506,1.648,0.586,2.145c0.391-0.018,0.328,0.225,0.623-0.104
		c0.324,0.109,0.156,0.502,0.08,0.604l0.865-0.57c-0.502-0.449,0.082-1.027-0.338-1.402l-0.301,1.273
		c-0.506-0.449-0.885-1.816-0.287-2.234c0.32,0.063,0.744,0.955,0.914,1.104c-0.096-0.23,0.178-0.797,0.34-0.727l0.035,0.473
		c0.465-0.1-0.16-1.098,0.635-0.975c0.15-0.086,0.967,0.271,0.707-0.035c-0.439-0.217-1.215-0.9-1.84-1.535l0.402-0.391l0.168,0.207
		l0.07-0.082l-0.182-0.184l0.391-0.381c0.445,0.365,0.596,1.193,1.063,1.377c-0.121-0.139-0.174-0.408-0.18-0.504
		c0.234-0.012,0.348,0.459,0.561,0.131c-0.432-0.531,0.596-0.5-0.273-0.539c0.127-0.396,0.383-0.174,0.672-0.504
		c-0.273-0.145-0.516-0.693-0.613-1.165l0.334-0.327c0.021,0.01,0.047,0.024,0.063,0.029c0.588-0.487,1.1-0.553,1.611-1.046
		c0.16,0.074,0.545-0.024,0.646,0.291c-0.01-0.159-0.107-0.392,0.041-0.557c0.719,0.126-0.285,0.408,0.443,0.688
		c-0.262-0.305,0.021-0.789,0.07-1.185c-0.5-0.372-0.598,0.422-0.648,0.816c-0.205-0.21-0.352-0.479-0.465-0.763l1.688-1.655
		c0.545-0.229,1.26-1.2,2.039-1.437c-0.012-0.166-0.021-0.341-0.09-0.475l2.141-2.096c0.045,0.063,0.068,0.13,0.137,0.185
		l0.109-0.426l0.031-0.027c0.068,0.091,0.096,0.287,0.242,0.277c-0.096-0.109-0.133-0.248-0.137-0.383l0.416-0.411
		c0.023,0.001,0.033-0.013,0.055-0.009c0.002-0.011-0.012-0.021-0.012-0.031l0.406-0.398c0.025-0.003,0.021,0.023,0.051,0.011
		c-0.006-0.047,0.02-0.07,0.041-0.098l1.982-1.938l-5.811-8.271l-0.611,0.656c-0.406-0.154-0.836-0.313-1.141-0.628
		c0.332,0.896-1.691-0.026-1.281,1.319c-0.252-0.02-0.141-0.308-0.359-0.399c0.184,0.413,0.098,0.631-0.311,0.799l-0.045-0.104
		c-0.691,0.896-1.32,0.973-2.383,1.714l0.416,0.256c-0.232,0.153-0.381,0.096-0.553,0.108c0.313,0.719,0.551-0.532,0.938,0.217
		c-0.953-0.396-1.316,1.396-2.289,0.824c-0.287,0.303,0.486,0.285,0.197,0.586l-0.293-0.119l0.207,0.338
		c-0.23,0.159-0.598,0.005-0.789-0.159c0.066-0.027,0.076-0.186,0.109-0.252c-0.496,0.021-0.594,0.814-0.764,0.827l0.41-0.17
		c-0.572,1.025-1.811,1.781-2.117,3l0.223,0.091c-0.271,0.901-0.641,0.327-1.131,1.137l-0.018-0.063
		c0.041,0.29-0.045,0.547-0.232,0.713c-0.039-0.35-0.674-0.023-0.682-0.447c-0.297,0.974-0.053,0.568,0.15,1.579l-0.369-0.15
		c0.105,0.381,0.227,0.514-0.02,0.916c0.023-0.493-0.615-0.17-0.637-0.767c-1.256,0.153-0.377,1.612-1.553,1.126
		C28.769,24.92,29.306,23.668,29.3,24c0.389,0.077,0.313,0.795,0.029,0.946c-0.229,0.212-1.322-0.514-1.838,0.071
		c0.057-0.055,0-0.109,0.059-0.165c-0.393,0.035-0.129,0.66-0.686,0.633c0.318,0.569-0.346,0.314,0.201,0.898l0.354-0.648
		c-0.125,0.438,0.301,1.351-0.488,1.531c-0.082-0.146-0.102-0.438-0.096-0.616c-0.305-0.019-0.139,0.381-0.453,0.364
		c-0.545-0.584,0.465-0.754,0.314-1.483c-0.391-0.076-0.137,0.995-0.621,0.246c0.59,0.977-0.623,0.469-0.367,1.424l-0.326-0.351
		c-0.002,0.112,0.045,0.393-0.07,0.497l-0.258-0.624c0.096,0.67-0.898,0.289-0.969,0.784c0.572-0.639,0.551,0.25,1.055,0.222
		c-0.252,1.209-1.326-0.402-1.967,0.619c0.061-0.164,0.617-0.246,0.609,0.088c-0.225,0.099-0.561,0.192-0.84,0.122
		c-0.461,0.644,0.441,0.247,0.432,0.689c-0.607-0.199-0.092,0.444-0.188,0.822l-0.359-0.329c-0.836,0.443,0.578,0.862-0.244,1.196
		l-0.26-0.707l-0.158,0.425l-0.346-0.439c-0.012,0.613-0.186,0.646-0.604,0.869c0.32,0.154,0.604,0.641,0.346,0.941
		c-0.396,0-0.234-0.426-0.566,0.033c-0.133-0.299-0.318-0.66,0.178-0.535c-0.104-0.125-0.141-0.299-0.236-0.424
		c-0.441-0.014-0.553,0.482-0.689,0.637c0.066-0.045,0.15-0.098,0.236-0.084l-0.064,1.053c-0.219-0.029-0.258-0.205-0.295-0.377
		c-0.068,0.146-0.016,0.355-0.109,0.549c-0.229-0.164-0.314-0.527-0.082-0.604l0.082,0.072c-0.42-0.6-1.534-1.574-2.221-1.057
		c0.075-0.08,0.803-0.65,0.957-0.742l-2.036,0.752l-0.283-0.287c0.526-0.588,1.13-1.297,1.628-1.201
		c-0.045-0.197-0.109-0.433-0.549-0.513c0.012,0.157-0.55,0.951-0.71,0.885c0.274-0.885,0.096-0.523,0.213-1.398
		c0.011,0.238-0.946,0.9-1.114,0.679c0.152-0.091,0.794-0.812,0.952-0.824l-1.291,0.296c0.268-0.018,0.704-0.646,0.823-0.98
		c-0.108,0.205-0.402-0.442-0.61-0.495l0.014,0.393c-0.421-0.677-1.672,0.562-2.173-0.033c0.233-0.098,1.187-0.841,1.014-1.221
		c-0.289,0.146-0.999,0.521-1.718,0.818l-0.603-0.611c0.802-0.263,1.65-0.508,2.144-0.588c-0.016-0.393,0.226-0.331-0.104-0.623
		c0.112-0.327,0.502-0.157,0.607-0.08l-0.572-0.867c-0.45,0.507-1.027-0.082-1.405,0.339l1.275,0.302
		c-0.447,0.503-1.817,0.885-2.237,0.286c0.064-0.321,0.955-0.745,1.104-0.913c-0.229,0.099-0.797-0.178-0.725-0.343l0.474-0.031
		c-0.102-0.465-1.099,0.157-0.979-0.642c-0.086-0.146,0.273-0.962-0.031-0.702c-0.217,0.44-0.901,1.216-1.534,1.839l-0.39-0.4
		l0.204-0.168l-0.082-0.073l-0.182,0.185l-0.382-0.392c0.365-0.446,1.195-0.595,1.377-1.062c-0.14,0.12-0.408,0.173-0.504,0.179
		c-0.011-0.235,0.458-0.349,0.135-0.563c-0.535,0.435-0.502-0.591-0.541,0.276c-0.4-0.13-0.177-0.382-0.502-0.672
		c-0.15,0.272-0.694,0.512-1.168,0.612l-0.325-0.333c0.007-0.02,0.022-0.045,0.027-0.062c-0.488-0.59-0.553-1.099-1.048-1.61
		c0.075-0.165-0.021-0.55,0.289-0.651c-0.157,0.013-0.391,0.108-0.555-0.038c0.128-0.717,0.411,0.287,0.689-0.443
		C7.063,19.828,6.58,19.547,6.181,19.5C5.81,20,6.601,20.097,6.999,20.146C6.788,20.354,6.52,20.5,6.237,20.614L4.58,18.925
		c-0.231-0.546-1.198-1.26-1.437-2.04c-0.166,0.011-0.339,0.024-0.472,0.091l-2.1-2.145c0.062-0.042,0.131-0.063,0.184-0.135
		l-0.422-0.108L0.304,14.56c0.089-0.07,0.287-0.1,0.278-0.243c-0.11,0.093-0.249,0.131-0.385,0.137l-0.409-0.419
		c0-0.021-0.011-0.029-0.011-0.052c-0.007-0.005-0.021,0.01-0.03,0.01l-0.396-0.407c-0.006-0.022,0.021-0.02,0.01-0.049
		c-0.049,0.005-0.071-0.021-0.101-0.04l-1.944-1.984l-8.262,5.807l0.658,0.611c-0.155,0.408-0.313,0.837-0.628,1.139
		c0.896-0.333-0.026,1.695,1.32,1.284c-0.022,0.251-0.311,0.138-0.402,0.355c0.413-0.179,0.632-0.095,0.798,0.313l-0.102,0.043
		c0.893,0.695,0.97,1.321,1.713,2.382l0.254-0.412c0.155,0.231,0.096,0.379,0.11,0.555c0.719-0.317-0.532-0.552,0.217-0.938
		c-0.396,0.954,1.396,1.315,0.822,2.286c0.306,0.289,0.29-0.485,0.589-0.196l-0.12,0.294l0.339-0.21
		c0.156,0.233,0.006,0.602-0.161,0.793c-0.025-0.066-0.188-0.079-0.25-0.11c0.021,0.5,0.812,0.595,0.826,0.763l-0.168-0.407
		c1.024,0.571,1.779,1.808,2.998,2.114l0.091-0.222c0.901,0.271,0.325,0.641,1.134,1.129l-0.06,0.017
		c0.289-0.037,0.546,0.049,0.712,0.238c-0.348,0.033-0.024,0.674-0.446,0.678c0.97,0.298,0.569,0.053,1.58-0.148l-0.152,0.367
		c0.38-0.106,0.513-0.227,0.917,0.02c-0.495-0.023-0.172,0.616-0.77,0.637c0.153,1.256,1.614,0.379,1.128,1.553
		c1.028-0.451-0.226-0.99,0.108-0.982c0.077-0.389,0.794-0.313,0.946-0.031c0.212,0.229-0.511,1.324,0.072,1.842
		c-0.053-0.057-0.112-0.004-0.165-0.061c0.033,0.393,0.663,0.129,0.63,0.688c0.572-0.32,0.316,0.34,0.901-0.201l-0.649-0.354
		c0.438,0.123,1.353-0.299,1.534,0.486c-0.15,0.08-0.439,0.098-0.621,0.094c-0.016,0.307,0.383,0.143,0.367,0.455
		c-0.586,0.545-0.754-0.463-1.483-0.313c-0.075,0.387,0.994,0.135,0.245,0.619c0.979-0.59,0.471,0.621,1.426,0.369l-0.35,0.326
		c0.111,0,0.39-0.047,0.496,0.066l-0.626,0.264c0.672-0.096,0.289,0.896,0.787,0.967c-0.642-0.572,0.249-0.551,0.219-1.053
		c1.209,0.252-0.4,1.326,0.619,1.967c-0.162-0.063-0.245-0.619,0.09-0.611c0.098,0.227,0.188,0.563,0.122,0.84
		c0.642,0.461,0.243-0.441,0.689-0.428c-0.199,0.604,0.44,0.088,0.82,0.186l-0.325,0.357c0.44,0.836,0.86-0.578,1.192,0.244
		L8.34,38.242L8.764,38.4l-0.439,0.344c0.612,0.014,0.646,0.186,0.87,0.604c0.155-0.32,0.642-0.604,0.94-0.346
		c0,0.395-0.425,0.234,0.032,0.566c-0.3,0.135-0.658,0.316-0.534-0.174c-0.124,0.096-0.299,0.139-0.423,0.232
		c-0.011,0.441,0.484,0.555,0.637,0.689c-0.046-0.066-0.097-0.15-0.086-0.232l1.053,0.061c-0.029,0.223-0.202,0.26-0.374,0.297
		c0.155,0.072,0.39-0.014,0.599,0.123c-0.315,0.244-0.583,0.553-0.957,0.455l0.864,0.207c-0.077,0.16-0.03,0.615-0.201,0.652
		c0.155,0.463,1.291,0.16,1.502,0.771c0.072-0.035,0.167-0.051,0.294-0.008c0.066,0.088,0.119,0.191,0.172,0.293
		c-0.224,0.234-0.075,0.305,0.208,0.383c0.15,0.248,0.362,0.447,0.803,0.469l-0.064,0.227l-0.385-0.189
		c-0.36,0.498,0.042,0.773,0.365,1.285c-0.035,0.033-0.052,0.041-0.113,0.113c0.058,0.078,0.162,0.123,0.261,0.172
		c0.022,0.055,0.056,0.092,0.075,0.15c0-0.025-0.006-0.066-0.006-0.104c0.026,0.018,0.06,0.027,0.081,0.053
		c-0.055-0.025-0.064-0.074-0.086-0.119c-0.029-0.482-0.054-1.496,0.791-1.197c0.009,0.021,0.04,0.041,0.049,0.063
		c-0.1,0.188-0.394,0.391-0.383,0.566c0.206-0.064,0.606-0.07,0.984,0.074c-0.022,0.189,0.29,0.355,0.6,0.576l-0.127,0.109
		c-0.097-0.094-0.184-0.193-0.303-0.266l0.146,0.396l-0.219,0.182c0.123,0.051,0.219,0.07,0.317,0.084l0.052,0.148
		c-0.436-0.016-0.755-0.156-0.965-0.23l0.089-0.041c0.058-0.172-0.04-0.266-0.236-0.457l0.068,0.471
		c-0.197-0.057-0.25,0.012-0.135,0.49c0.457-0.508,0.997-0.053,1.543,0.404c0.54,0.455,1.085,0.914,1.305,0.188l0.25,0.629
		c-0.091-0.104-0.127-0.027-0.218-0.133C17.99,48.813,18.156,46.729,18.841,47.633z M23.915,45.689
		c-0.016-0.006-0.029,0.004-0.047,0.004c0.012-0.025,0.008-0.049,0.021-0.07C23.896,45.654,23.909,45.66,23.915,45.689z
		 M23.568,44.67l0.139,0.168c-0.072-0.018-0.141-0.041-0.211-0.063C23.521,44.742,23.54,44.709,23.568,44.67z M24.156,44.906
		c0.08-0.137,0.166-0.195,0.357-0.211C24.556,44.879,24.427,44.895,24.156,44.906z M14.014,44.191l-0.081-0.041
		c0.011-0.021,0.026-0.031,0.037-0.053C13.981,44.131,14.004,44.154,14.014,44.191z M14.056,43.98
		c0.102-0.104,0.236-0.168,0.486-0.049c0.044,0.02,0.033,0.039,0.06,0.059c0.011,0.051,0.016,0.107,0.036,0.172
		C14.494,44.125,14.218,44.07,14.056,43.98z"/>
	<polygon fill="#587937" points="12.258,42.666 12.248,42.65 12.174,42.701 	"/>
	<path fill="#587937" d="M10.897,22.542c0.026,0.13,0.011,0.236-0.026,0.331C10.962,22.793,10.992,22.687,10.897,22.542z"/>
	<polygon fill="#587937" points="1.594,15.659 1.599,15.817 1.769,16.042 	"/>
	<path fill="#587937" d="M5.494,18.207l-0.313,0.026c0.005,0.155-0.07,0.239-0.143,0.401L5.494,18.207z"/>
	<path fill="#587937" d="M6.162,19.029c0.152-0.093,0.795,0.1,0.382-0.266C6.392,18.852,5.989,18.644,6.162,19.029z"/>
	<path fill="#587937" d="M15.098,26.902c0.401,0.04,0.41,0.256,0.791-0.314c-0.18-0.535-0.533,0.354-0.64-0.188
		C14.992,26.481,15.335,26.841,15.098,26.902z"/>
	<path fill="#587937" d="M-9.745,16.028c0.075,0.027,0.219,0.084,0.161,0.23l0.385-0.528L-9.745,16.028z"/>
	<polygon fill="#587937" points="18.547,48.863 18.643,48.975 18.52,48.055 	"/>
</g>
</svg>
