<?xml version="1.0" encoding="utf-8"?>
<!-- Generator: Adobe Illustrator 16.0.0, SVG Export Plug-In . SVG Version: 6.00 Build 0)  -->
<!DOCTYPE svg PUBLIC "-//W3C//DTD SVG 1.1//EN" "http://www.w3.org/Graphics/SVG/1.1/DTD/svg11.dtd">
<svg version="1.1" id="圖層_1" xmlns="http://www.w3.org/2000/svg" xmlns:xlink="http://www.w3.org/1999/xlink" x="0px" y="0px"
	 width="38.107px" height="60px" viewBox="0 0 38.107 60" enable-background="new 0 0 38.107 60" xml:space="preserve">
<g>
	<path fill="#5169A7" d="M19.173,49.202l-0.011-0.011C19.136,49.284,19.141,49.27,19.173,49.202z"/>
	<path fill="#5169A7" d="M21.942,37.784c0,0.021,0,0.032,0,0.054C21.942,37.818,21.942,37.791,21.942,37.784z"/>
	<polygon fill="#5169A7" points="9.082,41.699 9.11,41.699 9.104,41.671 	"/>
	<path fill="#5169A7" d="M8.44,41.512c0.563-0.203,0.613-0.058,0.663,0.159l0.764-1.019L8.44,41.512z"/>
	<path fill="#5169A7" d="M2.907,34.924c0.034-0.078,0.104-0.138,0.175-0.197C2.969,34.727,2.883,34.775,2.907,34.924z"/>
	<path fill="#5169A7" d="M16.269,48.971c-0.027-0.129-0.011-0.236,0.026-0.33C16.207,48.718,16.171,48.824,16.269,48.971z"/>
	<polygon fill="#5169A7" points="25.396,55.475 25.571,55.854 25.564,55.7 	"/>
	<path fill="#5169A7" d="M21.985,53.281c-0.009-0.157,0.066-0.241,0.139-0.404l-0.453,0.428L21.985,53.281z"/>
	<path fill="#5169A7" d="M20.619,52.75c0.151-0.09,0.558,0.117,0.383-0.264C20.849,52.578,20.21,52.386,20.619,52.75z"/>
	<path fill="#5169A7" d="M11.276,44.927c0.183,0.535,0.535-0.354,0.641,0.188c0.257-0.082-0.084-0.442,0.149-0.503
		C11.668,44.568,11.657,44.354,11.276,44.927z"/>
	<path fill="#5169A7" d="M36.749,55.248l-0.389,0.531l0.549-0.299C36.833,55.452,36.69,55.395,36.749,55.248z"/>
	<path fill="#5169A7" d="M0.553,31.43l0.301-0.012C0.638,31.385,0.498,31.375,0.553,31.43z"/>
	<path fill="#5169A7" d="M6.354,23.119l-0.186-0.447C5.952,22.904,6.214,22.955,6.354,23.119z"/>
	<path fill="#5169A7" d="M26.741,18.938l-0.011,0.013C26.825,18.978,26.808,18.972,26.741,18.938z"/>
	<path fill="#5169A7" d="M15.331,16.123c0.019,0,0.03,0,0.054,0C15.366,16.123,15.338,16.123,15.331,16.123z"/>
	<polygon fill="#5169A7" points="19.242,29.034 19.24,29.004 19.213,29.01 	"/>
	<path fill="#5169A7" d="M19.054,29.673c-0.203-0.562-0.055-0.612,0.159-0.663l-1.018-0.763L19.054,29.673z"/>
	<path fill="#5169A7" d="M1.422,29.786c-0.374,0.25-0.827,0.444-0.871,0.256c-0.009,0.007-0.1,0.604-0.093,0.595
		c-0.196,0.172-0.504,0.157-0.301-0.022C0.106,30.675,0.06,30.092,0,30.156l0.916-0.033H0.854c0.141,0,0.318,0.711,0.488,0.746
		c-0.121,0.148-0.698,0.697-1.18,1.01c0.017,0.225,0.199,0.648,0.758,0.792c-0.091,0.17-0.542,0.09-0.81,0.177
		c1.021,0.489,1.162,0.629,1.669,0.771c0.173,0.246,0.432,0.539,0.57,0.959c-0.007-0.146-0.038-0.474,0.004-0.786
		c0.07,0.02,0.104,0.034,0.192,0.057c-0.011-0.012,0.056,0.662,0.065,0.672c0.075-0.451,0.678-0.429,1.254-0.395
		c0.063,0.066,0.154,0.141,0.262,0.211c-0.297,0.075-0.58,0.166-0.825,0.289c-0.042-0.057-0.088-0.111-0.167-0.188l0.035,0.248
		c-0.025,0.018-0.064,0.024-0.089,0.041c0.03,0,0.065,0.026,0.1,0.032l0.024,0.164c-0.01,0.009-0.036,0.013-0.042,0.019
		c-0.01,0.016,0.029,0.018,0.048,0.025l0,0h0.001c0.051,0.021,0.163,0.024,0.335,0.026l-0.415,0.598l0.257-0.143
		c0.066,0.069,0.394,1.038,0.366,1.013c0.941-0.066,2.072-0.432,2.965,0.057c-0.546,0.196-0.651,0.564-1.103,0.989
		c0.283-0.647-0.729-0.341-0.984-0.793c0.135,0.236-0.117,0.401-0.238,0.427l1.056,0.221c-0.377,0.344-0.139,0.404-0.125,0.72
		c0.594-0.83,0.946,0.009,1.424,0.056c-0.226,0.254-0.532,0.43-0.787,0.055c-0.196,0.883,1.289-0.373,1.164,0.423
		c-0.08-0.071-0.084-0.148-0.237-0.063c0.396-0.028,0.657,0.581,0.347,0.683l-0.083-0.069c0.423,0.599,1.534,1.574,2.221,1.054
		C9.299,40.3,8.569,40.87,8.416,40.961l2.038-0.752l0.282,0.288c-0.524,0.59-1.132,1.298-1.627,1.202
		c0.045,0.197,0.106,0.432,0.547,0.513c-0.008-0.161,0.553-0.952,0.714-0.887c-0.277,0.887-0.101,0.526-0.218,1.399
		c-0.011-0.234,0.947-0.901,1.115-0.68c-0.152,0.091-0.796,0.813-0.951,0.823l1.291-0.294c-0.266,0.016-0.707,0.646-0.825,0.98
		c0.107-0.205,0.401,0.441,0.611,0.493l-0.018-0.392c0.424,0.676,1.675-0.561,2.173,0.035c-0.23,0.095-1.187,0.838-1.011,1.218
		c0.29-0.147,0.997-0.521,1.718-0.817l0.602,0.614c-0.801,0.263-1.648,0.506-2.145,0.586c0.018,0.392-0.225,0.329,0.104,0.623
		c-0.11,0.325-0.503,0.157-0.604,0.08l0.57,0.866c0.448-0.502,1.027,0.082,1.401-0.338l-1.272-0.301
		c0.448-0.507,1.815-0.886,2.234-0.287c-0.063,0.319-0.955,0.744-1.104,0.914c0.23-0.096,0.798,0.178,0.728,0.34l-0.474,0.035
		c0.1,0.465,1.099-0.16,0.975,0.635c0.087,0.15-0.271,0.966,0.035,0.707c0.217-0.44,0.9-1.215,1.535-1.84l0.391,0.401l-0.206,0.168
		l0.082,0.071l0.183-0.182l0.381,0.39c-0.365,0.446-1.192,0.596-1.376,1.063c0.138-0.121,0.407-0.175,0.504-0.18
		c0.012,0.234-0.459,0.348-0.132,0.561c0.532-0.433,0.501,0.595,0.539-0.274c0.397,0.128,0.175,0.383,0.504,0.672
		c0.146-0.272,0.693-0.515,1.165-0.612l0.327,0.334c-0.01,0.021-0.024,0.047-0.029,0.063c0.487,0.588,0.553,1.099,1.046,1.611
		c-0.074,0.16,0.024,0.545-0.291,0.646c0.159-0.01,0.392-0.106,0.557,0.041c-0.126,0.719-0.408-0.285-0.688,0.444
		c0.305-0.262,0.789,0.021,1.185,0.07c0.372-0.5-0.422-0.599-0.816-0.648c0.21-0.206,0.479-0.352,0.763-0.465l1.655,1.688
		c0.229,0.544,1.2,1.26,1.437,2.039c0.166-0.012,0.341-0.021,0.475-0.091l2.096,2.142c-0.063,0.045-0.13,0.067-0.185,0.137
		l0.426,0.109l0.027,0.03c-0.091,0.069-0.287,0.096-0.277,0.243c0.109-0.096,0.248-0.133,0.383-0.137l0.411,0.416
		c-0.001,0.022,0.013,0.032,0.009,0.055c0.011,0.002,0.021-0.012,0.031-0.012l0.398,0.406c0.003,0.024-0.023,0.021-0.011,0.051
		c0.047-0.006,0.07,0.02,0.098,0.041L29.838,60l8.271-5.811l-0.656-0.612c0.154-0.406,0.313-0.836,0.628-1.14
		c-0.896,0.332,0.026-1.692-1.319-1.281c0.021-0.252,0.308-0.141,0.399-0.359c-0.413,0.184-0.631,0.098-0.799-0.311l0.104-0.045
		c-0.896-0.692-0.973-1.32-1.714-2.383l-0.256,0.416c-0.153-0.233-0.096-0.381-0.108-0.554c-0.719,0.313,0.532,0.552-0.217,0.938
		c0.396-0.955-1.396-1.317-0.824-2.289c-0.303-0.288-0.285,0.486-0.586,0.197l0.119-0.293l-0.338,0.207
		c-0.159-0.231-0.005-0.598,0.159-0.789c0.027,0.065,0.186,0.075,0.252,0.108c-0.021-0.496-0.814-0.593-0.827-0.763l0.17,0.41
		c-1.025-0.572-1.781-1.811-3-2.117l-0.091,0.223c-0.901-0.271-0.327-0.641-1.137-1.132l0.063-0.017
		c-0.29,0.041-0.547-0.045-0.713-0.233c0.35-0.039,0.023-0.674,0.447-0.681c-0.974-0.297-0.568-0.053-1.579,0.149l0.15-0.368
		c-0.381,0.105-0.514,0.226-0.916-0.021c0.493,0.024,0.17-0.615,0.767-0.636c-0.153-1.256-1.612-0.377-1.126-1.553
		c-1.028,0.45,0.224,0.987-0.108,0.982c-0.077,0.389-0.795,0.313-0.946,0.029c-0.212-0.229,0.514-1.322-0.071-1.838
		c0.055,0.056,0.109,0,0.165,0.058c-0.035-0.392-0.66-0.128-0.633-0.685c-0.569,0.317-0.314-0.346-0.898,0.2l0.648,0.354
		c-0.438-0.126-1.351,0.3-1.531-0.488c0.146-0.082,0.438-0.102,0.616-0.096c0.019-0.305-0.381-0.139-0.364-0.453
		c0.584-0.546,0.754,0.465,1.483,0.314c0.076-0.391-0.995-0.137-0.246-0.621c-0.977,0.59-0.469-0.623-1.424-0.367l0.351-0.327
		c-0.112-0.001-0.393,0.046-0.497-0.069L22.33,36c-0.67,0.096-0.289-0.898-0.784-0.971c0.639,0.574-0.25,0.553-0.222,1.057
		c-1.209-0.252,0.402-1.326-0.619-1.967c0.164,0.061,0.246,0.617-0.088,0.609c-0.099-0.226-0.192-0.562-0.122-0.84
		c-0.644-0.461-0.247,0.441-0.689,0.432c0.199-0.608-0.444-0.092-0.822-0.188l0.329-0.358c-0.443-0.836-0.861,0.578-1.195-0.244
		l0.706-0.26l-0.426-0.158l0.439-0.346c-0.613-0.012-0.646-0.187-0.868-0.604c-0.155,0.32-0.641,0.604-0.941,0.345
		c-0.001-0.396,0.425-0.233-0.033-0.565c0.299-0.133,0.66-0.318,0.534,0.177c0.126-0.103,0.3-0.14,0.424-0.236
		c0.014-0.44-0.482-0.553-0.636-0.688c0.045,0.065,0.097,0.149,0.084,0.236l-1.054-0.064c0.03-0.219,0.205-0.258,0.377-0.295
		c-0.146-0.069-0.354-0.016-0.548-0.109c0.164-0.229,0.526-0.314,0.604-0.082l-0.072,0.082c0.6-0.42,1.574-1.534,1.057-2.222
		c0.08,0.075,0.65,0.803,0.741,0.957l-0.752-2.036l0.288-0.283c0.588,0.526,1.297,1.13,1.2,1.628
		c0.197-0.045,0.433-0.109,0.513-0.549c-0.157,0.012-0.951-0.55-0.885-0.71c0.885,0.274,0.523,0.096,1.398,0.213
		c-0.238,0.011-0.9-0.946-0.679-1.114c0.091,0.152,0.812,0.794,0.824,0.952l-0.296-1.291c0.018,0.268,0.646,0.704,0.98,0.823
		c-0.205-0.108,0.442-0.402,0.495-0.61L21.2,26.733c0.677-0.421-0.562-1.672,0.033-2.173c0.098,0.233,0.841,1.187,1.221,1.014
		c-0.146-0.289-0.521-0.999-0.818-1.718l0.611-0.603c0.263,0.802,0.508,1.65,0.588,2.144c0.393-0.016,0.331,0.226,0.623-0.104
		c0.327,0.112,0.157,0.502,0.08,0.607l0.868-0.572c-0.508-0.45,0.081-1.027-0.34-1.405l-0.302,1.275
		c-0.503-0.447-0.885-1.817-0.286-2.237c0.321,0.064,0.745,0.955,0.913,1.104c-0.099-0.229,0.178-0.797,0.343-0.725l0.031,0.474
		c0.465-0.102-0.157-1.099,0.642-0.979c0.146-0.086,0.962,0.273,0.702-0.031c-0.44-0.217-1.216-0.901-1.839-1.534l0.4-0.39
		l0.168,0.204l0.073-0.082l-0.185-0.182l0.392-0.382c0.446,0.365,0.595,1.195,1.062,1.377c-0.12-0.14-0.173-0.408-0.179-0.504
		c0.235-0.011,0.349,0.458,0.563,0.135c-0.435-0.535,0.591-0.502-0.276-0.541c0.13-0.4,0.382-0.177,0.672-0.502
		c-0.272-0.15-0.512-0.694-0.612-1.168l0.333-0.325c0.02,0.007,0.045,0.022,0.062,0.027c0.59-0.488,1.099-0.553,1.61-1.048
		c0.165,0.075,0.55-0.021,0.651,0.289c-0.013-0.157-0.108-0.391,0.038-0.555c0.717,0.128-0.287,0.411,0.443,0.689
		c-0.259-0.303,0.021-0.786,0.068-1.185c-0.499-0.371-0.597,0.42-0.646,0.818c-0.208-0.211-0.354-0.479-0.468-0.763l1.688-1.656
		c0.546-0.231,1.26-1.198,2.04-1.437c-0.011-0.166-0.024-0.339-0.091-0.472l2.145-2.1c0.042,0.062,0.063,0.131,0.135,0.184
		l0.108-0.422l0.028-0.029c0.07,0.089,0.1,0.287,0.243,0.278c-0.093-0.11-0.131-0.249-0.137-0.385l0.419-0.409
		c0.021,0,0.029-0.011,0.052-0.011c0.005-0.007-0.01-0.021-0.01-0.03l0.407-0.396c0.022-0.006,0.02,0.021,0.049,0.01
		c-0.005-0.049,0.021-0.071,0.04-0.101l1.984-1.944L31.736,0l-0.611,0.658c-0.408-0.155-0.837-0.313-1.139-0.628
		c0.333,0.896-1.695-0.026-1.284,1.32c-0.251-0.022-0.138-0.311-0.355-0.402c0.179,0.413,0.095,0.632-0.313,0.798L27.99,1.644
		c-0.695,0.893-1.321,0.97-2.382,1.713l0.412,0.254c-0.231,0.155-0.379,0.096-0.555,0.11c0.317,0.719,0.552-0.532,0.938,0.217
		c-0.954-0.396-1.315,1.396-2.286,0.822c-0.289,0.306,0.485,0.29,0.196,0.589l-0.294-0.12l0.21,0.339
		c-0.233,0.156-0.602,0.006-0.793-0.161c0.066-0.025,0.079-0.187,0.11-0.25c-0.5,0.021-0.595,0.812-0.763,0.826l0.407-0.168
		c-0.571,1.024-1.808,1.779-2.114,2.998L21.3,8.904c-0.271,0.901-0.641,0.325-1.129,1.134l-0.017-0.06
		c0.037,0.289-0.049,0.546-0.238,0.712c-0.033-0.348-0.674-0.024-0.678-0.446c-0.298,0.97-0.053,0.569,0.148,1.58l-0.367-0.152
		c0.106,0.38,0.227,0.513-0.02,0.917c0.023-0.495-0.616-0.172-0.638-0.77c-1.256,0.153-0.378,1.614-1.552,1.128
		c0.451,1.028,0.99-0.226,0.981,0.108c0.39,0.077,0.313,0.794,0.031,0.946c-0.229,0.212-1.324-0.511-1.841,0.072
		c0.057-0.053,0.003-0.112,0.061-0.165c-0.394,0.033-0.13,0.663-0.688,0.63c0.32,0.572-0.341,0.316,0.201,0.901l0.353-0.649
		c-0.122,0.438,0.3,1.353-0.486,1.534c-0.08-0.15-0.098-0.439-0.094-0.621c-0.306-0.016-0.142,0.383-0.455,0.367
		c-0.544-0.586,0.464-0.754,0.313-1.483c-0.388-0.075-0.136,0.994-0.619,0.245c0.589,0.979-0.622,0.471-0.37,1.426l-0.325-0.35
		c0,0.111,0.046,0.39-0.066,0.496l-0.264-0.626c0.095,0.672-0.897,0.289-0.968,0.787c0.573-0.642,0.551,0.249,1.054,0.219
		c-0.252,1.209-1.326-0.4-1.967,0.619c0.062-0.162,0.619-0.245,0.611,0.09c-0.228,0.098-0.563,0.188-0.84,0.122
		c-0.462,0.642,0.441,0.243,0.427,0.689c-0.604-0.199-0.087,0.44-0.185,0.82l-0.357-0.325c-0.836,0.44,0.577,0.86-0.244,1.192
		l-0.263-0.706l-0.158,0.425l-0.343-0.439c-0.014,0.612-0.187,0.646-0.604,0.87c0.321,0.155,0.604,0.642,0.347,0.94
		c-0.396,0-0.234-0.425-0.566,0.032c-0.135-0.3-0.317-0.658,0.174-0.534c-0.097-0.124-0.139-0.299-0.232-0.423
		c-0.441-0.011-0.555,0.484-0.689,0.637c0.066-0.046,0.15-0.097,0.232-0.086L8.91,21.76c-0.224-0.029-0.261-0.202-0.296-0.374
		c-0.073,0.155,0.013,0.39-0.124,0.599c-0.245-0.315-0.554-0.583-0.455-0.957l-0.208,0.864c-0.159-0.077-0.614-0.03-0.652-0.201
		c-0.462,0.155-0.159,1.291-0.771,1.502c0.035,0.072,0.051,0.167,0.009,0.294c-0.088,0.066-0.192,0.119-0.294,0.172
		c-0.233-0.224-0.304-0.075-0.383,0.208c-0.248,0.15-0.446,0.362-0.469,0.803L5.04,24.606l0.19-0.385
		c-0.498-0.36-0.773,0.042-1.285,0.365c-0.034-0.035-0.042-0.052-0.114-0.113c-0.077,0.058-0.123,0.162-0.172,0.261
		c-0.054,0.022-0.092,0.056-0.15,0.075c0.026,0,0.066-0.006,0.105-0.006c-0.019,0.026-0.028,0.06-0.054,0.081
		c0.024-0.055,0.073-0.064,0.119-0.086c0.482-0.029,1.495-0.054,1.196,0.791c-0.021,0.009-0.04,0.04-0.063,0.049
		c-0.188-0.1-0.39-0.394-0.565-0.383c0.063,0.206,0.07,0.606-0.075,0.984c-0.189-0.022-0.354,0.29-0.575,0.6L3.49,26.712
		c0.093-0.097,0.191-0.184,0.265-0.303l-0.396,0.146l-0.182-0.219c-0.051,0.123-0.07,0.219-0.084,0.317l-0.148,0.052
		c0.015-0.436,0.155-0.755,0.229-0.965l0.042,0.089c0.172,0.058,0.266-0.04,0.457-0.236l-0.471,0.068
		c0.056-0.197-0.012-0.25-0.49-0.135c0.508,0.457,0.053,0.997-0.405,1.543c-0.455,0.54-0.913,1.085-0.188,1.305l-0.628,0.25
		c0.104-0.091,0.027-0.127,0.133-0.218C0.241,28.935,2.326,29.101,1.422,29.786z M3.365,34.861c0.006-0.016-0.004-0.03-0.004-0.047
		c0.024,0.012,0.048,0.008,0.069,0.021C3.4,34.842,3.394,34.855,3.365,34.861z M4.384,34.514l-0.168,0.139
		c0.018-0.072,0.042-0.142,0.063-0.211C4.313,34.466,4.345,34.486,4.384,34.514z M4.149,35.102c0.137,0.08,0.195,0.166,0.21,0.357
		C4.176,35.501,4.159,35.373,4.149,35.102z M4.865,24.96l0.04-0.081c0.021,0.011,0.031,0.026,0.053,0.037
		C4.923,24.927,4.901,24.949,4.865,24.96z M5.073,25.002c0.104,0.102,0.168,0.236,0.049,0.486c-0.019,0.044-0.039,0.033-0.058,0.06
		c-0.052,0.011-0.108,0.016-0.173,0.036C4.93,25.44,4.985,25.163,5.073,25.002z"/>
	<polygon fill="#5169A7" points="6.389,23.203 6.405,23.194 6.354,23.119 	"/>
	<path fill="#5169A7" d="M26.513,21.843c-0.13,0.026-0.236,0.011-0.331-0.026C26.261,21.907,26.367,21.938,26.513,21.843z"/>
	<polygon fill="#5169A7" points="33.396,12.54 33.238,12.545 33.013,12.715 	"/>
	<path fill="#5169A7" d="M30.848,16.44l-0.026-0.313c-0.155,0.005-0.239-0.07-0.401-0.143L30.848,16.44z"/>
	<path fill="#5169A7" d="M30.026,17.108c0.093,0.152-0.1,0.795,0.266,0.382C30.202,17.338,30.41,16.934,30.026,17.108z"/>
	<path fill="#5169A7" d="M22.153,26.044c-0.04,0.401-0.256,0.41,0.314,0.791c0.535-0.18-0.354-0.533,0.189-0.64
		C22.573,25.938,22.213,26.28,22.153,26.044z"/>
	<path fill="#5169A7" d="M33.027,1.2c-0.027,0.075-0.084,0.219-0.23,0.161l0.528,0.385L33.027,1.2z"/>
	<polygon fill="#5169A7" points="0.192,29.492 0.08,29.589 1,29.466 	"/>
</g>
</svg>
