<?xml version="1.0" encoding="utf-8"?>
<!-- Generator: Adobe Illustrator 21.1.0, SVG Export Plug-In . SVG Version: 6.00 Build 0)  -->
<svg version="1.1" id="圖層_1" xmlns="http://www.w3.org/2000/svg" xmlns:xlink="http://www.w3.org/1999/xlink" x="0px" y="0px"
	 viewBox="0 0 51.5485611 51.5488014" style="enable-background:new 0 0 51.5485611 51.5488014;" xml:space="preserve">
<style type="text/css">
	.st0{fill:#FFFFFF;}
</style>
<path class="st0" d="M25.774292-0.0000267c-14.2348022,0-25.774353,11.5396118-25.774353,25.774353
	c0,14.2348022,11.5395508,25.774353,25.774353,25.774353c14.2347412,0,25.774353-11.5395508,25.774353-25.774353
	C51.548645,11.5395851,40.0090332-0.0000267,25.774292-0.0000267z M32.5155029,25.7804909c-1.4700317,0-2.8991699,0-4.4119263,0
	c0,5.2615967,0,10.4829712,0,15.7359619c-2.2172241,0-4.3505859,0-6.5439453,0c0-5.2226562,0-10.4328003,0-15.7056274
	c-1.0599976,0-2.0628662,0-3.100708,0c0-1.8684692,0-3.6743164,0-5.559082c1.0028687,0,2.0037231,0,3.0755005,0
	c0-1.0264282-0.0259399-1.9766235,0.0078735-2.9247437c0.0292358-0.8183594,0.0493164-1.6495972,0.2075195-2.4485474
	c0.5497437-2.7756958,2.5090942-4.5904541,5.3286133-4.7807007c1.9385986-0.1307983,3.8931885-0.0250854,5.8817139-0.0250854
	c0,1.7687378,0,3.5344238,0,5.3719482c-1.0547485,0-2.1000366-0.0009155-3.1453247,0.0002441
	c-1.2834473,0.0014038-1.7175903,0.4304199-1.7252808,1.7174072c-0.0058594,0.9918823-0.0011597,1.9838867-0.0011597,3.0575562
	c1.6733398,0,3.3046875,0,5.0012207,0C32.8934326,22.1199684,32.7063599,23.9319191,32.5155029,25.7804909z"/>
</svg>
