<?xml version="1.0" encoding="utf-8"?>
<!-- Generator: Adobe Illustrator 16.0.0, SVG Export Plug-In . SVG Version: 6.00 Build 0)  -->
<!DOCTYPE svg PUBLIC "-//W3C//DTD SVG 1.1//EN" "http://www.w3.org/Graphics/SVG/1.1/DTD/svg11.dtd">
<svg version="1.1" id="圖層_1" xmlns="http://www.w3.org/2000/svg" xmlns:xlink="http://www.w3.org/1999/xlink" x="0px" y="0px"
	 width="105.714px" height="70.54px" viewBox="-275.359 -147.397 105.714 70.54"
	 enable-background="new -275.359 -147.397 105.714 70.54" xml:space="preserve">
<g>
	<g>
		<path fill-rule="evenodd" clip-rule="evenodd" fill="#C66742" d="M-213.576-78.385c-0.779,0-1.967-0.106-3.975-0.474
			c-7.182-1.313-12.426-7.018-15.665-11.845c-25.203-0.682-40.494-3.151-40.713-28.899c-0.14-16.514,12.548-25.039,38.791-26.074
			c5.003-0.198,9.703-0.294,13.968-0.294c36.365,0,49.943,6.979,50.096,25.747c0.074,8.807-2.089,15.321-6.613,19.912
			c-6.561,6.659-17.941,9.529-39.085,9.801c0.718,3.446,2.679,5.932,4.034,7.649c1.085,1.375,1.869,2.318,1.315,3.46
			c-0.515,1.062-1.737,1.017-2.146,1.017C-213.573-78.385-213.575-78.385-213.576-78.385z"/>
		<path fill="#FFFFFF" d="M-221.171-144.54c38.558,0,48.534,8.035,48.667,24.329c0.194,23.082-15.205,28.089-45.919,28.288
			c0.723,8.287,8.296,12.209,4.847,12.209c-0.714,0-1.901-0.168-3.718-0.5c-6.904-1.263-11.969-6.969-15.139-11.874
			c-25.891-0.661-39.858-2.967-40.067-27.515c-0.146-17.155,14.162-23.723,37.418-24.641
			C-230.077-144.441-225.449-144.54-221.171-144.54 M-221.171-147.397c-4.284,0-9.002,0.1-14.024,0.298
			c-12.847,0.507-22.283,2.679-28.848,6.64c-7.586,4.578-11.393,11.603-11.314,20.88c0.108,12.774,3.883,20.779,11.879,25.192
			c7.34,4.051,18.086,4.792,29.493,5.115c4.642,6.685,10.211,10.777,16.177,11.868c2.125,0.389,3.352,0.547,4.232,0.547
			c2.091,0,3.023-1.018,3.437-1.872c0.944-1.947-0.288-3.509-1.479-5.019c-1.025-1.299-2.423-3.071-3.267-5.362
			c15.325-0.289,30.141-2.005,38.214-10.199c4.803-4.875,7.101-11.721,7.023-20.927
			C-169.809-140.035-183.773-147.397-221.171-147.397L-221.171-147.397z"/>
	</g>
	<g>
		<path fill="#FFFFFF" d="M-246.803-122.466c-0.32,0.66-0.7,1.36-1.101,2.021v11.442h-2.16v-8.322c-0.38,0.48-0.78,0.92-1.16,1.32
			c-0.22-0.5-0.88-1.68-1.26-2.16c1.399-1.34,2.86-3.381,3.761-5.341l1.92,0.68v-3.621h1.58v2.84h0.9v-4.061h1.721v4.061h0.92v-2.84
			h1.681v4.641h-6.802V-122.466z M-246.903-126.906c-1.08,1.741-2.741,3.621-4.261,4.841c-0.261-0.5-0.801-1.4-1.181-1.82
			c1.24-0.98,2.641-2.561,3.301-3.801L-246.903-126.906z M-234.041-121.745c-0.34,3.021-0.88,5.562-1.82,7.682
			c0.7,1.32,1.62,2.4,2.78,3.101c-0.479,0.42-1.18,1.28-1.5,1.88c-1-0.72-1.82-1.68-2.461-2.82c-0.819,1.18-1.82,2.2-3.04,3.041
			c-0.28-0.4-1.08-1.2-1.521-1.561c0.22-0.14,0.44-0.26,0.641-0.42c-2.001,0.3-4.021,0.58-5.602,0.8l-0.48-1.86
			c0.74-0.06,1.641-0.16,2.621-0.26v-1.44h-2.761v-1.72h2.761v-1c-0.74,0.06-1.461,0.12-2.121,0.16c-0.06-0.44-0.3-1.1-0.5-1.52
			c2.021-0.16,4.401-0.48,5.842-0.9l1.16,1.521c-0.721,0.2-1.54,0.36-2.4,0.48v1.26h2.78v1.72h-2.78v1.241l2.36-0.26l0.06,1.04
			c0.801-0.72,1.44-1.58,1.98-2.561c-0.46-1.26-0.8-2.681-1.08-4.181c-0.16,0.28-0.32,0.54-0.5,0.78
			c-0.18-0.34-0.641-0.94-1.021-1.42h-6.381v-1.92h6.761c0.82-1.86,1.301-4.301,1.581-6.782l2.16,0.34
			c-0.16,1.22-0.38,2.42-0.64,3.581h3.721v2H-234.041z M-237.702-121.745c-0.039,0.18-0.1,0.36-0.159,0.52
			c0.199,1.561,0.5,3.041,0.899,4.401c0.421-1.46,0.7-3.101,0.881-4.921H-237.702z"/>
		<path fill="#FFFFFF" d="M-224.623-126.886c-0.54,1.42-1.2,2.881-1.961,4.261v13.603h-2.261v-10.062c-0.399,0.5-0.8,1-1.2,1.44
			c-0.22-0.6-0.88-1.88-1.28-2.48c1.761-1.801,3.461-4.641,4.441-7.482L-224.623-126.886z M-212.5-115.724h-5.121v6.721h-2.4v-6.721
			h-5.401v-2.321h5.401v-3.44h-2.44c-0.36,0.98-0.8,1.88-1.24,2.581c-0.44-0.32-1.48-0.88-2.061-1.14
			c1.08-1.561,1.9-4.101,2.36-6.542l2.301,0.48c-0.16,0.78-0.36,1.541-0.58,2.3h1.66v-3.621h2.4v3.621h4.181v2.321h-4.181v3.44
			h5.121V-115.724z"/>
		<path fill="#FFFFFF" d="M-192.52-124.226v9.982h-2.501v-1h-4.521v6.241h-2.521v-6.241h-4.501v1.1h-2.4v-10.082h6.901v-3.461h2.521
			v3.461H-192.52z M-202.063-117.584v-4.301h-4.501v4.301H-202.063z M-195.021-117.584v-4.301h-4.521v4.301H-195.021z"/>
	</g>
</g>
</svg>
